G04*
G04 #@! TF.GenerationSoftware,Altium Limited,Altium Designer,24.2.2 (26)*
G04*
G04 Layer_Physical_Order=1*
G04 Layer_Color=255*
%FSLAX44Y44*%
%MOMM*%
G71*
G04*
G04 #@! TF.SameCoordinates,4540F394-007A-4255-9B34-8FA5F3C486F6*
G04*
G04*
G04 #@! TF.FilePolarity,Positive*
G04*
G01*
G75*
%ADD13C,0.2000*%
%ADD17C,0.3000*%
%ADD20R,0.9000X1.0000*%
G04:AMPARAMS|DCode=21|XSize=1.6mm|YSize=1.6mm|CornerRadius=0.4mm|HoleSize=0mm|Usage=FLASHONLY|Rotation=0.000|XOffset=0mm|YOffset=0mm|HoleType=Round|Shape=RoundedRectangle|*
%AMROUNDEDRECTD21*
21,1,1.6000,0.8000,0,0,0.0*
21,1,0.8000,1.6000,0,0,0.0*
1,1,0.8000,0.4000,-0.4000*
1,1,0.8000,-0.4000,-0.4000*
1,1,0.8000,-0.4000,0.4000*
1,1,0.8000,0.4000,0.4000*
%
%ADD21ROUNDEDRECTD21*%
%ADD22R,1.2000X1.2000*%
%ADD23O,2.2000X1.6000*%
%ADD24R,0.4000X1.3500*%
%ADD25R,1.9000X1.9000*%
%ADD26O,1.6000X2.2000*%
%ADD27R,1.0000X0.9000*%
G04:AMPARAMS|DCode=28|XSize=1.6mm|YSize=2.4mm|CornerRadius=0.4mm|HoleSize=0mm|Usage=FLASHONLY|Rotation=270.000|XOffset=0mm|YOffset=0mm|HoleType=Round|Shape=RoundedRectangle|*
%AMROUNDEDRECTD28*
21,1,1.6000,1.6000,0,0,270.0*
21,1,0.8000,2.4000,0,0,270.0*
1,1,0.8000,-0.8000,-0.4000*
1,1,0.8000,-0.8000,0.4000*
1,1,0.8000,0.8000,0.4000*
1,1,0.8000,0.8000,-0.4000*
%
%ADD28ROUNDEDRECTD28*%
%ADD29O,0.3000X1.8000*%
%ADD30O,1.8000X0.3000*%
%ADD31R,2.0000X1.2000*%
%ADD32R,1.2000X1.2000*%
%ADD33R,1.9000X1.5000*%
%ADD34R,1.5000X1.9000*%
%ADD35R,1.8000X1.3000*%
%ADD36R,1.2000X2.0000*%
%ADD37R,1.0000X2.7000*%
%ADD38R,3.3000X2.7000*%
%ADD39R,0.6000X1.8000*%
%ADD40R,0.3000X1.8000*%
%ADD41O,2.5000X0.7000*%
%ADD42R,1.5000X4.5000*%
%ADD46O,2.4000X1.8000*%
%ADD75C,0.5000*%
%ADD76C,0.4000*%
%ADD77R,2.0000X2.0000*%
%ADD78C,2.0000*%
%ADD79C,3.2004*%
%ADD80O,3.0000X1.5000*%
%AMCUSTOMSHAPE81*
4,1,8,-1.0000,-1.5250,-0.5000,-2.0250,0.5000,-2.0250,1.0000,-1.5250,1.0000,1.5250,0.5000,2.0250,-0.5000,2.0250,-1.0000,1.5250,-1.0000,-1.5250,0.0*%
%ADD81CUSTOMSHAPE81*%

%AMCUSTOMSHAPE82*
4,1,8,-1.5250,1.0000,-2.0250,0.5000,-2.0250,-0.5000,-1.5250,-1.0000,1.5250,-1.0000,2.0250,-0.5000,2.0250,0.5000,1.5250,1.0000,-1.5250,1.0000,0.0*%
%ADD82CUSTOMSHAPE82*%

%ADD83R,2.4000X1.8000*%
%ADD84O,0.9000X1.7000*%
%ADD85O,0.9000X2.0000*%
%ADD86C,0.6000*%
%ADD87C,0.8000*%
%ADD88C,0.7000*%
%ADD89C,1.0000*%
G36*
X532371Y303119D02*
X529139Y300436D01*
X525505Y300953D01*
X523902Y303042D01*
X521813Y304645D01*
X519380Y305653D01*
X516770Y305996D01*
X501770D01*
X499160Y305653D01*
X496727Y304645D01*
X494638Y303042D01*
X493035Y300953D01*
X492027Y298521D01*
X491684Y295910D01*
X492027Y293300D01*
X493035Y290867D01*
X494638Y288778D01*
X496727Y287175D01*
X499160Y286167D01*
X501770Y285824D01*
X516770D01*
X519380Y286167D01*
X521813Y287175D01*
X522021Y287335D01*
X526021Y285362D01*
Y281058D01*
X522021Y279085D01*
X521813Y279245D01*
X519380Y280253D01*
X516770Y280596D01*
X501770D01*
X499160Y280253D01*
X496727Y279245D01*
X494638Y277642D01*
X493035Y275553D01*
X492424Y274079D01*
X475491D01*
X472198Y276762D01*
Y397560D01*
X477130D01*
Y414560D01*
X460769D01*
Y418560D01*
X477130D01*
Y435560D01*
X473985D01*
X473950Y435647D01*
X473849Y436021D01*
X473760Y436552D01*
X473728Y436920D01*
Y439770D01*
X473760Y440139D01*
X473849Y440668D01*
X473950Y441043D01*
X473985Y441130D01*
X477130D01*
X477130Y457251D01*
X478630Y460630D01*
X478630Y461509D01*
Y468630D01*
X478473D01*
X477789Y468570D01*
X477034Y468445D01*
X476380Y468270D01*
X475827Y468045D01*
X475374Y467770D01*
X475022Y467445D01*
X474770Y467070D01*
X474619Y466645D01*
X474569Y466170D01*
Y468630D01*
X468630D01*
Y470630D01*
X466630D01*
Y476569D01*
X463630D01*
X464105Y476619D01*
X464530Y476770D01*
X464905Y477022D01*
X465230Y477374D01*
X465505Y477827D01*
X465730Y478380D01*
X465905Y479034D01*
X466030Y479789D01*
X466104Y480630D01*
X460445D01*
X456810Y481510D01*
X455272Y481510D01*
X451272Y482181D01*
Y483481D01*
X450884Y485432D01*
X449779Y487086D01*
X446850Y490015D01*
X445196Y491120D01*
X443246Y491508D01*
X412768D01*
Y496330D01*
X413140Y500176D01*
X415313Y500176D01*
X430140D01*
X430140Y516297D01*
X431640Y519676D01*
X431640Y520555D01*
Y527150D01*
X430798Y527076D01*
X430044Y526951D01*
X429390Y526776D01*
X428837Y526551D01*
X428384Y526276D01*
X428032Y525951D01*
X427780Y525576D01*
X427629Y525151D01*
X427579Y524676D01*
Y527676D01*
X421640D01*
X411640D01*
Y524516D01*
X407640Y522860D01*
X401115Y529385D01*
X399461Y530490D01*
X397510Y530878D01*
X382920D01*
X381650Y532761D01*
X381346Y533622D01*
X381212Y534895D01*
X381641Y535454D01*
X382246Y536914D01*
X382452Y538480D01*
X382246Y540046D01*
X381641Y541506D01*
X381024Y542310D01*
X380679Y543092D01*
Y546567D01*
X381024Y547350D01*
X381641Y548154D01*
X382246Y549614D01*
X382452Y551180D01*
X382246Y552746D01*
X381641Y554206D01*
X381257Y554707D01*
X381913Y557289D01*
X382920Y558782D01*
X397510D01*
X399461Y559170D01*
X401115Y560275D01*
X406566Y565726D01*
X409243D01*
X411198Y564460D01*
X412447Y562400D01*
X412486Y561951D01*
X412471Y561695D01*
X411640Y559824D01*
X411640Y558945D01*
Y551824D01*
X431640D01*
Y558945D01*
X431640Y559824D01*
X430809Y561695D01*
X430794Y561951D01*
X430833Y562400D01*
X432082Y564460D01*
X434037Y565726D01*
X447110D01*
X447478Y565694D01*
X448008Y565605D01*
X448383Y565504D01*
X448470Y565469D01*
Y528810D01*
X468470D01*
Y578810D01*
X448470D01*
Y576179D01*
X448383Y576144D01*
X448008Y576043D01*
X447478Y575955D01*
X447110Y575922D01*
X431492D01*
X431119Y575955D01*
X430583Y576043D01*
X430203Y576145D01*
X430140Y576171D01*
Y579324D01*
X426352D01*
X425098Y582517D01*
X425045Y583324D01*
X427785Y586064D01*
X428890Y587718D01*
X429278Y589669D01*
Y611768D01*
X429311Y612141D01*
X429399Y612677D01*
X429501Y613057D01*
X429527Y613120D01*
X432680D01*
Y616273D01*
X432743Y616299D01*
X433123Y616401D01*
X433659Y616489D01*
X434031Y616522D01*
X440970D01*
X442921Y616910D01*
X443702Y617432D01*
X447110D01*
X447478Y617400D01*
X448008Y617311D01*
X448383Y617210D01*
X448470Y617175D01*
Y613810D01*
X468470D01*
Y663810D01*
X448470D01*
Y627885D01*
X448383Y627850D01*
X448008Y627749D01*
X447478Y627660D01*
X447110Y627628D01*
X441880D01*
X439929Y627240D01*
X439148Y626718D01*
X436577D01*
X434622Y627984D01*
X433373Y630044D01*
X433334Y630493D01*
X433349Y630749D01*
X434115Y632475D01*
X434081Y632460D01*
X414251D01*
X415680Y629241D01*
X415680Y628620D01*
Y613120D01*
X418833D01*
X418859Y613057D01*
X418961Y612677D01*
X419049Y612141D01*
X419082Y611768D01*
Y591838D01*
X402590D01*
X400639Y591450D01*
X398985Y590345D01*
X390318Y581678D01*
X381636D01*
X380692Y581710D01*
X379708Y581802D01*
X379430Y581845D01*
X379293Y581876D01*
X379204Y581913D01*
X379125Y581966D01*
X379032Y581984D01*
X377966Y582426D01*
X376400Y582632D01*
X365508D01*
X364744Y583837D01*
X364077Y586632D01*
X364611Y587166D01*
X365467Y588648D01*
X365910Y590302D01*
Y590706D01*
X365951Y590857D01*
X365969Y591121D01*
X365992Y591277D01*
X366025Y591424D01*
X366069Y591564D01*
X366125Y591702D01*
X366194Y591841D01*
X366280Y591984D01*
X366380Y592126D01*
X369714Y595460D01*
X369714Y595460D01*
X370598Y596783D01*
X370869Y598148D01*
X372830Y601336D01*
X379330D01*
Y599836D01*
X384330D01*
Y603250D01*
X383540D01*
Y622300D01*
X389890D01*
Y622300D01*
X390386Y622349D01*
X391301Y622728D01*
X392002Y623429D01*
X392381Y624344D01*
X392430Y624840D01*
Y636042D01*
X391518Y635342D01*
X391050Y634733D01*
X387962Y633798D01*
X386007Y634005D01*
X385546Y634271D01*
X384020Y634680D01*
X382440D01*
X379739Y638027D01*
X379739Y650240D01*
X379739Y650997D01*
X379739Y650998D01*
X379739Y650998D01*
X379629Y651552D01*
X379545Y651973D01*
X379545Y651973D01*
X379545Y651973D01*
X378965Y653374D01*
X378965Y653374D01*
X378413Y654201D01*
X378412Y654201D01*
X378412Y654201D01*
X377340Y655273D01*
X377340Y655273D01*
X377340Y655273D01*
X376816Y655623D01*
X376513Y655825D01*
X376513Y655825D01*
X376513Y655825D01*
X375113Y656405D01*
X375113Y656405D01*
X375112Y656405D01*
X374743Y656478D01*
X374182Y656590D01*
X259035D01*
X258105Y656405D01*
X257278Y655852D01*
X256725Y655025D01*
X256531Y654050D01*
Y637540D01*
X256725Y636565D01*
X257240Y635794D01*
Y632880D01*
X281240D01*
Y634991D01*
X299916D01*
X300957Y633730D01*
X314960Y633730D01*
X315465D01*
X316399Y633343D01*
X317113Y632629D01*
X317500Y631695D01*
Y631190D01*
Y624840D01*
Y624840D01*
X317549Y624344D01*
X317928Y623429D01*
X318629Y622728D01*
X319544Y622349D01*
X320040Y622300D01*
X325120D01*
Y603249D01*
Y603249D01*
X325193Y602506D01*
X325762Y601133D01*
X326813Y600081D01*
X328187Y599513D01*
X328930Y599440D01*
X336550Y599440D01*
X336550Y599440D01*
X337561Y599440D01*
X339428Y598667D01*
X340857Y597238D01*
X341630Y595371D01*
X341630Y594360D01*
X341630Y540601D01*
X341752Y539987D01*
X342636Y538663D01*
X345704Y535596D01*
X345704Y535596D01*
X347027Y534712D01*
X348587Y534402D01*
X353264D01*
X353514Y534387D01*
X353720Y534155D01*
X354121Y533166D01*
Y530392D01*
X353776Y529610D01*
X353159Y528806D01*
X352554Y527346D01*
X352348Y525780D01*
X352554Y524214D01*
X353159Y522754D01*
X353776Y521950D01*
X354121Y521167D01*
Y517692D01*
X353776Y516911D01*
X353159Y516106D01*
X352554Y514646D01*
X352348Y513080D01*
X352554Y511514D01*
X353159Y510054D01*
X353776Y509249D01*
X354121Y508467D01*
Y504992D01*
X353776Y504211D01*
X353159Y503406D01*
X352554Y501946D01*
X352348Y500380D01*
X352554Y498814D01*
X353159Y497354D01*
X353051Y493029D01*
X351870Y491490D01*
X382270D01*
X382270Y491490D01*
X382775Y491490D01*
X383709Y491104D01*
X384424Y490389D01*
X384810Y489455D01*
X384810Y488950D01*
X384810Y485140D01*
X384810Y485140D01*
X384810Y484635D01*
X384423Y483701D01*
X383709Y482987D01*
X382775Y482600D01*
X382270Y482600D01*
X381031Y482478D01*
X378742Y481530D01*
X376990Y479778D01*
X376848Y479436D01*
X378850Y476403D01*
Y464510D01*
X389330D01*
X393313Y460543D01*
X393313Y460510D01*
X378850D01*
Y443510D01*
X382252D01*
Y434060D01*
X378850D01*
Y417939D01*
X377350Y414560D01*
X377350Y414560D01*
X377350Y414560D01*
Y410513D01*
X377964Y410259D01*
X378460Y410210D01*
X392430D01*
Y398780D01*
X351790Y398780D01*
X351790Y398780D01*
X351032D01*
X351011Y398789D01*
X306195D01*
X305705Y398837D01*
X304691Y399257D01*
X304007Y399941D01*
X303587Y400955D01*
X303539Y401445D01*
Y407545D01*
X303563Y407787D01*
X303793Y408343D01*
X304127Y408677D01*
X304683Y408907D01*
X304926Y408931D01*
X339090D01*
X339595Y408931D01*
X339595Y408931D01*
X339595Y408931D01*
X340570Y409125D01*
X340571Y409125D01*
X341504Y409512D01*
X342331Y410064D01*
X344140Y411640D01*
X347980D01*
Y419100D01*
Y431640D01*
X344140D01*
Y431640D01*
X340168Y431708D01*
X339853Y431918D01*
X339852Y431918D01*
X339852Y431918D01*
X337518Y432885D01*
X337518Y432885D01*
X337518Y432885D01*
X337028Y432983D01*
X336543Y433079D01*
X336543Y433079D01*
X336543Y433079D01*
X335280Y433079D01*
X335280Y433079D01*
X306439D01*
X303539Y435979D01*
X303539Y439357D01*
X303563Y439854D01*
X303769Y440888D01*
X304149Y441805D01*
X304700Y442629D01*
X305401Y443330D01*
X306225Y443881D01*
X307141Y444261D01*
X308176Y444467D01*
X308674Y444491D01*
X341235Y444491D01*
X341630Y444491D01*
X341630Y444491D01*
X342605Y444685D01*
X343432Y445238D01*
X343433Y445238D01*
X343985Y446064D01*
X345833Y447631D01*
X347980Y448399D01*
X347980Y468470D01*
X344416Y468470D01*
X344179Y472372D01*
Y472439D01*
X344179Y473449D01*
X344179Y473450D01*
X344179Y473450D01*
X344073Y473986D01*
X343986Y474425D01*
X343986Y474425D01*
X343986Y474426D01*
X343213Y476293D01*
X343212Y476293D01*
X343212Y476294D01*
X342935Y476709D01*
X342660Y477120D01*
X342660Y477120D01*
X342660Y477121D01*
X341231Y478550D01*
X341230Y478550D01*
X341230Y478550D01*
X340805Y478834D01*
X340404Y479102D01*
X340403Y479102D01*
X340403Y479103D01*
X338535Y479876D01*
X338535Y479876D01*
X338535Y479876D01*
X338090Y479964D01*
X337560Y480069D01*
X337560Y480069D01*
X337559Y480069D01*
X336550Y480069D01*
X336550Y480069D01*
X334135D01*
X333934Y480089D01*
X333169Y481212D01*
X332481Y484446D01*
X332641Y484654D01*
X333246Y486114D01*
X333452Y487680D01*
X333246Y489246D01*
X332641Y490706D01*
X332024Y491511D01*
X331679Y492293D01*
Y495768D01*
X332024Y496549D01*
X332641Y497354D01*
X333246Y498814D01*
X333452Y500380D01*
X333246Y501946D01*
X332641Y503406D01*
X332024Y504211D01*
X331679Y504992D01*
Y508467D01*
X332024Y509249D01*
X332641Y510054D01*
X333246Y511514D01*
X333452Y513080D01*
X333246Y514646D01*
X332641Y516106D01*
X332024Y516911D01*
X331679Y517692D01*
Y521167D01*
X332024Y521950D01*
X332641Y522754D01*
X333246Y524214D01*
X333452Y525780D01*
X333246Y527346D01*
X332641Y528806D01*
X332024Y529610D01*
X331679Y530392D01*
Y533867D01*
X332024Y534650D01*
X332641Y535454D01*
X333246Y536914D01*
X333452Y538480D01*
X333246Y540046D01*
X332641Y541506D01*
X332024Y542310D01*
X331679Y543092D01*
Y546567D01*
X332024Y547350D01*
X332641Y548154D01*
X333246Y549614D01*
X333452Y551180D01*
X333246Y552746D01*
X332641Y554206D01*
X332024Y555010D01*
X331679Y555793D01*
Y559268D01*
X332024Y560050D01*
X332641Y560854D01*
X333246Y562314D01*
X333452Y563880D01*
X333246Y565446D01*
X332641Y566906D01*
X332024Y567710D01*
X331679Y568493D01*
Y571968D01*
X332024Y572749D01*
X332641Y573554D01*
X333246Y575014D01*
X333452Y576580D01*
X333246Y578146D01*
X332641Y579606D01*
X331679Y580859D01*
X330426Y581821D01*
X329951Y582018D01*
X329180Y584948D01*
X329224Y585470D01*
X307340Y585470D01*
X307340Y585470D01*
X307322Y585470D01*
X306939D01*
X306757Y581980D01*
X306374Y581821D01*
X305121Y580859D01*
X304159Y579606D01*
X303554Y578146D01*
X303348Y576580D01*
X303554Y575014D01*
X304159Y573554D01*
X304776Y572749D01*
X305121Y571968D01*
Y568493D01*
X304776Y567710D01*
X304159Y566906D01*
X303554Y565446D01*
X303348Y563880D01*
X303554Y562314D01*
X304159Y560854D01*
X304776Y560050D01*
X305121Y559268D01*
Y555793D01*
X304776Y555010D01*
X304159Y554206D01*
X303554Y552746D01*
X303348Y551180D01*
X303554Y549614D01*
X304159Y548154D01*
X304776Y547350D01*
X305121Y546567D01*
Y543092D01*
X304776Y542310D01*
X304159Y541506D01*
X303554Y540046D01*
X303348Y538480D01*
X303554Y536914D01*
X304159Y535454D01*
X304776Y534650D01*
X305121Y533867D01*
Y530392D01*
X304776Y529610D01*
X304159Y528806D01*
X303554Y527346D01*
X303348Y525780D01*
X303554Y524214D01*
X304159Y522754D01*
X304776Y521950D01*
X305121Y521167D01*
Y517692D01*
X304776Y516911D01*
X304159Y516106D01*
X303554Y514646D01*
X303348Y513080D01*
X303554Y511514D01*
X304159Y510054D01*
X304776Y509249D01*
X305121Y508467D01*
Y504992D01*
X304776Y504211D01*
X304159Y503406D01*
X303554Y501946D01*
X303348Y500380D01*
X303554Y498814D01*
X304159Y497354D01*
X304466Y496954D01*
X304549Y496786D01*
X304619Y496583D01*
X304972Y494855D01*
X304662Y492251D01*
X304417Y491838D01*
X304375Y491776D01*
X304102Y491367D01*
X304102Y491367D01*
X304102Y491366D01*
X303715Y490433D01*
X303715Y490433D01*
X303715Y490432D01*
X303614Y489925D01*
X303521Y489458D01*
X303521Y489457D01*
X303521Y489457D01*
X303521Y488992D01*
X303348Y487680D01*
X303521Y486368D01*
X303521Y481454D01*
X303497Y481211D01*
X303268Y480656D01*
X302934Y480322D01*
X302379Y480093D01*
X302136Y480069D01*
X283579Y480069D01*
X280679Y482969D01*
X280679Y601880D01*
X281240D01*
Y621880D01*
X279735D01*
X279621Y622050D01*
X279354Y622450D01*
X279353Y622451D01*
X279353Y622451D01*
X278281Y623523D01*
X278281Y623523D01*
X278281Y623523D01*
X277858Y623806D01*
X277454Y624076D01*
X277454Y624076D01*
X277453Y624076D01*
X276053Y624655D01*
X276052Y624656D01*
X276052Y624656D01*
X275561Y624753D01*
X275077Y624849D01*
X275077Y624849D01*
X275077Y624849D01*
X274321Y624849D01*
X274320Y624849D01*
X262162Y624849D01*
X261297Y624850D01*
X261297Y624850D01*
X261296Y624850D01*
X260782Y624748D01*
X260321Y624656D01*
X260321Y624656D01*
X260321Y624656D01*
X258722Y623995D01*
X258722Y623995D01*
X258721Y623994D01*
X258264Y623689D01*
X257894Y623443D01*
X257894Y623442D01*
X257894Y623442D01*
X256670Y622219D01*
X256670Y622219D01*
X256670Y622219D01*
X256396Y621809D01*
X256117Y621392D01*
X256117Y621392D01*
X256117Y621392D01*
X255455Y619793D01*
X255455Y619793D01*
X255455Y619793D01*
X255359Y619312D01*
X255261Y618818D01*
X255261Y618818D01*
X255261Y618817D01*
X255261Y617952D01*
Y457200D01*
X255261Y456189D01*
X255261Y456189D01*
X255261Y456189D01*
X255357Y455704D01*
X255455Y455214D01*
X255455Y455214D01*
X255455Y455213D01*
X256228Y453346D01*
X256228Y453346D01*
X256228Y453346D01*
X256485Y452962D01*
X256781Y452519D01*
X256781Y452519D01*
X256781Y452519D01*
X258210Y451090D01*
X258210Y451090D01*
X258210Y451090D01*
X258631Y450809D01*
X258770Y450098D01*
X258839Y449413D01*
X258324Y446504D01*
X256555Y445929D01*
X255604Y446118D01*
X254228Y446688D01*
X252989Y447516D01*
X251936Y448569D01*
X251108Y449808D01*
X250539Y451184D01*
X250236Y452706D01*
X250199Y453452D01*
X250199Y463550D01*
X250199Y464963D01*
X250150Y465209D01*
Y465460D01*
X249599Y468231D01*
X249503Y468463D01*
X249454Y468709D01*
X248372Y471320D01*
X248233Y471528D01*
X248137Y471760D01*
X246567Y474110D01*
X246390Y474287D01*
X246250Y474496D01*
X244252Y476494D01*
X244044Y476633D01*
X243866Y476811D01*
X241517Y478380D01*
X241285Y478476D01*
X241076Y478616D01*
X238466Y479697D01*
X238220Y479746D01*
X237988Y479842D01*
X235830Y480271D01*
Y488111D01*
X236766Y490220D01*
X217894D01*
X218830Y488111D01*
Y480443D01*
X214700D01*
Y483450D01*
X191700D01*
Y481176D01*
X187700Y480565D01*
X184400Y484069D01*
Y490220D01*
X168910D01*
X168152Y490220D01*
X166752Y490800D01*
X166400Y491151D01*
Y486668D01*
X164290Y484307D01*
X162400Y483886D01*
X161299Y485102D01*
Y514350D01*
X161105Y515325D01*
X160552Y516152D01*
X159725Y516705D01*
X158750Y516899D01*
X147762D01*
X144453Y520155D01*
Y521563D01*
X144890Y522510D01*
X146050Y523231D01*
X166370D01*
X167345Y523425D01*
X168172Y523978D01*
X168725Y524805D01*
X168806Y525210D01*
X169010D01*
Y531328D01*
X169387Y532238D01*
X170072Y532923D01*
X171085Y533343D01*
X171576Y533391D01*
X211830D01*
X212806Y533585D01*
X214673Y534358D01*
X215500Y534911D01*
X216929Y536340D01*
X217481Y537167D01*
X218255Y539034D01*
X218449Y540009D01*
Y541019D01*
X218449Y541020D01*
X218449Y562215D01*
X218449Y562610D01*
X218449Y562610D01*
X218255Y563585D01*
X217702Y564412D01*
X216861Y567690D01*
X216861Y568761D01*
X216861Y594677D01*
X216861Y595372D01*
X216667Y596348D01*
X216136Y597631D01*
X215583Y598458D01*
X215583Y598458D01*
X214601Y599441D01*
X213774Y599993D01*
X212490Y600525D01*
X211515Y600719D01*
X210820Y600719D01*
X210820Y600719D01*
X119380Y600719D01*
X118306Y600719D01*
X117331Y600525D01*
X115347Y599703D01*
X114520Y599151D01*
X113318Y597949D01*
X111985Y598098D01*
X109318Y599319D01*
Y609710D01*
X106680D01*
X106680Y594360D01*
X106680Y594360D01*
X106680Y593602D01*
X106100Y592202D01*
X105028Y591130D01*
X103628Y590550D01*
X102870Y590550D01*
X97240D01*
Y587382D01*
X100240D01*
X100240Y587382D01*
X101801Y587692D01*
X103124Y588576D01*
X107434Y592886D01*
X107855Y592874D01*
X110035Y592286D01*
X111433Y591343D01*
X111433Y577215D01*
X111433Y576277D01*
X111482Y576031D01*
Y575780D01*
X111848Y573939D01*
X111945Y573708D01*
X111994Y573461D01*
X112711Y571728D01*
X112851Y571519D01*
X112947Y571287D01*
X113989Y569727D01*
X114167Y569549D01*
X114306Y569341D01*
X114488Y569159D01*
X112869Y565159D01*
X79109D01*
X76209Y568059D01*
Y585550D01*
X76015Y586525D01*
X75810Y586832D01*
Y588550D01*
X58810Y588550D01*
X58295Y587625D01*
X57888Y587352D01*
X57335Y586525D01*
X57141Y585550D01*
X57141Y585550D01*
X57141Y585241D01*
X57141Y557533D01*
X53141Y555877D01*
X45988Y563029D01*
Y571550D01*
X50410D01*
Y588550D01*
X33410D01*
Y571550D01*
X37832D01*
Y567275D01*
X33832Y564971D01*
X32213Y565642D01*
X28542Y566372D01*
X24799D01*
X21127Y565642D01*
X17669Y564209D01*
X14132Y565839D01*
X13677Y566353D01*
X13327Y567659D01*
X13220Y567844D01*
X14195Y570142D01*
X14710Y570905D01*
X14803Y570993D01*
X14931Y571097D01*
X15051Y571183D01*
X15258Y571311D01*
X15478Y571428D01*
X15736Y571550D01*
X25010D01*
Y588550D01*
X8010D01*
Y580825D01*
X7940Y580654D01*
X7569Y580431D01*
X3568Y582697D01*
Y644870D01*
X7569Y646870D01*
X11412D01*
Y609550D01*
X8010D01*
Y592550D01*
X25010D01*
Y609550D01*
X21608D01*
Y643487D01*
X25608Y645594D01*
X27366Y644659D01*
X27922Y644103D01*
Y627720D01*
X28310Y625769D01*
X29415Y624115D01*
X36812Y616718D01*
Y609550D01*
X33410D01*
Y592550D01*
X50410D01*
Y609550D01*
X47008D01*
Y618830D01*
X46620Y620781D01*
X45515Y622435D01*
X38118Y629832D01*
Y644042D01*
X40946Y646870D01*
X44144D01*
X46972Y644042D01*
Y628650D01*
X47360Y626699D01*
X48465Y625045D01*
X59960Y613550D01*
X58810Y609550D01*
X58810D01*
Y592550D01*
X75810D01*
Y609550D01*
X72408D01*
Y613410D01*
X72020Y615361D01*
X70915Y617015D01*
X57168Y630762D01*
Y646870D01*
X60570D01*
X60570Y662991D01*
X62070Y666370D01*
X62070Y667249D01*
Y670560D01*
X8890D01*
Y683260D01*
X105600D01*
X105600D01*
X143955Y683260D01*
X143955Y683260D01*
X148780D01*
X148780Y683260D01*
X244920Y683260D01*
X244920Y683260D01*
X532371D01*
Y303119D01*
D02*
G37*
G36*
X352226Y635408D02*
X351916Y635588D01*
X351599Y635748D01*
X351273Y635890D01*
X350940Y636013D01*
X350599Y636117D01*
X350249Y636202D01*
X349892Y636268D01*
X349527Y636315D01*
X349154Y636344D01*
X348773Y636353D01*
X347967Y639353D01*
X348363Y639368D01*
X348736Y639413D01*
X349086Y639488D01*
X349412Y639592D01*
X349716Y639726D01*
X349996Y639891D01*
X350253Y640085D01*
X350488Y640308D01*
X350699Y640562D01*
X350887Y640845D01*
X352226Y635408D01*
D02*
G37*
G36*
X340073Y618836D02*
X339730Y618833D01*
X338721Y618768D01*
X338559Y618738D01*
X338432Y618702D01*
X338342Y618661D01*
X338288Y618615D01*
X338269Y618563D01*
X338299Y621805D01*
X340073Y621836D01*
Y618836D01*
D02*
G37*
G36*
X451001Y617530D02*
X450951Y618005D01*
X450801Y618430D01*
X450550Y618805D01*
X450201Y619130D01*
X449751Y619405D01*
X449201Y619630D01*
X448550Y619805D01*
X447800Y619930D01*
X446950Y620005D01*
X446001Y620030D01*
Y625030D01*
X446950Y625055D01*
X447800Y625130D01*
X448550Y625255D01*
X449201Y625430D01*
X449751Y625655D01*
X450201Y625930D01*
X450550Y626255D01*
X450801Y626630D01*
X450951Y627055D01*
X451001Y627530D01*
Y617530D01*
D02*
G37*
G36*
X430169Y626145D02*
X430320Y625720D01*
X430572Y625345D01*
X430924Y625020D01*
X431377Y624745D01*
X431930Y624520D01*
X432584Y624345D01*
X433339Y624220D01*
X434194Y624145D01*
X435149Y624120D01*
Y619120D01*
X434194Y619095D01*
X433339Y619020D01*
X432584Y618895D01*
X431930Y618720D01*
X431377Y618495D01*
X430924Y618220D01*
X430572Y617895D01*
X430320Y617520D01*
X430169Y617095D01*
X430119Y616620D01*
Y626620D01*
X430169Y626145D01*
D02*
G37*
G36*
X428705Y615631D02*
X428280Y615480D01*
X427905Y615228D01*
X427580Y614876D01*
X427305Y614423D01*
X427080Y613870D01*
X426905Y613216D01*
X426780Y612462D01*
X426705Y611606D01*
X426680Y610650D01*
X421680D01*
X421655Y611606D01*
X421580Y612462D01*
X421455Y613216D01*
X421280Y613870D01*
X421055Y614423D01*
X420780Y614876D01*
X420455Y615228D01*
X420080Y615480D01*
X419655Y615631D01*
X419180Y615681D01*
X429180D01*
X428705Y615631D01*
D02*
G37*
G36*
X373380Y654050D02*
X374138Y654050D01*
X375538Y653470D01*
X376610Y652398D01*
X377190Y650998D01*
X377190Y650240D01*
X377190Y625771D01*
X377190Y625771D01*
X377268Y624982D01*
X377871Y623525D01*
X378987Y622410D01*
X380444Y621806D01*
X381233Y621729D01*
X381233Y607060D01*
X372110D01*
Y641350D01*
X372109Y641350D01*
X372037Y642093D01*
X371468Y643467D01*
X370417Y644518D01*
X369043Y645087D01*
X368300Y645160D01*
X336550Y645160D01*
X336550Y645160D01*
X335892Y645095D01*
X334677Y644592D01*
X333747Y643661D01*
X333243Y642446D01*
X333179Y641789D01*
Y614617D01*
X327660D01*
Y619760D01*
X327660Y620378D01*
X328051Y621551D01*
X328793Y622541D01*
X329810Y623245D01*
X330403Y623418D01*
X330403Y623418D01*
X330626Y623503D01*
X331016Y623773D01*
X331301Y624152D01*
X331451Y624603D01*
X331470Y624840D01*
X331470Y632460D01*
X331470D01*
X331372Y633451D01*
X330614Y635282D01*
X329212Y636684D01*
X327381Y637442D01*
X326390Y637540D01*
X259080Y637540D01*
Y654050D01*
X373380D01*
X373380Y654050D01*
D02*
G37*
G36*
X210820Y598170D02*
X211515Y598170D01*
X212798Y597638D01*
X213781Y596656D01*
X214312Y595372D01*
X214312Y594678D01*
X214312Y567690D01*
X123507Y567690D01*
X123507D01*
X122569Y567690D01*
X120729Y568056D01*
X118996Y568774D01*
X117436Y569816D01*
X116109Y571143D01*
X115066Y572703D01*
X114348Y574437D01*
X113982Y576277D01*
X113982Y577215D01*
X113982Y592772D01*
X113982Y592772D01*
X113982Y593846D01*
X114804Y595830D01*
X116322Y597348D01*
X118306Y598170D01*
X119380Y598170D01*
X210820Y598170D01*
X210820Y598170D01*
D02*
G37*
G36*
X364856Y594249D02*
X364591Y593966D01*
X364353Y593675D01*
X364142Y593375D01*
X363957Y593066D01*
X363799Y592749D01*
X363667Y592423D01*
X363562Y592088D01*
X363484Y591745D01*
X363433Y591393D01*
X363408Y591032D01*
X359615Y595152D01*
X359973Y595149D01*
X360323Y595175D01*
X360664Y595231D01*
X360998Y595317D01*
X361323Y595434D01*
X361641Y595580D01*
X361950Y595756D01*
X362251Y595962D01*
X362544Y596199D01*
X362830Y596465D01*
X364856Y594249D01*
D02*
G37*
G36*
X353360Y602587D02*
X353450Y602077D01*
X353600Y601627D01*
X353810Y601237D01*
X354080Y600907D01*
X354410Y600637D01*
X354800Y600427D01*
X355250Y600277D01*
X355760Y600187D01*
X356330Y600157D01*
Y597157D01*
X355760Y597127D01*
X355250Y597037D01*
X354800Y596887D01*
X354410Y596677D01*
X354080Y596407D01*
X353810Y596077D01*
X353600Y595687D01*
X353450Y595237D01*
X353360Y594727D01*
X353330Y594157D01*
X350330Y598657D01*
X353330Y603157D01*
X353360Y602587D01*
D02*
G37*
G36*
X14783Y574111D02*
X14553Y574278D01*
X14279Y574359D01*
X13962Y574356D01*
X13602Y574268D01*
X13200Y574096D01*
X12754Y573838D01*
X12265Y573496D01*
X11733Y573068D01*
X10540Y571959D01*
X8419Y574081D01*
X9016Y574698D01*
X9956Y575805D01*
X10298Y576294D01*
X10556Y576740D01*
X10728Y577142D01*
X10816Y577502D01*
X10819Y577819D01*
X10738Y578092D01*
X10571Y578323D01*
X14783Y574111D01*
D02*
G37*
G36*
X378331Y579510D02*
X378599Y579420D01*
X378952Y579340D01*
X379392Y579271D01*
X380531Y579165D01*
X382884Y579085D01*
X383841Y579080D01*
Y574080D01*
X382884Y574075D01*
X378952Y573820D01*
X378599Y573740D01*
X378331Y573650D01*
X378150Y573549D01*
Y579611D01*
X378331Y579510D01*
D02*
G37*
G36*
X9727Y570707D02*
X9736Y570326D01*
X9812Y569588D01*
X9878Y569231D01*
X9963Y568881D01*
X10067Y568540D01*
X10190Y568207D01*
X10332Y567881D01*
X10492Y567564D01*
X10672Y567254D01*
X5234Y568593D01*
X5518Y568781D01*
X5772Y568992D01*
X5995Y569227D01*
X6189Y569484D01*
X6353Y569764D01*
X6488Y570068D01*
X6592Y570394D01*
X6667Y570744D01*
X6712Y571117D01*
X6727Y571513D01*
X9727Y570707D01*
D02*
G37*
G36*
X451001Y565824D02*
X450951Y566299D01*
X450801Y566724D01*
X450550Y567099D01*
X450201Y567424D01*
X449751Y567699D01*
X449201Y567924D01*
X448550Y568099D01*
X447800Y568224D01*
X446950Y568299D01*
X446001Y568324D01*
Y573324D01*
X446950Y573349D01*
X447800Y573424D01*
X448550Y573549D01*
X449201Y573724D01*
X449751Y573949D01*
X450201Y574224D01*
X450550Y574549D01*
X450801Y574924D01*
X450951Y575349D01*
X451001Y575824D01*
Y565824D01*
D02*
G37*
G36*
X427629Y575349D02*
X427780Y574924D01*
X428032Y574549D01*
X428384Y574224D01*
X428837Y573949D01*
X429390Y573724D01*
X430044Y573549D01*
X430798Y573424D01*
X431654Y573349D01*
X432609Y573324D01*
Y568324D01*
X431654Y568299D01*
X430798Y568224D01*
X430044Y568099D01*
X429390Y567924D01*
X428837Y567699D01*
X428384Y567424D01*
X428032Y567099D01*
X427780Y566724D01*
X427629Y566299D01*
X427579Y565824D01*
Y575824D01*
X427629Y575349D01*
D02*
G37*
G36*
X415701Y565824D02*
X415651Y566299D01*
X415500Y566724D01*
X415248Y567099D01*
X414896Y567424D01*
X414443Y567699D01*
X413890Y567924D01*
X413236Y568099D01*
X412481Y568224D01*
X411626Y568299D01*
X410671Y568324D01*
Y573324D01*
X411626Y573349D01*
X412481Y573424D01*
X413236Y573549D01*
X413890Y573724D01*
X414443Y573949D01*
X414896Y574224D01*
X415248Y574549D01*
X415500Y574924D01*
X415651Y575349D01*
X415701Y575824D01*
Y565824D01*
D02*
G37*
G36*
X378331Y566810D02*
X378599Y566720D01*
X378952Y566640D01*
X379392Y566571D01*
X380531Y566465D01*
X382884Y566385D01*
X383841Y566380D01*
Y561380D01*
X382884Y561375D01*
X378952Y561120D01*
X378599Y561040D01*
X378331Y560950D01*
X378150Y560849D01*
Y566911D01*
X378331Y566810D01*
D02*
G37*
G36*
X355554Y549240D02*
X355569Y549469D01*
X355508Y549674D01*
X355371Y549855D01*
X355157Y550011D01*
X354868Y550144D01*
X354502Y550252D01*
X354060Y550337D01*
X353542Y550397D01*
X352948Y550433D01*
X352277Y550445D01*
X352765Y553445D01*
X353324Y553453D01*
X354773Y553568D01*
X355180Y553637D01*
X355550Y553721D01*
X355882Y553820D01*
X356176Y553935D01*
X356432Y554065D01*
X356650Y554211D01*
X355554Y549240D01*
D02*
G37*
G36*
X356629Y535504D02*
X356585Y535785D01*
X356454Y536035D01*
X356236Y536257D01*
X355931Y536449D01*
X355538Y536611D01*
X355058Y536744D01*
X354491Y536847D01*
X353837Y536921D01*
X353095Y536965D01*
X352266Y536980D01*
Y539980D01*
X353095Y539995D01*
X354491Y540113D01*
X355058Y540216D01*
X355538Y540349D01*
X355931Y540511D01*
X356236Y540703D01*
X356454Y540924D01*
X356585Y541175D01*
X356629Y541456D01*
Y535504D01*
D02*
G37*
G36*
X73660Y567690D02*
Y567690D01*
X73758Y566699D01*
X74516Y564868D01*
X75918Y563466D01*
X77749Y562707D01*
X78740Y562610D01*
X151390Y562610D01*
X151376Y562506D01*
X151376Y562505D01*
X151502Y562532D01*
X151757Y562571D01*
X152013Y562597D01*
X152271Y562610D01*
X152400Y562610D01*
X215900Y562610D01*
X215900Y541020D01*
X215900Y541020D01*
Y540009D01*
X215126Y538142D01*
X213697Y536713D01*
X211830Y535940D01*
X171450D01*
X171450Y535940D01*
X170459Y535842D01*
X168628Y535084D01*
X167226Y533682D01*
X166468Y531851D01*
X166370Y530860D01*
Y525780D01*
X146050D01*
X146050Y551180D01*
X62230D01*
X62230Y551180D01*
X61725D01*
X60791Y551567D01*
X60077Y552281D01*
X59690Y553215D01*
Y553720D01*
X59690Y585550D01*
X73660D01*
Y567690D01*
D02*
G37*
G36*
X378331Y528710D02*
X378599Y528620D01*
X378952Y528540D01*
X379392Y528471D01*
X380531Y528365D01*
X382884Y528285D01*
X383841Y528280D01*
Y523280D01*
X382884Y523275D01*
X378952Y523020D01*
X378599Y522940D01*
X378331Y522850D01*
X378150Y522749D01*
Y528811D01*
X378331Y528710D01*
D02*
G37*
G36*
X7997Y553316D02*
X8372Y552781D01*
X7668Y549241D01*
Y545499D01*
X8398Y541827D01*
X9831Y538369D01*
X11910Y535257D01*
X14557Y532610D01*
X17669Y530531D01*
X21127Y529098D01*
X24799Y528368D01*
X28542D01*
X32213Y529098D01*
X35671Y530531D01*
X38783Y532610D01*
X41430Y535257D01*
X41764Y535757D01*
X45972Y534855D01*
X46013Y534701D01*
X46869Y533219D01*
X48079Y532009D01*
X49561Y531153D01*
X51214Y530710D01*
X52926D01*
X54579Y531153D01*
X56061Y532009D01*
X57271Y533219D01*
X58127Y534701D01*
X58570Y536354D01*
Y538066D01*
X58127Y539719D01*
X57271Y541201D01*
X56148Y542324D01*
Y546948D01*
X57256Y548047D01*
X60148Y549074D01*
X60749Y548825D01*
X61725Y548631D01*
X62230D01*
X62230Y548631D01*
X103833D01*
X105242Y547044D01*
X106144Y544631D01*
X105847Y543916D01*
X105798Y543669D01*
X105701Y543437D01*
X105450Y542181D01*
X105450Y541929D01*
X105401Y541682D01*
Y523304D01*
X105378Y522824D01*
X105179Y521825D01*
X104813Y520942D01*
X104282Y520148D01*
X103607Y519472D01*
X102812Y518941D01*
X101929Y518576D01*
X100930Y518377D01*
X100452Y518353D01*
X75114D01*
X75114Y518353D01*
X74067Y518353D01*
X73092Y518159D01*
X71157Y517358D01*
X70330Y516805D01*
X68849Y515324D01*
X68296Y514497D01*
X67495Y512563D01*
X67301Y511587D01*
Y509910D01*
X65970D01*
Y491910D01*
X67301D01*
Y491674D01*
X67495Y490699D01*
X68048Y489872D01*
X68875Y489319D01*
X69850Y489125D01*
X87600D01*
X88900Y489125D01*
X90943Y486781D01*
X90977Y486814D01*
X92873Y487600D01*
X93900Y487600D01*
X93900Y487600D01*
X109220Y487600D01*
Y478220D01*
X111600D01*
Y488341D01*
X111600Y490220D01*
X111604Y490624D01*
X112916Y491366D01*
X113985Y491326D01*
X117605Y489811D01*
X118158Y488984D01*
X119229Y487912D01*
X120056Y487359D01*
X121457Y486779D01*
X121900Y486691D01*
Y482130D01*
X136900D01*
Y485034D01*
X139975Y487051D01*
X143501Y485181D01*
Y455130D01*
X133400D01*
Y423130D01*
X171400D01*
Y452111D01*
X187835D01*
X188325Y452063D01*
X189338Y451643D01*
X190023Y450958D01*
X190443Y449945D01*
X190491Y449454D01*
Y434340D01*
X190491Y432964D01*
X190540Y432718D01*
X190540Y432467D01*
X191077Y429768D01*
X191173Y429536D01*
X191222Y429290D01*
X192275Y426747D01*
X192414Y426539D01*
X192510Y426307D01*
X194039Y424019D01*
X194216Y423841D01*
X194356Y423632D01*
X196149Y421839D01*
X196062Y420215D01*
X194772Y417839D01*
X160560Y417839D01*
X159695Y417839D01*
X158719Y417645D01*
X157120Y416983D01*
X156293Y416430D01*
X155070Y415206D01*
X154517Y414380D01*
X153855Y412781D01*
X153661Y411805D01*
X153661Y410940D01*
Y398780D01*
X153661Y398022D01*
X153855Y397047D01*
X151348Y393971D01*
X151040Y393884D01*
X147529Y396718D01*
X147815Y413817D01*
X147815Y413817D01*
X147811Y413839D01*
X147815Y413860D01*
X147815Y413860D01*
X147722Y414327D01*
X147637Y414796D01*
X147637Y414796D01*
X147625Y414814D01*
X147621Y414835D01*
X147356Y415232D01*
X147098Y415632D01*
X147081Y415644D01*
X147069Y415662D01*
X146672Y415927D01*
X146281Y416198D01*
X146260Y416203D01*
X146242Y416215D01*
X146242Y416215D01*
X145774Y416308D01*
X145309Y416409D01*
X145309Y416409D01*
X145287Y416405D01*
X145266Y416409D01*
X145266Y416409D01*
X144911Y416409D01*
X128110Y416409D01*
X127132Y416409D01*
X127131Y416409D01*
X127131Y416409D01*
X126602Y416304D01*
X126156Y416215D01*
X126156Y416215D01*
X126156Y416215D01*
X124347Y415466D01*
X124347Y415466D01*
X124347Y415466D01*
X123520Y414913D01*
X122136Y413529D01*
X121584Y412702D01*
X120835Y410894D01*
X120835Y410894D01*
X120835Y410894D01*
X120764Y410536D01*
X120641Y409918D01*
X120641Y409918D01*
X120641Y409918D01*
X120641Y408939D01*
Y382395D01*
X120593Y381905D01*
X120173Y380891D01*
X119488Y380207D01*
X118475Y379787D01*
X117985Y379739D01*
X87422Y379739D01*
X86360Y382345D01*
Y382270D01*
X86360Y382270D01*
X86360Y381765D01*
X85973Y380831D01*
X85259Y380117D01*
X84325Y379730D01*
X83820Y379730D01*
X76310D01*
X76333Y378619D01*
X76101Y377720D01*
X75171Y376790D01*
X74618Y375963D01*
X73845Y374096D01*
X73651Y373120D01*
X73651Y372110D01*
Y354330D01*
X73845Y353355D01*
X74169Y352869D01*
X74448Y350567D01*
X74930Y350520D01*
X101600Y350520D01*
D01*
X101600D01*
X101600D01*
X101866Y350546D01*
X102358Y350750D01*
X102735Y351127D01*
X102939Y351619D01*
X102965Y351885D01*
X102965Y351885D01*
X102965Y352135D01*
X103156Y352596D01*
X103509Y352949D01*
X103970Y353140D01*
X104220Y353140D01*
X112950Y353140D01*
X112950Y353140D01*
X113471Y353140D01*
X114434Y352741D01*
X115171Y352004D01*
X115570Y351041D01*
X115570Y350520D01*
X115570Y342900D01*
Y342900D01*
Y342395D01*
X115183Y341461D01*
X114782Y341060D01*
X120490D01*
Y353060D01*
X120490D01*
X119419Y354131D01*
X120026Y358131D01*
X125710D01*
Y357670D01*
X140710D01*
Y357670D01*
X143862Y359150D01*
X147311Y357168D01*
X147311Y330670D01*
X137210D01*
Y327669D01*
X120490D01*
Y337060D01*
X110490D01*
Y340360D01*
X100330D01*
X100330Y340360D01*
X99587Y340287D01*
X98213Y339718D01*
X97162Y338667D01*
X96593Y337293D01*
X96520Y336550D01*
X96520Y331470D01*
Y330965D01*
X96133Y330031D01*
X95419Y329317D01*
X94485Y328930D01*
X74630D01*
Y328060D01*
X70792Y327669D01*
X61085D01*
X60842Y327693D01*
X60287Y327923D01*
X59953Y328257D01*
X59723Y328812D01*
X59699Y329055D01*
X59699Y335280D01*
X59699Y336290D01*
X59699Y336291D01*
X59699Y336291D01*
X59602Y336776D01*
X59505Y337266D01*
X59505Y337266D01*
X59505Y337266D01*
X59321Y337710D01*
X59335Y338335D01*
X60669Y341437D01*
X61330Y342224D01*
X62173Y342710D01*
X61951Y342802D01*
X60960Y342900D01*
X52070Y342900D01*
X52070Y342900D01*
X51059Y342900D01*
X49307Y343626D01*
X48756Y342909D01*
X35383Y342909D01*
X35121Y346909D01*
X36781Y347127D01*
X39213Y348135D01*
X41302Y349738D01*
X42905Y351827D01*
X43913Y354259D01*
X44256Y356870D01*
X43913Y359481D01*
X42905Y361913D01*
X41302Y364002D01*
X39213Y365605D01*
X36781Y366613D01*
X34170Y366956D01*
X19170D01*
X16559Y366613D01*
X14127Y365605D01*
X12038Y364002D01*
X10435Y361913D01*
X10297Y361581D01*
X6816Y360986D01*
X3568Y363574D01*
Y553945D01*
X5915Y555410D01*
X7997Y553316D01*
D02*
G37*
G36*
X114462Y547517D02*
X114462Y547517D01*
X135883Y547392D01*
X136643Y547388D01*
X138047Y546799D01*
X139120Y545720D01*
X139700Y544313D01*
X139700Y543552D01*
X139700Y543553D01*
X139700Y492944D01*
X139700Y492186D01*
X139120Y490786D01*
X138048Y489714D01*
X136648Y489134D01*
X135890Y489134D01*
X122432D01*
X121032Y489714D01*
X119960Y490786D01*
X119380Y492186D01*
Y492944D01*
X119380Y492944D01*
X119307Y493688D01*
X118738Y495061D01*
X117687Y496112D01*
X116313Y496681D01*
X115570Y496754D01*
X115570Y496754D01*
X107964Y496754D01*
X107740Y496420D01*
X107589Y495995D01*
X107539Y495520D01*
Y496754D01*
X95631Y496754D01*
Y495910D01*
X95581Y496385D01*
X95450Y496754D01*
X92902D01*
X92121Y496677D01*
X90679Y496080D01*
X89574Y494976D01*
X88977Y493533D01*
X88900Y492753D01*
Y491674D01*
X69850D01*
Y510540D01*
Y511587D01*
X70651Y513522D01*
X72132Y515003D01*
X74067Y515804D01*
X75114Y515804D01*
X75114Y515804D01*
X100514D01*
X101243Y515840D01*
X102673Y516124D01*
X104019Y516682D01*
X105231Y517492D01*
X106262Y518523D01*
X107072Y519735D01*
X107630Y521082D01*
X107914Y522511D01*
X107950Y523240D01*
X107950Y523240D01*
Y541042D01*
Y541682D01*
X108201Y542937D01*
X108692Y544119D01*
X109406Y545182D01*
X110314Y546085D01*
X111381Y546792D01*
X112565Y547277D01*
X113822Y547520D01*
X114462Y547517D01*
D02*
G37*
G36*
X378331Y516010D02*
X378599Y515920D01*
X378952Y515840D01*
X379392Y515771D01*
X380531Y515665D01*
X382884Y515585D01*
X383841Y515580D01*
Y510580D01*
X382884Y510575D01*
X378952Y510320D01*
X378599Y510240D01*
X378331Y510150D01*
X378150Y510049D01*
Y516111D01*
X378331Y516010D01*
D02*
G37*
G36*
X415701Y507620D02*
X415661Y507875D01*
X415544Y508104D01*
X415350Y508306D01*
X415078Y508481D01*
X414729Y508630D01*
X414302Y508751D01*
X413799Y508845D01*
X413218Y508912D01*
X412559Y508953D01*
X411824Y508966D01*
Y513966D01*
X412555Y513973D01*
X414709Y514136D01*
X415055Y514211D01*
X415324Y514299D01*
X415517Y514401D01*
X415632Y514516D01*
X415671Y514646D01*
X415701Y507620D01*
D02*
G37*
G36*
X378331Y503310D02*
X378599Y503220D01*
X378952Y503140D01*
X379392Y503071D01*
X380531Y502965D01*
X382884Y502885D01*
X383841Y502880D01*
Y497880D01*
X382884Y497875D01*
X378952Y497620D01*
X378599Y497540D01*
X378331Y497450D01*
X378150Y497349D01*
Y503411D01*
X378331Y503310D01*
D02*
G37*
G36*
X400060Y477560D02*
X400210Y476710D01*
X400460Y475960D01*
X400810Y475310D01*
X401260Y474760D01*
X401523Y474545D01*
X401562Y474592D01*
X401689Y474879D01*
X401731Y475201D01*
Y474375D01*
X401810Y474310D01*
X402460Y473960D01*
X403210Y473710D01*
X404060Y473560D01*
X405010Y473510D01*
X401731Y471324D01*
Y466819D01*
X401689Y467141D01*
X401562Y467428D01*
X401351Y467682D01*
X401056Y467901D01*
X400676Y468087D01*
X400211Y468240D01*
X399663Y468358D01*
X399030Y468442D01*
X398312Y468493D01*
X397510Y468510D01*
X396714Y468495D01*
X395373Y468378D01*
X394828Y468275D01*
X394367Y468143D01*
X393990Y467981D01*
X393697Y467790D01*
X393487Y467570D01*
X393361Y467320D01*
X393320Y467040D01*
X393303Y471314D01*
X390010Y473510D01*
X390960Y473560D01*
X391810Y473710D01*
X392560Y473960D01*
X393210Y474310D01*
X393292Y474377D01*
X393289Y475201D01*
X393332Y474879D01*
X393460Y474592D01*
X393498Y474546D01*
X393760Y474760D01*
X394210Y475310D01*
X394560Y475960D01*
X394810Y476710D01*
X394960Y477560D01*
X395010Y478510D01*
X400010D01*
X400060Y477560D01*
D02*
G37*
G36*
X433522Y444975D02*
X433130Y444824D01*
X432784Y444575D01*
X432485Y444225D01*
X432231Y443774D01*
X432024Y443224D01*
X431862Y442575D01*
X431747Y441824D01*
X431678Y440975D01*
X431655Y440024D01*
X426655D01*
X426630Y440975D01*
X426555Y441824D01*
X426430Y442575D01*
X426255Y443224D01*
X426030Y443774D01*
X425755Y444225D01*
X425430Y444575D01*
X425055Y444824D01*
X424630Y444975D01*
X424155Y445024D01*
X433960D01*
X433522Y444975D01*
D02*
G37*
G36*
X412195D02*
X411770Y444824D01*
X411395Y444575D01*
X411070Y444225D01*
X410795Y443774D01*
X410570Y443224D01*
X410395Y442575D01*
X410270Y441824D01*
X410195Y440975D01*
X410170Y440024D01*
X405170D01*
X405145Y440975D01*
X405070Y441824D01*
X404945Y442575D01*
X404770Y443224D01*
X404545Y443774D01*
X404270Y444225D01*
X403945Y444575D01*
X403570Y444824D01*
X403145Y444975D01*
X402670Y445024D01*
X412670D01*
X412195Y444975D01*
D02*
G37*
G36*
X473155Y443610D02*
X472730Y443461D01*
X472355Y443210D01*
X472030Y442860D01*
X471755Y442411D01*
X471530Y441861D01*
X471355Y441211D01*
X471230Y440461D01*
X471155Y439610D01*
X471130Y438661D01*
X466130D01*
X466105Y439610D01*
X466030Y440461D01*
X465905Y441211D01*
X465730Y441861D01*
X465505Y442411D01*
X465230Y442860D01*
X464905Y443210D01*
X464530Y443461D01*
X464105Y443610D01*
X463630Y443661D01*
X473630D01*
X473155Y443610D01*
D02*
G37*
G36*
X471155Y437080D02*
X471230Y436230D01*
X471355Y435480D01*
X471530Y434829D01*
X471755Y434280D01*
X472030Y433829D01*
X472355Y433479D01*
X472730Y433229D01*
X473155Y433079D01*
X473630Y433030D01*
X463630D01*
X464105Y433079D01*
X464530Y433229D01*
X464905Y433479D01*
X465230Y433829D01*
X465505Y434280D01*
X465730Y434829D01*
X465905Y435480D01*
X466030Y436230D01*
X466105Y437080D01*
X466130Y438030D01*
X471130D01*
X471155Y437080D01*
D02*
G37*
G36*
X435162Y435505D02*
X437094Y433853D01*
X437931Y433262D01*
X438681Y432828D01*
X439345Y432549D01*
X439922Y432427D01*
X440414Y432461D01*
X440819Y432652D01*
X441138Y432999D01*
X435598Y424458D01*
X435810Y424912D01*
X435896Y425422D01*
X435856Y425988D01*
X435689Y426610D01*
X435396Y427289D01*
X434976Y428024D01*
X434430Y428816D01*
X433757Y429664D01*
X432957Y430569D01*
X432032Y431530D01*
X434067Y436565D01*
X435162Y435505D01*
D02*
G37*
G36*
X158750Y483870D02*
Y483870D01*
X158872Y482631D01*
X159820Y480342D01*
X161572Y478590D01*
X163861Y477642D01*
X165100Y477520D01*
X191770Y477520D01*
X193040Y477893D01*
X233307D01*
X233306Y477893D01*
X234719D01*
X237490Y477342D01*
X240101Y476261D01*
X242450Y474691D01*
X244448Y472693D01*
X246017Y470344D01*
X247099Y467734D01*
X247650Y464963D01*
X247650Y463550D01*
X247650Y453390D01*
X247650Y453389D01*
X247699Y452393D01*
X248088Y450440D01*
X248850Y448600D01*
X249956Y446944D01*
X251364Y445536D01*
X253020Y444430D01*
X254860Y443667D01*
X256814Y443279D01*
X257810Y443230D01*
X269240D01*
Y443230D01*
X270503D01*
X272837Y442263D01*
X274623Y440477D01*
X275590Y438143D01*
Y436880D01*
Y425450D01*
X275589Y425449D01*
X275589Y424439D01*
X274816Y422572D01*
X273387Y421143D01*
X271521Y420370D01*
X207009D01*
X205634Y420370D01*
X202935Y420907D01*
X200392Y421960D01*
X198104Y423489D01*
X196158Y425435D01*
X194630Y427723D01*
X193577Y430265D01*
X193040Y432964D01*
X193040Y434340D01*
Y449580D01*
X193040D01*
X192942Y450571D01*
X192184Y452402D01*
X190782Y453804D01*
X188951Y454562D01*
X187960Y454660D01*
X162560D01*
X161817Y454587D01*
X160443Y454018D01*
X159392Y452967D01*
X158823Y451593D01*
X158750Y450850D01*
Y438150D01*
X146050D01*
Y454660D01*
Y514350D01*
X158750D01*
Y483870D01*
D02*
G37*
G36*
X274320Y394970D02*
X160020D01*
X159262Y394970D01*
X157862Y395550D01*
X156790Y396622D01*
X156210Y398022D01*
X156210Y398780D01*
Y410940D01*
X156210Y411805D01*
X156872Y413404D01*
X158096Y414628D01*
X159695Y415290D01*
X160560Y415290D01*
X274320Y415290D01*
Y394970D01*
D02*
G37*
G36*
X262160Y622300D02*
X274320Y622300D01*
X274320Y622300D01*
X275078Y622300D01*
X276479Y621721D01*
X277551Y620649D01*
X278130Y619248D01*
X278130Y618490D01*
X278130Y482599D01*
Y482599D01*
X278228Y481608D01*
X278986Y479777D01*
X280388Y478376D01*
X282219Y477617D01*
X283210Y477520D01*
X302260Y477520D01*
X302260D01*
X303004Y477593D01*
X304377Y478161D01*
X305429Y479212D01*
X305997Y480586D01*
X306070Y481330D01*
X306070Y488952D01*
X306070Y489457D01*
X306457Y490391D01*
X307171Y491105D01*
X308105Y491491D01*
X308610Y491490D01*
X325120Y491490D01*
X325120Y491490D01*
X325625Y491490D01*
X326559Y491104D01*
X327274Y490389D01*
X327660Y489455D01*
X327660Y488950D01*
X327660Y483869D01*
Y483869D01*
X327782Y482630D01*
X328730Y480341D01*
X330482Y478590D01*
X332771Y477642D01*
X334010Y477520D01*
X336550D01*
X336550Y477520D01*
X337561Y477520D01*
X339428Y476747D01*
X340857Y475318D01*
X341630Y473451D01*
X341630Y472440D01*
X341630Y447040D01*
X308610Y447040D01*
X308610Y447040D01*
X307863Y447003D01*
X306398Y446712D01*
X305018Y446140D01*
X303776Y445310D01*
X302720Y444254D01*
X301890Y443012D01*
X301318Y441632D01*
X301027Y440167D01*
X300990Y439420D01*
X300990Y435609D01*
Y435609D01*
X301087Y434618D01*
X301846Y432787D01*
X303248Y431386D01*
X305079Y430627D01*
X306070Y430530D01*
X335280D01*
X335280Y430530D01*
X336543Y430530D01*
X338877Y429563D01*
X340663Y427777D01*
X341630Y425443D01*
X341630Y424180D01*
X341630Y414020D01*
X341630Y414020D01*
X341630Y413515D01*
X341243Y412581D01*
X340529Y411867D01*
X339595Y411480D01*
X339090Y411480D01*
X304800D01*
X304800Y411480D01*
X304057Y411407D01*
X302683Y410838D01*
X301632Y409787D01*
X301063Y408413D01*
X300990Y407670D01*
Y401320D01*
Y401320D01*
X301087Y400329D01*
X301846Y398498D01*
X303248Y397096D01*
X305079Y396338D01*
X306070Y396240D01*
X406400D01*
X406400Y396240D01*
X406895Y396289D01*
X407811Y396668D01*
X408512Y397369D01*
X408891Y398284D01*
X408940Y398780D01*
X408940Y405130D01*
X420370D01*
X420370Y388620D01*
X420370Y388620D01*
X420370Y387862D01*
X419790Y386462D01*
X418718Y385390D01*
X417318Y384810D01*
X416560D01*
X302280Y384810D01*
X302280Y384810D01*
X301918Y384651D01*
X301321Y384140D01*
X300965Y383439D01*
X300905Y382655D01*
X300990Y382270D01*
Y373380D01*
X300990Y373380D01*
X300990Y372622D01*
X300410Y371222D01*
X299338Y370150D01*
X297938Y369570D01*
X297180Y369570D01*
X251459D01*
X250701Y369570D01*
X249301Y370150D01*
X248230Y371222D01*
X247650Y372622D01*
X247650Y373380D01*
X247650Y386081D01*
D01*
Y386082D01*
Y386081D01*
X247650Y387092D01*
X248423Y388959D01*
X249852Y390388D01*
X251720Y391160D01*
X252730Y391160D01*
X279400Y391160D01*
X279400D01*
X280391Y391257D01*
X282223Y392015D01*
X283624Y393417D01*
X284383Y395249D01*
X284480Y396240D01*
X284480Y447040D01*
X284480Y447040D01*
X284382Y448031D01*
X283624Y449863D01*
X282222Y451265D01*
X280390Y452023D01*
X279398Y452120D01*
X262890Y452120D01*
X262890D01*
X261880Y452120D01*
X260012Y452893D01*
X258583Y454322D01*
X257810Y456189D01*
X257810Y457199D01*
Y617952D01*
X257810Y618818D01*
X258472Y620416D01*
X259696Y621639D01*
X261295Y622301D01*
X262160Y622300D01*
D02*
G37*
G36*
X435598Y401560D02*
X435547Y402035D01*
X435396Y402460D01*
X435145Y402835D01*
X434793Y403160D01*
X434340Y403435D01*
X433787Y403660D01*
X433133Y403835D01*
X432378Y403960D01*
X431523Y404035D01*
X430567Y404060D01*
Y409060D01*
X431523Y409085D01*
X432378Y409160D01*
X433133Y409285D01*
X433787Y409460D01*
X434340Y409685D01*
X434793Y409960D01*
X435145Y410285D01*
X435396Y410660D01*
X435547Y411085D01*
X435598Y411560D01*
Y401560D01*
D02*
G37*
G36*
X420433Y411085D02*
X420584Y410660D01*
X420835Y410285D01*
X421187Y409960D01*
X421640Y409685D01*
X422193Y409460D01*
X422847Y409285D01*
X423602Y409160D01*
X424457Y409085D01*
X425413Y409060D01*
Y404060D01*
X424457Y404035D01*
X423602Y403960D01*
X422847Y403835D01*
X422193Y403660D01*
X421640Y403435D01*
X421187Y403160D01*
X420835Y402835D01*
X420584Y402460D01*
X420433Y402035D01*
X420382Y401560D01*
Y411560D01*
X420433Y411085D01*
D02*
G37*
G36*
X128110Y413860D02*
X145266Y413860D01*
X144476Y366668D01*
X144476Y366668D01*
X144456Y365470D01*
X143511Y363268D01*
X141803Y361588D01*
X139585Y360680D01*
X138387Y360680D01*
X100330D01*
X100330Y360680D01*
X99587Y360607D01*
X98213Y360038D01*
X97162Y358987D01*
X96593Y357613D01*
X96520Y356870D01*
X96520Y354330D01*
X76200D01*
Y372110D01*
X76200Y373120D01*
X76973Y374987D01*
X78402Y376417D01*
X80269Y377190D01*
X81280Y377190D01*
X118110Y377190D01*
X119101Y377288D01*
X120932Y378046D01*
X122334Y379448D01*
X123092Y381279D01*
X123190Y382270D01*
Y408940D01*
X123190Y409918D01*
X123939Y411727D01*
X125323Y413111D01*
X127131Y413860D01*
X128110Y413860D01*
D02*
G37*
G36*
X432058Y401429D02*
X432594Y401341D01*
X432974Y401239D01*
X433037Y401213D01*
Y397560D01*
X448551D01*
Y328282D01*
X447040Y327363D01*
X447040Y306070D01*
X447040Y306070D01*
Y305565D01*
X446653Y304631D01*
X446271Y304249D01*
X446419Y304205D01*
X448551Y302908D01*
Y291859D01*
X383540D01*
X382174Y291587D01*
X381017Y290813D01*
X379374Y289171D01*
X375679Y290702D01*
Y298548D01*
X375494Y299474D01*
X377132Y301337D01*
X378309Y302308D01*
X379136Y301755D01*
X380537Y301175D01*
X381512Y300981D01*
X382270Y300981D01*
X407158Y300981D01*
X408133Y301175D01*
X409534Y301755D01*
X410360Y302308D01*
X411432Y303379D01*
X411432Y303379D01*
X411985Y304206D01*
X412565Y305607D01*
X412759Y306582D01*
Y306603D01*
X416560Y307528D01*
X416560Y323662D01*
X412759Y324587D01*
Y324608D01*
X412565Y325583D01*
X412565Y325583D01*
X411985Y326984D01*
X411432Y327811D01*
X410361Y328882D01*
X410360Y328882D01*
X410360Y328882D01*
X410032Y329102D01*
X409534Y329435D01*
X409534Y329435D01*
X408133Y330015D01*
X408133Y330015D01*
X408133Y330015D01*
X407158Y330209D01*
X406400Y330209D01*
X406400Y330209D01*
X237615D01*
X236877Y330282D01*
X235406Y330891D01*
X234371Y331926D01*
X233762Y333397D01*
X233689Y334135D01*
Y337402D01*
X236693Y338207D01*
X236220Y339350D01*
X236220Y340360D01*
Y355600D01*
X236219Y355599D01*
X236121Y356590D01*
X235363Y358422D01*
X233962Y359824D01*
X232131Y360582D01*
X231140Y360680D01*
X198120Y360680D01*
X198610Y361170D01*
X181210D01*
Y356170D01*
X187095D01*
X188210Y356170D01*
X189589Y355764D01*
X190775Y351245D01*
X190080Y350529D01*
X165229D01*
X165144Y350564D01*
X165109Y350649D01*
X165109Y386846D01*
X166748Y388401D01*
X168671Y389035D01*
X170210Y388041D01*
Y386659D01*
X170566Y387520D01*
X171281Y388234D01*
X172215Y388620D01*
X172720Y388620D01*
X185420Y388620D01*
X185420Y388620D01*
X185925Y388620D01*
X186859Y388234D01*
X187574Y387519D01*
X187960Y386585D01*
X187960Y386080D01*
X187960Y382270D01*
X188009Y381774D01*
X188388Y380859D01*
X189089Y380158D01*
X189889Y379827D01*
X188210Y382506D01*
X188210Y391170D01*
X191692Y392421D01*
X214165D01*
X214790Y388680D01*
X214790D01*
Y379730D01*
X237490D01*
X237490Y379730D01*
X238240Y379730D01*
X239713Y379437D01*
X241099Y378863D01*
X242348Y378029D01*
X243409Y376968D01*
X244243Y375720D01*
X244817Y374333D01*
X245110Y372861D01*
X245110Y372110D01*
X245110Y367030D01*
Y367030D01*
X245208Y366039D01*
X245966Y364207D01*
X247367Y362806D01*
X249199Y362048D01*
X250190Y361950D01*
X301262D01*
X300090Y362626D01*
X298173Y363140D01*
X297938Y367021D01*
X297938Y367021D01*
X298913Y367215D01*
X300313Y367795D01*
X301140Y368348D01*
X302212Y369419D01*
X302765Y370246D01*
X303345Y371646D01*
X303539Y372622D01*
X303539Y373378D01*
X303539Y373380D01*
Y382261D01*
X416560Y382261D01*
X417318D01*
X418293Y382455D01*
X419693Y383035D01*
X420521Y383588D01*
X421592Y384659D01*
X422145Y385486D01*
X422725Y386887D01*
X422919Y387862D01*
X422919Y388619D01*
X422919Y388620D01*
X422919Y397560D01*
X422943D01*
Y401213D01*
X423006Y401239D01*
X423386Y401341D01*
X423922Y401429D01*
X424295Y401462D01*
X431685D01*
X432058Y401429D01*
D02*
G37*
G36*
X12902Y352815D02*
X12853Y352869D01*
X12729Y352918D01*
X12528Y352961D01*
X12251Y352998D01*
X11468Y353054D01*
X8990Y353100D01*
Y358100D01*
X9545Y358103D01*
X11622Y358242D01*
X11760Y358286D01*
X11839Y358335D01*
X11857Y358390D01*
X12902Y352815D01*
D02*
G37*
G36*
X152400Y389890D02*
X160020Y389890D01*
X160020Y389890D01*
X160525Y389890D01*
X161459Y389504D01*
X162174Y388789D01*
X162560Y387855D01*
X162560Y387350D01*
X162560Y350520D01*
X162609Y350024D01*
X162988Y349109D01*
X163689Y348408D01*
X164604Y348029D01*
X165100Y347980D01*
X193040D01*
X193536Y348029D01*
X194451Y348408D01*
X195152Y349109D01*
X195531Y350024D01*
X195580Y350520D01*
X195580Y353061D01*
X195580Y353566D01*
X195967Y354500D01*
X196681Y355214D01*
X197615Y355600D01*
X198120Y355600D01*
X228600Y355600D01*
X228600Y355600D01*
X229105Y355600D01*
X230039Y355214D01*
X230753Y354499D01*
X231140Y353565D01*
X231140Y353060D01*
X231140Y334010D01*
Y334010D01*
X231262Y332771D01*
X232210Y330482D01*
X233962Y328730D01*
X236251Y327782D01*
X237490Y327660D01*
X406400D01*
X406400Y327660D01*
X407158Y327660D01*
X408558Y327080D01*
X409630Y326008D01*
X410210Y324608D01*
X410210Y323850D01*
X410210Y307340D01*
X410210Y307340D01*
X410210Y306582D01*
X409630Y305182D01*
X408558Y304110D01*
X407158Y303530D01*
X406400D01*
X382270Y303530D01*
X382270D01*
X381512Y303530D01*
X380112Y304110D01*
X379040Y305182D01*
X378460Y306582D01*
X378460Y307340D01*
X378460Y307340D01*
X378411Y307836D01*
X378032Y308751D01*
X377331Y309452D01*
X376415Y309831D01*
X375920Y309880D01*
X207010Y309880D01*
X207010D01*
X206134Y309880D01*
X204416Y310222D01*
X202799Y310892D01*
X201343Y311865D01*
X200104Y313103D01*
X199132Y314559D01*
X198461Y316177D01*
X198120Y317894D01*
X198120Y318770D01*
Y322580D01*
X198120Y322580D01*
X198077Y323451D01*
X197737Y325161D01*
X197070Y326771D01*
X196102Y328220D01*
X194870Y329452D01*
X193421Y330420D01*
X191811Y331087D01*
X190101Y331427D01*
X189230Y331470D01*
X168910Y331470D01*
X168910Y331470D01*
X168414Y331421D01*
X167499Y331042D01*
X166798Y330341D01*
X166419Y329426D01*
X166370Y328930D01*
Y325120D01*
X172254D01*
Y313690D01*
X54610Y313690D01*
X54610D01*
X53600Y313690D01*
X51732Y314463D01*
X50303Y315892D01*
X49530Y317759D01*
X49530Y318770D01*
X49529Y318770D01*
X49456Y319513D01*
X48888Y320886D01*
X47837Y321938D01*
X46463Y322507D01*
X45720Y322580D01*
X16510Y322580D01*
X16509D01*
X15499Y322580D01*
X13632Y323353D01*
X12203Y324782D01*
X11430Y326650D01*
X11430Y327660D01*
X11430Y336549D01*
D01*
Y336550D01*
Y336549D01*
X11430Y337308D01*
X12010Y338708D01*
X13082Y339780D01*
X14482Y340360D01*
X15240Y340360D01*
X52070Y340360D01*
X52070Y340359D01*
X53080Y340360D01*
X54947Y339586D01*
X56377Y338158D01*
X57150Y336290D01*
X57150Y335280D01*
X57150Y328929D01*
Y328929D01*
X57223Y328186D01*
X57792Y326813D01*
X58843Y325762D01*
X60217Y325193D01*
X60960Y325120D01*
X149860D01*
X149860Y387352D01*
Y387351D01*
X149860Y387857D01*
X150247Y388790D01*
X150961Y389504D01*
X151895Y389890D01*
X152400Y389890D01*
D02*
G37*
G36*
X13970Y316230D02*
X40640Y316230D01*
X40640Y316230D01*
X41145Y316230D01*
X42079Y315843D01*
X42793Y315129D01*
X43180Y314195D01*
X43180Y313690D01*
X43180Y312420D01*
X43229Y311924D01*
X43608Y311009D01*
X44309Y310308D01*
X45224Y309929D01*
X45720Y309880D01*
X125730D01*
X125730Y309880D01*
X126740Y309880D01*
X128608Y309107D01*
X130037Y307677D01*
X130810Y305810D01*
X130810Y304800D01*
X130810Y287020D01*
X130810Y287020D01*
X130810Y286515D01*
X130423Y285581D01*
X129709Y284867D01*
X128775Y284480D01*
X128270Y284480D01*
X95250D01*
X95250Y284480D01*
X94745Y284480D01*
X93811Y284867D01*
X93097Y285581D01*
X92710Y286515D01*
X92710Y287020D01*
Y290451D01*
X92729Y290451D01*
X92724Y290498D01*
X92717Y290592D01*
X92712Y290687D01*
X92710Y290782D01*
X92710Y290830D01*
X92710Y290830D01*
X92661Y291325D01*
X92282Y292241D01*
X91581Y292942D01*
X90666Y293321D01*
X90170Y293370D01*
X13970Y293370D01*
X13465D01*
X12531Y293757D01*
X11817Y294471D01*
X11430Y295405D01*
Y295910D01*
Y313690D01*
X11430Y314196D01*
X11817Y315129D01*
X12531Y315844D01*
X13465Y316230D01*
X13970Y316230D01*
D02*
G37*
G36*
X189168Y328921D02*
X189788Y328890D01*
X191067Y328636D01*
X192213Y328162D01*
X193245Y327472D01*
X194122Y326595D01*
X194811Y325563D01*
X195286Y324417D01*
X195541Y323139D01*
X195571Y322515D01*
Y318770D01*
X195571Y317895D01*
X195620Y317648D01*
X195620Y317397D01*
X195961Y315680D01*
X196057Y315448D01*
X196106Y315202D01*
X196777Y313584D01*
X196916Y313375D01*
X197012Y313143D01*
X197985Y311687D01*
X198162Y311509D01*
X198302Y311301D01*
X199540Y310062D01*
X199749Y309923D01*
X199926Y309745D01*
X200222Y309548D01*
Y303477D01*
X199729Y302623D01*
X199320Y301097D01*
Y299517D01*
X199729Y297991D01*
X200519Y296623D01*
X201636Y295506D01*
X203004Y294716D01*
X204530Y294307D01*
X206110D01*
X207636Y294716D01*
X209004Y295506D01*
X210121Y296623D01*
X210911Y297991D01*
X211320Y299517D01*
Y301097D01*
X210911Y302623D01*
X210502Y303331D01*
X211466Y307331D01*
X354712Y307331D01*
X356090Y304882D01*
X356529Y303331D01*
X355893Y302229D01*
X355450Y300576D01*
Y298864D01*
X355893Y297211D01*
X356749Y295729D01*
X357248Y294280D01*
X355106Y290589D01*
X261802D01*
X260436Y290317D01*
X259278Y289543D01*
X258107Y288372D01*
X257333Y287214D01*
X257061Y285848D01*
Y237683D01*
X255630Y236427D01*
X254194Y236238D01*
X252856Y235684D01*
X251707Y234803D01*
X251668Y234752D01*
X250630Y234958D01*
X249069Y234648D01*
X247746Y233764D01*
X246862Y232441D01*
X246552Y230880D01*
Y218254D01*
X245517Y215493D01*
X242756Y214458D01*
X230130D01*
X228569Y214148D01*
X227246Y213264D01*
X226362Y211941D01*
X226052Y210380D01*
X226362Y208819D01*
X226990Y207880D01*
X226362Y206941D01*
X226052Y205380D01*
X224877Y203948D01*
X215659D01*
Y228207D01*
X220980D01*
X222346Y228479D01*
X223503Y229252D01*
X224675Y230424D01*
X225448Y231582D01*
X225720Y232947D01*
Y235917D01*
X226707Y236047D01*
X228288Y236702D01*
X229646Y237744D01*
X230688Y239102D01*
X231343Y240683D01*
X231566Y242380D01*
Y250380D01*
X231343Y252077D01*
X230688Y253658D01*
X229646Y255016D01*
X229629Y255029D01*
Y260470D01*
X236000D01*
Y275470D01*
X224000D01*
Y276970D01*
X217500D01*
Y267970D01*
X213500D01*
Y276970D01*
X203930D01*
Y267970D01*
X199930D01*
Y276970D01*
X193430D01*
Y275470D01*
X181430D01*
Y260470D01*
X186430D01*
X187313Y256713D01*
X185732Y256058D01*
X184374Y255016D01*
X183332Y253658D01*
X182677Y252077D01*
X182454Y250380D01*
Y242380D01*
X182677Y240683D01*
X183332Y239102D01*
X184374Y237744D01*
X185732Y236702D01*
X187313Y236047D01*
X189010Y235824D01*
X192080D01*
Y233270D01*
X192351Y231905D01*
X193125Y230747D01*
X194297Y229576D01*
X195454Y228802D01*
X196820Y228530D01*
X203441D01*
Y196552D01*
X200095Y193949D01*
X190259D01*
Y217793D01*
X189987Y219158D01*
X189213Y220316D01*
X188042Y221488D01*
X186884Y222261D01*
X185518Y222533D01*
X179449D01*
Y222964D01*
X179225Y224661D01*
X178570Y226242D01*
X177528Y227600D01*
X176171Y228642D01*
X174589Y229297D01*
X172892Y229520D01*
X156892D01*
X155196Y229297D01*
X153614Y228642D01*
X152257Y227600D01*
X151215Y226242D01*
X150560Y224661D01*
X150336Y222964D01*
Y222533D01*
X144796D01*
Y225259D01*
X129796D01*
Y213258D01*
X128295D01*
Y206758D01*
X137296D01*
Y202759D01*
X128295D01*
Y199808D01*
X128261D01*
Y193308D01*
X137261D01*
Y189308D01*
X128261D01*
Y182808D01*
X129761D01*
Y170808D01*
X144761D01*
Y173396D01*
X150337D01*
Y172964D01*
X150560Y171267D01*
X151215Y169686D01*
X152257Y168328D01*
X153615Y167286D01*
X155196Y166632D01*
X156600Y166447D01*
Y150250D01*
X154600Y147079D01*
X72149D01*
Y191868D01*
X71877Y193234D01*
X71103Y194392D01*
X69932Y195563D01*
X68774Y196337D01*
X67408Y196609D01*
X11159D01*
Y218370D01*
X12227Y219365D01*
X15159Y220707D01*
X16559Y220127D01*
X19170Y219784D01*
X34170D01*
X36781Y220127D01*
X39213Y221135D01*
X41302Y222738D01*
X42905Y224827D01*
X43913Y227260D01*
X44256Y229870D01*
X43913Y232481D01*
X42905Y234913D01*
X41302Y237002D01*
X39213Y238605D01*
X36781Y239613D01*
X35385Y239796D01*
Y243831D01*
X37172Y244066D01*
X39970Y245225D01*
X42372Y247068D01*
X44215Y249470D01*
X45374Y252268D01*
X45506Y253270D01*
X26670D01*
Y257270D01*
X45506D01*
X45374Y258272D01*
X44215Y261070D01*
X42372Y263472D01*
X39970Y265315D01*
X38787Y265805D01*
Y270135D01*
X39970Y270625D01*
X42372Y272468D01*
X44215Y274870D01*
X45374Y277668D01*
X45506Y278670D01*
X26670D01*
Y282670D01*
X45506D01*
X45374Y283672D01*
X44215Y286470D01*
X43946Y286821D01*
X45918Y290821D01*
X86290Y290821D01*
X86387Y290814D01*
X89720Y290494D01*
X90161Y286871D01*
X90161Y286515D01*
X90161Y286515D01*
X90161Y286515D01*
X90355Y285539D01*
X90355Y285539D01*
X90355Y285539D01*
X90742Y284606D01*
X91294Y283779D01*
X92009Y283064D01*
X92836Y282512D01*
X93769Y282125D01*
X93769Y282125D01*
X93769Y282125D01*
X94745Y281931D01*
X95250Y281931D01*
X95250Y281931D01*
X128270D01*
X128775Y281931D01*
X128775Y281931D01*
X128775Y281931D01*
X129750Y282125D01*
X129750Y282125D01*
X129751Y282125D01*
X130684Y282512D01*
X131511Y283064D01*
X132226Y283779D01*
X132778Y284606D01*
X133165Y285539D01*
X133165Y285539D01*
X133165Y285539D01*
X133359Y286515D01*
X133359Y287020D01*
X133359Y287020D01*
X133359Y298311D01*
X137359Y298670D01*
X175210D01*
Y328921D01*
X189168Y328921D01*
D02*
G37*
G36*
X493035Y265467D02*
X494638Y263378D01*
X496727Y261775D01*
X499160Y260767D01*
X501770Y260424D01*
X516770D01*
X519380Y260767D01*
X521813Y261775D01*
X522021Y261935D01*
X526021Y259962D01*
Y240418D01*
X522021Y238445D01*
X521813Y238605D01*
X519380Y239613D01*
X516770Y239956D01*
X501770D01*
X499160Y239613D01*
X496727Y238605D01*
X494638Y237002D01*
X493035Y234913D01*
X492279Y233088D01*
X491076Y232848D01*
X489918Y232075D01*
X468422Y210579D01*
X430432D01*
X429066Y210307D01*
X427908Y209533D01*
X426547Y208172D01*
X426418Y207980D01*
X425957Y207700D01*
X422769Y207103D01*
X421821Y207131D01*
X420339Y207987D01*
X418686Y208430D01*
X416974D01*
X415321Y207987D01*
X413839Y207131D01*
X412629Y205921D01*
X412385Y205499D01*
X393700D01*
X392334Y205227D01*
X391177Y204453D01*
X385672Y198948D01*
X356661D01*
X353210Y201524D01*
Y203236D01*
X352767Y204889D01*
X351911Y206371D01*
X350701Y207581D01*
X349219Y208437D01*
X347566Y208880D01*
X345854D01*
X344201Y208437D01*
X342719Y207581D01*
X341509Y206371D01*
X340653Y204889D01*
X340438Y204089D01*
X332810D01*
X331677Y205380D01*
X331488Y206816D01*
X330934Y208154D01*
X330053Y209303D01*
X330002Y209342D01*
X330208Y210380D01*
X329898Y211941D01*
X329014Y213264D01*
X327691Y214148D01*
X326130Y214458D01*
X325121D01*
X324339Y215245D01*
X322972Y218458D01*
X323091Y218664D01*
X323500Y220190D01*
Y221770D01*
X323091Y223296D01*
X322301Y224664D01*
X321184Y225781D01*
X319816Y226571D01*
X318290Y226980D01*
X316710D01*
X315184Y226571D01*
X313816Y225781D01*
X313708Y225674D01*
X309708Y227101D01*
Y230880D01*
X309398Y232441D01*
X309199Y232739D01*
Y236265D01*
X309433Y236500D01*
X310207Y237658D01*
X310479Y239023D01*
Y240722D01*
X310695Y240882D01*
X314479Y242099D01*
X314779Y241799D01*
X316261Y240943D01*
X317914Y240500D01*
X319626D01*
X321279Y240943D01*
X322761Y241799D01*
X323971Y243009D01*
X324827Y244491D01*
X325270Y246144D01*
Y247856D01*
X327517Y251268D01*
X328180Y251701D01*
X373380D01*
X374746Y251973D01*
X375903Y252747D01*
X390098Y266941D01*
X492424D01*
X493035Y265467D01*
D02*
G37*
G36*
X532371Y207233D02*
Y3569D01*
X489750D01*
Y13240D01*
X462750D01*
Y3569D01*
X410750D01*
Y13240D01*
X383750D01*
Y3569D01*
X136607D01*
X135642Y4901D01*
X134876Y7569D01*
X135756Y8641D01*
X136870Y10726D01*
X137556Y12988D01*
X137788Y15340D01*
Y16340D01*
X125730D01*
X113672D01*
Y15340D01*
X113904Y12988D01*
X114590Y10726D01*
X115704Y8641D01*
X116584Y7569D01*
X115818Y4901D01*
X114853Y3569D01*
X3569D01*
Y25819D01*
X6493Y27918D01*
X7287Y28217D01*
X7569Y28205D01*
X8990Y27922D01*
X49530D01*
X51481Y28310D01*
X53135Y29415D01*
X54918Y31199D01*
X58605Y29228D01*
X58468Y28542D01*
Y24799D01*
X59198Y21127D01*
X60631Y17669D01*
X62710Y14557D01*
X65357Y11910D01*
X68469Y9831D01*
X71927Y8398D01*
X75599Y7668D01*
X79342D01*
X83013Y8398D01*
X86471Y9831D01*
X89583Y11910D01*
X92230Y14557D01*
X94309Y17669D01*
X95742Y21127D01*
X96472Y24799D01*
Y28542D01*
X95742Y32213D01*
X94309Y35671D01*
X92230Y38783D01*
X89583Y41430D01*
X87275Y42972D01*
X87877Y46271D01*
X88234Y46972D01*
X147710D01*
X147710Y34883D01*
X146210Y31504D01*
X146210Y30625D01*
Y23504D01*
X156210D01*
Y21504D01*
X158210D01*
Y11504D01*
X166210D01*
Y13758D01*
X170210Y15415D01*
X171450Y14175D01*
X173104Y13070D01*
X175055Y12682D01*
X240911D01*
X242862Y13070D01*
X244516Y14175D01*
X247445Y17104D01*
X248550Y18758D01*
X248938Y20709D01*
Y25412D01*
X249761Y25753D01*
X251808Y27121D01*
X253549Y28862D01*
X254248Y29907D01*
X255807Y30306D01*
X257273D01*
X258832Y29907D01*
X259531Y28862D01*
X261272Y27121D01*
X263319Y25753D01*
X265594Y24810D01*
X268009Y24330D01*
X270471D01*
X272886Y24810D01*
X275161Y25753D01*
X277208Y27121D01*
X278949Y28862D01*
X279648Y29907D01*
X281207Y30306D01*
X282673D01*
X284232Y29907D01*
X284931Y28862D01*
X286672Y27121D01*
X288719Y25753D01*
X290994Y24810D01*
X293409Y24330D01*
X295871D01*
X298286Y24810D01*
X300561Y25753D01*
X302608Y27121D01*
X304047Y28559D01*
X304451Y28744D01*
X304774Y28817D01*
X308843Y28388D01*
X309165Y27906D01*
X311115Y25956D01*
X313409Y24423D01*
X315956Y23368D01*
X318040Y22954D01*
Y36830D01*
X320040D01*
Y38830D01*
X333916D01*
X333502Y40914D01*
X332447Y43461D01*
X330914Y45754D01*
X332540Y49730D01*
X332540D01*
Y72631D01*
X482698D01*
X484064Y72903D01*
X485222Y73677D01*
X486393Y74848D01*
X487167Y76006D01*
X487439Y77372D01*
Y124701D01*
X492424D01*
X493035Y123227D01*
X494638Y121138D01*
X496727Y119535D01*
X499160Y118527D01*
X501770Y118184D01*
X516770D01*
X519380Y118527D01*
X521813Y119535D01*
X523902Y121138D01*
X525505Y123227D01*
X526513Y125660D01*
X526856Y128270D01*
X526513Y130880D01*
X525505Y133313D01*
X523902Y135402D01*
X521813Y137005D01*
X519380Y138013D01*
X516770Y138356D01*
X501770D01*
X499160Y138013D01*
X496727Y137005D01*
X494638Y135402D01*
X493035Y133313D01*
X492424Y131839D01*
X485042D01*
X482359Y135131D01*
Y150101D01*
X492424D01*
X493035Y148627D01*
X494638Y146538D01*
X496727Y144935D01*
X499160Y143927D01*
X501770Y143584D01*
X516770D01*
X519380Y143927D01*
X521813Y144935D01*
X523902Y146538D01*
X525505Y148627D01*
X526513Y151060D01*
X526856Y153670D01*
X526513Y156280D01*
X525505Y158713D01*
X523902Y160802D01*
X521813Y162405D01*
X519380Y163413D01*
X516770Y163756D01*
X501770D01*
X499160Y163413D01*
X496727Y162405D01*
X494638Y160802D01*
X493035Y158713D01*
X492424Y157239D01*
X479962D01*
X477044Y160232D01*
X476960Y160410D01*
Y175183D01*
X492556D01*
X493035Y174027D01*
X494638Y171938D01*
X496727Y170335D01*
X499160Y169327D01*
X501770Y168984D01*
X516770D01*
X519380Y169327D01*
X521813Y170335D01*
X523902Y171938D01*
X525505Y174027D01*
X526513Y176460D01*
X526856Y179070D01*
X526513Y181681D01*
X525505Y184113D01*
X523902Y186202D01*
X521813Y187805D01*
X519380Y188813D01*
X516770Y189156D01*
X501770D01*
X499160Y188813D01*
X496727Y187805D01*
X494638Y186202D01*
X493035Y184113D01*
X492292Y182320D01*
X474563D01*
X472199Y185826D01*
Y186482D01*
X486618Y200901D01*
X492424D01*
X493035Y199427D01*
X494638Y197338D01*
X496727Y195735D01*
X499160Y194727D01*
X501770Y194384D01*
X516770D01*
X519380Y194727D01*
X521813Y195735D01*
X523902Y197338D01*
X525505Y199427D01*
X526513Y201859D01*
X526856Y204470D01*
X526513Y207080D01*
X528588Y209918D01*
X532371Y207233D01*
D02*
G37*
G36*
X271551Y215880D02*
X271862Y214319D01*
X272630Y213169D01*
Y210755D01*
X273404Y211076D01*
X274553Y211957D01*
X274592Y212008D01*
X275630Y211802D01*
X277191Y212112D01*
X278130Y212740D01*
X279069Y212112D01*
X280630Y211802D01*
X282191Y212112D01*
X283130Y212740D01*
X284069Y212112D01*
X285630Y211802D01*
X287191Y212112D01*
X288130Y212740D01*
X289069Y212112D01*
X290630Y211802D01*
X292191Y212112D01*
X293130Y212740D01*
X294069Y212112D01*
X295630Y211802D01*
X297191Y212112D01*
X298130Y212740D01*
X299069Y212112D01*
X300630Y211802D01*
X302191Y212112D01*
X305590Y209769D01*
X306112Y208663D01*
X306227Y207915D01*
X306005Y207380D01*
X308419D01*
X309569Y206612D01*
X311130Y206301D01*
X318630D01*
Y204459D01*
X311130D01*
X309569Y204148D01*
X308419Y203380D01*
X306005D01*
X306326Y202606D01*
X307207Y201457D01*
X307258Y201418D01*
X307052Y200380D01*
X307362Y198819D01*
X307990Y197880D01*
X307362Y196941D01*
X307052Y195380D01*
X307362Y193819D01*
X307990Y192880D01*
X307362Y191941D01*
X307052Y190380D01*
X307362Y188819D01*
X307990Y187880D01*
X307362Y186941D01*
X307052Y185380D01*
X307362Y183819D01*
X307990Y182880D01*
X307362Y181941D01*
X307052Y180380D01*
X307362Y178819D01*
X307990Y177880D01*
X307362Y176941D01*
X307052Y175380D01*
X307362Y173819D01*
X307990Y172880D01*
X307362Y171941D01*
X307052Y170380D01*
X307362Y168819D01*
X304445Y165985D01*
X303346Y165624D01*
X303234Y165630D01*
X301780Y166020D01*
X300200D01*
X298674Y165611D01*
X297306Y164821D01*
X296189Y163704D01*
X295399Y162336D01*
X294990Y160810D01*
Y159230D01*
X295380Y157776D01*
X295386Y157664D01*
X295025Y156565D01*
X292191Y153648D01*
X290630Y153958D01*
X289069Y153648D01*
X288130Y153020D01*
X287191Y153648D01*
X285630Y153958D01*
X284069Y153648D01*
X283130Y153020D01*
X282191Y153648D01*
X280630Y153958D01*
X279069Y153648D01*
X278130Y153020D01*
X277191Y153648D01*
X275630Y153958D01*
X274069Y153648D01*
X273130Y153020D01*
X272191Y153648D01*
X270630Y153958D01*
X269069Y153648D01*
X268130Y153020D01*
X267191Y153648D01*
X265630Y153958D01*
X264069Y153648D01*
X263130Y153020D01*
X262191Y153648D01*
X260630Y153958D01*
X259069Y153648D01*
X258130Y153020D01*
X257191Y153648D01*
X255630Y153958D01*
X254069Y153648D01*
X253130Y153020D01*
X252191Y153648D01*
X250630Y153958D01*
X249208Y155380D01*
X248898Y156941D01*
X248270Y157880D01*
X248898Y158819D01*
X249208Y160380D01*
X248898Y161941D01*
X248270Y162880D01*
X248898Y163819D01*
X249208Y165380D01*
X248898Y166941D01*
X248270Y167880D01*
X248898Y168819D01*
X249208Y170380D01*
X249002Y171418D01*
X249053Y171457D01*
X249934Y172606D01*
X250255Y173380D01*
X247841D01*
X246691Y174148D01*
X245130Y174459D01*
X237630D01*
Y176301D01*
X245130D01*
X246691Y176612D01*
X247841Y177380D01*
X250255D01*
X249934Y178154D01*
X249053Y179303D01*
X249002Y179342D01*
X249208Y180380D01*
X248898Y181941D01*
X248270Y182880D01*
X248898Y183819D01*
X249208Y185380D01*
X248898Y186941D01*
X248270Y187880D01*
X248898Y188819D01*
X249093Y189802D01*
X249954Y191049D01*
X251828Y192727D01*
X255549Y193166D01*
X256666Y192049D01*
X258034Y191259D01*
X259560Y190850D01*
X261140D01*
X262666Y191259D01*
X264034Y192049D01*
X265151Y193166D01*
X265941Y194534D01*
X266350Y196060D01*
Y197640D01*
X265941Y199166D01*
X265151Y200534D01*
X264149Y201536D01*
X265151Y202537D01*
X265941Y203906D01*
X266350Y205432D01*
Y207011D01*
X266224Y207482D01*
X268440Y209946D01*
X268630Y210053D01*
Y213169D01*
X269398Y214319D01*
X269709Y215880D01*
Y223380D01*
X271551D01*
Y215880D01*
D02*
G37*
G36*
X457157Y145848D02*
X456734Y145604D01*
X455524Y144394D01*
X454668Y142912D01*
X454225Y141258D01*
Y139547D01*
X454668Y137894D01*
X455524Y136412D01*
X456734Y135201D01*
X458217Y134346D01*
X459870Y133903D01*
X461581D01*
X464852Y131259D01*
X465061Y130859D01*
Y91769D01*
X444616D01*
X443750Y95410D01*
X443750Y95769D01*
Y103410D01*
X433750D01*
Y105410D01*
X431750D01*
Y115410D01*
X424629D01*
X423750Y115410D01*
X420371Y113910D01*
X419750Y113910D01*
X404889D01*
Y129752D01*
X405004Y129819D01*
X406121Y130936D01*
X406188Y131051D01*
X420893D01*
X421608Y129325D01*
X423291Y127131D01*
X425485Y125448D01*
X428039Y124390D01*
X430780Y124029D01*
X436780D01*
X439521Y124390D01*
X442075Y125448D01*
X444269Y127131D01*
X445952Y129325D01*
X447010Y131879D01*
X447371Y134620D01*
X447010Y137361D01*
X445952Y139915D01*
X444269Y142109D01*
X442075Y143792D01*
X439521Y144850D01*
X436780Y145211D01*
X430780D01*
X428039Y144850D01*
X425485Y143792D01*
X423291Y142109D01*
X421608Y139915D01*
X420893Y138189D01*
X406188D01*
X406121Y138304D01*
X405004Y139421D01*
X403636Y140211D01*
X402110Y140620D01*
X400530D01*
X399004Y140211D01*
X397636Y139421D01*
X396519Y138304D01*
X395729Y136936D01*
X395320Y135410D01*
Y133830D01*
X395729Y132304D01*
X396519Y130936D01*
X397636Y129819D01*
X397751Y129752D01*
Y113910D01*
X386234D01*
X384577Y117910D01*
X384793Y118127D01*
X385567Y119284D01*
X385839Y120650D01*
Y144878D01*
X385567Y146244D01*
X384793Y147402D01*
X384384Y147811D01*
X385188Y150797D01*
X385903Y151811D01*
X457157D01*
Y145848D01*
D02*
G37*
G36*
X347483Y141735D02*
X348351Y140730D01*
X349411Y138481D01*
X348954Y136972D01*
X348919Y136620D01*
X363780D01*
Y132620D01*
X348919D01*
X348954Y132268D01*
X349640Y130006D01*
X350754Y127921D01*
X352254Y126094D01*
X354081Y124594D01*
X356166Y123480D01*
X358428Y122794D01*
X360780Y122562D01*
X364490D01*
X365442Y121408D01*
X366445Y118562D01*
X366273Y118304D01*
X366001Y116938D01*
Y113910D01*
X361660D01*
Y96910D01*
X378660D01*
Y109833D01*
X378660Y109833D01*
X382660Y107159D01*
Y96910D01*
X399660D01*
Y101841D01*
X404250D01*
Y96910D01*
X420274Y96910D01*
X421127Y96542D01*
X422568Y92810D01*
X422094Y91769D01*
X284199D01*
Y103575D01*
X286802Y106921D01*
X312055D01*
X312299Y106499D01*
X313509Y105289D01*
X314991Y104433D01*
X316644Y103990D01*
X318356D01*
X320009Y104433D01*
X321491Y105289D01*
X322701Y106499D01*
X322899Y106842D01*
X323866Y107133D01*
X326374D01*
X327341Y106842D01*
X327539Y106499D01*
X328749Y105289D01*
X330231Y104433D01*
X331884Y103990D01*
X333596D01*
X335249Y104433D01*
X336731Y105289D01*
X337941Y106499D01*
X340240Y107193D01*
X341606Y106921D01*
X342316D01*
X342581Y106842D01*
X342779Y106499D01*
X343989Y105289D01*
X345471Y104433D01*
X347124Y103990D01*
X348836D01*
X350489Y104433D01*
X351971Y105289D01*
X353181Y106499D01*
X354037Y107981D01*
X354480Y109634D01*
Y111346D01*
X354037Y112999D01*
X353181Y114481D01*
X351971Y115691D01*
X350489Y116547D01*
X348836Y116990D01*
X347124D01*
X344003Y120078D01*
Y120938D01*
X343731Y122304D01*
X342957Y123462D01*
X341786Y124633D01*
X340628Y125407D01*
X339263Y125679D01*
X305729D01*
X304281Y129679D01*
X305630Y130802D01*
X307191Y131112D01*
X308514Y131996D01*
X309398Y133319D01*
X309705Y134861D01*
X334694D01*
X336060Y135133D01*
X337218Y135907D01*
X343158Y141847D01*
X347483Y141735D01*
D02*
G37*
%LPC*%
G36*
X392430Y656590D02*
X390618D01*
X391518Y655418D01*
X392430Y654718D01*
Y656590D01*
D02*
G37*
G36*
X160468Y629920D02*
X144240D01*
Y628632D01*
X157490D01*
X157490Y628632D01*
X159051Y628942D01*
X160374Y629826D01*
X160468Y629920D01*
D02*
G37*
G36*
X140240D02*
X124012D01*
X124106Y629826D01*
X125429Y628942D01*
X126990Y628632D01*
X126990Y628632D01*
X140240D01*
Y629920D01*
D02*
G37*
G36*
X108762Y628888D02*
X107536Y627662D01*
X106778Y625831D01*
X106680Y624840D01*
Y613710D01*
X109318D01*
Y626960D01*
X109318Y626960D01*
X109008Y628521D01*
X108762Y628888D01*
D02*
G37*
G36*
X81280Y626110D02*
X81162D01*
Y613710D01*
X81280D01*
Y626110D01*
D02*
G37*
G36*
X393330Y603250D02*
X388330D01*
Y599836D01*
X393330D01*
Y603250D01*
D02*
G37*
G36*
X81280Y609710D02*
X81162D01*
Y596460D01*
X81162Y596460D01*
X81280Y595865D01*
Y609710D01*
D02*
G37*
G36*
X93240Y590550D02*
X86360D01*
X85383Y590550D01*
X87356Y588576D01*
X88679Y587692D01*
X90240Y587382D01*
X90240Y587382D01*
X93240D01*
Y590550D01*
D02*
G37*
G36*
X431640Y547824D02*
X411640D01*
Y543676D01*
X411640Y539824D01*
X411640Y535824D01*
Y531676D01*
X421640D01*
X427579D01*
Y534676D01*
X427629Y534201D01*
X427780Y533776D01*
X428032Y533401D01*
X428384Y533076D01*
X428837Y532801D01*
X429390Y532576D01*
X430044Y532401D01*
X430798Y532276D01*
X431640Y532202D01*
Y535824D01*
X431640Y539676D01*
X431640Y543676D01*
Y547824D01*
D02*
G37*
G36*
X511142Y553672D02*
X507398D01*
X503727Y552942D01*
X500269Y551509D01*
X497157Y549430D01*
X494510Y546783D01*
X492431Y543671D01*
X490998Y540213D01*
X490268Y536541D01*
Y532799D01*
X490998Y529127D01*
X492431Y525669D01*
X494510Y522557D01*
X497157Y519910D01*
X500269Y517831D01*
X503727Y516398D01*
X507398Y515668D01*
X511142D01*
X514813Y516398D01*
X518271Y517831D01*
X521383Y519910D01*
X524030Y522557D01*
X526109Y525669D01*
X527542Y529127D01*
X528272Y532799D01*
Y536541D01*
X527542Y540213D01*
X526109Y543671D01*
X524030Y546783D01*
X521383Y549430D01*
X518271Y551509D01*
X514813Y552942D01*
X511142Y553672D01*
D02*
G37*
G36*
X516770Y509196D02*
X501770D01*
X499160Y508853D01*
X496727Y507845D01*
X494638Y506242D01*
X493035Y504153D01*
X492027Y501721D01*
X491684Y499110D01*
X492027Y496499D01*
X493035Y494067D01*
X494638Y491978D01*
X496727Y490375D01*
X499160Y489367D01*
X501770Y489024D01*
X516770D01*
X519380Y489367D01*
X521813Y490375D01*
X523902Y491978D01*
X525505Y494067D01*
X526513Y496499D01*
X526856Y499110D01*
X526513Y501721D01*
X525505Y504153D01*
X523902Y506242D01*
X521813Y507845D01*
X519380Y508853D01*
X516770Y509196D01*
D02*
G37*
G36*
X471156Y480630D02*
X471230Y479789D01*
X471355Y479034D01*
X471530Y478380D01*
X471755Y477827D01*
X472030Y477374D01*
X472355Y477022D01*
X472730Y476770D01*
X473155Y476619D01*
X473630Y476569D01*
X470630D01*
Y472630D01*
X474569D01*
Y476170D01*
X474619Y475695D01*
X474770Y475270D01*
X475022Y474895D01*
X475374Y474570D01*
X475827Y474295D01*
X476380Y474070D01*
X477034Y473895D01*
X477789Y473770D01*
X478630Y473696D01*
Y480630D01*
X471156D01*
D02*
G37*
G36*
X516770Y483796D02*
X501770D01*
X499160Y483453D01*
X496727Y482445D01*
X494638Y480842D01*
X493035Y478753D01*
X492027Y476320D01*
X491684Y473710D01*
X492027Y471100D01*
X493035Y468667D01*
X494638Y466578D01*
X496727Y464975D01*
X499160Y463967D01*
X501770Y463624D01*
X516770D01*
X519380Y463967D01*
X521813Y464975D01*
X523902Y466578D01*
X525505Y468667D01*
X526513Y471100D01*
X526856Y473710D01*
X526513Y476320D01*
X525505Y478753D01*
X523902Y480842D01*
X521813Y482445D01*
X519380Y483453D01*
X516770Y483796D01*
D02*
G37*
G36*
Y458396D02*
X501770D01*
X499160Y458053D01*
X496727Y457045D01*
X494638Y455442D01*
X493035Y453353D01*
X492027Y450920D01*
X491684Y448310D01*
X492027Y445700D01*
X493035Y443267D01*
X494638Y441178D01*
X496727Y439575D01*
X499160Y438567D01*
X500555Y438384D01*
Y434349D01*
X498768Y434114D01*
X495970Y432955D01*
X494560Y431873D01*
X495300Y431800D01*
X520700D01*
Y431800D01*
X521710Y431800D01*
X523577Y431026D01*
X525007Y429598D01*
X525780Y427730D01*
Y426720D01*
Y424910D01*
X528106D01*
X527974Y425912D01*
X526815Y428710D01*
X524972Y431112D01*
X522570Y432955D01*
X519772Y434114D01*
X517985Y434349D01*
Y438384D01*
X519380Y438567D01*
X521813Y439575D01*
X523902Y441178D01*
X525505Y443267D01*
X526513Y445700D01*
X526856Y448310D01*
X526513Y450920D01*
X525505Y453353D01*
X523902Y455442D01*
X521813Y457045D01*
X519380Y458053D01*
X516770Y458396D01*
D02*
G37*
G36*
X528106Y420910D02*
X525780D01*
Y419100D01*
X525780Y419100D01*
X525780Y418089D01*
X525007Y416222D01*
X523578Y414793D01*
X521711Y414020D01*
X494465D01*
X495970Y412865D01*
X498768Y411706D01*
X500555Y411471D01*
Y407436D01*
X499160Y407253D01*
X496727Y406245D01*
X494638Y404642D01*
X493035Y402553D01*
X492027Y400121D01*
X491684Y397510D01*
X492027Y394899D01*
X493035Y392467D01*
X494638Y390378D01*
X496727Y388775D01*
X499160Y387767D01*
X501770Y387424D01*
X516770D01*
X519380Y387767D01*
X521813Y388775D01*
X523902Y390378D01*
X525505Y392467D01*
X526513Y394899D01*
X526856Y397510D01*
X526513Y400121D01*
X525505Y402553D01*
X523902Y404642D01*
X521813Y406245D01*
X519380Y407253D01*
X517985Y407436D01*
Y411471D01*
X519772Y411706D01*
X522570Y412865D01*
X524972Y414708D01*
X526815Y417110D01*
X527974Y419908D01*
X528106Y420910D01*
D02*
G37*
G36*
X516770Y382196D02*
X501770D01*
X499160Y381853D01*
X496727Y380845D01*
X494638Y379242D01*
X493035Y377153D01*
X492027Y374720D01*
X491684Y372110D01*
X492027Y369500D01*
X493035Y367067D01*
X494638Y364978D01*
X496727Y363375D01*
X499160Y362367D01*
X501770Y362024D01*
X516770D01*
X519380Y362367D01*
X521813Y363375D01*
X523902Y364978D01*
X525505Y367067D01*
X526513Y369500D01*
X526856Y372110D01*
X526513Y374720D01*
X525505Y377153D01*
X523902Y379242D01*
X521813Y380845D01*
X519380Y381853D01*
X516770Y382196D01*
D02*
G37*
G36*
Y356796D02*
X501770D01*
X499160Y356453D01*
X496727Y355445D01*
X494638Y353842D01*
X493035Y351753D01*
X492027Y349320D01*
X491684Y346710D01*
X492027Y344100D01*
X493035Y341667D01*
X494638Y339578D01*
X496727Y337975D01*
X499160Y336967D01*
X501770Y336624D01*
X516770D01*
X519380Y336967D01*
X521813Y337975D01*
X523902Y339578D01*
X525505Y341667D01*
X526513Y344100D01*
X526856Y346710D01*
X526513Y349320D01*
X525505Y351753D01*
X523902Y353842D01*
X521813Y355445D01*
X519380Y356453D01*
X516770Y356796D01*
D02*
G37*
G36*
Y331396D02*
X501770D01*
X499160Y331053D01*
X496727Y330045D01*
X494638Y328442D01*
X493035Y326353D01*
X492027Y323921D01*
X491684Y321310D01*
X492027Y318699D01*
X493035Y316267D01*
X494638Y314178D01*
X496727Y312575D01*
X499160Y311567D01*
X501770Y311224D01*
X516770D01*
X519380Y311567D01*
X521813Y312575D01*
X523902Y314178D01*
X525505Y316267D01*
X526513Y318699D01*
X526856Y321310D01*
X526513Y323921D01*
X525505Y326353D01*
X523902Y328442D01*
X521813Y330045D01*
X519380Y331053D01*
X516770Y331396D01*
D02*
G37*
%LPD*%
G36*
X426165Y543805D02*
X425740Y543655D01*
X425365Y543405D01*
X425040Y543055D01*
X424765Y542604D01*
X424540Y542054D01*
X424365Y541404D01*
X424240Y540654D01*
X424165Y539804D01*
X424164Y539750D01*
X424165Y539696D01*
X424240Y538845D01*
X424365Y538096D01*
X424540Y537445D01*
X424765Y536895D01*
X425040Y536446D01*
X425365Y536096D01*
X425740Y535845D01*
X426165Y535695D01*
X426640Y535645D01*
X416640D01*
X417115Y535695D01*
X417540Y535845D01*
X417915Y536096D01*
X418240Y536446D01*
X418515Y536895D01*
X418740Y537445D01*
X418915Y538096D01*
X419040Y538845D01*
X419115Y539696D01*
X419116Y539750D01*
X419115Y539804D01*
X419040Y540654D01*
X418915Y541404D01*
X418740Y542054D01*
X418515Y542604D01*
X418240Y543055D01*
X417915Y543405D01*
X417540Y543655D01*
X417115Y543805D01*
X416640Y543854D01*
X426640D01*
X426165Y543805D01*
D02*
G37*
%LPC*%
G36*
X88737Y482410D02*
X87600D01*
X79470D01*
Y476250D01*
X82550D01*
X83758Y476369D01*
X85989Y477293D01*
X87697Y479001D01*
X88621Y481232D01*
X88737Y482410D01*
D02*
G37*
G36*
X75470D02*
X64470D01*
Y476250D01*
X75470D01*
Y482410D01*
D02*
G37*
G36*
X20081Y474421D02*
X19950Y474386D01*
X18230Y473394D01*
X16826Y471990D01*
X15834Y470270D01*
X15799Y470139D01*
X16805Y471646D01*
X18574Y473415D01*
X20081Y474421D01*
D02*
G37*
G36*
X111600Y474220D02*
X109220D01*
Y462220D01*
X111600D01*
Y474220D01*
D02*
G37*
G36*
X34170Y417756D02*
X19170D01*
X16559Y417413D01*
X14127Y416405D01*
X12038Y414802D01*
X10435Y412713D01*
X9427Y410280D01*
X9084Y407670D01*
X9427Y405060D01*
X10435Y402627D01*
X12038Y400538D01*
X14127Y398935D01*
X16559Y397927D01*
X19170Y397584D01*
X34170D01*
X36781Y397927D01*
X39213Y398935D01*
X41302Y400538D01*
X42905Y402627D01*
X43913Y405060D01*
X44256Y407670D01*
X43913Y410280D01*
X42905Y412713D01*
X41302Y414802D01*
X39213Y416405D01*
X36781Y417413D01*
X34170Y417756D01*
D02*
G37*
G36*
X86360Y392702D02*
X86360Y389890D01*
X87476D01*
X87036Y391530D01*
X86360Y392702D01*
D02*
G37*
G36*
X87476Y387350D02*
X86360D01*
X86360Y384538D01*
X87036Y385710D01*
X87476Y387350D01*
D02*
G37*
G36*
X34170Y392356D02*
X19170D01*
X16559Y392013D01*
X14127Y391005D01*
X12038Y389402D01*
X10435Y387313D01*
X9427Y384880D01*
X9084Y382270D01*
X9427Y379660D01*
X10435Y377227D01*
X12038Y375138D01*
X14127Y373535D01*
X16559Y372527D01*
X19170Y372184D01*
X34170D01*
X36781Y372527D01*
X39213Y373535D01*
X41302Y375138D01*
X42905Y377227D01*
X43913Y379660D01*
X44256Y382270D01*
X43913Y384880D01*
X42905Y387313D01*
X41302Y389402D01*
X39213Y391005D01*
X36781Y392013D01*
X34170Y392356D01*
D02*
G37*
G36*
X306070Y488952D02*
Y488952D01*
D01*
Y488952D01*
D02*
G37*
G36*
X170210Y362739D02*
Y356170D01*
X177210D01*
Y361170D01*
X172230D01*
X172230Y361170D01*
X171822Y361170D01*
X171069Y361482D01*
X170492Y362058D01*
X170210Y362739D01*
D02*
G37*
G36*
X195580Y353061D02*
Y353061D01*
D01*
Y353061D01*
D02*
G37*
G36*
X92729Y290451D02*
X92729Y290450D01*
X92729Y290451D01*
X92729D01*
D02*
G37*
G36*
X516770Y112956D02*
X501770D01*
X499160Y112613D01*
X496727Y111605D01*
X494638Y110002D01*
X493035Y107913D01*
X492027Y105480D01*
X491684Y102870D01*
X492027Y100260D01*
X493035Y97827D01*
X494638Y95738D01*
X496727Y94135D01*
X499160Y93127D01*
X501770Y92784D01*
X516770D01*
X519380Y93127D01*
X521813Y94135D01*
X523902Y95738D01*
X525505Y97827D01*
X526513Y100260D01*
X526856Y102870D01*
X526513Y105480D01*
X525505Y107913D01*
X523902Y110002D01*
X521813Y111605D01*
X519380Y112613D01*
X516770Y112956D01*
D02*
G37*
G36*
Y87556D02*
X501770D01*
X499160Y87213D01*
X496727Y86205D01*
X494638Y84602D01*
X493035Y82513D01*
X492027Y80080D01*
X491684Y77470D01*
X492027Y74859D01*
X493035Y72427D01*
X494638Y70338D01*
X496727Y68735D01*
X499160Y67727D01*
X501770Y67384D01*
X516770D01*
X519380Y67727D01*
X521813Y68735D01*
X523902Y70338D01*
X525505Y72427D01*
X526513Y74859D01*
X526856Y77470D01*
X526513Y80080D01*
X525505Y82513D01*
X523902Y84602D01*
X521813Y86205D01*
X519380Y87213D01*
X516770Y87556D01*
D02*
G37*
G36*
X447750Y59570D02*
X443750D01*
Y58070D01*
X419250D01*
Y52898D01*
X378364D01*
X378181Y53214D01*
X377064Y54331D01*
X375696Y55121D01*
X374170Y55530D01*
X372590D01*
X371064Y55121D01*
X369696Y54331D01*
X368579Y53214D01*
X367789Y51846D01*
X367380Y50320D01*
Y48740D01*
X367789Y47214D01*
X367996Y46854D01*
X366926Y45169D01*
X365181Y43795D01*
X362413Y44942D01*
X358741Y45672D01*
X354999D01*
X351327Y44942D01*
X347869Y43509D01*
X344757Y41430D01*
X342110Y38783D01*
X340031Y35671D01*
X338598Y32213D01*
X337868Y28542D01*
Y24799D01*
X338598Y21127D01*
X340031Y17669D01*
X342110Y14557D01*
X344757Y11910D01*
X347869Y9831D01*
X351327Y8398D01*
X354999Y7668D01*
X358741D01*
X362413Y8398D01*
X365871Y9831D01*
X368983Y11910D01*
X371630Y14557D01*
X373709Y17669D01*
X375142Y21127D01*
X375872Y24799D01*
Y28542D01*
X375142Y32213D01*
X373709Y35671D01*
X371630Y38783D01*
X370451Y39962D01*
X372521Y43548D01*
X372590Y43530D01*
X374170D01*
X375696Y43939D01*
X377064Y44729D01*
X377077Y44742D01*
X409195D01*
X410638Y42006D01*
X410977Y40742D01*
X410227Y39442D01*
X409750Y37662D01*
Y35819D01*
X410227Y34038D01*
X411048Y32617D01*
X410803Y31787D01*
X409194Y28740D01*
X399250D01*
Y17240D01*
X410750D01*
Y27503D01*
X413612Y29858D01*
X414149Y30190D01*
X415828Y29740D01*
X416498D01*
X418242Y29007D01*
X420220Y26464D01*
X420663Y24811D01*
X421519Y23329D01*
X422729Y22119D01*
X424211Y21263D01*
X425864Y20820D01*
X427576D01*
X429229Y21263D01*
X430711Y22119D01*
X431255Y22662D01*
X433705Y23048D01*
X436155Y22662D01*
X436699Y22119D01*
X438181Y21263D01*
X439834Y20820D01*
X441546D01*
X443199Y21263D01*
X444681Y22119D01*
X445891Y23329D01*
X446747Y24811D01*
X447190Y26464D01*
Y28176D01*
X446747Y29829D01*
X445891Y31311D01*
X444681Y32521D01*
X443199Y33377D01*
X443084Y34627D01*
X446289Y38070D01*
X449437D01*
X449750Y37662D01*
Y35819D01*
X450227Y34038D01*
X451148Y32442D01*
X452452Y31139D01*
X454048Y30217D01*
X455828Y29740D01*
X457672D01*
X459351Y30190D01*
X459888Y29858D01*
X462750Y27503D01*
Y17240D01*
X474250D01*
Y28740D01*
X464306D01*
X462697Y31787D01*
X462452Y32617D01*
X463273Y34038D01*
X463750Y35819D01*
Y37662D01*
X463273Y39442D01*
X462351Y41038D01*
X461048Y42341D01*
X459452Y43263D01*
X457672Y43740D01*
X455828D01*
X455750Y43800D01*
Y46820D01*
X449750D01*
Y48820D01*
X447750D01*
Y58070D01*
X447750D01*
Y59570D01*
D02*
G37*
G36*
X455750D02*
X451750D01*
Y50820D01*
X455750D01*
Y59570D01*
D02*
G37*
G36*
X516770Y62156D02*
X501770D01*
X499160Y61813D01*
X496727Y60805D01*
X494638Y59202D01*
X493035Y57113D01*
X492027Y54681D01*
X491684Y52070D01*
X492027Y49460D01*
X493035Y47027D01*
X494638Y44938D01*
X496727Y43335D01*
X499160Y42327D01*
X501770Y41984D01*
X516770D01*
X519380Y42327D01*
X521813Y43335D01*
X523902Y44938D01*
X525505Y47027D01*
X526513Y49460D01*
X526856Y52070D01*
X526513Y54681D01*
X525505Y57113D01*
X523902Y59202D01*
X521813Y60805D01*
X519380Y61813D01*
X516770Y62156D01*
D02*
G37*
G36*
X333916Y34830D02*
X322040D01*
Y22954D01*
X324124Y23368D01*
X326671Y24423D01*
X328964Y25956D01*
X330914Y27906D01*
X332447Y30199D01*
X333502Y32746D01*
X333916Y34830D01*
D02*
G37*
G36*
X127730Y33201D02*
Y20340D01*
X137788D01*
Y21340D01*
X137556Y23692D01*
X136870Y25954D01*
X135756Y28039D01*
X134256Y29866D01*
X132429Y31366D01*
X130344Y32480D01*
X128082Y33166D01*
X127730Y33201D01*
D02*
G37*
G36*
X123730D02*
X123378Y33166D01*
X121116Y32480D01*
X119031Y31366D01*
X117204Y29866D01*
X115704Y28039D01*
X114590Y25954D01*
X113904Y23692D01*
X113672Y21340D01*
Y20340D01*
X123730D01*
Y33201D01*
D02*
G37*
G36*
X489750Y28740D02*
X478250D01*
Y17240D01*
X489750D01*
Y28740D01*
D02*
G37*
G36*
X395250D02*
X383750D01*
Y17240D01*
X395250D01*
Y28740D01*
D02*
G37*
G36*
X154210Y19504D02*
X146210D01*
Y11504D01*
X154210D01*
Y19504D01*
D02*
G37*
G36*
X435750Y115410D02*
Y107410D01*
X443750D01*
Y115410D01*
X435750D01*
D02*
G37*
%LPD*%
D13*
X280630Y264258D02*
X281802Y265430D01*
X280630Y223380D02*
Y264258D01*
X281802Y265430D02*
X368300D01*
X265630Y276958D02*
X266802Y278130D01*
X366453D01*
X265630Y223380D02*
Y276958D01*
X306910Y239023D02*
Y245828D01*
X305630Y223380D02*
Y237743D01*
X306910Y245828D02*
X308082Y247000D01*
X305630Y237743D02*
X306910Y239023D01*
X308082Y247000D02*
X318770D01*
X302910Y240680D02*
Y253380D01*
X300630Y238400D02*
X302910Y240680D01*
X300630Y223380D02*
Y238400D01*
X304800Y255270D02*
X373380D01*
X302910Y253380D02*
X304800Y255270D01*
X276802Y271780D02*
X367030D01*
X383540Y288290D02*
X450948D01*
X367030Y271780D02*
X383540Y288290D01*
X366453Y278130D02*
X372110Y283787D01*
X332740Y110490D02*
Y116938D01*
X341606Y110490D02*
X347980D01*
X340434Y111662D02*
X341606Y110490D01*
X340434Y111662D02*
Y120938D01*
X86360Y104140D02*
X259080D01*
X84703Y108140D02*
X254883D01*
X84513Y107950D02*
X84703Y108140D01*
X76200Y107950D02*
X84513D01*
X71120Y113030D02*
X249458D01*
X255630Y108887D02*
Y142380D01*
X254883Y108140D02*
X255630Y108887D01*
X250630Y114202D02*
Y142380D01*
X249458Y113030D02*
X250630Y114202D01*
X270630Y81372D02*
Y142380D01*
X265130Y77372D02*
Y134109D01*
X275630Y85372D02*
Y142380D01*
X280630Y89372D02*
Y142380D01*
Y89372D02*
X281802Y88200D01*
X467458D01*
X286802Y110490D02*
X317500D01*
X285630Y111662D02*
X286802Y110490D01*
X285630Y111662D02*
Y142380D01*
X290630Y119282D02*
Y142380D01*
Y119282D02*
X291802Y118110D01*
X331568D01*
X296802Y122110D02*
X339263D01*
X295630Y123282D02*
X296802Y122110D01*
X295630Y123282D02*
Y142380D01*
X300630Y130862D02*
Y142380D01*
Y130862D02*
X301802Y129690D01*
X317000D01*
X217297Y130938D02*
Y154208D01*
X214630Y128270D02*
X217297Y130938D01*
X26670Y128270D02*
X214630D01*
X205740Y139602D02*
Y164208D01*
X204568Y138430D02*
X205740Y139602D01*
X63402Y138430D02*
X204568D01*
X212450Y134522D02*
Y159208D01*
X211278Y133350D02*
X212450Y134522D01*
X57052Y133350D02*
X211278D01*
X198205Y144682D02*
Y179208D01*
X197033Y143510D02*
X198205Y144682D01*
X69752Y143510D02*
X197033D01*
X276802Y84200D02*
X472220D01*
X271802Y80200D02*
X477618D01*
X266301Y76200D02*
X482698D01*
X331568Y118110D02*
X332740Y116938D01*
X356870Y95250D02*
Y111086D01*
Y95250D02*
X358140Y93980D01*
X432578D01*
X433750Y95152D01*
Y105410D01*
X306092Y138430D02*
X334694D01*
X164893Y218964D02*
X185518D01*
X186690Y217793D01*
X188080Y190380D02*
X237630D01*
X186690Y191770D02*
Y217793D01*
Y191770D02*
X188080Y190380D01*
X186100Y184208D02*
X187272Y185380D01*
X237630D01*
X186100Y158750D02*
Y184208D01*
X67408Y193040D02*
X68580Y191868D01*
Y144682D02*
Y191868D01*
Y144682D02*
X69752Y143510D01*
X6061Y193040D02*
X67408D01*
X255909Y206371D02*
X262258D01*
X213262Y231776D02*
X220980D01*
X212090Y230604D02*
X213262Y231776D01*
X222152Y232947D02*
Y245238D01*
X212090Y201551D02*
Y230604D01*
X220980Y231776D02*
X222152Y232947D01*
X213262Y200380D02*
X237630D01*
X212090Y201551D02*
X213262Y200380D01*
X207010Y196552D02*
X208182Y195380D01*
X207010Y196552D02*
Y230927D01*
X208182Y195380D02*
X237630D01*
X205838Y232099D02*
X207010Y230927D01*
X196820Y232099D02*
X205838D01*
X221010Y246380D02*
X222152Y245238D01*
X195648Y233270D02*
X196820Y232099D01*
X195648Y233270D02*
Y243742D01*
X191930Y247460D02*
X195648Y243742D01*
X191930Y247460D02*
Y264470D01*
X221010Y246380D02*
X226060Y251430D01*
Y265030D02*
X229000Y267970D01*
X226060Y251430D02*
Y265030D01*
X188430Y267970D02*
X191930Y264470D01*
X211064Y267970D02*
X215500D01*
X164893Y158957D02*
X165100Y158750D01*
X164893Y158957D02*
Y176964D01*
X138105D02*
X164893D01*
X137261Y177808D02*
X138105Y176964D01*
X199377Y180380D02*
X237630D01*
X198205Y179208D02*
X199377Y180380D01*
X138001Y218964D02*
X164893D01*
X137296Y218258D02*
X138001Y218964D01*
X26670Y179070D02*
X61058D01*
X62230Y177898D01*
Y139602D02*
Y177898D01*
Y139602D02*
X63402Y138430D01*
X206912Y165380D02*
X237630D01*
X205740Y164208D02*
X206912Y165380D01*
X55880Y134522D02*
Y152498D01*
Y134522D02*
X57052Y133350D01*
X54708Y153670D02*
X55880Y152498D01*
X26670Y153670D02*
X54708D01*
X213622Y160380D02*
X237630D01*
X212450Y159208D02*
X213622Y160380D01*
X217297Y154208D02*
X218469Y155380D01*
X237630D01*
X137261Y204724D02*
X137296Y204758D01*
X137261Y191308D02*
Y204724D01*
X60960Y102870D02*
X71120Y113030D01*
X260630Y105690D02*
Y142380D01*
X259080Y104140D02*
X260630Y105690D01*
X50800Y68580D02*
X86360Y104140D01*
X45720Y77470D02*
X76200Y107950D01*
X44228Y49530D02*
X49628D01*
X50800Y50702D02*
Y68580D01*
X49628Y49530D02*
X50800Y50702D01*
X260630Y285848D02*
X261802Y287020D01*
X361950D01*
X260630Y223380D02*
Y285848D01*
X270630Y176552D02*
Y223380D01*
X251438Y175380D02*
X269458D01*
X270630Y176552D01*
X252730Y157480D02*
Y174088D01*
X251438Y175380D02*
X252730Y174088D01*
X237630Y175380D02*
X251438D01*
X255630Y223380D02*
Y235048D01*
X241181Y228092D02*
Y235048D01*
X254458Y236220D02*
X255630Y235048D01*
X242353Y236220D02*
X254458D01*
X241181Y235048D02*
X242353Y236220D01*
X240224Y227136D02*
X241181Y228092D01*
X401320Y134620D02*
X433780D01*
X401320Y105410D02*
Y134620D01*
Y105410D02*
X412750D01*
X391160D02*
X401320D01*
X394847Y185380D02*
X396157Y186690D01*
X318630Y185380D02*
X394847D01*
X396157Y186690D02*
X397510D01*
X389912Y190500D02*
X394342Y194930D01*
X405130D02*
X405130Y194930D01*
X389890Y190500D02*
X389912D01*
X394342Y194930D02*
X405130D01*
X389770Y190380D02*
X389890Y190500D01*
X318630Y190380D02*
X389770D01*
X387150Y195380D02*
X393700Y201930D01*
X417830D01*
X318630Y195380D02*
X387150D01*
X362510Y133350D02*
X363780Y134620D01*
X361780Y132620D02*
X362510Y133350D01*
X361780Y115996D02*
Y132620D01*
X356870Y111086D02*
X361780Y115996D01*
X369570Y106000D02*
Y116938D01*
Y106000D02*
X370160Y105410D01*
X305630Y138892D02*
Y142380D01*
Y138892D02*
X306092Y138430D01*
X334694D02*
X342314Y146050D01*
X381098D01*
X382270Y144878D01*
Y120650D02*
Y144878D01*
X379730Y118110D02*
X382270Y120650D01*
X370742Y118110D02*
X379730D01*
X369570Y116938D02*
X370742Y118110D01*
X467458Y88200D02*
X468630Y89372D01*
Y187960D01*
X473392Y85372D02*
Y177580D01*
X472220Y84200D02*
X473392Y85372D01*
X275630D02*
X276802Y84200D01*
X270630Y81372D02*
X271802Y80200D01*
X478790Y81372D02*
Y152498D01*
X477618Y80200D02*
X478790Y81372D01*
X483870Y77372D02*
Y127098D01*
X265130Y77372D02*
X266301Y76200D01*
X482698D02*
X483870Y77372D01*
X339263Y122110D02*
X340434Y120938D01*
X429070Y205648D02*
X430432Y207010D01*
X469900D01*
X318980Y180189D02*
X427898D01*
X429070Y181360D01*
Y205648D01*
X431898Y175380D02*
X433070Y176552D01*
Y200458D01*
X318630Y175380D02*
X431898D01*
X434242Y201629D02*
X473409D01*
X433070Y200458D02*
X434242Y201629D01*
X438150Y174567D02*
Y193138D01*
X439322Y194310D02*
X446390D01*
X433963Y170380D02*
X438150Y174567D01*
Y193138D02*
X439322Y194310D01*
X508952Y229552D02*
X509270Y229870D01*
X492442Y229552D02*
X508952D01*
X469900Y207010D02*
X492442Y229552D01*
X486750Y214970D02*
X526218D01*
X473409Y201629D02*
X486750Y214970D01*
X468630Y187960D02*
X485140Y204470D01*
X509270D01*
X430390Y32614D02*
Y48680D01*
X426720Y28944D02*
X430390Y32614D01*
X426720Y27320D02*
Y28944D01*
X430250Y48820D02*
X430390Y48680D01*
X436750Y33504D02*
Y48820D01*
Y33504D02*
X440690Y29564D01*
Y27940D02*
Y29564D01*
X212664Y172806D02*
X213238Y172232D01*
X218484D02*
X220335Y170380D01*
X213238Y172232D02*
X218484D01*
X220335Y170380D02*
X237630D01*
X317500Y210842D02*
Y220980D01*
X317962Y210380D02*
X318630D01*
X317500Y210842D02*
X317962Y210380D01*
X373380Y255270D02*
X388620Y270510D01*
X370938Y260350D02*
X386178Y275590D01*
X285630Y223380D02*
Y259178D01*
X286802Y260350D01*
X370938D01*
X372110Y283787D02*
Y298548D01*
X361950Y299720D02*
X370938D01*
X372110Y298548D01*
X388620Y270510D02*
X509270D01*
X467458Y275590D02*
X468630Y276762D01*
X386178Y275590D02*
X467458D01*
X368300Y265430D02*
X384931Y282061D01*
X457200Y283232D02*
Y434340D01*
X456028Y282061D02*
X457200Y283232D01*
X384931Y282061D02*
X456028D01*
X452120Y289462D02*
Y415388D01*
X450948Y288290D02*
X452120Y289462D01*
X468630Y276762D02*
Y406060D01*
X336190Y205380D02*
X336863Y206053D01*
Y209863D02*
X337820Y210820D01*
X336863Y206053D02*
Y209863D01*
X342998Y200520D02*
X343710Y201232D01*
X345562D02*
X346710Y202380D01*
X318770Y200520D02*
X342998D01*
X343710Y201232D02*
X345562D01*
X318630Y205380D02*
X336190D01*
X300990Y160020D02*
X305630Y155380D01*
Y142380D02*
Y155380D01*
X250630Y211650D02*
X255909Y206371D01*
X262258D02*
X262409Y206222D01*
X251497Y196850D02*
X260350D01*
X250326Y198022D02*
Y206548D01*
Y198022D02*
X251497Y196850D01*
X246685Y210189D02*
X250326Y206548D01*
X237630Y210380D02*
X237821Y210189D01*
X246685D01*
X250630Y211650D02*
Y223380D01*
X318630Y200380D02*
X318770Y200520D01*
X526218Y214970D02*
X529590Y218342D01*
X326901Y165880D02*
X435120D01*
X318630Y160380D02*
X460748D01*
X318630Y155380D02*
X459554D01*
X318630Y170380D02*
X433963D01*
X436880Y167640D02*
X446686D01*
X435120Y165880D02*
X436880Y167640D01*
X326401Y165380D02*
X326901Y165880D01*
X318630Y165380D02*
X326401D01*
X460748Y160380D02*
X461920Y161551D01*
Y179803D01*
X446390Y180975D02*
X460748D01*
X461920Y179803D01*
X459554Y155380D02*
X460725Y154208D01*
Y140403D02*
Y154208D01*
X529590Y218342D02*
Y294738D01*
X528418Y295910D02*
X529590Y294738D01*
X509270Y295910D02*
X528418D01*
X474563Y178752D02*
X508952D01*
X473392Y177580D02*
X474563Y178752D01*
X479962Y153670D02*
X509270D01*
X478790Y152498D02*
X479962Y153670D01*
X485042Y128270D02*
X509270D01*
X483870Y127098D02*
X485042Y128270D01*
X508952Y178752D02*
X509270Y179070D01*
X295770Y223520D02*
Y247510D01*
X295630Y223380D02*
X295770Y223520D01*
Y247510D02*
X295910Y247650D01*
X275630Y223380D02*
Y270608D01*
X276802Y271780D01*
X450948Y416560D02*
X452120Y415388D01*
X399952Y416560D02*
X450948D01*
X448310Y443230D02*
X457200Y434340D01*
X398780Y417732D02*
X399952Y416560D01*
X398780Y417732D02*
Y437613D01*
X387350Y438785D02*
X397608D01*
X398780Y437613D01*
X427990Y471994D02*
X432990Y466994D01*
X433326D02*
X448310Y452010D01*
X432990Y466994D02*
X433326D01*
X448310Y443230D02*
Y452010D01*
X265130Y134109D02*
X265630Y134609D01*
Y142380D01*
X29157Y49583D02*
X44175D01*
X26670Y52070D02*
X29157Y49583D01*
X44175D02*
X44228Y49530D01*
X26670Y102870D02*
X60960D01*
X26670Y77470D02*
X45720D01*
D17*
X15510Y580550D02*
X16510D01*
X373380Y48820D02*
X423750D01*
X373380D02*
Y49530D01*
X359930Y598657D02*
X359940Y598659D01*
X359969Y598666D01*
X351830Y598657D02*
X359930D01*
X359969Y598666D02*
X360000Y598678D01*
X360039Y598696D02*
X360092Y598726D01*
X360162Y598774D01*
X360250Y598844D01*
X360397Y598982D01*
X361830Y600415D02*
Y613836D01*
X351830Y584240D02*
Y598657D01*
X360397Y598982D02*
X361830Y600415D01*
X360000Y598678D02*
X360039Y598696D01*
X351830Y598657D02*
Y613836D01*
X336830Y620336D02*
X340073D01*
X341830Y622093D01*
X336830Y612836D02*
Y620336D01*
X341830Y622093D02*
Y635026D01*
X344657Y637853D02*
X353373D01*
X341830Y635026D02*
X344657Y637853D01*
X359410Y591157D02*
X359644D01*
X366830Y598344D01*
Y612836D01*
X346830Y624353D02*
X348587Y626110D01*
X356830Y613836D02*
Y624353D01*
X346830Y586311D02*
Y624353D01*
X348587Y626110D02*
X355073D01*
X356830Y624353D01*
X353373Y637853D02*
X354330Y638810D01*
X8227Y571767D02*
X13010Y576550D01*
X7270Y565150D02*
X8227Y566107D01*
Y571767D01*
X13010Y576550D02*
Y578050D01*
X15510Y580550D01*
X350520Y553703D02*
Y582930D01*
X352277Y551945D02*
X366635D01*
X350520Y553703D02*
X352277Y551945D01*
X366635D02*
X367400Y551180D01*
X350520Y582930D02*
X351830Y584240D01*
X345520Y585001D02*
X346830Y586311D01*
X345520Y541547D02*
Y585001D01*
Y541547D02*
X348587Y538480D01*
X367400D01*
X464130Y466130D02*
X468630Y470630D01*
Y471010D01*
X41910Y561340D02*
Y580550D01*
X52070Y537210D02*
Y551180D01*
X41910Y561340D02*
X52070Y551180D01*
D20*
X201930Y267970D02*
D03*
X188430D02*
D03*
X215500D02*
D03*
X229000D02*
D03*
D21*
X193010Y246380D02*
D03*
X221010Y246380D02*
D03*
D22*
X186100Y158750D02*
D03*
X165100D02*
D03*
X391160Y105410D02*
D03*
X370160D02*
D03*
X433750D02*
D03*
X412750D02*
D03*
X333416Y458470D02*
D03*
X354416D02*
D03*
D23*
X363780Y134620D02*
D03*
X433780D02*
D03*
D24*
X423750Y48820D02*
D03*
X430250D02*
D03*
X436750D02*
D03*
X443250D02*
D03*
X449750D02*
D03*
D25*
X397250Y15240D02*
D03*
X476250D02*
D03*
D26*
X125730Y88340D02*
D03*
Y18340D02*
D03*
D27*
X137261Y177808D02*
D03*
Y191308D02*
D03*
X137296Y218258D02*
D03*
Y204758D02*
D03*
D28*
X164893Y176964D02*
D03*
X164893Y218964D02*
D03*
D29*
X250630Y223380D02*
D03*
X255630D02*
D03*
X260630D02*
D03*
X265630D02*
D03*
X270630Y223380D02*
D03*
X275630D02*
D03*
X280630D02*
D03*
X285630Y223380D02*
D03*
X290630D02*
D03*
X295630D02*
D03*
X300630D02*
D03*
X305630D02*
D03*
Y142380D02*
D03*
X300630D02*
D03*
X295630D02*
D03*
X290630D02*
D03*
X285630D02*
D03*
X280630Y142380D02*
D03*
X275630D02*
D03*
X270630D02*
D03*
X265630Y142380D02*
D03*
X260630D02*
D03*
X255630D02*
D03*
X250630D02*
D03*
D30*
X318630Y210380D02*
D03*
Y205380D02*
D03*
Y200380D02*
D03*
Y195380D02*
D03*
Y190380D02*
D03*
Y185380D02*
D03*
Y180380D02*
D03*
Y175380D02*
D03*
Y170380D02*
D03*
Y165380D02*
D03*
Y160380D02*
D03*
Y155380D02*
D03*
X237630D02*
D03*
Y160380D02*
D03*
Y165380D02*
D03*
Y170380D02*
D03*
Y175380D02*
D03*
Y180380D02*
D03*
Y185380D02*
D03*
Y190380D02*
D03*
Y195380D02*
D03*
Y200380D02*
D03*
Y205380D02*
D03*
Y210380D02*
D03*
D31*
X358140Y421640D02*
D03*
X330140D02*
D03*
D32*
X387350Y452010D02*
D03*
Y473010D02*
D03*
X16510Y580050D02*
D03*
Y601050D02*
D03*
X441537Y427060D02*
D03*
Y406060D02*
D03*
X414443Y427060D02*
D03*
Y406060D02*
D03*
X67310Y580050D02*
D03*
Y601050D02*
D03*
X421640Y570824D02*
D03*
Y549824D02*
D03*
X424180Y621620D02*
D03*
Y642620D02*
D03*
X33655Y676370D02*
D03*
Y655370D02*
D03*
X52070Y676370D02*
D03*
Y655370D02*
D03*
X387350Y425560D02*
D03*
Y404560D02*
D03*
X41910Y601050D02*
D03*
Y580050D02*
D03*
X468630Y406060D02*
D03*
Y427060D02*
D03*
X15240Y676370D02*
D03*
Y655370D02*
D03*
X427990Y450994D02*
D03*
Y471994D02*
D03*
X407670Y450994D02*
D03*
Y471994D02*
D03*
X448310Y452010D02*
D03*
Y473010D02*
D03*
X421640Y508676D02*
D03*
Y529676D02*
D03*
X156210Y82660D02*
D03*
Y61660D02*
D03*
Y42504D02*
D03*
Y21504D02*
D03*
X468630Y449630D02*
D03*
Y470630D02*
D03*
D33*
X203200Y583190D02*
D03*
Y552190D02*
D03*
X269240Y642880D02*
D03*
Y611880D02*
D03*
D34*
X166630Y403860D02*
D03*
X135630D02*
D03*
X159010Y537210D02*
D03*
X128010D02*
D03*
D35*
X203200Y368830D02*
D03*
Y339830D02*
D03*
X87630Y367560D02*
D03*
Y338560D02*
D03*
X203200Y503450D02*
D03*
Y474450D02*
D03*
X77470Y500910D02*
D03*
Y471910D02*
D03*
D36*
X224790Y374680D02*
D03*
Y346680D02*
D03*
X110490Y339060D02*
D03*
Y367060D02*
D03*
X227330Y505490D02*
D03*
Y477490D02*
D03*
X101600Y476220D02*
D03*
Y504220D02*
D03*
D37*
X175400Y498130D02*
D03*
X152400D02*
D03*
X129400D02*
D03*
X179210Y373670D02*
D03*
X156210D02*
D03*
X133210D02*
D03*
D38*
X152400Y439130D02*
D03*
X156210Y314670D02*
D03*
D39*
X386330Y612836D02*
D03*
X378330D02*
D03*
X330330D02*
D03*
X322330D02*
D03*
D40*
X356830D02*
D03*
X361830D02*
D03*
X366830D02*
D03*
X351830D02*
D03*
X346830D02*
D03*
X336830D02*
D03*
D41*
X367400Y538480D02*
D03*
Y525780D02*
D03*
Y551180D02*
D03*
Y500380D02*
D03*
Y513080D02*
D03*
Y576580D02*
D03*
Y563880D02*
D03*
Y487680D02*
D03*
X318400Y513080D02*
D03*
Y525780D02*
D03*
Y563880D02*
D03*
Y576580D02*
D03*
Y538480D02*
D03*
Y551180D02*
D03*
Y487680D02*
D03*
Y500380D02*
D03*
D42*
X458470Y638810D02*
D03*
Y553810D02*
D03*
D46*
X261620Y430530D02*
D03*
Y379730D02*
D03*
D75*
X68580Y52070D02*
X156210D01*
X243840Y36830D02*
X243840Y36830D01*
Y20709D02*
Y36830D01*
X240911Y17780D02*
X243840Y20709D01*
X175055Y17780D02*
X240911D01*
X172126Y20709D02*
X175055Y17780D01*
X172126Y20709D02*
Y39575D01*
X169197Y42504D02*
X172126Y39575D01*
X156210Y42504D02*
X169197D01*
X317000Y129690D02*
X317150Y129540D01*
X26670Y255270D02*
X105021D01*
X107950Y201930D02*
Y252341D01*
X105021Y255270D02*
X107950Y252341D01*
X156210Y82660D02*
Y96520D01*
X263338Y339090D02*
X298061D01*
X205320Y300307D02*
Y314540D01*
X205740Y314960D01*
X129660Y14410D02*
X136720D01*
X125730Y18340D02*
X129660Y14410D01*
X136720D02*
X144979Y6151D01*
X124460Y53340D02*
Y87070D01*
X125730Y88340D01*
X144979Y6151D02*
X153281D01*
X124460Y53340D02*
X124577Y53223D01*
X202956Y268996D02*
X211064D01*
X201930Y267970D02*
X202956Y268996D01*
X358170Y424750D02*
X361280Y421640D01*
X358170Y424750D02*
Y486756D01*
X203200Y501695D02*
X204955Y503450D01*
X176465Y501695D02*
X203200D01*
X109220Y652780D02*
X118480D01*
X156210Y6350D02*
Y21504D01*
X344170Y133350D02*
X362510D01*
X340360Y129540D02*
X344170Y133350D01*
X317150Y129540D02*
X340360D01*
X386330Y612836D02*
Y613836D01*
Y610100D02*
Y612836D01*
X179210Y373670D02*
Y376170D01*
Y372990D02*
Y373670D01*
X397250Y15240D02*
X476250D01*
X6061Y35949D02*
Y193040D01*
X8990Y33020D02*
X49530D01*
X68580Y52070D01*
X156210Y42504D02*
Y52070D01*
Y61660D01*
X6061Y193040D02*
Y352671D01*
X387350Y438785D02*
Y452010D01*
Y425560D02*
Y438785D01*
X303919Y421640D02*
X330140D01*
X446174Y475146D02*
X448310Y473010D01*
X443246Y486410D02*
X446174Y483481D01*
X410599Y486410D02*
X443246D01*
X446174Y475146D02*
Y483481D01*
X407670Y489339D02*
X410599Y486410D01*
X407670Y489339D02*
Y502920D01*
X52070Y628650D02*
X67310Y613410D01*
X52070Y628650D02*
Y654050D01*
X33020Y627720D02*
X41910Y618830D01*
X33020Y627720D02*
Y655370D01*
X41910Y601050D02*
Y618830D01*
X67310Y600550D02*
Y613410D01*
X16510Y600550D02*
Y654050D01*
X15240Y655320D02*
X16510Y654050D01*
X227330Y472829D02*
Y477490D01*
X224401Y469900D02*
X227330Y472829D01*
X205710Y469900D02*
X224401D01*
X203200Y472410D02*
X205710Y469900D01*
X225290Y503450D02*
X227330Y505490D01*
X204955Y503450D02*
X225290D01*
X236220Y430530D02*
X261620D01*
X219075D02*
X236220D01*
X203200Y459740D02*
Y472410D01*
Y443865D02*
Y459740D01*
X208280Y430530D02*
X219075D01*
X203200Y435610D02*
Y443865D01*
X73420Y633730D02*
Y654050D01*
Y674370D01*
X95240Y611710D02*
Y652790D01*
X397580Y642620D02*
Y665480D01*
X435524Y529676D02*
X468630Y496570D01*
X397580Y642620D02*
X424180D01*
X468630Y449630D02*
X468630Y449630D01*
X468630Y426560D02*
Y449630D01*
X421640Y570824D02*
X453470D01*
X458470Y565824D01*
Y553810D02*
Y565824D01*
Y627530D02*
Y638810D01*
X453470Y622530D02*
X458470Y627530D01*
X441880Y622530D02*
X453470D01*
X440970Y621620D02*
X441880Y622530D01*
X424180Y621620D02*
X440970D01*
X427990Y449630D02*
X429155Y448465D01*
Y437942D02*
Y448465D01*
Y437942D02*
X440537Y426560D01*
X441537D01*
X407670Y449630D02*
Y451010D01*
Y432333D02*
Y449630D01*
Y432333D02*
X413443Y426560D01*
X414443D01*
X367400Y525780D02*
X397510D01*
X367400Y525780D02*
X367400Y525780D01*
X418850Y511466D02*
X421640Y508676D01*
X411824Y511466D02*
X418850D01*
X397510Y525780D02*
X411824Y511466D01*
X367400Y576580D02*
X373440D01*
X424180Y589669D02*
Y621620D01*
X421251Y586740D02*
X424180Y589669D01*
X402590Y586740D02*
X421251D01*
X392430Y576580D02*
X402590Y586740D01*
X373440Y576580D02*
X392430D01*
X367400Y563880D02*
X373440D01*
X404454Y570824D02*
X421640D01*
X397510Y563880D02*
X404454Y570824D01*
X373440Y563880D02*
X397510D01*
X358170Y486756D02*
X359094Y487680D01*
X367400D01*
Y500380D02*
X373440D01*
X397510Y471010D02*
Y497451D01*
X394581Y500380D02*
X397510Y497451D01*
X373440Y500380D02*
X394581D01*
X367400Y513080D02*
X373440D01*
X397510D02*
X407670Y502920D01*
X373440Y513080D02*
X397510D01*
X129400Y498130D02*
Y500630D01*
X77470Y500910D02*
X79240D01*
X101600Y500520D02*
Y504220D01*
X129290Y500520D02*
X129400Y500630D01*
X101600Y500520D02*
X129290D01*
X98290Y500910D02*
X101600Y504220D01*
X79240Y500910D02*
X98290D01*
X133210Y371523D02*
Y376170D01*
X127477Y365790D02*
X133210Y371523D01*
X110490Y365790D02*
X127477D01*
X110490D02*
Y367060D01*
X109990Y367560D02*
X110490Y367060D01*
X87630Y367560D02*
X109990D01*
X106990Y347380D02*
Y347830D01*
Y347380D02*
X110490Y343880D01*
Y339060D02*
Y343880D01*
X97020Y347830D02*
X106990D01*
X96710Y348140D02*
X97020Y347830D01*
X96710Y347789D02*
Y348140D01*
X87630Y338709D02*
X96710Y347789D01*
X87630Y338560D02*
Y338709D01*
X199530Y372500D02*
X203200Y368830D01*
X179700Y372500D02*
X199530D01*
X179210Y372990D02*
X179700Y372500D01*
X203200Y368830D02*
X204125Y369755D01*
X223865D01*
X224790Y370680D01*
X142795Y582155D02*
X202735D01*
X142240Y582710D02*
X142795Y582155D01*
X202735D02*
X203200Y581690D01*
X121410Y649520D02*
X121975Y648954D01*
X123245D01*
X129490Y642710D01*
X142240D01*
X121410Y649520D02*
Y649785D01*
X118480Y652715D02*
X121410Y649785D01*
X118480Y652715D02*
Y652780D01*
X107950Y654050D02*
X109220Y652780D01*
X93980Y654050D02*
X107950D01*
X93980D02*
X95240Y652790D01*
X483481Y471170D02*
X486410Y468241D01*
Y427109D02*
Y468241D01*
X468630Y471010D02*
X468790Y471170D01*
X483481D01*
X489339Y424180D02*
X508000D01*
X486410Y427109D02*
X489339Y424180D01*
X508000D02*
X509270Y422910D01*
X8990Y355600D02*
X25400D01*
X6061Y352671D02*
X8990Y355600D01*
X6061Y35949D02*
X8990Y33020D01*
X25400Y355600D02*
X26670Y356870D01*
X267970Y612110D02*
X269240Y613380D01*
Y481719D02*
X272169Y478790D01*
X269240Y481719D02*
Y610840D01*
X267970Y612110D02*
X269240Y610840D01*
X73420Y654050D02*
X93980D01*
X394581Y609600D02*
X396815Y611834D01*
X386830Y609600D02*
X394581D01*
X396815Y623015D02*
X397580Y623780D01*
X396815Y611834D02*
Y623015D01*
X386330Y610100D02*
X386830Y609600D01*
X397580Y623780D02*
Y642620D01*
X26670Y331470D02*
X48260D01*
X134167Y377127D02*
Y400897D01*
X137130Y403860D01*
X133210Y376170D02*
X134167Y377127D01*
X295910Y453001D02*
X298839Y455930D01*
X326360D01*
X295910Y416171D02*
Y453001D01*
Y416171D02*
X297180Y414901D01*
X326360Y455930D02*
X330170Y459740D01*
X297180Y382659D02*
Y414901D01*
X294251Y379730D02*
X297180Y382659D01*
X261620Y379730D02*
X294251D01*
X203200Y435610D02*
X208280Y430530D01*
X165130Y403860D02*
X260350D01*
X175400Y500630D02*
X176465Y501695D01*
X152400Y472440D02*
Y500630D01*
Y438630D02*
Y472440D01*
X152430Y472410D01*
X203200D01*
X129400Y500630D02*
X129455Y500685D01*
Y537155D02*
X129510Y537210D01*
X129455Y500685D02*
Y537155D01*
X468630Y471010D02*
Y496570D01*
X421640Y529676D02*
X435524D01*
X421640D02*
Y549824D01*
X397510Y471010D02*
X407670D01*
X387350D02*
X397510D01*
X414443Y406560D02*
X441537D01*
D76*
X153764Y5668D02*
X320040D01*
Y36830D02*
X320040Y36830D01*
X217170Y35560D02*
X218440Y36830D01*
X183209Y35560D02*
X217170D01*
X180865Y37903D02*
X183209Y35560D01*
X180865Y37903D02*
Y80207D01*
X178522Y82550D02*
X180865Y80207D01*
X157320Y82550D02*
X178522D01*
X156710Y83160D02*
X157320Y82550D01*
X320040Y5668D02*
Y36830D01*
X153281Y6151D02*
X153764Y5668D01*
X320040D02*
X320040Y5668D01*
X365569D01*
X367641Y7740D01*
X389750D02*
X397250Y15240D01*
X367641Y7740D02*
X389750D01*
X449750Y48820D02*
X473321D01*
X476250Y15240D02*
Y45891D01*
X473321Y48820D02*
X476250Y45891D01*
D77*
X320040Y62230D02*
D03*
D78*
X320040Y36830D02*
D03*
X294640Y62230D02*
D03*
Y36830D02*
D03*
X269240Y62230D02*
D03*
Y36830D02*
D03*
X243840Y62230D02*
D03*
Y36830D02*
D03*
X218440Y62230D02*
D03*
X218440Y36830D02*
D03*
D79*
X26670Y547370D02*
D03*
X509270Y534670D02*
D03*
X77470Y26670D02*
D03*
X356870D02*
D03*
D80*
X26670Y407670D02*
D03*
Y382270D02*
D03*
Y356870D02*
D03*
Y331470D02*
D03*
Y306070D02*
D03*
Y280670D02*
D03*
Y255270D02*
D03*
Y229870D02*
D03*
Y179070D02*
D03*
Y153670D02*
D03*
Y128270D02*
D03*
Y102870D02*
D03*
Y77470D02*
D03*
Y52070D02*
D03*
X509270Y270510D02*
D03*
Y295910D02*
D03*
Y321310D02*
D03*
Y346710D02*
D03*
Y372110D02*
D03*
Y397510D02*
D03*
Y422910D02*
D03*
Y448310D02*
D03*
Y473710D02*
D03*
Y499110D02*
D03*
Y52070D02*
D03*
Y77470D02*
D03*
Y102870D02*
D03*
Y128270D02*
D03*
Y153670D02*
D03*
Y179070D02*
D03*
Y204470D02*
D03*
Y229870D02*
D03*
D81*
X95240Y611710D02*
D03*
D82*
X142240Y642710D02*
D03*
Y582710D02*
D03*
D83*
X261620Y405130D02*
D03*
D84*
X311080Y665480D02*
D03*
X397580D02*
D03*
D85*
X311080Y623780D02*
D03*
X397580D02*
D03*
D86*
X325430Y628680D02*
D03*
X383230D02*
D03*
D87*
X332740Y110490D02*
D03*
X317500D02*
D03*
X416750Y36740D02*
D03*
X456750D02*
D03*
X517941Y666001D02*
D03*
X527941Y646001D02*
D03*
X517941Y626001D02*
D03*
X527941Y606001D02*
D03*
X517941Y586001D02*
D03*
X527941Y566000D02*
D03*
X497941Y666001D02*
D03*
X507941Y646001D02*
D03*
X497941Y626001D02*
D03*
X507941Y606001D02*
D03*
X497941Y586001D02*
D03*
X507941Y566000D02*
D03*
X477941Y666001D02*
D03*
X487941Y646001D02*
D03*
X477941Y626001D02*
D03*
X487941Y606001D02*
D03*
X477941Y586001D02*
D03*
X487941Y566000D02*
D03*
X477941Y546000D02*
D03*
X487941Y526000D02*
D03*
Y446000D02*
D03*
X477941Y66000D02*
D03*
X487941Y46000D02*
D03*
X467941Y606001D02*
D03*
X457941Y586001D02*
D03*
Y226000D02*
D03*
Y106000D02*
D03*
Y66000D02*
D03*
X467941Y46000D02*
D03*
X437941Y666001D02*
D03*
X447941Y606001D02*
D03*
X437941Y586001D02*
D03*
Y546000D02*
D03*
Y386000D02*
D03*
Y346000D02*
D03*
X447941Y246000D02*
D03*
X437941Y226000D02*
D03*
X417941Y666001D02*
D03*
X427941Y366000D02*
D03*
X417941Y346000D02*
D03*
X427941Y246000D02*
D03*
X417941Y226000D02*
D03*
Y66000D02*
D03*
X407941Y646001D02*
D03*
Y606001D02*
D03*
X397941Y546000D02*
D03*
X407941Y366000D02*
D03*
X397941Y346000D02*
D03*
Y226000D02*
D03*
X387941Y646001D02*
D03*
Y366000D02*
D03*
X367941Y206000D02*
D03*
X347941Y526000D02*
D03*
X297941Y666001D02*
D03*
Y626001D02*
D03*
X307941Y606001D02*
D03*
X297941Y506000D02*
D03*
X277941Y666001D02*
D03*
X287941Y606001D02*
D03*
Y526000D02*
D03*
Y486000D02*
D03*
X257941Y666001D02*
D03*
X247941Y646001D02*
D03*
X237941Y626001D02*
D03*
X247941Y606001D02*
D03*
Y526000D02*
D03*
Y486000D02*
D03*
X217941Y626001D02*
D03*
X227941Y606001D02*
D03*
Y526000D02*
D03*
X197941Y626001D02*
D03*
X207941Y606001D02*
D03*
Y526000D02*
D03*
X197941Y386000D02*
D03*
X187941Y646001D02*
D03*
X177941Y626001D02*
D03*
X187941Y606001D02*
D03*
Y526000D02*
D03*
X177941Y426000D02*
D03*
X167941Y606001D02*
D03*
Y286000D02*
D03*
X157941Y266000D02*
D03*
X147941Y606001D02*
D03*
X137941Y466000D02*
D03*
Y346000D02*
D03*
X147941Y286000D02*
D03*
X137941Y266000D02*
D03*
X147941Y166000D02*
D03*
X117941Y626001D02*
D03*
X127941Y606001D02*
D03*
X117941Y466000D02*
D03*
X127941Y446000D02*
D03*
X117941Y426000D02*
D03*
Y266000D02*
D03*
Y186000D02*
D03*
X127941Y166000D02*
D03*
X97941Y666001D02*
D03*
X107941Y646001D02*
D03*
Y446000D02*
D03*
X97941Y426000D02*
D03*
Y266000D02*
D03*
Y186000D02*
D03*
X107941Y166000D02*
D03*
X77941Y666001D02*
D03*
X87941Y646001D02*
D03*
Y526000D02*
D03*
Y446000D02*
D03*
X77941Y426000D02*
D03*
X87941Y406000D02*
D03*
X77941Y266000D02*
D03*
X87941Y246000D02*
D03*
Y206000D02*
D03*
X77941Y186000D02*
D03*
X87941Y166000D02*
D03*
X67941Y646001D02*
D03*
Y526000D02*
D03*
X57941Y506000D02*
D03*
X67941Y406000D02*
D03*
Y366000D02*
D03*
Y286000D02*
D03*
X57941Y266000D02*
D03*
X67941Y246000D02*
D03*
Y206000D02*
D03*
X37941Y506000D02*
D03*
X47941Y486000D02*
D03*
Y246000D02*
D03*
Y206000D02*
D03*
X27941Y486000D02*
D03*
Y206000D02*
D03*
X405130Y194930D02*
D03*
X417830Y201930D02*
D03*
X426720Y27320D02*
D03*
X440690D02*
D03*
X212664Y172806D02*
D03*
X361950Y299720D02*
D03*
Y287020D02*
D03*
X346710Y202380D02*
D03*
X446390Y180975D02*
D03*
Y167640D02*
D03*
Y194310D02*
D03*
X460725Y140403D02*
D03*
X318770Y247000D02*
D03*
X295910D02*
D03*
X347980Y110490D02*
D03*
X359410Y591157D02*
D03*
X354330Y638810D02*
D03*
X7270Y565150D02*
D03*
X52070Y537210D02*
D03*
D88*
X317000Y129690D02*
D03*
X107950Y201930D02*
D03*
X156210Y96520D02*
D03*
X205320Y300307D02*
D03*
X240224Y227136D02*
D03*
X401320Y134620D02*
D03*
X397510Y186690D02*
D03*
X317500Y220980D02*
D03*
X373380Y49530D02*
D03*
X431800Y321310D02*
D03*
X422275Y309880D02*
D03*
X431800D02*
D03*
X441325Y321310D02*
D03*
X422275D02*
D03*
X441325Y309880D02*
D03*
X394335D02*
D03*
X384810Y321310D02*
D03*
Y309880D02*
D03*
X394335Y321310D02*
D03*
X403860Y309880D02*
D03*
Y321310D02*
D03*
X337820Y210820D02*
D03*
X300990Y160020D02*
D03*
X260350Y206222D02*
D03*
X252730Y157480D02*
D03*
X260350Y196850D02*
D03*
D89*
X191770Y405130D02*
D03*
X237490D02*
D03*
X222250D02*
D03*
X207010D02*
D03*
X297180Y342900D02*
D03*
X283845D02*
D03*
X270510D02*
D03*
X257175D02*
D03*
X243840D02*
D03*
X58420Y349250D02*
D03*
Y375920D02*
D03*
Y388620D02*
D03*
X80010D02*
D03*
X243840Y355600D02*
D03*
X238760Y372110D02*
D03*
X257175Y355600D02*
D03*
X270510D02*
D03*
X283845D02*
D03*
X297180D02*
D03*
X198120Y675640D02*
D03*
Y657542D02*
D03*
Y639445D02*
D03*
X177800Y675640D02*
D03*
X135255Y657542D02*
D03*
X215900Y639445D02*
D03*
X114300Y657542D02*
D03*
X157480D02*
D03*
X215900D02*
D03*
X114300Y675640D02*
D03*
X135255D02*
D03*
X157480D02*
D03*
X215900D02*
D03*
X236220D02*
D03*
Y657542D02*
D03*
Y639445D02*
D03*
Y613727D02*
D03*
Y593090D02*
D03*
X297180D02*
D03*
X309880D02*
D03*
X322580D02*
D03*
X335280D02*
D03*
X73660Y452120D02*
D03*
Y436880D02*
D03*
X56727D02*
D03*
Y452120D02*
D03*
Y467360D02*
D03*
X39793D02*
D03*
Y452120D02*
D03*
Y436880D02*
D03*
X22860D02*
D03*
Y452120D02*
D03*
Y467360D02*
D03*
X100330Y303530D02*
D03*
Y292100D02*
D03*
X124460D02*
D03*
X113030Y303530D02*
D03*
Y292100D02*
D03*
X124460Y303530D02*
D03*
X116840Y556260D02*
D03*
X181610D02*
D03*
Y543103D02*
D03*
X160020Y556260D02*
D03*
X138430D02*
D03*
M02*
