G04*
G04 #@! TF.GenerationSoftware,Altium Limited,Altium Designer,24.2.2 (26)*
G04*
G04 Layer_Color=2752767*
%FSLAX44Y44*%
%MOMM*%
G71*
G04*
G04 #@! TF.SameCoordinates,411CF6F5-C546-4132-A14B-87BDE19E8412*
G04*
G04*
G04 #@! TF.FilePolarity,Positive*
G04*
G01*
G75*
%ADD16C,0.1270*%
%ADD96C,0.1693*%
%ADD97C,0.1016*%
D16*
X320040Y57150D02*
X322580Y59690D01*
X325120D01*
X322580Y62230D01*
X325120Y64770D01*
X322580D01*
X320040Y67310D01*
X317500Y64770D01*
X314960D01*
X317500Y62230D01*
X314960Y59690D01*
X317500D01*
X320040Y57150D01*
Y59182D02*
X321564Y60706D01*
X323088D01*
X321564Y62230D01*
X323088Y63754D01*
X321564D01*
X320040Y65278D01*
X318516Y63754D01*
X316992D01*
X318516Y62230D01*
X316992Y60706D01*
X318516D01*
X320040Y59182D01*
X320040Y31750D02*
X322580Y34290D01*
X325120D01*
X322580Y36830D01*
X325120Y39370D01*
X322580D01*
X320040Y41910D01*
X317500Y39370D01*
X314960D01*
X317500Y36830D01*
X314960Y34290D01*
X317500D01*
X320040Y31750D01*
Y33782D02*
X321564Y35306D01*
X323088D01*
X321564Y36830D01*
X323088Y38354D01*
X321564D01*
X320040Y39878D01*
X318516Y38354D01*
X316992D01*
X318516Y36830D01*
X316992Y35306D01*
X318516D01*
X320040Y33782D01*
X294640Y57150D02*
X297180Y59690D01*
X299720D01*
X297180Y62230D01*
X299720Y64770D01*
X297180D01*
X294640Y67310D01*
X292100Y64770D01*
X289560D01*
X292100Y62230D01*
X289560Y59690D01*
X292100D01*
X294640Y57150D01*
Y59182D02*
X296164Y60706D01*
X297688D01*
X296164Y62230D01*
X297688Y63754D01*
X296164D01*
X294640Y65278D01*
X293116Y63754D01*
X291592D01*
X293116Y62230D01*
X291592Y60706D01*
X293116D01*
X294640Y59182D01*
Y31750D02*
X297180Y34290D01*
X299720D01*
X297180Y36830D01*
X299720Y39370D01*
X297180D01*
X294640Y41910D01*
X292100Y39370D01*
X289560D01*
X292100Y36830D01*
X289560Y34290D01*
X292100D01*
X294640Y31750D01*
Y33782D02*
X296164Y35306D01*
X297688D01*
X296164Y36830D01*
X297688Y38354D01*
X296164D01*
X294640Y39878D01*
X293116Y38354D01*
X291592D01*
X293116Y36830D01*
X291592Y35306D01*
X293116D01*
X294640Y33782D01*
X269240Y57150D02*
X271780Y59690D01*
X274320D01*
X271780Y62230D01*
X274320Y64770D01*
X271780D01*
X269240Y67310D01*
X266700Y64770D01*
X264160D01*
X266700Y62230D01*
X264160Y59690D01*
X266700D01*
X269240Y57150D01*
Y59182D02*
X270764Y60706D01*
X272288D01*
X270764Y62230D01*
X272288Y63754D01*
X270764D01*
X269240Y65278D01*
X267716Y63754D01*
X266192D01*
X267716Y62230D01*
X266192Y60706D01*
X267716D01*
X269240Y59182D01*
Y31750D02*
X271780Y34290D01*
X274320D01*
X271780Y36830D01*
X274320Y39370D01*
X271780D01*
X269240Y41910D01*
X266700Y39370D01*
X264160D01*
X266700Y36830D01*
X264160Y34290D01*
X266700D01*
X269240Y31750D01*
Y33782D02*
X270764Y35306D01*
X272288D01*
X270764Y36830D01*
X272288Y38354D01*
X270764D01*
X269240Y39878D01*
X267716Y38354D01*
X266192D01*
X267716Y36830D01*
X266192Y35306D01*
X267716D01*
X269240Y33782D01*
X243840Y57150D02*
X246380Y59690D01*
X248920D01*
X246380Y62230D01*
X248920Y64770D01*
X246380D01*
X243840Y67310D01*
X241300Y64770D01*
X238760D01*
X241300Y62230D01*
X238760Y59690D01*
X241300D01*
X243840Y57150D01*
Y59182D02*
X245364Y60706D01*
X246888D01*
X245364Y62230D01*
X246888Y63754D01*
X245364D01*
X243840Y65278D01*
X242316Y63754D01*
X240792D01*
X242316Y62230D01*
X240792Y60706D01*
X242316D01*
X243840Y59182D01*
Y31750D02*
X246380Y34290D01*
X248920D01*
X246380Y36830D01*
X248920Y39370D01*
X246380D01*
X243840Y41910D01*
X241300Y39370D01*
X238760D01*
X241300Y36830D01*
X238760Y34290D01*
X241300D01*
X243840Y31750D01*
Y33782D02*
X245364Y35306D01*
X246888D01*
X245364Y36830D01*
X246888Y38354D01*
X245364D01*
X243840Y39878D01*
X242316Y38354D01*
X240792D01*
X242316Y36830D01*
X240792Y35306D01*
X242316D01*
X243840Y33782D01*
X218440Y57150D02*
X220980Y59690D01*
X223520D01*
X220980Y62230D01*
X223520Y64770D01*
X220980D01*
X218440Y67310D01*
X215900Y64770D01*
X213360D01*
X215900Y62230D01*
X213360Y59690D01*
X215900D01*
X218440Y57150D01*
Y59182D02*
X219964Y60706D01*
X221488D01*
X219964Y62230D01*
X221488Y63754D01*
X219964D01*
X218440Y65278D01*
X216916Y63754D01*
X215392D01*
X216916Y62230D01*
X215392Y60706D01*
X216916D01*
X218440Y59182D01*
X218440Y31750D02*
X220980Y34290D01*
X223520D01*
X220980Y36830D01*
X223520Y39370D01*
X220980D01*
X218440Y41910D01*
X215900Y39370D01*
X213360D01*
X215900Y36830D01*
X213360Y34290D01*
X215900D01*
X218440Y31750D01*
Y33782D02*
X219964Y35306D01*
X221488D01*
X219964Y36830D01*
X221488Y38354D01*
X219964D01*
X218440Y39878D01*
X216916Y38354D01*
X215392D01*
X216916Y36830D01*
X215392Y35306D01*
X216916D01*
X218440Y33782D01*
X21590Y542290D02*
X24130Y547370D01*
X21590Y552450D01*
X26670Y549910D01*
X31750Y552450D01*
X29210Y547370D01*
X31750Y542290D01*
X26670Y544830D01*
X21590Y542290D01*
X504190Y529590D02*
X506730Y534670D01*
X504190Y539750D01*
X509270Y537210D01*
X514350Y539750D01*
X511810Y534670D01*
X514350Y529590D01*
X509270Y532130D01*
X504190Y529590D01*
X72390Y21590D02*
X74930Y26670D01*
X72390Y31750D01*
X77470Y29210D01*
X82550Y31750D01*
X80010Y26670D01*
X82550Y21590D01*
X77470Y24130D01*
X72390Y21590D01*
X351790D02*
X354330Y26670D01*
X351790Y31750D01*
X356870Y29210D01*
X361950Y31750D01*
X359410Y26670D01*
X361950Y21590D01*
X356870Y24130D01*
X351790Y21590D01*
X26670Y402590D02*
X29210Y405130D01*
X31750D01*
X29210Y407670D01*
X31750Y410210D01*
X29210D01*
X26670Y412750D01*
X24130Y410210D01*
X21590D01*
X24130Y407670D01*
X21590Y405130D01*
X24130D01*
X26670Y402590D01*
Y377190D02*
X29210Y379730D01*
X31750D01*
X29210Y382270D01*
X31750Y384810D01*
X29210D01*
X26670Y387350D01*
X24130Y384810D01*
X21590D01*
X24130Y382270D01*
X21590Y379730D01*
X24130D01*
X26670Y377190D01*
Y351790D02*
X29210Y354330D01*
X31750D01*
X29210Y356870D01*
X31750Y359410D01*
X29210D01*
X26670Y361950D01*
X24130Y359410D01*
X21590D01*
X24130Y356870D01*
X21590Y354330D01*
X24130D01*
X26670Y351790D01*
Y326390D02*
X29210Y328930D01*
X31750D01*
X29210Y331470D01*
X31750Y334010D01*
X29210D01*
X26670Y336550D01*
X24130Y334010D01*
X21590D01*
X24130Y331470D01*
X21590Y328930D01*
X24130D01*
X26670Y326390D01*
Y300990D02*
X29210Y303530D01*
X31750D01*
X29210Y306070D01*
X31750Y308610D01*
X29210D01*
X26670Y311150D01*
X24130Y308610D01*
X21590D01*
X24130Y306070D01*
X21590Y303530D01*
X24130D01*
X26670Y300990D01*
Y275590D02*
X29210Y278130D01*
X31750D01*
X29210Y280670D01*
X31750Y283210D01*
X29210D01*
X26670Y285750D01*
X24130Y283210D01*
X21590D01*
X24130Y280670D01*
X21590Y278130D01*
X24130D01*
X26670Y275590D01*
Y250190D02*
X29210Y252730D01*
X31750D01*
X29210Y255270D01*
X31750Y257810D01*
X29210D01*
X26670Y260350D01*
X24130Y257810D01*
X21590D01*
X24130Y255270D01*
X21590Y252730D01*
X24130D01*
X26670Y250190D01*
Y224790D02*
X29210Y227330D01*
X31750D01*
X29210Y229870D01*
X31750Y232410D01*
X29210D01*
X26670Y234950D01*
X24130Y232410D01*
X21590D01*
X24130Y229870D01*
X21590Y227330D01*
X24130D01*
X26670Y224790D01*
Y173990D02*
X29210Y176530D01*
X31750D01*
X29210Y179070D01*
X31750Y181610D01*
X29210D01*
X26670Y184150D01*
X24130Y181610D01*
X21590D01*
X24130Y179070D01*
X21590Y176530D01*
X24130D01*
X26670Y173990D01*
Y148590D02*
X29210Y151130D01*
X31750D01*
X29210Y153670D01*
X31750Y156210D01*
X29210D01*
X26670Y158750D01*
X24130Y156210D01*
X21590D01*
X24130Y153670D01*
X21590Y151130D01*
X24130D01*
X26670Y148590D01*
Y123190D02*
X29210Y125730D01*
X31750D01*
X29210Y128270D01*
X31750Y130810D01*
X29210D01*
X26670Y133350D01*
X24130Y130810D01*
X21590D01*
X24130Y128270D01*
X21590Y125730D01*
X24130D01*
X26670Y123190D01*
Y97790D02*
X29210Y100330D01*
X31750D01*
X29210Y102870D01*
X31750Y105410D01*
X29210D01*
X26670Y107950D01*
X24130Y105410D01*
X21590D01*
X24130Y102870D01*
X21590Y100330D01*
X24130D01*
X26670Y97790D01*
Y72390D02*
X29210Y74930D01*
X31750D01*
X29210Y77470D01*
X31750Y80010D01*
X29210D01*
X26670Y82550D01*
X24130Y80010D01*
X21590D01*
X24130Y77470D01*
X21590Y74930D01*
X24130D01*
X26670Y72390D01*
Y46990D02*
X29210Y49530D01*
X31750D01*
X29210Y52070D01*
X31750Y54610D01*
X29210D01*
X26670Y57150D01*
X24130Y54610D01*
X21590D01*
X24130Y52070D01*
X21590Y49530D01*
X24130D01*
X26670Y46990D01*
X509270Y265430D02*
X511810Y267970D01*
X514350D01*
X511810Y270510D01*
X514350Y273050D01*
X511810D01*
X509270Y275590D01*
X506730Y273050D01*
X504190D01*
X506730Y270510D01*
X504190Y267970D01*
X506730D01*
X509270Y265430D01*
Y290830D02*
X511810Y293370D01*
X514350D01*
X511810Y295910D01*
X514350Y298450D01*
X511810D01*
X509270Y300990D01*
X506730Y298450D01*
X504190D01*
X506730Y295910D01*
X504190Y293370D01*
X506730D01*
X509270Y290830D01*
Y316230D02*
X511810Y318770D01*
X514350D01*
X511810Y321310D01*
X514350Y323850D01*
X511810D01*
X509270Y326390D01*
X506730Y323850D01*
X504190D01*
X506730Y321310D01*
X504190Y318770D01*
X506730D01*
X509270Y316230D01*
Y341630D02*
X511810Y344170D01*
X514350D01*
X511810Y346710D01*
X514350Y349250D01*
X511810D01*
X509270Y351790D01*
X506730Y349250D01*
X504190D01*
X506730Y346710D01*
X504190Y344170D01*
X506730D01*
X509270Y341630D01*
Y367030D02*
X511810Y369570D01*
X514350D01*
X511810Y372110D01*
X514350Y374650D01*
X511810D01*
X509270Y377190D01*
X506730Y374650D01*
X504190D01*
X506730Y372110D01*
X504190Y369570D01*
X506730D01*
X509270Y367030D01*
Y392430D02*
X511810Y394970D01*
X514350D01*
X511810Y397510D01*
X514350Y400050D01*
X511810D01*
X509270Y402590D01*
X506730Y400050D01*
X504190D01*
X506730Y397510D01*
X504190Y394970D01*
X506730D01*
X509270Y392430D01*
Y417830D02*
X511810Y420370D01*
X514350D01*
X511810Y422910D01*
X514350Y425450D01*
X511810D01*
X509270Y427990D01*
X506730Y425450D01*
X504190D01*
X506730Y422910D01*
X504190Y420370D01*
X506730D01*
X509270Y417830D01*
Y443230D02*
X511810Y445770D01*
X514350D01*
X511810Y448310D01*
X514350Y450850D01*
X511810D01*
X509270Y453390D01*
X506730Y450850D01*
X504190D01*
X506730Y448310D01*
X504190Y445770D01*
X506730D01*
X509270Y443230D01*
Y468630D02*
X511810Y471170D01*
X514350D01*
X511810Y473710D01*
X514350Y476250D01*
X511810D01*
X509270Y478790D01*
X506730Y476250D01*
X504190D01*
X506730Y473710D01*
X504190Y471170D01*
X506730D01*
X509270Y468630D01*
Y494030D02*
X511810Y496570D01*
X514350D01*
X511810Y499110D01*
X514350Y501650D01*
X511810D01*
X509270Y504190D01*
X506730Y501650D01*
X504190D01*
X506730Y499110D01*
X504190Y496570D01*
X506730D01*
X509270Y494030D01*
Y46990D02*
X511810Y49530D01*
X514350D01*
X511810Y52070D01*
X514350Y54610D01*
X511810D01*
X509270Y57150D01*
X506730Y54610D01*
X504190D01*
X506730Y52070D01*
X504190Y49530D01*
X506730D01*
X509270Y46990D01*
Y72390D02*
X511810Y74930D01*
X514350D01*
X511810Y77470D01*
X514350Y80010D01*
X511810D01*
X509270Y82550D01*
X506730Y80010D01*
X504190D01*
X506730Y77470D01*
X504190Y74930D01*
X506730D01*
X509270Y72390D01*
Y97790D02*
X511810Y100330D01*
X514350D01*
X511810Y102870D01*
X514350Y105410D01*
X511810D01*
X509270Y107950D01*
X506730Y105410D01*
X504190D01*
X506730Y102870D01*
X504190Y100330D01*
X506730D01*
X509270Y97790D01*
Y123190D02*
X511810Y125730D01*
X514350D01*
X511810Y128270D01*
X514350Y130810D01*
X511810D01*
X509270Y133350D01*
X506730Y130810D01*
X504190D01*
X506730Y128270D01*
X504190Y125730D01*
X506730D01*
X509270Y123190D01*
Y148590D02*
X511810Y151130D01*
X514350D01*
X511810Y153670D01*
X514350Y156210D01*
X511810D01*
X509270Y158750D01*
X506730Y156210D01*
X504190D01*
X506730Y153670D01*
X504190Y151130D01*
X506730D01*
X509270Y148590D01*
Y173990D02*
X511810Y176530D01*
X514350D01*
X511810Y179070D01*
X514350Y181610D01*
X511810D01*
X509270Y184150D01*
X506730Y181610D01*
X504190D01*
X506730Y179070D01*
X504190Y176530D01*
X506730D01*
X509270Y173990D01*
Y199390D02*
X511810Y201930D01*
X514350D01*
X511810Y204470D01*
X514350Y207010D01*
X511810D01*
X509270Y209550D01*
X506730Y207010D01*
X504190D01*
X506730Y204470D01*
X504190Y201930D01*
X506730D01*
X509270Y199390D01*
Y224790D02*
X511810Y227330D01*
X514350D01*
X511810Y229870D01*
X514350Y232410D01*
X511810D01*
X509270Y234950D01*
X506730Y232410D01*
X504190D01*
X506730Y229870D01*
X504190Y227330D01*
X506730D01*
X509270Y224790D01*
X90160Y606630D02*
X92700D01*
X95240Y609170D01*
X97780Y606630D01*
X100320D01*
Y609170D01*
X97780Y611710D01*
X100320Y614250D01*
Y616790D01*
X97780D01*
X95240Y614250D01*
X92700Y616790D01*
X90160D01*
Y614250D01*
X92700Y611710D01*
X90160Y609170D01*
Y606630D01*
X137160Y637630D02*
X139700D01*
X142240Y640170D01*
X144780Y637630D01*
X147320D01*
Y640170D01*
X144780Y642710D01*
X147320Y645250D01*
Y647790D01*
X144780D01*
X142240Y645250D01*
X139700Y647790D01*
X137160D01*
Y645250D01*
X139700Y642710D01*
X137160Y640170D01*
Y637630D01*
Y577630D02*
X139700D01*
X142240Y580170D01*
X144780Y577630D01*
X147320D01*
Y580170D01*
X144780Y582710D01*
X147320Y585250D01*
Y587790D01*
X144780D01*
X142240Y585250D01*
X139700Y587790D01*
X137160D01*
Y585250D01*
X139700Y582710D01*
X137160Y580170D01*
Y577630D01*
X261620Y425450D02*
X264160Y427990D01*
X266700D01*
X264160Y430530D01*
X266700Y433070D01*
X264160D01*
X261620Y435610D01*
X259080Y433070D01*
X256540D01*
X259080Y430530D01*
X256540Y427990D01*
X259080D01*
X261620Y425450D01*
Y427482D02*
X263144Y429006D01*
X264668D01*
X263144Y430530D01*
X264668Y432054D01*
X263144D01*
X261620Y433578D01*
X260096Y432054D01*
X258572D01*
X260096Y430530D01*
X258572Y429006D01*
X260096D01*
X261620Y427482D01*
Y400050D02*
X264160Y402590D01*
X266700D01*
X264160Y405130D01*
X266700Y407670D01*
X264160D01*
X261620Y410210D01*
X259080Y407670D01*
X256540D01*
X259080Y405130D01*
X256540Y402590D01*
X259080D01*
X261620Y400050D01*
Y402082D02*
X263144Y403606D01*
X264668D01*
X263144Y405130D01*
X264668Y406654D01*
X263144D01*
X261620Y408178D01*
X260096Y406654D01*
X258572D01*
X260096Y405130D01*
X258572Y403606D01*
X260096D01*
X261620Y402082D01*
Y374650D02*
X264160Y377190D01*
X266700D01*
X264160Y379730D01*
X266700Y382270D01*
X264160D01*
X261620Y384810D01*
X259080Y382270D01*
X256540D01*
X259080Y379730D01*
X256540Y377190D01*
X259080D01*
X261620Y374650D01*
Y376682D02*
X263144Y378206D01*
X264668D01*
X263144Y379730D01*
X264668Y381254D01*
X263144D01*
X261620Y382778D01*
X260096Y381254D01*
X258572D01*
X260096Y379730D01*
X258572Y378206D01*
X260096D01*
X261620Y376682D01*
X306000Y660400D02*
Y670560D01*
X316160D01*
Y660400D01*
X306000D01*
X308032Y662432D02*
Y668528D01*
X314128D01*
Y662432D01*
X308032D01*
X392500Y660400D02*
Y670560D01*
X402660D01*
Y660400D01*
X392500D01*
X394532Y662432D02*
Y668528D01*
X400628D01*
Y662432D01*
X394532D01*
X325430Y623600D02*
X320350Y633760D01*
X330510D01*
X325430Y623600D01*
X383230D02*
X378150Y633760D01*
X388310D01*
X383230Y623600D01*
X327660Y105410D02*
Y115570D01*
X337820D01*
Y105410D01*
X327660D01*
X312420D02*
Y115570D01*
X322580D01*
Y105410D01*
X312420D01*
X311920Y124610D02*
Y134770D01*
X322080D01*
Y124610D01*
X311920D01*
X414210Y34200D02*
Y31660D01*
X419290D01*
Y34200D01*
X421830D01*
Y39280D01*
X419290D01*
Y41820D01*
X414210D01*
Y39280D01*
X411670D01*
Y34200D01*
X414210D01*
X415226Y35216D02*
Y33692D01*
X418274D01*
Y35216D01*
X419798D01*
Y38264D01*
X418274D01*
Y39788D01*
X415226D01*
Y38264D01*
X413702D01*
Y35216D01*
X415226D01*
X454210Y34200D02*
Y31660D01*
X459290D01*
Y34200D01*
X461830D01*
Y39280D01*
X459290D01*
Y41820D01*
X454210D01*
Y39280D01*
X451670D01*
Y34200D01*
X454210D01*
X455226Y35216D02*
Y33692D01*
X458274D01*
Y35216D01*
X459798D01*
Y38264D01*
X458274D01*
Y39788D01*
X455226D01*
Y38264D01*
X453702D01*
Y35216D01*
X455226D01*
X515401Y663460D02*
Y660920D01*
X520481D01*
Y663460D01*
X523021D01*
Y668540D01*
X520481D01*
Y671080D01*
X515401D01*
Y668540D01*
X512861D01*
Y663460D01*
X515401D01*
X525401Y643460D02*
Y640920D01*
X530481D01*
Y643460D01*
X533021D01*
Y648540D01*
X530481D01*
Y651080D01*
X525401D01*
Y648540D01*
X522861D01*
Y643460D01*
X525401D01*
X515401Y623461D02*
Y620920D01*
X520481D01*
Y623461D01*
X523021D01*
Y628540D01*
X520481D01*
Y631081D01*
X515401D01*
Y628540D01*
X512861D01*
Y623461D01*
X515401D01*
X525401Y603461D02*
Y600920D01*
X530481D01*
Y603461D01*
X533021D01*
Y608540D01*
X530481D01*
Y611081D01*
X525401D01*
Y608540D01*
X522861D01*
Y603461D01*
X525401D01*
X515401Y583461D02*
Y580920D01*
X520481D01*
Y583461D01*
X523021D01*
Y588540D01*
X520481D01*
Y591081D01*
X515401D01*
Y588540D01*
X512861D01*
Y583461D01*
X515401D01*
X525401Y563460D02*
Y560920D01*
X530481D01*
Y563460D01*
X533021D01*
Y568540D01*
X530481D01*
Y571080D01*
X525401D01*
Y568540D01*
X522861D01*
Y563460D01*
X525401D01*
X495401Y663460D02*
Y660920D01*
X500481D01*
Y663460D01*
X503021D01*
Y668540D01*
X500481D01*
Y671080D01*
X495401D01*
Y668540D01*
X492861D01*
Y663460D01*
X495401D01*
X505401Y643460D02*
Y640920D01*
X510481D01*
Y643460D01*
X513021D01*
Y648540D01*
X510481D01*
Y651080D01*
X505401D01*
Y648540D01*
X502861D01*
Y643460D01*
X505401D01*
X495401Y623461D02*
Y620920D01*
X500481D01*
Y623461D01*
X503021D01*
Y628540D01*
X500481D01*
Y631081D01*
X495401D01*
Y628540D01*
X492861D01*
Y623461D01*
X495401D01*
X505401Y603461D02*
Y600920D01*
X510481D01*
Y603461D01*
X513021D01*
Y608540D01*
X510481D01*
Y611081D01*
X505401D01*
Y608540D01*
X502861D01*
Y603461D01*
X505401D01*
X495401Y583461D02*
Y580920D01*
X500481D01*
Y583461D01*
X503021D01*
Y588540D01*
X500481D01*
Y591081D01*
X495401D01*
Y588540D01*
X492861D01*
Y583461D01*
X495401D01*
X505401Y563460D02*
Y560920D01*
X510481D01*
Y563460D01*
X513021D01*
Y568540D01*
X510481D01*
Y571080D01*
X505401D01*
Y568540D01*
X502861D01*
Y563460D01*
X505401D01*
X475401Y663460D02*
Y660920D01*
X480481D01*
Y663460D01*
X483021D01*
Y668540D01*
X480481D01*
Y671080D01*
X475401D01*
Y668540D01*
X472861D01*
Y663460D01*
X475401D01*
X485401Y643460D02*
Y640920D01*
X490481D01*
Y643460D01*
X493021D01*
Y648540D01*
X490481D01*
Y651080D01*
X485401D01*
Y648540D01*
X482861D01*
Y643460D01*
X485401D01*
X475401Y623461D02*
Y620920D01*
X480481D01*
Y623461D01*
X483021D01*
Y628540D01*
X480481D01*
Y631081D01*
X475401D01*
Y628540D01*
X472861D01*
Y623461D01*
X475401D01*
X485401Y603461D02*
Y600920D01*
X490481D01*
Y603461D01*
X493021D01*
Y608540D01*
X490481D01*
Y611081D01*
X485401D01*
Y608540D01*
X482861D01*
Y603461D01*
X485401D01*
X475401Y583461D02*
Y580920D01*
X480481D01*
Y583461D01*
X483021D01*
Y588540D01*
X480481D01*
Y591081D01*
X475401D01*
Y588540D01*
X472861D01*
Y583461D01*
X475401D01*
X485401Y563460D02*
Y560920D01*
X490481D01*
Y563460D01*
X493021D01*
Y568540D01*
X490481D01*
Y571080D01*
X485401D01*
Y568540D01*
X482861D01*
Y563460D01*
X485401D01*
X475401Y543460D02*
Y540920D01*
X480481D01*
Y543460D01*
X483021D01*
Y548540D01*
X480481D01*
Y551080D01*
X475401D01*
Y548540D01*
X472861D01*
Y543460D01*
X475401D01*
X485401Y523460D02*
Y520920D01*
X490481D01*
Y523460D01*
X493021D01*
Y528540D01*
X490481D01*
Y531080D01*
X485401D01*
Y528540D01*
X482861D01*
Y523460D01*
X485401D01*
Y443460D02*
Y440920D01*
X490481D01*
Y443460D01*
X493021D01*
Y448540D01*
X490481D01*
Y451080D01*
X485401D01*
Y448540D01*
X482861D01*
Y443460D01*
X485401D01*
X475401Y63460D02*
Y60920D01*
X480481D01*
Y63460D01*
X483021D01*
Y68540D01*
X480481D01*
Y71080D01*
X475401D01*
Y68540D01*
X472861D01*
Y63460D01*
X475401D01*
X485401Y43460D02*
Y40920D01*
X490481D01*
Y43460D01*
X493021D01*
Y48540D01*
X490481D01*
Y51080D01*
X485401D01*
Y48540D01*
X482861D01*
Y43460D01*
X485401D01*
X465401Y603461D02*
Y600920D01*
X470481D01*
Y603461D01*
X473021D01*
Y608540D01*
X470481D01*
Y611081D01*
X465401D01*
Y608540D01*
X462861D01*
Y603461D01*
X465401D01*
X455401Y583461D02*
Y580920D01*
X460481D01*
Y583461D01*
X463021D01*
Y588540D01*
X460481D01*
Y591081D01*
X455401D01*
Y588540D01*
X452861D01*
Y583461D01*
X455401D01*
Y223460D02*
Y220920D01*
X460481D01*
Y223460D01*
X463021D01*
Y228540D01*
X460481D01*
Y231080D01*
X455401D01*
Y228540D01*
X452861D01*
Y223460D01*
X455401D01*
Y103460D02*
Y100920D01*
X460481D01*
Y103460D01*
X463021D01*
Y108540D01*
X460481D01*
Y111080D01*
X455401D01*
Y108540D01*
X452861D01*
Y103460D01*
X455401D01*
Y63460D02*
Y60920D01*
X460481D01*
Y63460D01*
X463021D01*
Y68540D01*
X460481D01*
Y71080D01*
X455401D01*
Y68540D01*
X452861D01*
Y63460D01*
X455401D01*
X465401Y43460D02*
Y40920D01*
X470481D01*
Y43460D01*
X473021D01*
Y48540D01*
X470481D01*
Y51080D01*
X465401D01*
Y48540D01*
X462861D01*
Y43460D01*
X465401D01*
X435401Y663460D02*
Y660920D01*
X440481D01*
Y663460D01*
X443021D01*
Y668540D01*
X440481D01*
Y671080D01*
X435401D01*
Y668540D01*
X432861D01*
Y663460D01*
X435401D01*
X445401Y603461D02*
Y600920D01*
X450481D01*
Y603461D01*
X453021D01*
Y608540D01*
X450481D01*
Y611081D01*
X445401D01*
Y608540D01*
X442861D01*
Y603461D01*
X445401D01*
X435401Y583461D02*
Y580920D01*
X440481D01*
Y583461D01*
X443021D01*
Y588540D01*
X440481D01*
Y591081D01*
X435401D01*
Y588540D01*
X432861D01*
Y583461D01*
X435401D01*
Y543460D02*
Y540920D01*
X440481D01*
Y543460D01*
X443021D01*
Y548540D01*
X440481D01*
Y551080D01*
X435401D01*
Y548540D01*
X432861D01*
Y543460D01*
X435401D01*
Y383460D02*
Y380920D01*
X440481D01*
Y383460D01*
X443021D01*
Y388540D01*
X440481D01*
Y391080D01*
X435401D01*
Y388540D01*
X432861D01*
Y383460D01*
X435401D01*
Y343460D02*
Y340920D01*
X440481D01*
Y343460D01*
X443021D01*
Y348540D01*
X440481D01*
Y351080D01*
X435401D01*
Y348540D01*
X432861D01*
Y343460D01*
X435401D01*
X445401Y243460D02*
Y240920D01*
X450481D01*
Y243460D01*
X453021D01*
Y248540D01*
X450481D01*
Y251080D01*
X445401D01*
Y248540D01*
X442861D01*
Y243460D01*
X445401D01*
X435401Y223460D02*
Y220920D01*
X440481D01*
Y223460D01*
X443021D01*
Y228540D01*
X440481D01*
Y231080D01*
X435401D01*
Y228540D01*
X432861D01*
Y223460D01*
X435401D01*
X415401Y663460D02*
Y660920D01*
X420481D01*
Y663460D01*
X423021D01*
Y668540D01*
X420481D01*
Y671080D01*
X415401D01*
Y668540D01*
X412861D01*
Y663460D01*
X415401D01*
X425401Y363460D02*
Y360920D01*
X430481D01*
Y363460D01*
X433021D01*
Y368540D01*
X430481D01*
Y371080D01*
X425401D01*
Y368540D01*
X422861D01*
Y363460D01*
X425401D01*
X415401Y343460D02*
Y340920D01*
X420481D01*
Y343460D01*
X423021D01*
Y348540D01*
X420481D01*
Y351080D01*
X415401D01*
Y348540D01*
X412861D01*
Y343460D01*
X415401D01*
X425401Y243460D02*
Y240920D01*
X430481D01*
Y243460D01*
X433021D01*
Y248540D01*
X430481D01*
Y251080D01*
X425401D01*
Y248540D01*
X422861D01*
Y243460D01*
X425401D01*
X415401Y223460D02*
Y220920D01*
X420481D01*
Y223460D01*
X423021D01*
Y228540D01*
X420481D01*
Y231080D01*
X415401D01*
Y228540D01*
X412861D01*
Y223460D01*
X415401D01*
Y63460D02*
Y60920D01*
X420481D01*
Y63460D01*
X423021D01*
Y68540D01*
X420481D01*
Y71080D01*
X415401D01*
Y68540D01*
X412861D01*
Y63460D01*
X415401D01*
X405401Y643460D02*
Y640920D01*
X410481D01*
Y643460D01*
X413021D01*
Y648540D01*
X410481D01*
Y651080D01*
X405401D01*
Y648540D01*
X402861D01*
Y643460D01*
X405401D01*
Y603461D02*
Y600920D01*
X410481D01*
Y603461D01*
X413021D01*
Y608540D01*
X410481D01*
Y611081D01*
X405401D01*
Y608540D01*
X402861D01*
Y603461D01*
X405401D01*
X395401Y543460D02*
Y540920D01*
X400481D01*
Y543460D01*
X403021D01*
Y548540D01*
X400481D01*
Y551080D01*
X395401D01*
Y548540D01*
X392861D01*
Y543460D01*
X395401D01*
X405401Y363460D02*
Y360920D01*
X410481D01*
Y363460D01*
X413021D01*
Y368540D01*
X410481D01*
Y371080D01*
X405401D01*
Y368540D01*
X402861D01*
Y363460D01*
X405401D01*
X395401Y343460D02*
Y340920D01*
X400481D01*
Y343460D01*
X403021D01*
Y348540D01*
X400481D01*
Y351080D01*
X395401D01*
Y348540D01*
X392861D01*
Y343460D01*
X395401D01*
Y223460D02*
Y220920D01*
X400481D01*
Y223460D01*
X403021D01*
Y228540D01*
X400481D01*
Y231080D01*
X395401D01*
Y228540D01*
X392861D01*
Y223460D01*
X395401D01*
X385401Y643460D02*
Y640920D01*
X390481D01*
Y643460D01*
X393021D01*
Y648540D01*
X390481D01*
Y651080D01*
X385401D01*
Y648540D01*
X382861D01*
Y643460D01*
X385401D01*
Y363460D02*
Y360920D01*
X390481D01*
Y363460D01*
X393021D01*
Y368540D01*
X390481D01*
Y371080D01*
X385401D01*
Y368540D01*
X382861D01*
Y363460D01*
X385401D01*
X365401Y203460D02*
Y200920D01*
X370481D01*
Y203460D01*
X373021D01*
Y208540D01*
X370481D01*
Y211080D01*
X365401D01*
Y208540D01*
X362861D01*
Y203460D01*
X365401D01*
X345401Y523460D02*
Y520920D01*
X350481D01*
Y523460D01*
X353021D01*
Y528540D01*
X350481D01*
Y531080D01*
X345401D01*
Y528540D01*
X342861D01*
Y523460D01*
X345401D01*
X295401Y663460D02*
Y660920D01*
X300481D01*
Y663460D01*
X303021D01*
Y668540D01*
X300481D01*
Y671080D01*
X295401D01*
Y668540D01*
X292861D01*
Y663460D01*
X295401D01*
Y623461D02*
Y620920D01*
X300481D01*
Y623461D01*
X303021D01*
Y628540D01*
X300481D01*
Y631081D01*
X295401D01*
Y628540D01*
X292861D01*
Y623461D01*
X295401D01*
X305401Y603461D02*
Y600920D01*
X310481D01*
Y603461D01*
X313021D01*
Y608540D01*
X310481D01*
Y611081D01*
X305401D01*
Y608540D01*
X302861D01*
Y603461D01*
X305401D01*
X295401Y503460D02*
Y500920D01*
X300481D01*
Y503460D01*
X303021D01*
Y508540D01*
X300481D01*
Y511080D01*
X295401D01*
Y508540D01*
X292861D01*
Y503460D01*
X295401D01*
X275401Y663460D02*
Y660920D01*
X280481D01*
Y663460D01*
X283021D01*
Y668540D01*
X280481D01*
Y671080D01*
X275401D01*
Y668540D01*
X272861D01*
Y663460D01*
X275401D01*
X285401Y603461D02*
Y600920D01*
X290481D01*
Y603461D01*
X293021D01*
Y608540D01*
X290481D01*
Y611081D01*
X285401D01*
Y608540D01*
X282861D01*
Y603461D01*
X285401D01*
Y523460D02*
Y520920D01*
X290481D01*
Y523460D01*
X293021D01*
Y528540D01*
X290481D01*
Y531080D01*
X285401D01*
Y528540D01*
X282861D01*
Y523460D01*
X285401D01*
Y483460D02*
Y480920D01*
X290481D01*
Y483460D01*
X293021D01*
Y488540D01*
X290481D01*
Y491080D01*
X285401D01*
Y488540D01*
X282861D01*
Y483460D01*
X285401D01*
X255401Y663460D02*
Y660920D01*
X260481D01*
Y663460D01*
X263021D01*
Y668540D01*
X260481D01*
Y671080D01*
X255401D01*
Y668540D01*
X252861D01*
Y663460D01*
X255401D01*
X245401Y643460D02*
Y640920D01*
X250481D01*
Y643460D01*
X253021D01*
Y648540D01*
X250481D01*
Y651080D01*
X245401D01*
Y648540D01*
X242861D01*
Y643460D01*
X245401D01*
X235401Y623461D02*
Y620920D01*
X240481D01*
Y623461D01*
X243021D01*
Y628540D01*
X240481D01*
Y631081D01*
X235401D01*
Y628540D01*
X232861D01*
Y623461D01*
X235401D01*
X245401Y603461D02*
Y600920D01*
X250481D01*
Y603461D01*
X253021D01*
Y608540D01*
X250481D01*
Y611081D01*
X245401D01*
Y608540D01*
X242861D01*
Y603461D01*
X245401D01*
Y523460D02*
Y520920D01*
X250481D01*
Y523460D01*
X253021D01*
Y528540D01*
X250481D01*
Y531080D01*
X245401D01*
Y528540D01*
X242861D01*
Y523460D01*
X245401D01*
Y483460D02*
Y480920D01*
X250481D01*
Y483460D01*
X253021D01*
Y488540D01*
X250481D01*
Y491080D01*
X245401D01*
Y488540D01*
X242861D01*
Y483460D01*
X245401D01*
X215401Y623461D02*
Y620920D01*
X220481D01*
Y623461D01*
X223021D01*
Y628540D01*
X220481D01*
Y631081D01*
X215401D01*
Y628540D01*
X212861D01*
Y623461D01*
X215401D01*
X225401Y603461D02*
Y600920D01*
X230481D01*
Y603461D01*
X233021D01*
Y608540D01*
X230481D01*
Y611081D01*
X225401D01*
Y608540D01*
X222861D01*
Y603461D01*
X225401D01*
Y523460D02*
Y520920D01*
X230481D01*
Y523460D01*
X233021D01*
Y528540D01*
X230481D01*
Y531080D01*
X225401D01*
Y528540D01*
X222861D01*
Y523460D01*
X225401D01*
X195401Y623461D02*
Y620920D01*
X200481D01*
Y623461D01*
X203021D01*
Y628540D01*
X200481D01*
Y631081D01*
X195401D01*
Y628540D01*
X192861D01*
Y623461D01*
X195401D01*
X205401Y603461D02*
Y600920D01*
X210481D01*
Y603461D01*
X213021D01*
Y608540D01*
X210481D01*
Y611081D01*
X205401D01*
Y608540D01*
X202861D01*
Y603461D01*
X205401D01*
Y523460D02*
Y520920D01*
X210481D01*
Y523460D01*
X213021D01*
Y528540D01*
X210481D01*
Y531080D01*
X205401D01*
Y528540D01*
X202861D01*
Y523460D01*
X205401D01*
X195401Y383460D02*
Y380920D01*
X200481D01*
Y383460D01*
X203021D01*
Y388540D01*
X200481D01*
Y391080D01*
X195401D01*
Y388540D01*
X192861D01*
Y383460D01*
X195401D01*
X185401Y643460D02*
Y640920D01*
X190481D01*
Y643460D01*
X193021D01*
Y648540D01*
X190481D01*
Y651080D01*
X185401D01*
Y648540D01*
X182861D01*
Y643460D01*
X185401D01*
X175401Y623461D02*
Y620920D01*
X180481D01*
Y623461D01*
X183021D01*
Y628540D01*
X180481D01*
Y631081D01*
X175401D01*
Y628540D01*
X172861D01*
Y623461D01*
X175401D01*
X185401Y603461D02*
Y600920D01*
X190481D01*
Y603461D01*
X193021D01*
Y608540D01*
X190481D01*
Y611081D01*
X185401D01*
Y608540D01*
X182861D01*
Y603461D01*
X185401D01*
Y523460D02*
Y520920D01*
X190481D01*
Y523460D01*
X193021D01*
Y528540D01*
X190481D01*
Y531080D01*
X185401D01*
Y528540D01*
X182861D01*
Y523460D01*
X185401D01*
X175401Y423460D02*
Y420920D01*
X180481D01*
Y423460D01*
X183021D01*
Y428540D01*
X180481D01*
Y431080D01*
X175401D01*
Y428540D01*
X172861D01*
Y423460D01*
X175401D01*
X165401Y603461D02*
Y600920D01*
X170481D01*
Y603461D01*
X173021D01*
Y608540D01*
X170481D01*
Y611081D01*
X165401D01*
Y608540D01*
X162861D01*
Y603461D01*
X165401D01*
Y283460D02*
Y280920D01*
X170481D01*
Y283460D01*
X173021D01*
Y288540D01*
X170481D01*
Y291080D01*
X165401D01*
Y288540D01*
X162861D01*
Y283460D01*
X165401D01*
X155401Y263460D02*
Y260920D01*
X160481D01*
Y263460D01*
X163021D01*
Y268540D01*
X160481D01*
Y271080D01*
X155401D01*
Y268540D01*
X152861D01*
Y263460D01*
X155401D01*
X145401Y603461D02*
Y600920D01*
X150481D01*
Y603461D01*
X153021D01*
Y608540D01*
X150481D01*
Y611081D01*
X145401D01*
Y608540D01*
X142861D01*
Y603461D01*
X145401D01*
X135401Y463460D02*
Y460920D01*
X140481D01*
Y463460D01*
X143021D01*
Y468540D01*
X140481D01*
Y471080D01*
X135401D01*
Y468540D01*
X132861D01*
Y463460D01*
X135401D01*
Y343460D02*
Y340920D01*
X140481D01*
Y343460D01*
X143021D01*
Y348540D01*
X140481D01*
Y351080D01*
X135401D01*
Y348540D01*
X132861D01*
Y343460D01*
X135401D01*
X145401Y283460D02*
Y280920D01*
X150481D01*
Y283460D01*
X153021D01*
Y288540D01*
X150481D01*
Y291080D01*
X145401D01*
Y288540D01*
X142861D01*
Y283460D01*
X145401D01*
X135401Y263460D02*
Y260920D01*
X140481D01*
Y263460D01*
X143021D01*
Y268540D01*
X140481D01*
Y271080D01*
X135401D01*
Y268540D01*
X132861D01*
Y263460D01*
X135401D01*
X145401Y163460D02*
Y160920D01*
X150481D01*
Y163460D01*
X153021D01*
Y168540D01*
X150481D01*
Y171080D01*
X145401D01*
Y168540D01*
X142861D01*
Y163460D01*
X145401D01*
X115401Y623461D02*
Y620920D01*
X120481D01*
Y623461D01*
X123021D01*
Y628540D01*
X120481D01*
Y631081D01*
X115401D01*
Y628540D01*
X112861D01*
Y623461D01*
X115401D01*
X125401Y603461D02*
Y600920D01*
X130481D01*
Y603461D01*
X133021D01*
Y608540D01*
X130481D01*
Y611081D01*
X125401D01*
Y608540D01*
X122861D01*
Y603461D01*
X125401D01*
X115401Y463460D02*
Y460920D01*
X120481D01*
Y463460D01*
X123021D01*
Y468540D01*
X120481D01*
Y471080D01*
X115401D01*
Y468540D01*
X112861D01*
Y463460D01*
X115401D01*
X125401Y443460D02*
Y440920D01*
X130481D01*
Y443460D01*
X133021D01*
Y448540D01*
X130481D01*
Y451080D01*
X125401D01*
Y448540D01*
X122861D01*
Y443460D01*
X125401D01*
X115401Y423460D02*
Y420920D01*
X120481D01*
Y423460D01*
X123021D01*
Y428540D01*
X120481D01*
Y431080D01*
X115401D01*
Y428540D01*
X112861D01*
Y423460D01*
X115401D01*
Y263460D02*
Y260920D01*
X120481D01*
Y263460D01*
X123021D01*
Y268540D01*
X120481D01*
Y271080D01*
X115401D01*
Y268540D01*
X112861D01*
Y263460D01*
X115401D01*
Y183460D02*
Y180920D01*
X120481D01*
Y183460D01*
X123021D01*
Y188540D01*
X120481D01*
Y191080D01*
X115401D01*
Y188540D01*
X112861D01*
Y183460D01*
X115401D01*
X125401Y163460D02*
Y160920D01*
X130481D01*
Y163460D01*
X133021D01*
Y168540D01*
X130481D01*
Y171080D01*
X125401D01*
Y168540D01*
X122861D01*
Y163460D01*
X125401D01*
X95401Y663460D02*
Y660920D01*
X100481D01*
Y663460D01*
X103021D01*
Y668540D01*
X100481D01*
Y671080D01*
X95401D01*
Y668540D01*
X92861D01*
Y663460D01*
X95401D01*
X105401Y643460D02*
Y640920D01*
X110481D01*
Y643460D01*
X113021D01*
Y648540D01*
X110481D01*
Y651080D01*
X105401D01*
Y648540D01*
X102861D01*
Y643460D01*
X105401D01*
Y443460D02*
Y440920D01*
X110481D01*
Y443460D01*
X113021D01*
Y448540D01*
X110481D01*
Y451080D01*
X105401D01*
Y448540D01*
X102861D01*
Y443460D01*
X105401D01*
X95401Y423460D02*
Y420920D01*
X100481D01*
Y423460D01*
X103021D01*
Y428540D01*
X100481D01*
Y431080D01*
X95401D01*
Y428540D01*
X92861D01*
Y423460D01*
X95401D01*
Y263460D02*
Y260920D01*
X100481D01*
Y263460D01*
X103021D01*
Y268540D01*
X100481D01*
Y271080D01*
X95401D01*
Y268540D01*
X92861D01*
Y263460D01*
X95401D01*
Y183460D02*
Y180920D01*
X100481D01*
Y183460D01*
X103021D01*
Y188540D01*
X100481D01*
Y191080D01*
X95401D01*
Y188540D01*
X92861D01*
Y183460D01*
X95401D01*
X105401Y163460D02*
Y160920D01*
X110481D01*
Y163460D01*
X113021D01*
Y168540D01*
X110481D01*
Y171080D01*
X105401D01*
Y168540D01*
X102861D01*
Y163460D01*
X105401D01*
X75401Y663460D02*
Y660920D01*
X80481D01*
Y663460D01*
X83021D01*
Y668540D01*
X80481D01*
Y671080D01*
X75401D01*
Y668540D01*
X72861D01*
Y663460D01*
X75401D01*
X85401Y643460D02*
Y640920D01*
X90481D01*
Y643460D01*
X93021D01*
Y648540D01*
X90481D01*
Y651080D01*
X85401D01*
Y648540D01*
X82861D01*
Y643460D01*
X85401D01*
Y523460D02*
Y520920D01*
X90481D01*
Y523460D01*
X93021D01*
Y528540D01*
X90481D01*
Y531080D01*
X85401D01*
Y528540D01*
X82861D01*
Y523460D01*
X85401D01*
Y443460D02*
Y440920D01*
X90481D01*
Y443460D01*
X93021D01*
Y448540D01*
X90481D01*
Y451080D01*
X85401D01*
Y448540D01*
X82861D01*
Y443460D01*
X85401D01*
X75401Y423460D02*
Y420920D01*
X80481D01*
Y423460D01*
X83021D01*
Y428540D01*
X80481D01*
Y431080D01*
X75401D01*
Y428540D01*
X72861D01*
Y423460D01*
X75401D01*
X85401Y403460D02*
Y400920D01*
X90481D01*
Y403460D01*
X93021D01*
Y408540D01*
X90481D01*
Y411080D01*
X85401D01*
Y408540D01*
X82861D01*
Y403460D01*
X85401D01*
X75401Y263460D02*
Y260920D01*
X80481D01*
Y263460D01*
X83021D01*
Y268540D01*
X80481D01*
Y271080D01*
X75401D01*
Y268540D01*
X72861D01*
Y263460D01*
X75401D01*
X85401Y243460D02*
Y240920D01*
X90481D01*
Y243460D01*
X93021D01*
Y248540D01*
X90481D01*
Y251080D01*
X85401D01*
Y248540D01*
X82861D01*
Y243460D01*
X85401D01*
Y203460D02*
Y200920D01*
X90481D01*
Y203460D01*
X93021D01*
Y208540D01*
X90481D01*
Y211080D01*
X85401D01*
Y208540D01*
X82861D01*
Y203460D01*
X85401D01*
X75401Y183460D02*
Y180920D01*
X80481D01*
Y183460D01*
X83021D01*
Y188540D01*
X80481D01*
Y191080D01*
X75401D01*
Y188540D01*
X72861D01*
Y183460D01*
X75401D01*
X85401Y163460D02*
Y160920D01*
X90481D01*
Y163460D01*
X93021D01*
Y168540D01*
X90481D01*
Y171080D01*
X85401D01*
Y168540D01*
X82861D01*
Y163460D01*
X85401D01*
X65401Y643460D02*
Y640920D01*
X70481D01*
Y643460D01*
X73021D01*
Y648540D01*
X70481D01*
Y651080D01*
X65401D01*
Y648540D01*
X62861D01*
Y643460D01*
X65401D01*
Y523460D02*
Y520920D01*
X70481D01*
Y523460D01*
X73021D01*
Y528540D01*
X70481D01*
Y531080D01*
X65401D01*
Y528540D01*
X62861D01*
Y523460D01*
X65401D01*
X55401Y503460D02*
Y500920D01*
X60481D01*
Y503460D01*
X63021D01*
Y508540D01*
X60481D01*
Y511080D01*
X55401D01*
Y508540D01*
X52861D01*
Y503460D01*
X55401D01*
X65401Y403460D02*
Y400920D01*
X70481D01*
Y403460D01*
X73021D01*
Y408540D01*
X70481D01*
Y411080D01*
X65401D01*
Y408540D01*
X62861D01*
Y403460D01*
X65401D01*
Y363460D02*
Y360920D01*
X70481D01*
Y363460D01*
X73021D01*
Y368540D01*
X70481D01*
Y371080D01*
X65401D01*
Y368540D01*
X62861D01*
Y363460D01*
X65401D01*
Y283460D02*
Y280920D01*
X70481D01*
Y283460D01*
X73021D01*
Y288540D01*
X70481D01*
Y291080D01*
X65401D01*
Y288540D01*
X62861D01*
Y283460D01*
X65401D01*
X55401Y263460D02*
Y260920D01*
X60481D01*
Y263460D01*
X63021D01*
Y268540D01*
X60481D01*
Y271080D01*
X55401D01*
Y268540D01*
X52861D01*
Y263460D01*
X55401D01*
X65401Y243460D02*
Y240920D01*
X70481D01*
Y243460D01*
X73021D01*
Y248540D01*
X70481D01*
Y251080D01*
X65401D01*
Y248540D01*
X62861D01*
Y243460D01*
X65401D01*
Y203460D02*
Y200920D01*
X70481D01*
Y203460D01*
X73021D01*
Y208540D01*
X70481D01*
Y211080D01*
X65401D01*
Y208540D01*
X62861D01*
Y203460D01*
X65401D01*
X35401Y503460D02*
Y500920D01*
X40481D01*
Y503460D01*
X43021D01*
Y508540D01*
X40481D01*
Y511080D01*
X35401D01*
Y508540D01*
X32861D01*
Y503460D01*
X35401D01*
X45401Y483460D02*
Y480920D01*
X50481D01*
Y483460D01*
X53021D01*
Y488540D01*
X50481D01*
Y491080D01*
X45401D01*
Y488540D01*
X42861D01*
Y483460D01*
X45401D01*
Y243460D02*
Y240920D01*
X50481D01*
Y243460D01*
X53021D01*
Y248540D01*
X50481D01*
Y251080D01*
X45401D01*
Y248540D01*
X42861D01*
Y243460D01*
X45401D01*
Y203460D02*
Y200920D01*
X50481D01*
Y203460D01*
X53021D01*
Y208540D01*
X50481D01*
Y211080D01*
X45401D01*
Y208540D01*
X42861D01*
Y203460D01*
X45401D01*
X25401Y483460D02*
Y480920D01*
X30481D01*
Y483460D01*
X33021D01*
Y488540D01*
X30481D01*
Y491080D01*
X25401D01*
Y488540D01*
X22861D01*
Y483460D01*
X25401D01*
Y203460D02*
Y200920D01*
X30481D01*
Y203460D01*
X33021D01*
Y208540D01*
X30481D01*
Y211080D01*
X25401D01*
Y208540D01*
X22861D01*
Y203460D01*
X25401D01*
X102870Y196850D02*
Y207010D01*
X113030D01*
Y196850D01*
X102870D01*
X151130Y91440D02*
Y101600D01*
X161290D01*
Y91440D01*
X151130D01*
X200240Y295227D02*
Y305387D01*
X210400D01*
Y295227D01*
X200240D01*
X235145Y222055D02*
Y232215D01*
X245305D01*
Y222055D01*
X235145D01*
X396240Y129540D02*
Y139700D01*
X406400D01*
Y129540D01*
X396240D01*
X392430Y181610D02*
Y191770D01*
X402590D01*
Y181610D01*
X392430D01*
X400050Y189850D02*
Y200010D01*
X410210D01*
Y189850D01*
X400050D01*
X412750Y196850D02*
Y207010D01*
X422910D01*
Y196850D01*
X412750D01*
X421640Y22240D02*
Y32400D01*
X431800D01*
Y22240D01*
X421640D01*
X435610D02*
Y32400D01*
X445770D01*
Y22240D01*
X435610D01*
X207584Y167726D02*
Y177886D01*
X217744D01*
Y167726D01*
X207584D01*
X312420Y215900D02*
Y226060D01*
X322580D01*
Y215900D01*
X312420D01*
X368300Y44450D02*
Y54610D01*
X378460D01*
Y44450D01*
X368300D01*
X426720Y316230D02*
Y326390D01*
X436880D01*
Y316230D01*
X426720D01*
X417195Y304800D02*
Y314960D01*
X427355D01*
Y304800D01*
X417195D01*
X426720D02*
Y314960D01*
X436880D01*
Y304800D01*
X426720D01*
X436245Y316230D02*
Y326390D01*
X446405D01*
Y316230D01*
X436245D01*
X417195D02*
Y326390D01*
X427355D01*
Y316230D01*
X417195D01*
X436245Y304800D02*
Y314960D01*
X446405D01*
Y304800D01*
X436245D01*
X389255D02*
Y314960D01*
X399415D01*
Y304800D01*
X389255D01*
X379730Y316230D02*
Y326390D01*
X389890D01*
Y316230D01*
X379730D01*
Y304800D02*
Y314960D01*
X389890D01*
Y304800D01*
X379730D01*
X389255Y316230D02*
Y326390D01*
X399415D01*
Y316230D01*
X389255D01*
X398780Y304800D02*
Y314960D01*
X408940D01*
Y304800D01*
X398780D01*
Y316230D02*
Y326390D01*
X408940D01*
Y316230D01*
X398780D01*
X356870Y294640D02*
Y304800D01*
X367030D01*
Y294640D01*
X356870D01*
Y281940D02*
Y292100D01*
X367030D01*
Y281940D01*
X356870D01*
X332740Y205740D02*
Y215900D01*
X342900D01*
Y205740D01*
X332740D01*
X341630Y197300D02*
Y207460D01*
X351790D01*
Y197300D01*
X341630D01*
X295910Y154940D02*
Y165100D01*
X306070D01*
Y154940D01*
X295910D01*
X255270Y201141D02*
Y211301D01*
X265430D01*
Y201141D01*
X255270D01*
X247650Y152400D02*
Y162560D01*
X257810D01*
Y152400D01*
X247650D01*
X255270Y191770D02*
Y201930D01*
X265430D01*
Y191770D01*
X255270D01*
X441310Y175895D02*
Y186055D01*
X451470D01*
Y175895D01*
X441310D01*
Y162560D02*
Y172720D01*
X451470D01*
Y162560D01*
X441310D01*
Y189230D02*
Y199390D01*
X451470D01*
Y189230D01*
X441310D01*
X455645Y135323D02*
Y145483D01*
X465805D01*
Y135323D01*
X455645D01*
X313690Y241920D02*
Y252080D01*
X323850D01*
Y241920D01*
X313690D01*
X290830D02*
Y252080D01*
X300990D01*
Y241920D01*
X290830D01*
X342900Y105410D02*
Y115570D01*
X353060D01*
Y105410D01*
X342900D01*
X354330Y586077D02*
Y596237D01*
X364490D01*
Y586077D01*
X354330D01*
X349250Y633730D02*
Y643890D01*
X359410D01*
Y633730D01*
X349250D01*
X2190Y560070D02*
Y570230D01*
X12350D01*
Y560070D01*
X2190D01*
X46990Y532130D02*
Y542290D01*
X57150D01*
Y532130D01*
X46990D01*
D96*
X316160Y623780D02*
G03*
X316160Y623780I-5080J0D01*
G01*
X402660D02*
G03*
X402660Y623780I-5080J0D01*
G01*
X196850Y405130D02*
G03*
X196850Y405130I-5080J0D01*
G01*
X242570D02*
G03*
X242570Y405130I-5080J0D01*
G01*
X227330D02*
G03*
X227330Y405130I-5080J0D01*
G01*
X212090D02*
G03*
X212090Y405130I-5080J0D01*
G01*
X302260Y342900D02*
G03*
X302260Y342900I-5080J0D01*
G01*
X288925D02*
G03*
X288925Y342900I-5080J0D01*
G01*
X275590D02*
G03*
X275590Y342900I-5080J0D01*
G01*
X262255D02*
G03*
X262255Y342900I-5080J0D01*
G01*
X248920D02*
G03*
X248920Y342900I-5080J0D01*
G01*
X63500Y349250D02*
G03*
X63500Y349250I-5080J0D01*
G01*
Y375920D02*
G03*
X63500Y375920I-5080J0D01*
G01*
Y388620D02*
G03*
X63500Y388620I-5080J0D01*
G01*
X85090D02*
G03*
X85090Y388620I-5080J0D01*
G01*
X248920Y355600D02*
G03*
X248920Y355600I-5080J0D01*
G01*
X243840Y372110D02*
G03*
X243840Y372110I-5080J0D01*
G01*
X262255Y355600D02*
G03*
X262255Y355600I-5080J0D01*
G01*
X275590D02*
G03*
X275590Y355600I-5080J0D01*
G01*
X288925D02*
G03*
X288925Y355600I-5080J0D01*
G01*
X302260D02*
G03*
X302260Y355600I-5080J0D01*
G01*
X203200Y675640D02*
G03*
X203200Y675640I-5080J0D01*
G01*
Y657542D02*
G03*
X203200Y657542I-5080J0D01*
G01*
Y639445D02*
G03*
X203200Y639445I-5080J0D01*
G01*
X182880Y675640D02*
G03*
X182880Y675640I-5080J0D01*
G01*
X140335Y657542D02*
G03*
X140335Y657542I-5080J0D01*
G01*
X220980Y639445D02*
G03*
X220980Y639445I-5080J0D01*
G01*
X119380Y657542D02*
G03*
X119380Y657542I-5080J0D01*
G01*
X162560D02*
G03*
X162560Y657542I-5080J0D01*
G01*
X220980D02*
G03*
X220980Y657542I-5080J0D01*
G01*
X119380Y675640D02*
G03*
X119380Y675640I-5080J0D01*
G01*
X140335D02*
G03*
X140335Y675640I-5080J0D01*
G01*
X162560D02*
G03*
X162560Y675640I-5080J0D01*
G01*
X220980D02*
G03*
X220980Y675640I-5080J0D01*
G01*
X241300D02*
G03*
X241300Y675640I-5080J0D01*
G01*
Y657542D02*
G03*
X241300Y657542I-5080J0D01*
G01*
Y639445D02*
G03*
X241300Y639445I-5080J0D01*
G01*
Y613727D02*
G03*
X241300Y613727I-5080J0D01*
G01*
Y593090D02*
G03*
X241300Y593090I-5080J0D01*
G01*
X302260D02*
G03*
X302260Y593090I-5080J0D01*
G01*
X314960D02*
G03*
X314960Y593090I-5080J0D01*
G01*
X327660D02*
G03*
X327660Y593090I-5080J0D01*
G01*
X340360D02*
G03*
X340360Y593090I-5080J0D01*
G01*
X78740Y452120D02*
G03*
X78740Y452120I-5080J0D01*
G01*
Y436880D02*
G03*
X78740Y436880I-5080J0D01*
G01*
X61807D02*
G03*
X61807Y436880I-5080J0D01*
G01*
Y452120D02*
G03*
X61807Y452120I-5080J0D01*
G01*
Y467360D02*
G03*
X61807Y467360I-5080J0D01*
G01*
X44873D02*
G03*
X44873Y467360I-5080J0D01*
G01*
Y452120D02*
G03*
X44873Y452120I-5080J0D01*
G01*
Y436880D02*
G03*
X44873Y436880I-5080J0D01*
G01*
X27940D02*
G03*
X27940Y436880I-5080J0D01*
G01*
Y452120D02*
G03*
X27940Y452120I-5080J0D01*
G01*
Y467360D02*
G03*
X27940Y467360I-5080J0D01*
G01*
X105410Y303530D02*
G03*
X105410Y303530I-5080J0D01*
G01*
Y292100D02*
G03*
X105410Y292100I-5080J0D01*
G01*
X129540D02*
G03*
X129540Y292100I-5080J0D01*
G01*
X118110Y303530D02*
G03*
X118110Y303530I-5080J0D01*
G01*
Y292100D02*
G03*
X118110Y292100I-5080J0D01*
G01*
X129540Y303530D02*
G03*
X129540Y303530I-5080J0D01*
G01*
X121920Y556260D02*
G03*
X121920Y556260I-5080J0D01*
G01*
X186690D02*
G03*
X186690Y556260I-5080J0D01*
G01*
Y543103D02*
G03*
X186690Y543103I-5080J0D01*
G01*
X165100Y556260D02*
G03*
X165100Y556260I-5080J0D01*
G01*
X143510D02*
G03*
X143510Y556260I-5080J0D01*
G01*
D97*
X314128Y623780D02*
G03*
X314128Y623780I-3048J0D01*
G01*
X400628D02*
G03*
X400628Y623780I-3048J0D01*
G01*
M02*
