G04*
G04 #@! TF.GenerationSoftware,Altium Limited,Altium Designer,24.2.2 (26)*
G04*
G04 Layer_Color=32896*
%FSLAX44Y44*%
%MOMM*%
G71*
G04*
G04 #@! TF.SameCoordinates,4540F394-007A-4255-9B34-8FA5F3C486F6*
G04*
G04*
G04 #@! TF.FilePolarity,Positive*
G04*
G01*
G75*
%ADD13C,0.2000*%
%ADD15C,0.1500*%
%ADD18C,0.3048*%
%ADD95C,0.1000*%
G36*
X227330Y237462D02*
Y215900D01*
Y195580D01*
X36423D01*
Y216374D01*
X73572D01*
Y237462D01*
Y256030D01*
X227330D01*
Y237462D01*
D02*
G37*
%LPC*%
G36*
X173498Y253822D02*
X172919D01*
X172665Y253799D01*
X172364Y253752D01*
X171994Y253683D01*
X171577Y253567D01*
X171161Y253428D01*
X170744Y253243D01*
X170721D01*
X170698Y253220D01*
X170559Y253151D01*
X170351Y253012D01*
X170119Y252850D01*
X169842Y252618D01*
X169564Y252364D01*
X169286Y252063D01*
X169055Y251716D01*
X169032Y251670D01*
X168962Y251554D01*
X168870Y251346D01*
X168754Y251091D01*
X168638Y250790D01*
X168546Y250443D01*
X168477Y250050D01*
X168453Y249657D01*
Y249610D01*
Y249471D01*
X168477Y249286D01*
X168523Y249032D01*
X168592Y248731D01*
X168708Y248407D01*
X168847Y248083D01*
X169032Y247759D01*
X169055Y247713D01*
X169124Y247620D01*
X169263Y247458D01*
X169448Y247273D01*
X169680Y247065D01*
X169957Y246833D01*
X170281Y246625D01*
X170675Y246417D01*
X170652D01*
X170605Y246394D01*
X170536Y246371D01*
X170443Y246348D01*
X170189Y246255D01*
X169865Y246116D01*
X169495Y245931D01*
X169124Y245700D01*
X168777Y245399D01*
X168453Y245052D01*
X168430Y245005D01*
X168338Y244867D01*
X168199Y244635D01*
X168060Y244334D01*
X167921Y243964D01*
X167782Y243525D01*
X167690Y243015D01*
X167667Y242460D01*
Y242252D01*
X167690Y242113D01*
X167713Y241928D01*
X167759Y241720D01*
X167806Y241488D01*
X167852Y241234D01*
X168037Y240678D01*
X168176Y240378D01*
X168314Y240100D01*
X168500Y239799D01*
X168708Y239498D01*
X168939Y239198D01*
X169217Y238920D01*
X169240Y238897D01*
X169286Y238850D01*
X169379Y238781D01*
X169495Y238688D01*
X169634Y238573D01*
X169819Y238457D01*
X170027Y238318D01*
X170281Y238202D01*
X170536Y238064D01*
X170837Y237925D01*
X171138Y237809D01*
X171485Y237693D01*
X171855Y237601D01*
X172248Y237532D01*
X172642Y237485D01*
X173081Y237462D01*
X173290D01*
X173428Y237485D01*
X173613Y237508D01*
X173822Y237532D01*
X174053Y237578D01*
X174308Y237624D01*
X174863Y237763D01*
X175441Y237994D01*
X175742Y238133D01*
X176020Y238295D01*
X176298Y238503D01*
X176575Y238712D01*
X176598Y238735D01*
X176645Y238781D01*
X176714Y238850D01*
X176784Y238943D01*
X176899Y239059D01*
X177015Y239221D01*
X177154Y239383D01*
X177293Y239591D01*
X177431Y239822D01*
X177570Y240054D01*
X177825Y240609D01*
X178033Y241257D01*
X178102Y241604D01*
X178149Y241974D01*
X176182Y242229D01*
Y242206D01*
X176159Y242159D01*
X176136Y242067D01*
X176112Y241951D01*
X176089Y241812D01*
X176043Y241650D01*
X175927Y241303D01*
X175765Y240887D01*
X175557Y240493D01*
X175326Y240123D01*
X175048Y239799D01*
X175002Y239776D01*
X174909Y239683D01*
X174724Y239568D01*
X174493Y239452D01*
X174215Y239313D01*
X173868Y239198D01*
X173475Y239105D01*
X173058Y239082D01*
X172919D01*
X172827Y239105D01*
X172572Y239128D01*
X172248Y239198D01*
X171878Y239313D01*
X171485Y239475D01*
X171091Y239707D01*
X170721Y240030D01*
X170675Y240077D01*
X170559Y240216D01*
X170420Y240424D01*
X170235Y240702D01*
X170050Y241049D01*
X169911Y241442D01*
X169795Y241905D01*
X169749Y242414D01*
Y242437D01*
Y242483D01*
Y242553D01*
X169772Y242645D01*
X169795Y242900D01*
X169865Y243201D01*
X169957Y243571D01*
X170119Y243941D01*
X170351Y244311D01*
X170652Y244658D01*
X170698Y244705D01*
X170814Y244797D01*
X170999Y244936D01*
X171253Y245098D01*
X171577Y245260D01*
X171971Y245399D01*
X172410Y245491D01*
X172896Y245538D01*
X173104D01*
X173266Y245515D01*
X173475Y245491D01*
X173706Y245445D01*
X173984Y245399D01*
X174284Y245329D01*
X174053Y247065D01*
X173937D01*
X173845Y247042D01*
X173544D01*
X173290Y247088D01*
X172989Y247134D01*
X172642Y247204D01*
X172248Y247319D01*
X171878Y247481D01*
X171485Y247690D01*
X171462D01*
X171438Y247713D01*
X171323Y247805D01*
X171161Y247967D01*
X170976Y248176D01*
X170790Y248476D01*
X170629Y248824D01*
X170513Y249217D01*
X170466Y249448D01*
Y249703D01*
Y249726D01*
Y249749D01*
Y249888D01*
X170513Y250073D01*
X170559Y250327D01*
X170652Y250605D01*
X170767Y250906D01*
X170952Y251207D01*
X171207Y251485D01*
X171230Y251508D01*
X171346Y251600D01*
X171508Y251716D01*
X171716Y251855D01*
X171994Y251970D01*
X172318Y252086D01*
X172688Y252179D01*
X173104Y252202D01*
X173290D01*
X173498Y252156D01*
X173775Y252109D01*
X174076Y252017D01*
X174377Y251901D01*
X174701Y251716D01*
X175002Y251485D01*
X175025Y251461D01*
X175117Y251346D01*
X175256Y251184D01*
X175418Y250952D01*
X175580Y250651D01*
X175742Y250281D01*
X175881Y249842D01*
X175974Y249333D01*
X177941Y249680D01*
Y249703D01*
X177917Y249772D01*
X177894Y249865D01*
X177871Y250004D01*
X177825Y250166D01*
X177755Y250351D01*
X177617Y250790D01*
X177385Y251299D01*
X177108Y251808D01*
X176760Y252294D01*
X176321Y252734D01*
X176298Y252757D01*
X176251Y252780D01*
X176182Y252827D01*
X176089Y252896D01*
X175974Y252989D01*
X175812Y253081D01*
X175650Y253174D01*
X175441Y253289D01*
X174979Y253475D01*
X174447Y253660D01*
X173822Y253775D01*
X173498Y253822D01*
D02*
G37*
G36*
X110026D02*
X109448D01*
X109193Y253799D01*
X108892Y253752D01*
X108522Y253683D01*
X108106Y253567D01*
X107689Y253428D01*
X107273Y253243D01*
X107250D01*
X107226Y253220D01*
X107088Y253151D01*
X106879Y253012D01*
X106648Y252850D01*
X106370Y252618D01*
X106093Y252364D01*
X105815Y252063D01*
X105584Y251716D01*
X105561Y251670D01*
X105491Y251554D01*
X105399Y251346D01*
X105283Y251091D01*
X105167Y250790D01*
X105075Y250443D01*
X105005Y250050D01*
X104982Y249657D01*
Y249610D01*
Y249471D01*
X105005Y249286D01*
X105051Y249032D01*
X105121Y248731D01*
X105237Y248407D01*
X105375Y248083D01*
X105561Y247759D01*
X105584Y247713D01*
X105653Y247620D01*
X105792Y247458D01*
X105977Y247273D01*
X106208Y247065D01*
X106486Y246833D01*
X106810Y246625D01*
X107203Y246417D01*
X107180D01*
X107134Y246394D01*
X107065Y246371D01*
X106972Y246348D01*
X106717Y246255D01*
X106393Y246116D01*
X106023Y245931D01*
X105653Y245700D01*
X105306Y245399D01*
X104982Y245052D01*
X104959Y245005D01*
X104866Y244867D01*
X104727Y244635D01*
X104589Y244334D01*
X104450Y243964D01*
X104311Y243525D01*
X104218Y243015D01*
X104195Y242460D01*
Y242252D01*
X104218Y242113D01*
X104242Y241928D01*
X104288Y241720D01*
X104334Y241488D01*
X104380Y241234D01*
X104565Y240678D01*
X104704Y240378D01*
X104843Y240100D01*
X105028Y239799D01*
X105237Y239498D01*
X105468Y239198D01*
X105746Y238920D01*
X105769Y238897D01*
X105815Y238850D01*
X105908Y238781D01*
X106023Y238688D01*
X106162Y238573D01*
X106347Y238457D01*
X106556Y238318D01*
X106810Y238202D01*
X107065Y238064D01*
X107365Y237925D01*
X107666Y237809D01*
X108013Y237693D01*
X108384Y237601D01*
X108777Y237532D01*
X109170Y237485D01*
X109610Y237462D01*
X109818D01*
X109957Y237485D01*
X110142Y237508D01*
X110350Y237532D01*
X110582Y237578D01*
X110836Y237624D01*
X111392Y237763D01*
X111970Y237994D01*
X112271Y238133D01*
X112549Y238295D01*
X112826Y238503D01*
X113104Y238712D01*
X113127Y238735D01*
X113173Y238781D01*
X113243Y238850D01*
X113312Y238943D01*
X113428Y239059D01*
X113544Y239221D01*
X113682Y239383D01*
X113821Y239591D01*
X113960Y239822D01*
X114099Y240054D01*
X114353Y240609D01*
X114562Y241257D01*
X114631Y241604D01*
X114677Y241974D01*
X112711Y242229D01*
Y242206D01*
X112687Y242159D01*
X112664Y242067D01*
X112641Y241951D01*
X112618Y241812D01*
X112572Y241650D01*
X112456Y241303D01*
X112294Y240887D01*
X112086Y240493D01*
X111854Y240123D01*
X111577Y239799D01*
X111530Y239776D01*
X111438Y239683D01*
X111253Y239568D01*
X111021Y239452D01*
X110744Y239313D01*
X110397Y239198D01*
X110003Y239105D01*
X109587Y239082D01*
X109448D01*
X109355Y239105D01*
X109101Y239128D01*
X108777Y239198D01*
X108407Y239313D01*
X108013Y239475D01*
X107620Y239707D01*
X107250Y240030D01*
X107203Y240077D01*
X107088Y240216D01*
X106949Y240424D01*
X106764Y240702D01*
X106579Y241049D01*
X106440Y241442D01*
X106324Y241905D01*
X106278Y242414D01*
Y242437D01*
Y242483D01*
Y242553D01*
X106301Y242645D01*
X106324Y242900D01*
X106393Y243201D01*
X106486Y243571D01*
X106648Y243941D01*
X106879Y244311D01*
X107180Y244658D01*
X107226Y244705D01*
X107342Y244797D01*
X107527Y244936D01*
X107782Y245098D01*
X108106Y245260D01*
X108499Y245399D01*
X108939Y245491D01*
X109425Y245538D01*
X109633D01*
X109795Y245515D01*
X110003Y245491D01*
X110235Y245445D01*
X110512Y245399D01*
X110813Y245329D01*
X110582Y247065D01*
X110466D01*
X110373Y247042D01*
X110073D01*
X109818Y247088D01*
X109517Y247134D01*
X109170Y247204D01*
X108777Y247319D01*
X108407Y247481D01*
X108013Y247690D01*
X107990D01*
X107967Y247713D01*
X107851Y247805D01*
X107689Y247967D01*
X107504Y248176D01*
X107319Y248476D01*
X107157Y248824D01*
X107041Y249217D01*
X106995Y249448D01*
Y249703D01*
Y249726D01*
Y249749D01*
Y249888D01*
X107041Y250073D01*
X107088Y250327D01*
X107180Y250605D01*
X107296Y250906D01*
X107481Y251207D01*
X107736Y251485D01*
X107759Y251508D01*
X107874Y251600D01*
X108036Y251716D01*
X108245Y251855D01*
X108522Y251970D01*
X108846Y252086D01*
X109216Y252179D01*
X109633Y252202D01*
X109818D01*
X110026Y252156D01*
X110304Y252109D01*
X110605Y252017D01*
X110906Y251901D01*
X111230Y251716D01*
X111530Y251485D01*
X111554Y251461D01*
X111646Y251346D01*
X111785Y251184D01*
X111947Y250952D01*
X112109Y250651D01*
X112271Y250281D01*
X112410Y249842D01*
X112502Y249333D01*
X114469Y249680D01*
Y249703D01*
X114446Y249772D01*
X114423Y249865D01*
X114400Y250004D01*
X114353Y250166D01*
X114284Y250351D01*
X114145Y250790D01*
X113914Y251299D01*
X113636Y251808D01*
X113289Y252294D01*
X112849Y252734D01*
X112826Y252757D01*
X112780Y252780D01*
X112711Y252827D01*
X112618Y252896D01*
X112502Y252989D01*
X112340Y253081D01*
X112178Y253174D01*
X111970Y253289D01*
X111507Y253475D01*
X110975Y253660D01*
X110350Y253775D01*
X110026Y253822D01*
D02*
G37*
G36*
X160424D02*
X160193D01*
X160031Y253799D01*
X159846Y253775D01*
X159614Y253752D01*
X159360Y253706D01*
X159105Y253660D01*
X158503Y253498D01*
X157902Y253266D01*
X157601Y253127D01*
X157300Y252965D01*
X157022Y252757D01*
X156768Y252526D01*
X156745Y252503D01*
X156699Y252479D01*
X156652Y252387D01*
X156560Y252294D01*
X156444Y252179D01*
X156328Y252017D01*
X156213Y251855D01*
X156074Y251646D01*
X155842Y251207D01*
X155611Y250651D01*
X155518Y250374D01*
X155472Y250050D01*
X155426Y249726D01*
X155403Y249379D01*
Y249333D01*
Y249217D01*
X155426Y249032D01*
X155449Y248777D01*
X155495Y248500D01*
X155588Y248176D01*
X155680Y247829D01*
X155819Y247481D01*
X155842Y247435D01*
X155889Y247319D01*
X155981Y247134D01*
X156120Y246880D01*
X156305Y246602D01*
X156537Y246255D01*
X156814Y245908D01*
X157138Y245515D01*
X157184Y245468D01*
X157300Y245329D01*
X157416Y245214D01*
X157532Y245098D01*
X157670Y244959D01*
X157856Y244774D01*
X158041Y244589D01*
X158272Y244381D01*
X158503Y244149D01*
X158781Y243895D01*
X159082Y243640D01*
X159406Y243339D01*
X159776Y243039D01*
X160146Y242715D01*
X160170Y242691D01*
X160216Y242645D01*
X160308Y242576D01*
X160424Y242483D01*
X160563Y242344D01*
X160725Y242206D01*
X161095Y241905D01*
X161488Y241558D01*
X161859Y241211D01*
X162183Y240910D01*
X162321Y240794D01*
X162437Y240678D01*
X162460Y240655D01*
X162530Y240586D01*
X162622Y240493D01*
X162738Y240354D01*
X162854Y240193D01*
X162992Y240030D01*
X163270Y239637D01*
X155380D01*
Y237740D01*
X166001D01*
Y237994D01*
X165977Y238179D01*
X165954Y238388D01*
X165908Y238619D01*
X165862Y238850D01*
X165769Y239105D01*
Y239128D01*
X165746Y239151D01*
X165700Y239290D01*
X165607Y239498D01*
X165468Y239776D01*
X165283Y240100D01*
X165052Y240470D01*
X164797Y240840D01*
X164473Y241234D01*
Y241257D01*
X164427Y241280D01*
X164311Y241419D01*
X164103Y241627D01*
X163802Y241928D01*
X163455Y242275D01*
X163016Y242691D01*
X162483Y243154D01*
X161905Y243640D01*
X161882Y243663D01*
X161789Y243733D01*
X161650Y243848D01*
X161488Y243987D01*
X161280Y244172D01*
X161026Y244381D01*
X160771Y244612D01*
X160470Y244867D01*
X159892Y245422D01*
X159313Y245977D01*
X159036Y246255D01*
X158781Y246533D01*
X158550Y246787D01*
X158365Y247042D01*
Y247065D01*
X158318Y247088D01*
X158272Y247157D01*
X158226Y247250D01*
X158064Y247505D01*
X157879Y247805D01*
X157717Y248176D01*
X157555Y248569D01*
X157462Y249009D01*
X157416Y249425D01*
Y249448D01*
Y249471D01*
X157439Y249610D01*
X157462Y249842D01*
X157532Y250096D01*
X157624Y250420D01*
X157786Y250744D01*
X157994Y251068D01*
X158272Y251392D01*
X158318Y251438D01*
X158434Y251531D01*
X158596Y251646D01*
X158850Y251808D01*
X159174Y251947D01*
X159545Y252086D01*
X159984Y252179D01*
X160470Y252202D01*
X160609D01*
X160702Y252179D01*
X160979Y252156D01*
X161303Y252086D01*
X161650Y251994D01*
X162044Y251832D01*
X162414Y251623D01*
X162761Y251346D01*
X162807Y251299D01*
X162900Y251184D01*
X163039Y250999D01*
X163178Y250721D01*
X163340Y250397D01*
X163478Y249980D01*
X163571Y249518D01*
X163617Y248986D01*
X165630Y249194D01*
Y249217D01*
X165607Y249286D01*
Y249402D01*
X165584Y249564D01*
X165538Y249749D01*
X165492Y249957D01*
X165422Y250212D01*
X165353Y250466D01*
X165168Y251022D01*
X164890Y251577D01*
X164728Y251855D01*
X164520Y252132D01*
X164311Y252387D01*
X164080Y252618D01*
X164057Y252642D01*
X164011Y252665D01*
X163941Y252734D01*
X163825Y252803D01*
X163687Y252896D01*
X163525Y252989D01*
X163340Y253104D01*
X163108Y253220D01*
X162854Y253336D01*
X162576Y253451D01*
X162275Y253544D01*
X161951Y253636D01*
X161604Y253706D01*
X161234Y253775D01*
X160840Y253799D01*
X160424Y253822D01*
D02*
G37*
G36*
X133467D02*
X132194D01*
Y237740D01*
X134161D01*
Y250258D01*
X134184Y250235D01*
X134300Y250142D01*
X134438Y250004D01*
X134670Y249842D01*
X134924Y249633D01*
X135248Y249402D01*
X135619Y249147D01*
X136035Y248893D01*
X136058D01*
X136081Y248870D01*
X136220Y248777D01*
X136452Y248661D01*
X136729Y248523D01*
X137053Y248361D01*
X137400Y248199D01*
X137747Y248037D01*
X138095Y247898D01*
Y249795D01*
X138071D01*
X138025Y249842D01*
X137933Y249865D01*
X137817Y249934D01*
X137678Y250004D01*
X137516Y250096D01*
X137123Y250327D01*
X136660Y250582D01*
X136197Y250906D01*
X135711Y251276D01*
X135225Y251670D01*
X135202Y251693D01*
X135179Y251716D01*
X135110Y251785D01*
X135017Y251855D01*
X134809Y252086D01*
X134531Y252364D01*
X134253Y252688D01*
X133953Y253058D01*
X133698Y253428D01*
X133467Y253822D01*
D02*
G37*
G36*
X196082Y253752D02*
X192912D01*
X189117Y242391D01*
Y242368D01*
X189094Y242321D01*
X189071Y242252D01*
X189024Y242136D01*
X188932Y241859D01*
X188816Y241511D01*
X188700Y241118D01*
X188561Y240725D01*
X188446Y240354D01*
X188353Y240030D01*
X188330Y240077D01*
X188307Y240193D01*
X188237Y240401D01*
X188145Y240678D01*
X188029Y241049D01*
X187867Y241488D01*
X187705Y241997D01*
X187497Y242599D01*
X183656Y253752D01*
X180810D01*
Y237740D01*
X182846D01*
Y251137D01*
X187520Y237740D01*
X189418D01*
X194046Y251369D01*
Y237740D01*
X196082D01*
Y253752D01*
D02*
G37*
G36*
X94523Y254030D02*
X94292D01*
X94130Y254007D01*
X93921Y253984D01*
X93667Y253960D01*
X93412Y253937D01*
X93111Y253868D01*
X92487Y253729D01*
X91792Y253521D01*
X91445Y253382D01*
X91122Y253220D01*
X90798Y253012D01*
X90474Y252803D01*
X90450Y252780D01*
X90404Y252757D01*
X90312Y252688D01*
X90196Y252572D01*
X90080Y252456D01*
X89918Y252294D01*
X89756Y252109D01*
X89571Y251924D01*
X89386Y251693D01*
X89201Y251415D01*
X88993Y251137D01*
X88807Y250837D01*
X88646Y250490D01*
X88461Y250142D01*
X88322Y249772D01*
X88183Y249356D01*
X90265Y248870D01*
Y248893D01*
X90288Y248939D01*
X90335Y249032D01*
X90381Y249147D01*
X90427Y249286D01*
X90497Y249471D01*
X90682Y249842D01*
X90913Y250258D01*
X91191Y250675D01*
X91538Y251068D01*
X91908Y251415D01*
X91954Y251461D01*
X92093Y251554D01*
X92325Y251670D01*
X92626Y251832D01*
X93019Y251970D01*
X93459Y252109D01*
X93991Y252202D01*
X94569Y252225D01*
X94754D01*
X94870Y252202D01*
X95032D01*
X95217Y252179D01*
X95657Y252109D01*
X96143Y252017D01*
X96652Y251855D01*
X97184Y251623D01*
X97670Y251322D01*
X97693D01*
X97716Y251276D01*
X97878Y251161D01*
X98086Y250975D01*
X98341Y250698D01*
X98642Y250351D01*
X98919Y249957D01*
X99174Y249471D01*
X99405Y248939D01*
Y248916D01*
X99429Y248870D01*
X99452Y248800D01*
X99475Y248685D01*
X99521Y248546D01*
X99567Y248384D01*
X99637Y247990D01*
X99729Y247528D01*
X99822Y247019D01*
X99868Y246463D01*
X99891Y245862D01*
Y245839D01*
Y245769D01*
Y245653D01*
Y245515D01*
X99868Y245353D01*
Y245144D01*
X99845Y244913D01*
X99822Y244658D01*
X99753Y244103D01*
X99637Y243501D01*
X99498Y242900D01*
X99313Y242298D01*
Y242275D01*
X99290Y242229D01*
X99243Y242159D01*
X99197Y242044D01*
X99058Y241766D01*
X98850Y241442D01*
X98596Y241072D01*
X98272Y240678D01*
X97901Y240331D01*
X97462Y240007D01*
X97438D01*
X97392Y239984D01*
X97323Y239938D01*
X97230Y239892D01*
X97115Y239845D01*
X96976Y239776D01*
X96652Y239637D01*
X96235Y239498D01*
X95772Y239383D01*
X95263Y239290D01*
X94731Y239267D01*
X94569D01*
X94430Y239290D01*
X94268D01*
X94107Y239313D01*
X93690Y239406D01*
X93204Y239521D01*
X92718Y239707D01*
X92209Y239961D01*
X91954Y240100D01*
X91723Y240285D01*
X91700Y240308D01*
X91677Y240331D01*
X91607Y240401D01*
X91515Y240470D01*
X91422Y240586D01*
X91307Y240725D01*
X91168Y240863D01*
X91052Y241049D01*
X90913Y241257D01*
X90751Y241488D01*
X90612Y241720D01*
X90474Y241997D01*
X90358Y242298D01*
X90242Y242622D01*
X90126Y242969D01*
X90034Y243339D01*
X87905Y242807D01*
Y242784D01*
X87928Y242691D01*
X87975Y242553D01*
X88044Y242368D01*
X88113Y242159D01*
X88206Y241905D01*
X88322Y241627D01*
X88461Y241326D01*
X88784Y240678D01*
X89201Y240030D01*
X89455Y239707D01*
X89710Y239383D01*
X89988Y239105D01*
X90312Y238827D01*
X90335Y238804D01*
X90381Y238758D01*
X90497Y238712D01*
X90612Y238619D01*
X90798Y238503D01*
X90983Y238388D01*
X91237Y238272D01*
X91492Y238156D01*
X91792Y238017D01*
X92116Y237902D01*
X92464Y237786D01*
X92834Y237670D01*
X93227Y237578D01*
X93644Y237532D01*
X94083Y237485D01*
X94546Y237462D01*
X94801D01*
X94986Y237485D01*
X95194D01*
X95449Y237508D01*
X95726Y237555D01*
X96050Y237601D01*
X96721Y237717D01*
X97415Y237902D01*
X98110Y238156D01*
X98434Y238318D01*
X98757Y238503D01*
X98781Y238526D01*
X98827Y238550D01*
X98919Y238619D01*
X99012Y238712D01*
X99151Y238804D01*
X99313Y238943D01*
X99498Y239105D01*
X99683Y239290D01*
X99868Y239498D01*
X100076Y239707D01*
X100493Y240239D01*
X100886Y240863D01*
X101233Y241558D01*
Y241581D01*
X101280Y241650D01*
X101303Y241766D01*
X101372Y241905D01*
X101419Y242090D01*
X101488Y242321D01*
X101580Y242576D01*
X101650Y242854D01*
X101719Y243154D01*
X101812Y243501D01*
X101928Y244219D01*
X102020Y245029D01*
X102066Y245862D01*
Y246116D01*
X102043Y246278D01*
Y246509D01*
X102020Y246741D01*
X101997Y247042D01*
X101951Y247343D01*
X101835Y248014D01*
X101673Y248754D01*
X101442Y249494D01*
X101118Y250212D01*
X101095Y250235D01*
X101071Y250304D01*
X101025Y250397D01*
X100933Y250513D01*
X100840Y250675D01*
X100724Y250860D01*
X100423Y251276D01*
X100030Y251739D01*
X99567Y252202D01*
X99035Y252665D01*
X98410Y253058D01*
X98387Y253081D01*
X98318Y253104D01*
X98225Y253151D01*
X98110Y253220D01*
X97924Y253289D01*
X97739Y253359D01*
X97508Y253451D01*
X97253Y253544D01*
X96976Y253636D01*
X96675Y253729D01*
X96027Y253868D01*
X95287Y253984D01*
X94523Y254030D01*
D02*
G37*
G36*
X210891Y253752D02*
X198211D01*
Y251855D01*
X203486D01*
Y237740D01*
X205615D01*
Y251855D01*
X210891D01*
Y253752D01*
D02*
G37*
G36*
X152372D02*
X141542D01*
Y251855D01*
X150243D01*
Y246903D01*
X142722D01*
Y245005D01*
X150243D01*
Y237740D01*
X152372D01*
Y253752D01*
D02*
G37*
G36*
X219105Y254030D02*
X218805D01*
X218643Y254007D01*
X218481D01*
X218041Y253960D01*
X217555Y253891D01*
X217046Y253775D01*
X216491Y253636D01*
X215982Y253451D01*
X215958D01*
X215912Y253428D01*
X215843Y253382D01*
X215750Y253336D01*
X215519Y253220D01*
X215218Y253012D01*
X214871Y252780D01*
X214524Y252479D01*
X214200Y252132D01*
X213899Y251739D01*
Y251716D01*
X213876Y251693D01*
X213830Y251623D01*
X213783Y251554D01*
X213668Y251322D01*
X213529Y251022D01*
X213367Y250651D01*
X213251Y250212D01*
X213136Y249749D01*
X213089Y249240D01*
X215126Y249078D01*
Y249101D01*
Y249147D01*
X215149Y249217D01*
X215172Y249333D01*
X215241Y249587D01*
X215334Y249934D01*
X215473Y250304D01*
X215681Y250675D01*
X215935Y251022D01*
X216259Y251346D01*
X216306Y251369D01*
X216421Y251461D01*
X216653Y251600D01*
X216954Y251739D01*
X217347Y251878D01*
X217810Y252017D01*
X218388Y252109D01*
X219036Y252132D01*
X219360D01*
X219499Y252109D01*
X219684Y252086D01*
X220100Y252040D01*
X220563Y251947D01*
X221026Y251832D01*
X221466Y251646D01*
X221651Y251531D01*
X221836Y251415D01*
X221882Y251392D01*
X221975Y251299D01*
X222114Y251137D01*
X222253Y250952D01*
X222414Y250698D01*
X222553Y250420D01*
X222646Y250096D01*
X222692Y249726D01*
Y249680D01*
Y249587D01*
X222669Y249425D01*
X222623Y249240D01*
X222553Y249009D01*
X222438Y248777D01*
X222299Y248546D01*
X222090Y248314D01*
X222067Y248291D01*
X221952Y248222D01*
X221859Y248152D01*
X221766Y248106D01*
X221628Y248037D01*
X221466Y247944D01*
X221257Y247875D01*
X221026Y247782D01*
X220772Y247690D01*
X220471Y247574D01*
X220147Y247481D01*
X219776Y247366D01*
X219360Y247273D01*
X218897Y247157D01*
X218874D01*
X218782Y247134D01*
X218643Y247111D01*
X218481Y247065D01*
X218272Y247019D01*
X218018Y246949D01*
X217763Y246880D01*
X217486Y246810D01*
X216884Y246648D01*
X216306Y246486D01*
X216028Y246394D01*
X215773Y246301D01*
X215542Y246232D01*
X215357Y246139D01*
X215334D01*
X215287Y246116D01*
X215218Y246070D01*
X215126Y246024D01*
X214871Y245885D01*
X214570Y245700D01*
X214223Y245445D01*
X213876Y245168D01*
X213552Y244844D01*
X213274Y244496D01*
X213251Y244450D01*
X213159Y244334D01*
X213066Y244126D01*
X212927Y243848D01*
X212812Y243525D01*
X212696Y243131D01*
X212626Y242691D01*
X212603Y242229D01*
Y242020D01*
X212650Y241766D01*
X212696Y241442D01*
X212788Y241072D01*
X212904Y240678D01*
X213089Y240262D01*
X213344Y239822D01*
Y239799D01*
X213367Y239776D01*
X213483Y239637D01*
X213645Y239429D01*
X213876Y239198D01*
X214177Y238920D01*
X214547Y238619D01*
X214964Y238341D01*
X215450Y238087D01*
X215473D01*
X215519Y238064D01*
X215588Y238041D01*
X215681Y237994D01*
X215820Y237948D01*
X215982Y237878D01*
X216352Y237786D01*
X216792Y237670D01*
X217324Y237555D01*
X217902Y237485D01*
X218527Y237462D01*
X218897D01*
X219082Y237485D01*
X219291D01*
X219522Y237508D01*
X219800Y237532D01*
X220378Y237624D01*
X220980Y237717D01*
X221581Y237878D01*
X222160Y238087D01*
X222183D01*
X222229Y238110D01*
X222299Y238156D01*
X222391Y238202D01*
X222669Y238341D01*
X222993Y238550D01*
X223363Y238827D01*
X223757Y239151D01*
X224127Y239545D01*
X224474Y239984D01*
Y240007D01*
X224520Y240054D01*
X224543Y240123D01*
X224613Y240216D01*
X224659Y240331D01*
X224728Y240470D01*
X224890Y240817D01*
X225052Y241257D01*
X225191Y241743D01*
X225284Y242298D01*
X225330Y242877D01*
X223340Y243062D01*
Y243039D01*
Y243015D01*
X223317Y242946D01*
Y242854D01*
X223271Y242645D01*
X223201Y242344D01*
X223109Y242044D01*
X223016Y241696D01*
X222854Y241373D01*
X222692Y241072D01*
X222669Y241049D01*
X222600Y240956D01*
X222484Y240794D01*
X222299Y240632D01*
X222067Y240424D01*
X221813Y240216D01*
X221466Y240007D01*
X221096Y239822D01*
X221072D01*
X221049Y239799D01*
X220980Y239776D01*
X220910Y239753D01*
X220679Y239683D01*
X220378Y239591D01*
X220008Y239498D01*
X219591Y239429D01*
X219129Y239383D01*
X218620Y239359D01*
X218411D01*
X218180Y239383D01*
X217902Y239406D01*
X217578Y239452D01*
X217208Y239498D01*
X216838Y239591D01*
X216491Y239707D01*
X216444Y239730D01*
X216329Y239776D01*
X216167Y239869D01*
X215958Y239961D01*
X215750Y240123D01*
X215519Y240285D01*
X215287Y240470D01*
X215102Y240702D01*
X215079Y240725D01*
X215033Y240817D01*
X214964Y240933D01*
X214871Y241118D01*
X214778Y241303D01*
X214709Y241535D01*
X214663Y241789D01*
X214640Y242067D01*
Y242090D01*
Y242206D01*
X214663Y242344D01*
X214686Y242530D01*
X214755Y242715D01*
X214825Y242946D01*
X214940Y243178D01*
X215102Y243386D01*
X215126Y243409D01*
X215195Y243478D01*
X215287Y243571D01*
X215450Y243710D01*
X215635Y243848D01*
X215889Y244011D01*
X216190Y244172D01*
X216537Y244311D01*
X216560Y244334D01*
X216676Y244358D01*
X216861Y244427D01*
X216977Y244450D01*
X217139Y244496D01*
X217301Y244566D01*
X217509Y244612D01*
X217740Y244681D01*
X218018Y244751D01*
X218296Y244820D01*
X218620Y244913D01*
X218990Y245005D01*
X219383Y245098D01*
X219406D01*
X219476Y245121D01*
X219591Y245144D01*
X219730Y245191D01*
X219915Y245237D01*
X220124Y245283D01*
X220586Y245422D01*
X221096Y245584D01*
X221628Y245746D01*
X222090Y245908D01*
X222299Y246000D01*
X222484Y246093D01*
X222507D01*
X222530Y246116D01*
X222669Y246209D01*
X222877Y246324D01*
X223109Y246509D01*
X223386Y246718D01*
X223664Y246972D01*
X223942Y247273D01*
X224173Y247597D01*
X224196Y247643D01*
X224266Y247759D01*
X224358Y247944D01*
X224451Y248176D01*
X224543Y248476D01*
X224636Y248824D01*
X224705Y249194D01*
X224728Y249587D01*
Y249610D01*
Y249633D01*
Y249703D01*
Y249795D01*
X224682Y250027D01*
X224636Y250327D01*
X224566Y250675D01*
X224451Y251068D01*
X224289Y251461D01*
X224057Y251855D01*
Y251878D01*
X224034Y251901D01*
X223918Y252040D01*
X223757Y252225D01*
X223548Y252456D01*
X223271Y252711D01*
X222924Y252989D01*
X222507Y253243D01*
X222044Y253475D01*
X222021D01*
X221975Y253498D01*
X221905Y253521D01*
X221813Y253567D01*
X221697Y253613D01*
X221535Y253660D01*
X221188Y253752D01*
X220748Y253845D01*
X220239Y253937D01*
X219707Y254007D01*
X219105Y254030D01*
D02*
G37*
G36*
X121920Y253822D02*
X121712D01*
X121457Y253799D01*
X121156Y253752D01*
X120809Y253683D01*
X120439Y253590D01*
X120046Y253475D01*
X119676Y253289D01*
X119652D01*
X119629Y253266D01*
X119514Y253197D01*
X119328Y253081D01*
X119097Y252919D01*
X118842Y252688D01*
X118565Y252433D01*
X118310Y252132D01*
X118056Y251785D01*
X118033Y251739D01*
X117940Y251623D01*
X117847Y251415D01*
X117685Y251114D01*
X117547Y250767D01*
X117362Y250374D01*
X117200Y249911D01*
X117061Y249402D01*
Y249379D01*
X117038Y249333D01*
X117015Y249263D01*
X116991Y249147D01*
X116968Y249009D01*
X116945Y248847D01*
X116899Y248638D01*
X116876Y248407D01*
X116829Y248152D01*
X116806Y247875D01*
X116783Y247551D01*
X116737Y247227D01*
X116714Y246857D01*
Y246486D01*
X116691Y246070D01*
Y245168D01*
X116714Y244913D01*
Y244635D01*
X116737Y244334D01*
X116760Y244011D01*
X116829Y243270D01*
X116945Y242506D01*
X117084Y241766D01*
X117176Y241419D01*
X117292Y241072D01*
Y241049D01*
X117315Y241002D01*
X117362Y240910D01*
X117408Y240794D01*
X117454Y240632D01*
X117547Y240470D01*
X117732Y240077D01*
X117963Y239660D01*
X118264Y239198D01*
X118611Y238781D01*
X119028Y238388D01*
X119051D01*
X119074Y238341D01*
X119143Y238295D01*
X119236Y238249D01*
X119352Y238179D01*
X119467Y238087D01*
X119814Y237925D01*
X120231Y237763D01*
X120717Y237601D01*
X121295Y237508D01*
X121920Y237462D01*
X122151D01*
X122313Y237485D01*
X122499Y237508D01*
X122730Y237555D01*
X122984Y237601D01*
X123262Y237670D01*
X123540Y237763D01*
X123841Y237855D01*
X124141Y237994D01*
X124442Y238156D01*
X124743Y238341D01*
X125044Y238573D01*
X125322Y238827D01*
X125576Y239105D01*
X125599Y239128D01*
X125646Y239198D01*
X125715Y239313D01*
X125831Y239498D01*
X125946Y239707D01*
X126062Y239984D01*
X126224Y240308D01*
X126363Y240678D01*
X126502Y241095D01*
X126641Y241581D01*
X126779Y242113D01*
X126895Y242715D01*
X127011Y243363D01*
X127080Y244057D01*
X127126Y244820D01*
X127149Y245630D01*
Y246093D01*
X127126Y246348D01*
Y246625D01*
X127103Y246926D01*
X127080Y247273D01*
X127011Y247990D01*
X126895Y248754D01*
X126756Y249518D01*
X126664Y249865D01*
X126571Y250212D01*
Y250235D01*
X126548Y250281D01*
X126502Y250374D01*
X126455Y250490D01*
X126409Y250651D01*
X126316Y250814D01*
X126131Y251207D01*
X125900Y251623D01*
X125599Y252063D01*
X125252Y252503D01*
X124836Y252873D01*
X124812D01*
X124789Y252919D01*
X124720Y252965D01*
X124627Y253012D01*
X124512Y253104D01*
X124373Y253174D01*
X124026Y253359D01*
X123609Y253521D01*
X123123Y253683D01*
X122545Y253775D01*
X121920Y253822D01*
D02*
G37*
G36*
X80894D02*
X80686D01*
X80547Y253799D01*
X80362Y253775D01*
X80153Y253752D01*
X79922Y253729D01*
X79691Y253660D01*
X79135Y253521D01*
X78580Y253312D01*
X78302Y253174D01*
X78025Y253012D01*
X77770Y252803D01*
X77516Y252595D01*
X77492Y252572D01*
X77469Y252549D01*
X77400Y252479D01*
X77307Y252387D01*
X77215Y252248D01*
X77099Y252109D01*
X76868Y251762D01*
X76636Y251322D01*
X76428Y250814D01*
X76266Y250235D01*
X76243Y249934D01*
X76220Y249610D01*
Y249587D01*
Y249564D01*
Y249425D01*
X76243Y249217D01*
X76289Y248962D01*
X76358Y248638D01*
X76474Y248314D01*
X76613Y247990D01*
X76821Y247666D01*
X76845Y247620D01*
X76937Y247528D01*
X77076Y247389D01*
X77261Y247204D01*
X77516Y246996D01*
X77816Y246787D01*
X78163Y246579D01*
X78580Y246394D01*
X78557D01*
X78510Y246371D01*
X78441Y246348D01*
X78348Y246301D01*
X78071Y246186D01*
X77747Y246024D01*
X77400Y245792D01*
X77030Y245538D01*
X76683Y245214D01*
X76358Y244844D01*
Y244820D01*
X76335Y244797D01*
X76243Y244658D01*
X76104Y244427D01*
X75965Y244126D01*
X75826Y243756D01*
X75687Y243316D01*
X75595Y242830D01*
X75572Y242298D01*
Y242090D01*
X75595Y241951D01*
X75618Y241789D01*
X75641Y241581D01*
X75687Y241350D01*
X75757Y241095D01*
X75919Y240563D01*
X76035Y240262D01*
X76197Y239984D01*
X76358Y239683D01*
X76544Y239406D01*
X76775Y239128D01*
X77030Y238850D01*
X77053Y238827D01*
X77099Y238781D01*
X77168Y238712D01*
X77284Y238642D01*
X77446Y238526D01*
X77608Y238411D01*
X77816Y238295D01*
X78048Y238156D01*
X78302Y238017D01*
X78603Y237902D01*
X78927Y237786D01*
X79251Y237670D01*
X79621Y237601D01*
X80015Y237532D01*
X80408Y237485D01*
X80848Y237462D01*
X81079D01*
X81241Y237485D01*
X81449Y237508D01*
X81681Y237532D01*
X81935Y237578D01*
X82213Y237647D01*
X82838Y237809D01*
X83161Y237925D01*
X83462Y238041D01*
X83786Y238202D01*
X84110Y238388D01*
X84411Y238596D01*
X84689Y238850D01*
X84712Y238874D01*
X84758Y238920D01*
X84828Y238989D01*
X84920Y239105D01*
X85013Y239244D01*
X85152Y239406D01*
X85267Y239591D01*
X85406Y239822D01*
X85545Y240054D01*
X85661Y240331D01*
X85892Y240910D01*
X85984Y241257D01*
X86054Y241604D01*
X86100Y241974D01*
X86123Y242344D01*
Y242506D01*
X86100Y242599D01*
Y242738D01*
X86077Y242900D01*
X86031Y243270D01*
X85938Y243687D01*
X85799Y244103D01*
X85591Y244543D01*
X85337Y244959D01*
Y244982D01*
X85290Y245005D01*
X85198Y245121D01*
X85013Y245306D01*
X84758Y245538D01*
X84434Y245769D01*
X84041Y246024D01*
X83601Y246232D01*
X83069Y246394D01*
X83092D01*
X83115Y246417D01*
X83185Y246440D01*
X83277Y246486D01*
X83485Y246579D01*
X83763Y246718D01*
X84064Y246903D01*
X84365Y247134D01*
X84642Y247389D01*
X84897Y247666D01*
X84920Y247713D01*
X84990Y247805D01*
X85082Y247990D01*
X85175Y248222D01*
X85290Y248523D01*
X85383Y248870D01*
X85452Y249263D01*
X85476Y249680D01*
Y249703D01*
Y249749D01*
Y249842D01*
X85452Y249980D01*
X85429Y250119D01*
X85406Y250304D01*
X85314Y250698D01*
X85175Y251161D01*
X84943Y251646D01*
X84804Y251901D01*
X84642Y252156D01*
X84434Y252387D01*
X84226Y252618D01*
X84203Y252642D01*
X84157Y252665D01*
X84087Y252734D01*
X83995Y252803D01*
X83879Y252896D01*
X83717Y252989D01*
X83532Y253104D01*
X83347Y253220D01*
X83115Y253336D01*
X82861Y253451D01*
X82583Y253544D01*
X82282Y253636D01*
X81634Y253775D01*
X81264Y253799D01*
X80894Y253822D01*
D02*
G37*
G36*
X125761Y234260D02*
X124488D01*
Y218178D01*
X126455D01*
Y230696D01*
X126479Y230673D01*
X126594Y230580D01*
X126733Y230442D01*
X126964Y230280D01*
X127219Y230071D01*
X127543Y229840D01*
X127913Y229585D01*
X128330Y229331D01*
X128353D01*
X128376Y229308D01*
X128515Y229215D01*
X128746Y229100D01*
X129024Y228961D01*
X129348Y228799D01*
X129695Y228637D01*
X130042Y228475D01*
X130389Y228336D01*
Y230233D01*
X130366D01*
X130320Y230280D01*
X130227Y230303D01*
X130111Y230372D01*
X129972Y230442D01*
X129811Y230534D01*
X129417Y230765D01*
X128954Y231020D01*
X128492Y231344D01*
X128006Y231714D01*
X127520Y232108D01*
X127497Y232131D01*
X127473Y232154D01*
X127404Y232223D01*
X127311Y232293D01*
X127103Y232524D01*
X126826Y232802D01*
X126548Y233126D01*
X126247Y233496D01*
X125993Y233866D01*
X125761Y234260D01*
D02*
G37*
G36*
X179930Y230048D02*
X179676D01*
X179421Y230025D01*
X179074Y230002D01*
X178681Y229956D01*
X178288Y229886D01*
X177894Y229794D01*
X177524Y229678D01*
X177478Y229655D01*
X177362Y229608D01*
X177200Y229539D01*
X176992Y229447D01*
X176760Y229308D01*
X176529Y229169D01*
X176321Y228984D01*
X176136Y228799D01*
X176112Y228776D01*
X176066Y228706D01*
X175997Y228590D01*
X175904Y228452D01*
X175788Y228243D01*
X175696Y228035D01*
X175603Y227780D01*
X175534Y227480D01*
Y227457D01*
X175511Y227387D01*
X175488Y227248D01*
X175465Y227063D01*
Y226809D01*
X175441Y226508D01*
X175418Y226115D01*
Y225675D01*
Y223037D01*
Y223014D01*
Y222921D01*
Y222782D01*
Y222597D01*
Y222389D01*
Y222134D01*
X175395Y221579D01*
Y221001D01*
X175372Y220422D01*
X175349Y220168D01*
Y219936D01*
X175326Y219728D01*
X175303Y219566D01*
Y219543D01*
X175280Y219450D01*
X175256Y219312D01*
X175187Y219126D01*
X175141Y218918D01*
X175048Y218687D01*
X174932Y218432D01*
X174817Y218178D01*
X176876D01*
X176899Y218201D01*
X176922Y218293D01*
X176969Y218409D01*
X177038Y218594D01*
X177108Y218802D01*
X177154Y219057D01*
X177200Y219335D01*
X177246Y219636D01*
X177269D01*
X177293Y219589D01*
X177431Y219473D01*
X177640Y219312D01*
X177917Y219103D01*
X178265Y218895D01*
X178612Y218664D01*
X178982Y218455D01*
X179375Y218293D01*
X179421Y218270D01*
X179560Y218247D01*
X179769Y218178D01*
X180023Y218108D01*
X180347Y218039D01*
X180717Y217993D01*
X181134Y217946D01*
X181550Y217923D01*
X181735D01*
X181874Y217946D01*
X182036D01*
X182221Y217969D01*
X182638Y218039D01*
X183101Y218155D01*
X183610Y218316D01*
X184072Y218548D01*
X184489Y218849D01*
X184535Y218895D01*
X184651Y219011D01*
X184813Y219219D01*
X184998Y219497D01*
X185183Y219844D01*
X185345Y220237D01*
X185461Y220723D01*
X185484Y220954D01*
X185507Y221232D01*
Y221371D01*
X185484Y221533D01*
X185461Y221741D01*
X185415Y221996D01*
X185345Y222250D01*
X185253Y222528D01*
X185137Y222782D01*
X185114Y222806D01*
X185067Y222898D01*
X184975Y223037D01*
X184859Y223199D01*
X184720Y223384D01*
X184535Y223569D01*
X184350Y223754D01*
X184119Y223916D01*
X184096Y223939D01*
X184003Y223986D01*
X183887Y224078D01*
X183702Y224171D01*
X183494Y224263D01*
X183239Y224379D01*
X182985Y224472D01*
X182684Y224564D01*
X182661D01*
X182568Y224587D01*
X182430Y224634D01*
X182244Y224657D01*
X182013Y224703D01*
X181712Y224749D01*
X181365Y224819D01*
X180949Y224865D01*
X180926D01*
X180833Y224888D01*
X180717D01*
X180555Y224911D01*
X180370Y224934D01*
X180139Y224981D01*
X179884Y225004D01*
X179606Y225050D01*
X179051Y225166D01*
X178450Y225282D01*
X177917Y225420D01*
X177663Y225490D01*
X177431Y225559D01*
Y225582D01*
Y225629D01*
X177408Y225767D01*
Y225929D01*
Y226022D01*
Y226068D01*
Y226091D01*
Y226115D01*
Y226253D01*
X177431Y226485D01*
X177478Y226739D01*
X177547Y227017D01*
X177663Y227295D01*
X177802Y227549D01*
X177987Y227757D01*
X178010Y227780D01*
X178126Y227873D01*
X178311Y227966D01*
X178542Y228104D01*
X178866Y228220D01*
X179236Y228336D01*
X179699Y228405D01*
X180231Y228428D01*
X180463D01*
X180694Y228405D01*
X181018Y228359D01*
X181342Y228313D01*
X181689Y228220D01*
X182013Y228104D01*
X182291Y227943D01*
X182314Y227919D01*
X182406Y227850D01*
X182522Y227734D01*
X182661Y227549D01*
X182800Y227318D01*
X182962Y227017D01*
X183101Y226647D01*
X183239Y226230D01*
X185160Y226485D01*
Y226508D01*
X185137Y226531D01*
Y226600D01*
X185114Y226693D01*
X185044Y226901D01*
X184952Y227202D01*
X184836Y227503D01*
X184697Y227827D01*
X184512Y228151D01*
X184304Y228452D01*
X184281Y228475D01*
X184188Y228567D01*
X184049Y228706D01*
X183864Y228891D01*
X183610Y229076D01*
X183309Y229261D01*
X182962Y229470D01*
X182568Y229632D01*
X182545D01*
X182522Y229655D01*
X182453Y229678D01*
X182360Y229701D01*
X182129Y229771D01*
X181805Y229840D01*
X181435Y229909D01*
X180972Y229979D01*
X180486Y230025D01*
X179930Y230048D01*
D02*
G37*
G36*
X147674Y234190D02*
X145360D01*
X141195Y222551D01*
Y222528D01*
X141172Y222482D01*
X141149Y222412D01*
X141103Y222320D01*
X141079Y222181D01*
X141033Y222042D01*
X140918Y221695D01*
X140779Y221301D01*
X140640Y220862D01*
X140362Y219936D01*
Y219959D01*
X140339Y220006D01*
X140316Y220075D01*
X140293Y220168D01*
X140223Y220422D01*
X140108Y220769D01*
X139992Y221163D01*
X139853Y221602D01*
X139691Y222065D01*
X139506Y222551D01*
X135156Y234190D01*
X133004D01*
X139251Y218178D01*
X141473D01*
X147674Y234190D01*
D02*
G37*
G36*
X219915Y230048D02*
X219684D01*
X219522Y230025D01*
X219337Y230002D01*
X219105Y229956D01*
X218851Y229909D01*
X218550Y229840D01*
X218272Y229771D01*
X217948Y229655D01*
X217648Y229539D01*
X217324Y229377D01*
X217000Y229192D01*
X216676Y228984D01*
X216375Y228729D01*
X216097Y228452D01*
X216074Y228428D01*
X216028Y228382D01*
X215958Y228290D01*
X215866Y228151D01*
X215750Y227989D01*
X215635Y227804D01*
X215496Y227572D01*
X215357Y227295D01*
X215218Y226994D01*
X215079Y226670D01*
X214964Y226300D01*
X214848Y225906D01*
X214755Y225467D01*
X214686Y225004D01*
X214640Y224518D01*
X214617Y223986D01*
Y223708D01*
X214640Y223477D01*
X223317D01*
Y223454D01*
Y223384D01*
X223294Y223291D01*
Y223153D01*
X223271Y222991D01*
X223224Y222806D01*
X223155Y222389D01*
X223016Y221926D01*
X222831Y221417D01*
X222576Y220954D01*
X222253Y220538D01*
X222229D01*
X222206Y220492D01*
X222067Y220376D01*
X221859Y220214D01*
X221581Y220052D01*
X221211Y219867D01*
X220795Y219705D01*
X220332Y219589D01*
X220077Y219566D01*
X219800Y219543D01*
X219615D01*
X219406Y219566D01*
X219152Y219612D01*
X218874Y219682D01*
X218550Y219774D01*
X218249Y219913D01*
X217948Y220098D01*
X217925Y220121D01*
X217810Y220214D01*
X217671Y220353D01*
X217509Y220538D01*
X217324Y220792D01*
X217115Y221116D01*
X216907Y221487D01*
X216722Y221926D01*
X214686Y221672D01*
Y221649D01*
X214709Y221602D01*
X214732Y221510D01*
X214778Y221371D01*
X214848Y221232D01*
X214917Y221047D01*
X215102Y220654D01*
X215334Y220214D01*
X215658Y219751D01*
X216028Y219312D01*
X216491Y218895D01*
X216514D01*
X216560Y218849D01*
X216630Y218802D01*
X216722Y218733D01*
X216861Y218664D01*
X217000Y218594D01*
X217185Y218502D01*
X217393Y218409D01*
X217625Y218316D01*
X217856Y218224D01*
X218435Y218085D01*
X219082Y217969D01*
X219800Y217923D01*
X220054D01*
X220216Y217946D01*
X220424Y217969D01*
X220679Y218016D01*
X220957Y218062D01*
X221257Y218108D01*
X221905Y218293D01*
X222253Y218432D01*
X222576Y218571D01*
X222924Y218756D01*
X223248Y218964D01*
X223548Y219196D01*
X223849Y219473D01*
X223872Y219497D01*
X223918Y219543D01*
X223988Y219636D01*
X224081Y219774D01*
X224196Y219936D01*
X224312Y220121D01*
X224451Y220353D01*
X224590Y220607D01*
X224728Y220908D01*
X224867Y221232D01*
X224983Y221602D01*
X225099Y221996D01*
X225191Y222412D01*
X225261Y222875D01*
X225307Y223361D01*
X225330Y223870D01*
Y224148D01*
X225307Y224356D01*
X225284Y224610D01*
X225261Y224888D01*
X225214Y225212D01*
X225145Y225536D01*
X224960Y226276D01*
X224844Y226647D01*
X224705Y227040D01*
X224520Y227410D01*
X224312Y227757D01*
X224081Y228104D01*
X223826Y228428D01*
X223803Y228452D01*
X223757Y228498D01*
X223664Y228567D01*
X223548Y228683D01*
X223409Y228799D01*
X223224Y228937D01*
X223016Y229100D01*
X222761Y229238D01*
X222507Y229400D01*
X222206Y229539D01*
X221882Y229678D01*
X221535Y229794D01*
X221165Y229909D01*
X220772Y229979D01*
X220355Y230025D01*
X219915Y230048D01*
D02*
G37*
G36*
X212048Y234190D02*
X205754D01*
X205592Y234167D01*
X205407D01*
X204991Y234121D01*
X204528Y234074D01*
X204042Y233982D01*
X203556Y233866D01*
X203116Y233704D01*
X203093D01*
X203070Y233681D01*
X202931Y233612D01*
X202723Y233496D01*
X202491Y233334D01*
X202214Y233126D01*
X201913Y232871D01*
X201635Y232547D01*
X201381Y232200D01*
X201358Y232154D01*
X201288Y232015D01*
X201173Y231830D01*
X201057Y231552D01*
X200941Y231228D01*
X200825Y230881D01*
X200756Y230488D01*
X200733Y230095D01*
Y230048D01*
Y229932D01*
X200756Y229724D01*
X200802Y229470D01*
X200872Y229169D01*
X200987Y228845D01*
X201126Y228521D01*
X201311Y228174D01*
X201334Y228128D01*
X201404Y228035D01*
X201543Y227850D01*
X201728Y227665D01*
X201959Y227433D01*
X202237Y227179D01*
X202584Y226947D01*
X202977Y226716D01*
X202954D01*
X202908Y226693D01*
X202838Y226670D01*
X202746Y226623D01*
X202468Y226531D01*
X202144Y226369D01*
X201797Y226161D01*
X201404Y225906D01*
X201057Y225605D01*
X200733Y225235D01*
X200710Y225189D01*
X200617Y225050D01*
X200478Y224842D01*
X200340Y224564D01*
X200201Y224194D01*
X200062Y223801D01*
X199969Y223338D01*
X199946Y222829D01*
Y222644D01*
X199969Y222412D01*
X200016Y222134D01*
X200062Y221811D01*
X200154Y221464D01*
X200270Y221093D01*
X200432Y220723D01*
X200455Y220677D01*
X200525Y220561D01*
X200617Y220399D01*
X200756Y220168D01*
X200941Y219936D01*
X201126Y219682D01*
X201358Y219427D01*
X201612Y219219D01*
X201635Y219196D01*
X201728Y219126D01*
X201890Y219034D01*
X202098Y218941D01*
X202353Y218802D01*
X202653Y218664D01*
X202977Y218548D01*
X203371Y218432D01*
X203417D01*
X203556Y218386D01*
X203787Y218363D01*
X204088Y218316D01*
X204458Y218270D01*
X204898Y218224D01*
X205384Y218201D01*
X205939Y218178D01*
X212048D01*
Y234190D01*
D02*
G37*
G36*
X168129Y230048D02*
X167967D01*
X167759Y230025D01*
X167505Y229979D01*
X167204Y229886D01*
X166880Y229771D01*
X166510Y229608D01*
X166116Y229400D01*
X166834Y227595D01*
X166857Y227619D01*
X166949Y227665D01*
X167088Y227734D01*
X167273Y227804D01*
X167481Y227873D01*
X167736Y227943D01*
X167991Y227989D01*
X168245Y228012D01*
X168361D01*
X168477Y227989D01*
X168638Y227966D01*
X168800Y227919D01*
X169009Y227850D01*
X169217Y227757D01*
X169402Y227619D01*
X169425Y227595D01*
X169495Y227549D01*
X169564Y227457D01*
X169680Y227341D01*
X169795Y227179D01*
X169911Y226994D01*
X170027Y226786D01*
X170119Y226531D01*
X170142Y226485D01*
X170166Y226346D01*
X170212Y226138D01*
X170281Y225860D01*
X170351Y225513D01*
X170397Y225119D01*
X170420Y224703D01*
X170443Y224240D01*
Y218178D01*
X172410D01*
Y229794D01*
X170629D01*
Y228035D01*
X170605Y228058D01*
X170513Y228220D01*
X170397Y228428D01*
X170212Y228683D01*
X170027Y228937D01*
X169819Y229215D01*
X169610Y229447D01*
X169402Y229632D01*
X169379Y229655D01*
X169310Y229701D01*
X169171Y229771D01*
X169032Y229840D01*
X168847Y229909D01*
X168615Y229979D01*
X168384Y230025D01*
X168129Y230048D01*
D02*
G37*
G36*
X118333Y220422D02*
X116089D01*
Y218178D01*
X118333D01*
Y220422D01*
D02*
G37*
G36*
X192588Y230048D02*
X192356D01*
X192194Y230025D01*
X191986Y230002D01*
X191755Y229956D01*
X191500Y229909D01*
X191199Y229863D01*
X190575Y229655D01*
X190251Y229539D01*
X189927Y229377D01*
X189603Y229215D01*
X189279Y228984D01*
X188978Y228752D01*
X188677Y228475D01*
X188654Y228452D01*
X188608Y228405D01*
X188538Y228313D01*
X188446Y228197D01*
X188330Y228035D01*
X188191Y227827D01*
X188052Y227595D01*
X187914Y227341D01*
X187775Y227063D01*
X187636Y226716D01*
X187497Y226369D01*
X187381Y225976D01*
X187289Y225559D01*
X187219Y225119D01*
X187173Y224657D01*
X187150Y224148D01*
Y223777D01*
X187173Y223592D01*
X187196Y223361D01*
Y223130D01*
X187243Y222875D01*
X187312Y222297D01*
X187451Y221718D01*
X187613Y221140D01*
X187844Y220607D01*
Y220584D01*
X187867Y220561D01*
X187914Y220492D01*
X187960Y220399D01*
X188122Y220168D01*
X188330Y219890D01*
X188608Y219566D01*
X188955Y219242D01*
X189348Y218918D01*
X189811Y218617D01*
X189834D01*
X189857Y218594D01*
X189927Y218548D01*
X190042Y218502D01*
X190158Y218455D01*
X190297Y218409D01*
X190644Y218270D01*
X191037Y218155D01*
X191523Y218039D01*
X192032Y217946D01*
X192588Y217923D01*
X192819D01*
X193004Y217946D01*
X193213Y217969D01*
X193444Y218016D01*
X193722Y218062D01*
X193999Y218108D01*
X194624Y218293D01*
X194971Y218432D01*
X195295Y218571D01*
X195619Y218756D01*
X195943Y218964D01*
X196244Y219196D01*
X196545Y219473D01*
X196568Y219497D01*
X196614Y219543D01*
X196683Y219636D01*
X196776Y219774D01*
X196892Y219936D01*
X197007Y220121D01*
X197146Y220353D01*
X197285Y220630D01*
X197424Y220931D01*
X197563Y221278D01*
X197678Y221649D01*
X197794Y222042D01*
X197887Y222482D01*
X197956Y222944D01*
X198002Y223454D01*
X198025Y223986D01*
Y224125D01*
X198002Y224286D01*
Y224518D01*
X197979Y224772D01*
X197933Y225096D01*
X197887Y225420D01*
X197794Y225791D01*
X197702Y226161D01*
X197586Y226554D01*
X197447Y226971D01*
X197262Y227364D01*
X197077Y227734D01*
X196822Y228104D01*
X196568Y228452D01*
X196244Y228752D01*
X196221Y228776D01*
X196174Y228799D01*
X196082Y228868D01*
X195966Y228961D01*
X195827Y229053D01*
X195642Y229169D01*
X195457Y229285D01*
X195226Y229400D01*
X194971Y229516D01*
X194693Y229632D01*
X194069Y229840D01*
X193351Y230002D01*
X192981Y230025D01*
X192588Y230048D01*
D02*
G37*
G36*
X157578Y234190D02*
X155611D01*
Y218178D01*
X157439D01*
Y219636D01*
X157462Y219612D01*
X157485Y219566D01*
X157555Y219473D01*
X157647Y219358D01*
X157763Y219242D01*
X157902Y219103D01*
X158064Y218941D01*
X158272Y218779D01*
X158480Y218617D01*
X158712Y218455D01*
X158989Y218316D01*
X159290Y218201D01*
X159591Y218085D01*
X159938Y217993D01*
X160308Y217946D01*
X160702Y217923D01*
X160840D01*
X160933Y217946D01*
X161211Y217969D01*
X161535Y218016D01*
X161928Y218108D01*
X162368Y218247D01*
X162807Y218432D01*
X163247Y218687D01*
X163270D01*
X163293Y218733D01*
X163432Y218826D01*
X163640Y219011D01*
X163895Y219242D01*
X164196Y219543D01*
X164496Y219913D01*
X164797Y220330D01*
X165052Y220816D01*
Y220839D01*
X165075Y220885D01*
X165098Y220954D01*
X165144Y221047D01*
X165191Y221186D01*
X165260Y221348D01*
X165306Y221510D01*
X165353Y221718D01*
X165468Y222181D01*
X165584Y222713D01*
X165653Y223315D01*
X165677Y223962D01*
Y224263D01*
X165653Y224402D01*
Y224587D01*
X165607Y225004D01*
X165538Y225490D01*
X165422Y226022D01*
X165283Y226577D01*
X165098Y227110D01*
Y227133D01*
X165075Y227179D01*
X165029Y227248D01*
X164982Y227341D01*
X164844Y227595D01*
X164659Y227919D01*
X164427Y228266D01*
X164126Y228613D01*
X163779Y228984D01*
X163363Y229285D01*
X163340D01*
X163316Y229308D01*
X163247Y229354D01*
X163154Y229400D01*
X162923Y229516D01*
X162599Y229678D01*
X162229Y229817D01*
X161789Y229932D01*
X161303Y230025D01*
X160794Y230048D01*
X160609D01*
X160424Y230025D01*
X160170Y230002D01*
X159869Y229932D01*
X159545Y229863D01*
X159221Y229747D01*
X158920Y229585D01*
X158874Y229562D01*
X158781Y229516D01*
X158642Y229400D01*
X158457Y229285D01*
X158226Y229123D01*
X158018Y228914D01*
X157786Y228706D01*
X157578Y228452D01*
Y234190D01*
D02*
G37*
G36*
X107990Y234260D02*
X107782D01*
X107527Y234236D01*
X107226Y234190D01*
X106879Y234121D01*
X106509Y234028D01*
X106116Y233913D01*
X105746Y233727D01*
X105722D01*
X105699Y233704D01*
X105584Y233635D01*
X105399Y233519D01*
X105167Y233357D01*
X104913Y233126D01*
X104635Y232871D01*
X104380Y232570D01*
X104126Y232223D01*
X104103Y232177D01*
X104010Y232061D01*
X103918Y231853D01*
X103756Y231552D01*
X103617Y231205D01*
X103432Y230812D01*
X103270Y230349D01*
X103131Y229840D01*
Y229817D01*
X103108Y229771D01*
X103085Y229701D01*
X103061Y229585D01*
X103038Y229447D01*
X103015Y229285D01*
X102969Y229076D01*
X102946Y228845D01*
X102899Y228590D01*
X102876Y228313D01*
X102853Y227989D01*
X102807Y227665D01*
X102784Y227295D01*
Y226924D01*
X102761Y226508D01*
Y225605D01*
X102784Y225351D01*
Y225073D01*
X102807Y224772D01*
X102830Y224448D01*
X102899Y223708D01*
X103015Y222944D01*
X103154Y222204D01*
X103246Y221857D01*
X103362Y221510D01*
Y221487D01*
X103385Y221440D01*
X103432Y221348D01*
X103478Y221232D01*
X103524Y221070D01*
X103617Y220908D01*
X103802Y220515D01*
X104033Y220098D01*
X104334Y219636D01*
X104681Y219219D01*
X105098Y218826D01*
X105121D01*
X105144Y218779D01*
X105213Y218733D01*
X105306Y218687D01*
X105422Y218617D01*
X105537Y218525D01*
X105884Y218363D01*
X106301Y218201D01*
X106787Y218039D01*
X107365Y217946D01*
X107990Y217900D01*
X108222D01*
X108384Y217923D01*
X108569Y217946D01*
X108800Y217993D01*
X109054Y218039D01*
X109332Y218108D01*
X109610Y218201D01*
X109911Y218293D01*
X110211Y218432D01*
X110512Y218594D01*
X110813Y218779D01*
X111114Y219011D01*
X111392Y219265D01*
X111646Y219543D01*
X111669Y219566D01*
X111715Y219636D01*
X111785Y219751D01*
X111901Y219936D01*
X112016Y220145D01*
X112132Y220422D01*
X112294Y220746D01*
X112433Y221116D01*
X112572Y221533D01*
X112711Y222019D01*
X112849Y222551D01*
X112965Y223153D01*
X113081Y223801D01*
X113150Y224495D01*
X113196Y225258D01*
X113220Y226068D01*
Y226531D01*
X113196Y226786D01*
Y227063D01*
X113173Y227364D01*
X113150Y227711D01*
X113081Y228428D01*
X112965Y229192D01*
X112826Y229956D01*
X112734Y230303D01*
X112641Y230650D01*
Y230673D01*
X112618Y230719D01*
X112572Y230812D01*
X112525Y230928D01*
X112479Y231089D01*
X112387Y231251D01*
X112201Y231645D01*
X111970Y232061D01*
X111669Y232501D01*
X111322Y232941D01*
X110906Y233311D01*
X110883D01*
X110859Y233357D01*
X110790Y233403D01*
X110697Y233450D01*
X110582Y233542D01*
X110443Y233612D01*
X110096Y233797D01*
X109679Y233959D01*
X109193Y234121D01*
X108615Y234213D01*
X107990Y234260D01*
D02*
G37*
G36*
X214757Y214152D02*
X213183D01*
Y212356D01*
X214757D01*
Y214152D01*
D02*
G37*
G36*
X185908D02*
X184334D01*
Y209579D01*
X184316Y209597D01*
X184297Y209634D01*
X184242Y209690D01*
X184149Y209782D01*
X184056Y209875D01*
X183945Y209986D01*
X183797Y210097D01*
X183649Y210208D01*
X183279Y210449D01*
X182853Y210634D01*
X182612Y210727D01*
X182353Y210782D01*
X182075Y210819D01*
X181798Y210838D01*
X181649D01*
X181483Y210819D01*
X181279Y210801D01*
X181038Y210745D01*
X180760Y210690D01*
X180464Y210597D01*
X180187Y210486D01*
X180149Y210467D01*
X180057Y210431D01*
X179909Y210338D01*
X179742Y210227D01*
X179538Y210097D01*
X179335Y209931D01*
X179113Y209727D01*
X178927Y209505D01*
X178909Y209486D01*
X178853Y209394D01*
X178761Y209264D01*
X178650Y209097D01*
X178520Y208875D01*
X178390Y208616D01*
X178261Y208320D01*
X178150Y208005D01*
Y207986D01*
X178131Y207968D01*
X178113Y207912D01*
X178094Y207857D01*
X178057Y207672D01*
X178002Y207431D01*
X177946Y207153D01*
X177890Y206838D01*
X177872Y206486D01*
X177853Y206116D01*
Y205894D01*
X177872Y205727D01*
X177890Y205524D01*
X177909Y205301D01*
X177946Y205042D01*
X178002Y204764D01*
X178150Y204172D01*
X178242Y203857D01*
X178353Y203561D01*
X178483Y203246D01*
X178650Y202968D01*
X178835Y202691D01*
X179039Y202431D01*
X179057Y202413D01*
X179094Y202376D01*
X179150Y202320D01*
X179242Y202228D01*
X179372Y202135D01*
X179501Y202024D01*
X179650Y201913D01*
X179835Y201783D01*
X180038Y201672D01*
X180242Y201542D01*
X180742Y201339D01*
X181001Y201246D01*
X181279Y201191D01*
X181575Y201154D01*
X181871Y201135D01*
X181946D01*
X182038Y201154D01*
X182149D01*
X182279Y201172D01*
X182446Y201209D01*
X182816Y201302D01*
X183020Y201376D01*
X183223Y201469D01*
X183445Y201580D01*
X183649Y201709D01*
X183871Y201876D01*
X184075Y202061D01*
X184260Y202265D01*
X184445Y202505D01*
Y201339D01*
X185908D01*
Y214152D01*
D02*
G37*
G36*
X205795D02*
X204221D01*
Y209560D01*
X204203Y209579D01*
X204165Y209616D01*
X204110Y209671D01*
X204017Y209764D01*
X203925Y209856D01*
X203795Y209968D01*
X203629Y210079D01*
X203462Y210208D01*
X203277Y210319D01*
X203073Y210431D01*
X202592Y210634D01*
X202332Y210727D01*
X202055Y210782D01*
X201758Y210819D01*
X201462Y210838D01*
X201296D01*
X201092Y210819D01*
X200851Y210782D01*
X200573Y210745D01*
X200277Y210671D01*
X199981Y210560D01*
X199685Y210431D01*
X199648Y210412D01*
X199555Y210356D01*
X199425Y210264D01*
X199259Y210134D01*
X199092Y209968D01*
X198907Y209782D01*
X198740Y209560D01*
X198592Y209301D01*
X198573Y209264D01*
X198536Y209171D01*
X198481Y209005D01*
X198425Y208764D01*
X198370Y208468D01*
X198314Y208116D01*
X198277Y207690D01*
X198259Y207209D01*
Y201339D01*
X199833D01*
Y207227D01*
Y207246D01*
Y207283D01*
Y207338D01*
Y207412D01*
X199851Y207616D01*
X199888Y207875D01*
X199962Y208153D01*
X200055Y208431D01*
X200184Y208708D01*
X200351Y208931D01*
X200370Y208949D01*
X200444Y209023D01*
X200555Y209116D01*
X200721Y209208D01*
X200925Y209319D01*
X201166Y209394D01*
X201462Y209468D01*
X201795Y209486D01*
X201907D01*
X202036Y209468D01*
X202221Y209449D01*
X202407Y209394D01*
X202629Y209338D01*
X202851Y209245D01*
X203092Y209116D01*
X203110Y209097D01*
X203184Y209042D01*
X203295Y208968D01*
X203425Y208857D01*
X203573Y208708D01*
X203721Y208542D01*
X203851Y208338D01*
X203962Y208116D01*
X203980Y208079D01*
X203999Y208005D01*
X204036Y207857D01*
X204091Y207672D01*
X204147Y207431D01*
X204184Y207135D01*
X204203Y206801D01*
X204221Y206412D01*
Y201339D01*
X205795D01*
Y214152D01*
D02*
G37*
G36*
X221312Y210838D02*
X221145D01*
X221034Y210819D01*
X220905Y210801D01*
X220738Y210764D01*
X220553Y210727D01*
X220349Y210671D01*
X220145Y210597D01*
X219923Y210505D01*
X219701Y210394D01*
X219460Y210264D01*
X219238Y210116D01*
X219016Y209931D01*
X218794Y209727D01*
X218590Y209486D01*
Y210634D01*
X217146D01*
Y202246D01*
X217164Y202080D01*
Y201876D01*
X217183Y201654D01*
X217201Y201413D01*
X217257Y200913D01*
X217331Y200394D01*
X217386Y200154D01*
X217442Y199932D01*
X217516Y199728D01*
X217590Y199543D01*
Y199524D01*
X217609Y199506D01*
X217683Y199395D01*
X217775Y199228D01*
X217923Y199024D01*
X218127Y198802D01*
X218368Y198561D01*
X218664Y198321D01*
X218997Y198117D01*
X219016D01*
X219034Y198099D01*
X219090Y198061D01*
X219164Y198043D01*
X219257Y197987D01*
X219368Y197950D01*
X219645Y197858D01*
X219979Y197747D01*
X220386Y197673D01*
X220849Y197598D01*
X221349Y197580D01*
X221516D01*
X221627Y197598D01*
X221775D01*
X221923Y197617D01*
X222108Y197635D01*
X222312Y197673D01*
X222738Y197765D01*
X223182Y197895D01*
X223626Y198080D01*
X224034Y198339D01*
X224052Y198358D01*
X224071Y198376D01*
X224200Y198487D01*
X224349Y198654D01*
X224534Y198895D01*
X224719Y199209D01*
X224886Y199598D01*
X224941Y199820D01*
X224978Y200061D01*
X225015Y200302D01*
Y200580D01*
X223478Y200376D01*
Y200339D01*
X223460Y200265D01*
X223423Y200135D01*
X223386Y199969D01*
X223312Y199802D01*
X223219Y199635D01*
X223108Y199469D01*
X222960Y199339D01*
X222923Y199321D01*
X222849Y199265D01*
X222719Y199191D01*
X222534Y199117D01*
X222312Y199024D01*
X222034Y198950D01*
X221701Y198895D01*
X221349Y198876D01*
X221164D01*
X220979Y198895D01*
X220719Y198932D01*
X220460Y198987D01*
X220182Y199061D01*
X219905Y199172D01*
X219664Y199321D01*
X219645Y199339D01*
X219571Y199395D01*
X219460Y199506D01*
X219331Y199635D01*
X219201Y199820D01*
X219071Y200024D01*
X218942Y200265D01*
X218849Y200543D01*
Y200561D01*
X218831Y200635D01*
X218812Y200783D01*
X218794Y200968D01*
X218775Y201098D01*
Y201246D01*
X218757Y201413D01*
Y201598D01*
Y201802D01*
X218738Y202043D01*
Y202283D01*
Y202561D01*
X218757Y202542D01*
X218794Y202505D01*
X218849Y202450D01*
X218923Y202376D01*
X219016Y202283D01*
X219146Y202172D01*
X219294Y202061D01*
X219442Y201950D01*
X219831Y201728D01*
X220257Y201524D01*
X220497Y201450D01*
X220756Y201394D01*
X221034Y201357D01*
X221312Y201339D01*
X221404D01*
X221497Y201357D01*
X221627D01*
X221793Y201376D01*
X221978Y201413D01*
X222182Y201450D01*
X222404Y201506D01*
X222645Y201580D01*
X222886Y201672D01*
X223127Y201783D01*
X223386Y201913D01*
X223626Y202080D01*
X223867Y202265D01*
X224089Y202468D01*
X224293Y202709D01*
X224312Y202728D01*
X224330Y202765D01*
X224386Y202857D01*
X224460Y202950D01*
X224534Y203098D01*
X224626Y203246D01*
X224719Y203431D01*
X224811Y203653D01*
X224904Y203876D01*
X224997Y204135D01*
X225089Y204394D01*
X225163Y204690D01*
X225293Y205320D01*
X225312Y205672D01*
X225330Y206024D01*
Y206246D01*
X225312Y206375D01*
Y206505D01*
X225275Y206838D01*
X225219Y207209D01*
X225126Y207616D01*
X225015Y208042D01*
X224849Y208468D01*
Y208486D01*
X224830Y208523D01*
X224793Y208579D01*
X224756Y208653D01*
X224645Y208857D01*
X224497Y209116D01*
X224293Y209394D01*
X224052Y209671D01*
X223775Y209968D01*
X223460Y210208D01*
X223441D01*
X223423Y210227D01*
X223367Y210264D01*
X223293Y210301D01*
X223108Y210412D01*
X222849Y210523D01*
X222534Y210634D01*
X222164Y210745D01*
X221756Y210819D01*
X221312Y210838D01*
D02*
G37*
G36*
X147801D02*
X147634D01*
X147431Y210819D01*
X147208Y210782D01*
X146931Y210727D01*
X146653Y210653D01*
X146375Y210542D01*
X146116Y210394D01*
X146079Y210375D01*
X146005Y210319D01*
X145894Y210227D01*
X145746Y210079D01*
X145597Y209912D01*
X145431Y209708D01*
X145283Y209468D01*
X145172Y209190D01*
X145153Y209208D01*
X145116Y209264D01*
X145061Y209338D01*
X144968Y209449D01*
X144857Y209579D01*
X144727Y209708D01*
X144579Y209856D01*
X144394Y210023D01*
X144190Y210171D01*
X143987Y210319D01*
X143746Y210449D01*
X143487Y210579D01*
X143209Y210690D01*
X142913Y210764D01*
X142616Y210819D01*
X142283Y210838D01*
X142153D01*
X142061Y210819D01*
X141931D01*
X141802Y210801D01*
X141487Y210745D01*
X141153Y210653D01*
X140802Y210505D01*
X140450Y210319D01*
X140154Y210060D01*
X140117Y210023D01*
X140042Y209912D01*
X139913Y209745D01*
X139857Y209616D01*
X139783Y209486D01*
X139709Y209319D01*
X139654Y209153D01*
X139580Y208968D01*
X139524Y208745D01*
X139487Y208523D01*
X139450Y208264D01*
X139413Y208005D01*
Y201339D01*
X140987D01*
Y207172D01*
Y207190D01*
Y207209D01*
Y207320D01*
Y207486D01*
X141005Y207690D01*
X141024Y207912D01*
X141042Y208134D01*
X141080Y208357D01*
X141135Y208523D01*
Y208542D01*
X141172Y208597D01*
X141209Y208671D01*
X141265Y208764D01*
X141339Y208875D01*
X141431Y208986D01*
X141542Y209097D01*
X141691Y209208D01*
X141709Y209227D01*
X141765Y209245D01*
X141839Y209282D01*
X141968Y209338D01*
X142098Y209394D01*
X142264Y209431D01*
X142431Y209449D01*
X142635Y209468D01*
X142727D01*
X142802Y209449D01*
X142987Y209431D01*
X143209Y209394D01*
X143468Y209301D01*
X143746Y209190D01*
X144024Y209023D01*
X144283Y208801D01*
X144301Y208764D01*
X144375Y208671D01*
X144487Y208523D01*
X144598Y208301D01*
X144727Y208005D01*
X144820Y207653D01*
X144894Y207227D01*
X144931Y206727D01*
Y201339D01*
X146505D01*
Y207357D01*
Y207375D01*
Y207412D01*
Y207449D01*
Y207523D01*
X146523Y207727D01*
X146560Y207949D01*
X146597Y208209D01*
X146671Y208468D01*
X146764Y208708D01*
X146894Y208931D01*
X146912Y208949D01*
X146968Y209023D01*
X147060Y209097D01*
X147190Y209208D01*
X147357Y209301D01*
X147579Y209394D01*
X147838Y209449D01*
X148153Y209468D01*
X148264D01*
X148393Y209449D01*
X148542Y209431D01*
X148727Y209375D01*
X148949Y209319D01*
X149153Y209227D01*
X149375Y209116D01*
X149393Y209097D01*
X149467Y209042D01*
X149560Y208968D01*
X149690Y208857D01*
X149819Y208708D01*
X149949Y208523D01*
X150078Y208320D01*
X150190Y208079D01*
X150208Y208042D01*
X150227Y207949D01*
X150264Y207801D01*
X150319Y207598D01*
X150375Y207320D01*
X150412Y206986D01*
X150430Y206598D01*
X150449Y206153D01*
Y201339D01*
X152023D01*
Y210634D01*
X150616D01*
Y209301D01*
X150597Y209338D01*
X150541Y209412D01*
X150430Y209542D01*
X150301Y209690D01*
X150134Y209875D01*
X149930Y210060D01*
X149708Y210245D01*
X149449Y210412D01*
X149412Y210431D01*
X149319Y210486D01*
X149171Y210542D01*
X148968Y210634D01*
X148727Y210708D01*
X148449Y210764D01*
X148134Y210819D01*
X147801Y210838D01*
D02*
G37*
G36*
X45404Y213986D02*
X39035D01*
Y212486D01*
X44164D01*
X44849Y209023D01*
X44830Y209042D01*
X44793Y209060D01*
X44738Y209097D01*
X44645Y209153D01*
X44534Y209208D01*
X44404Y209282D01*
X44108Y209431D01*
X43738Y209579D01*
X43330Y209708D01*
X42886Y209801D01*
X42664Y209838D01*
X42256D01*
X42145Y209820D01*
X41997Y209801D01*
X41831Y209782D01*
X41645Y209745D01*
X41442Y209690D01*
X40997Y209560D01*
X40757Y209468D01*
X40516Y209338D01*
X40275Y209208D01*
X40034Y209060D01*
X39812Y208875D01*
X39590Y208671D01*
X39571Y208653D01*
X39534Y208616D01*
X39479Y208560D01*
X39405Y208468D01*
X39312Y208338D01*
X39220Y208209D01*
X39109Y208042D01*
X38997Y207857D01*
X38905Y207653D01*
X38794Y207431D01*
X38701Y207172D01*
X38609Y206912D01*
X38535Y206635D01*
X38479Y206320D01*
X38442Y206005D01*
X38423Y205672D01*
Y205505D01*
X38442Y205375D01*
X38461Y205227D01*
X38479Y205061D01*
X38516Y204857D01*
X38553Y204653D01*
X38664Y204172D01*
X38849Y203672D01*
X38960Y203413D01*
X39109Y203172D01*
X39257Y202913D01*
X39442Y202672D01*
X39460Y202654D01*
X39497Y202598D01*
X39571Y202524D01*
X39664Y202431D01*
X39794Y202320D01*
X39942Y202172D01*
X40127Y202043D01*
X40331Y201894D01*
X40553Y201746D01*
X40812Y201617D01*
X41090Y201487D01*
X41386Y201357D01*
X41701Y201265D01*
X42053Y201191D01*
X42423Y201135D01*
X42812Y201117D01*
X42979D01*
X43108Y201135D01*
X43256Y201154D01*
X43423Y201172D01*
X43627Y201191D01*
X43830Y201246D01*
X44293Y201357D01*
X44756Y201524D01*
X44997Y201635D01*
X45238Y201765D01*
X45460Y201913D01*
X45682Y202080D01*
X45700Y202098D01*
X45738Y202117D01*
X45774Y202191D01*
X45849Y202265D01*
X45941Y202357D01*
X46034Y202468D01*
X46145Y202617D01*
X46237Y202783D01*
X46349Y202950D01*
X46460Y203153D01*
X46663Y203598D01*
X46830Y204116D01*
X46885Y204394D01*
X46923Y204690D01*
X45275Y204820D01*
Y204802D01*
Y204764D01*
X45256Y204709D01*
X45238Y204616D01*
X45182Y204413D01*
X45108Y204135D01*
X44997Y203857D01*
X44849Y203542D01*
X44664Y203265D01*
X44441Y203005D01*
X44404Y202987D01*
X44330Y202913D01*
X44182Y202820D01*
X43978Y202709D01*
X43756Y202598D01*
X43478Y202505D01*
X43164Y202431D01*
X42812Y202413D01*
X42701D01*
X42627Y202431D01*
X42404Y202450D01*
X42145Y202524D01*
X41831Y202617D01*
X41516Y202765D01*
X41182Y202987D01*
X41034Y203116D01*
X40886Y203265D01*
X40868Y203283D01*
X40849Y203302D01*
X40812Y203357D01*
X40757Y203413D01*
X40627Y203616D01*
X40479Y203876D01*
X40349Y204190D01*
X40220Y204579D01*
X40127Y205042D01*
X40090Y205283D01*
Y205542D01*
Y205561D01*
Y205598D01*
Y205672D01*
X40108Y205764D01*
Y205875D01*
X40127Y206005D01*
X40182Y206301D01*
X40275Y206653D01*
X40405Y207005D01*
X40590Y207338D01*
X40849Y207653D01*
Y207672D01*
X40886Y207690D01*
X40979Y207783D01*
X41145Y207912D01*
X41368Y208060D01*
X41664Y208190D01*
X41997Y208320D01*
X42386Y208412D01*
X42608Y208449D01*
X42960D01*
X43108Y208431D01*
X43293Y208412D01*
X43516Y208357D01*
X43738Y208301D01*
X43978Y208209D01*
X44219Y208097D01*
X44238Y208079D01*
X44312Y208042D01*
X44423Y207949D01*
X44571Y207857D01*
X44719Y207727D01*
X44867Y207560D01*
X45034Y207394D01*
X45163Y207190D01*
X46645Y207394D01*
X45404Y213986D01*
D02*
G37*
G36*
X128173Y210838D02*
X127970D01*
X127766Y210819D01*
X127488Y210801D01*
X127174Y210764D01*
X126859Y210708D01*
X126544Y210634D01*
X126248Y210542D01*
X126211Y210523D01*
X126118Y210486D01*
X125988Y210431D01*
X125822Y210356D01*
X125637Y210245D01*
X125451Y210134D01*
X125285Y209986D01*
X125137Y209838D01*
X125118Y209820D01*
X125081Y209764D01*
X125026Y209671D01*
X124951Y209560D01*
X124859Y209394D01*
X124785Y209227D01*
X124711Y209023D01*
X124655Y208783D01*
Y208764D01*
X124637Y208708D01*
X124618Y208597D01*
X124600Y208449D01*
Y208246D01*
X124581Y208005D01*
X124563Y207690D01*
Y207338D01*
Y205227D01*
Y205209D01*
Y205135D01*
Y205024D01*
Y204876D01*
Y204709D01*
Y204505D01*
X124544Y204061D01*
Y203598D01*
X124526Y203135D01*
X124507Y202931D01*
Y202746D01*
X124489Y202579D01*
X124470Y202450D01*
Y202431D01*
X124452Y202357D01*
X124433Y202246D01*
X124377Y202098D01*
X124340Y201931D01*
X124266Y201746D01*
X124174Y201542D01*
X124081Y201339D01*
X125729D01*
X125748Y201357D01*
X125766Y201431D01*
X125803Y201524D01*
X125859Y201672D01*
X125914Y201839D01*
X125951Y202043D01*
X125988Y202265D01*
X126025Y202505D01*
X126044D01*
X126062Y202468D01*
X126174Y202376D01*
X126340Y202246D01*
X126562Y202080D01*
X126840Y201913D01*
X127118Y201728D01*
X127414Y201561D01*
X127729Y201431D01*
X127766Y201413D01*
X127877Y201394D01*
X128044Y201339D01*
X128247Y201283D01*
X128507Y201228D01*
X128803Y201191D01*
X129136Y201154D01*
X129470Y201135D01*
X129618D01*
X129729Y201154D01*
X129858D01*
X130007Y201172D01*
X130340Y201228D01*
X130710Y201320D01*
X131117Y201450D01*
X131488Y201635D01*
X131821Y201876D01*
X131858Y201913D01*
X131951Y202006D01*
X132080Y202172D01*
X132228Y202394D01*
X132377Y202672D01*
X132506Y202987D01*
X132599Y203376D01*
X132617Y203561D01*
X132636Y203783D01*
Y203894D01*
X132617Y204024D01*
X132599Y204190D01*
X132562Y204394D01*
X132506Y204598D01*
X132432Y204820D01*
X132340Y205024D01*
X132321Y205042D01*
X132284Y205116D01*
X132210Y205227D01*
X132117Y205357D01*
X132006Y205505D01*
X131858Y205653D01*
X131710Y205801D01*
X131525Y205931D01*
X131506Y205949D01*
X131432Y205986D01*
X131340Y206061D01*
X131192Y206135D01*
X131025Y206209D01*
X130821Y206301D01*
X130618Y206375D01*
X130377Y206449D01*
X130358D01*
X130284Y206468D01*
X130173Y206505D01*
X130025Y206523D01*
X129840Y206560D01*
X129599Y206598D01*
X129321Y206653D01*
X128988Y206690D01*
X128970D01*
X128896Y206709D01*
X128803D01*
X128673Y206727D01*
X128525Y206746D01*
X128340Y206783D01*
X128136Y206801D01*
X127914Y206838D01*
X127470Y206931D01*
X126988Y207024D01*
X126562Y207135D01*
X126359Y207190D01*
X126174Y207246D01*
Y207264D01*
Y207301D01*
X126155Y207412D01*
Y207542D01*
Y207616D01*
Y207653D01*
Y207672D01*
Y207690D01*
Y207801D01*
X126174Y207986D01*
X126211Y208190D01*
X126266Y208412D01*
X126359Y208634D01*
X126470Y208838D01*
X126618Y209005D01*
X126636Y209023D01*
X126729Y209097D01*
X126877Y209171D01*
X127062Y209282D01*
X127322Y209375D01*
X127618Y209468D01*
X127988Y209523D01*
X128414Y209542D01*
X128599D01*
X128785Y209523D01*
X129044Y209486D01*
X129303Y209449D01*
X129581Y209375D01*
X129840Y209282D01*
X130062Y209153D01*
X130081Y209134D01*
X130155Y209079D01*
X130247Y208986D01*
X130358Y208838D01*
X130470Y208653D01*
X130599Y208412D01*
X130710Y208116D01*
X130821Y207783D01*
X132358Y207986D01*
Y208005D01*
X132340Y208023D01*
Y208079D01*
X132321Y208153D01*
X132266Y208320D01*
X132191Y208560D01*
X132099Y208801D01*
X131988Y209060D01*
X131840Y209319D01*
X131673Y209560D01*
X131655Y209579D01*
X131580Y209653D01*
X131469Y209764D01*
X131321Y209912D01*
X131117Y210060D01*
X130877Y210208D01*
X130599Y210375D01*
X130284Y210505D01*
X130266D01*
X130247Y210523D01*
X130192Y210542D01*
X130118Y210560D01*
X129932Y210616D01*
X129673Y210671D01*
X129377Y210727D01*
X129007Y210782D01*
X128618Y210819D01*
X128173Y210838D01*
D02*
G37*
G36*
X122007Y214152D02*
X120304D01*
Y207783D01*
X113971Y214152D01*
X111657D01*
X117026Y208949D01*
X111416Y201339D01*
X113656D01*
X118211Y207801D01*
X120304Y205783D01*
Y201339D01*
X122007D01*
Y214152D01*
D02*
G37*
G36*
X106268Y210838D02*
X106065D01*
X105861Y210819D01*
X105583Y210801D01*
X105268Y210764D01*
X104954Y210708D01*
X104639Y210634D01*
X104342Y210542D01*
X104305Y210523D01*
X104213Y210486D01*
X104083Y210431D01*
X103917Y210356D01*
X103731Y210245D01*
X103546Y210134D01*
X103380Y209986D01*
X103231Y209838D01*
X103213Y209820D01*
X103176Y209764D01*
X103120Y209671D01*
X103046Y209560D01*
X102954Y209394D01*
X102880Y209227D01*
X102806Y209023D01*
X102750Y208783D01*
Y208764D01*
X102732Y208708D01*
X102713Y208597D01*
X102695Y208449D01*
Y208246D01*
X102676Y208005D01*
X102657Y207690D01*
Y207338D01*
Y205227D01*
Y205209D01*
Y205135D01*
Y205024D01*
Y204876D01*
Y204709D01*
Y204505D01*
X102639Y204061D01*
Y203598D01*
X102620Y203135D01*
X102602Y202931D01*
Y202746D01*
X102584Y202579D01*
X102565Y202450D01*
Y202431D01*
X102546Y202357D01*
X102528Y202246D01*
X102472Y202098D01*
X102435Y201931D01*
X102361Y201746D01*
X102269Y201542D01*
X102176Y201339D01*
X103824D01*
X103843Y201357D01*
X103861Y201431D01*
X103898Y201524D01*
X103954Y201672D01*
X104009Y201839D01*
X104046Y202043D01*
X104083Y202265D01*
X104120Y202505D01*
X104139D01*
X104157Y202468D01*
X104269Y202376D01*
X104435Y202246D01*
X104657Y202080D01*
X104935Y201913D01*
X105213Y201728D01*
X105509Y201561D01*
X105824Y201431D01*
X105861Y201413D01*
X105972Y201394D01*
X106139Y201339D01*
X106342Y201283D01*
X106602Y201228D01*
X106898Y201191D01*
X107231Y201154D01*
X107564Y201135D01*
X107713D01*
X107824Y201154D01*
X107953D01*
X108101Y201172D01*
X108435Y201228D01*
X108805Y201320D01*
X109212Y201450D01*
X109583Y201635D01*
X109916Y201876D01*
X109953Y201913D01*
X110046Y202006D01*
X110175Y202172D01*
X110323Y202394D01*
X110471Y202672D01*
X110601Y202987D01*
X110694Y203376D01*
X110712Y203561D01*
X110731Y203783D01*
Y203894D01*
X110712Y204024D01*
X110694Y204190D01*
X110657Y204394D01*
X110601Y204598D01*
X110527Y204820D01*
X110435Y205024D01*
X110416Y205042D01*
X110379Y205116D01*
X110305Y205227D01*
X110212Y205357D01*
X110101Y205505D01*
X109953Y205653D01*
X109805Y205801D01*
X109620Y205931D01*
X109601Y205949D01*
X109527Y205986D01*
X109435Y206061D01*
X109286Y206135D01*
X109120Y206209D01*
X108916Y206301D01*
X108713Y206375D01*
X108472Y206449D01*
X108453D01*
X108379Y206468D01*
X108268Y206505D01*
X108120Y206523D01*
X107935Y206560D01*
X107694Y206598D01*
X107416Y206653D01*
X107083Y206690D01*
X107065D01*
X106990Y206709D01*
X106898D01*
X106768Y206727D01*
X106620Y206746D01*
X106435Y206783D01*
X106231Y206801D01*
X106009Y206838D01*
X105565Y206931D01*
X105083Y207024D01*
X104657Y207135D01*
X104454Y207190D01*
X104269Y207246D01*
Y207264D01*
Y207301D01*
X104250Y207412D01*
Y207542D01*
Y207616D01*
Y207653D01*
Y207672D01*
Y207690D01*
Y207801D01*
X104269Y207986D01*
X104305Y208190D01*
X104361Y208412D01*
X104454Y208634D01*
X104565Y208838D01*
X104713Y209005D01*
X104731Y209023D01*
X104824Y209097D01*
X104972Y209171D01*
X105157Y209282D01*
X105416Y209375D01*
X105713Y209468D01*
X106083Y209523D01*
X106509Y209542D01*
X106694D01*
X106879Y209523D01*
X107139Y209486D01*
X107398Y209449D01*
X107676Y209375D01*
X107935Y209282D01*
X108157Y209153D01*
X108175Y209134D01*
X108250Y209079D01*
X108342Y208986D01*
X108453Y208838D01*
X108564Y208653D01*
X108694Y208412D01*
X108805Y208116D01*
X108916Y207783D01*
X110453Y207986D01*
Y208005D01*
X110435Y208023D01*
Y208079D01*
X110416Y208153D01*
X110360Y208320D01*
X110286Y208560D01*
X110194Y208801D01*
X110083Y209060D01*
X109935Y209319D01*
X109768Y209560D01*
X109749Y209579D01*
X109675Y209653D01*
X109564Y209764D01*
X109416Y209912D01*
X109212Y210060D01*
X108972Y210208D01*
X108694Y210375D01*
X108379Y210505D01*
X108361D01*
X108342Y210523D01*
X108287Y210542D01*
X108212Y210560D01*
X108027Y210616D01*
X107768Y210671D01*
X107472Y210727D01*
X107101Y210782D01*
X106713Y210819D01*
X106268Y210838D01*
D02*
G37*
G36*
X62477D02*
X62273D01*
X62069Y210819D01*
X61791Y210801D01*
X61477Y210764D01*
X61162Y210708D01*
X60847Y210634D01*
X60551Y210542D01*
X60514Y210523D01*
X60421Y210486D01*
X60292Y210431D01*
X60125Y210356D01*
X59940Y210245D01*
X59755Y210134D01*
X59588Y209986D01*
X59440Y209838D01*
X59421Y209820D01*
X59384Y209764D01*
X59329Y209671D01*
X59255Y209560D01*
X59162Y209394D01*
X59088Y209227D01*
X59014Y209023D01*
X58958Y208783D01*
Y208764D01*
X58940Y208708D01*
X58921Y208597D01*
X58903Y208449D01*
Y208246D01*
X58884Y208005D01*
X58866Y207690D01*
Y207338D01*
Y205227D01*
Y205209D01*
Y205135D01*
Y205024D01*
Y204876D01*
Y204709D01*
Y204505D01*
X58847Y204061D01*
Y203598D01*
X58829Y203135D01*
X58810Y202931D01*
Y202746D01*
X58792Y202579D01*
X58773Y202450D01*
Y202431D01*
X58755Y202357D01*
X58736Y202246D01*
X58681Y202098D01*
X58644Y201931D01*
X58569Y201746D01*
X58477Y201542D01*
X58384Y201339D01*
X60032D01*
X60051Y201357D01*
X60069Y201431D01*
X60106Y201524D01*
X60162Y201672D01*
X60217Y201839D01*
X60255Y202043D01*
X60292Y202265D01*
X60329Y202505D01*
X60347D01*
X60366Y202468D01*
X60477Y202376D01*
X60643Y202246D01*
X60866Y202080D01*
X61143Y201913D01*
X61421Y201728D01*
X61717Y201561D01*
X62032Y201431D01*
X62069Y201413D01*
X62180Y201394D01*
X62347Y201339D01*
X62551Y201283D01*
X62810Y201228D01*
X63106Y201191D01*
X63439Y201154D01*
X63773Y201135D01*
X63921D01*
X64032Y201154D01*
X64162D01*
X64310Y201172D01*
X64643Y201228D01*
X65013Y201320D01*
X65421Y201450D01*
X65791Y201635D01*
X66124Y201876D01*
X66161Y201913D01*
X66254Y202006D01*
X66384Y202172D01*
X66532Y202394D01*
X66680Y202672D01*
X66809Y202987D01*
X66902Y203376D01*
X66920Y203561D01*
X66939Y203783D01*
Y203894D01*
X66920Y204024D01*
X66902Y204190D01*
X66865Y204394D01*
X66809Y204598D01*
X66735Y204820D01*
X66643Y205024D01*
X66624Y205042D01*
X66587Y205116D01*
X66513Y205227D01*
X66420Y205357D01*
X66309Y205505D01*
X66161Y205653D01*
X66013Y205801D01*
X65828Y205931D01*
X65809Y205949D01*
X65735Y205986D01*
X65643Y206061D01*
X65495Y206135D01*
X65328Y206209D01*
X65124Y206301D01*
X64921Y206375D01*
X64680Y206449D01*
X64661D01*
X64587Y206468D01*
X64476Y206505D01*
X64328Y206523D01*
X64143Y206560D01*
X63902Y206598D01*
X63625Y206653D01*
X63291Y206690D01*
X63273D01*
X63199Y206709D01*
X63106D01*
X62976Y206727D01*
X62828Y206746D01*
X62643Y206783D01*
X62439Y206801D01*
X62217Y206838D01*
X61773Y206931D01*
X61291Y207024D01*
X60866Y207135D01*
X60662Y207190D01*
X60477Y207246D01*
Y207264D01*
Y207301D01*
X60458Y207412D01*
Y207542D01*
Y207616D01*
Y207653D01*
Y207672D01*
Y207690D01*
Y207801D01*
X60477Y207986D01*
X60514Y208190D01*
X60569Y208412D01*
X60662Y208634D01*
X60773Y208838D01*
X60921Y209005D01*
X60940Y209023D01*
X61032Y209097D01*
X61180Y209171D01*
X61365Y209282D01*
X61625Y209375D01*
X61921Y209468D01*
X62291Y209523D01*
X62717Y209542D01*
X62902D01*
X63088Y209523D01*
X63347Y209486D01*
X63606Y209449D01*
X63884Y209375D01*
X64143Y209282D01*
X64365Y209153D01*
X64384Y209134D01*
X64458Y209079D01*
X64550Y208986D01*
X64661Y208838D01*
X64773Y208653D01*
X64902Y208412D01*
X65013Y208116D01*
X65124Y207783D01*
X66661Y207986D01*
Y208005D01*
X66643Y208023D01*
Y208079D01*
X66624Y208153D01*
X66569Y208320D01*
X66495Y208560D01*
X66402Y208801D01*
X66291Y209060D01*
X66143Y209319D01*
X65976Y209560D01*
X65958Y209579D01*
X65884Y209653D01*
X65773Y209764D01*
X65624Y209912D01*
X65421Y210060D01*
X65180Y210208D01*
X64902Y210375D01*
X64587Y210505D01*
X64569D01*
X64550Y210523D01*
X64495Y210542D01*
X64421Y210560D01*
X64236Y210616D01*
X63976Y210671D01*
X63680Y210727D01*
X63310Y210782D01*
X62921Y210819D01*
X62477Y210838D01*
D02*
G37*
G36*
X208943Y213875D02*
Y210634D01*
X207350D01*
Y209412D01*
X208943D01*
Y203950D01*
Y203913D01*
Y203839D01*
Y203727D01*
X208924Y203598D01*
X208906Y203302D01*
X208887Y203172D01*
X208869Y203079D01*
X208850Y203042D01*
X208795Y202968D01*
X208721Y202876D01*
X208591Y202783D01*
X208554Y202765D01*
X208461Y202728D01*
X208295Y202691D01*
X208054Y202672D01*
X207869D01*
X207776Y202691D01*
X207647D01*
X207498Y202709D01*
X207350Y202728D01*
X207147Y201339D01*
X207184D01*
X207258Y201320D01*
X207387Y201302D01*
X207554Y201283D01*
X207739Y201246D01*
X207943Y201228D01*
X208350Y201209D01*
X208498D01*
X208647Y201228D01*
X208832Y201246D01*
X209054Y201265D01*
X209276Y201320D01*
X209480Y201376D01*
X209683Y201469D01*
X209702Y201487D01*
X209757Y201524D01*
X209832Y201580D01*
X209943Y201672D01*
X210035Y201765D01*
X210146Y201894D01*
X210257Y202024D01*
X210332Y202191D01*
Y202209D01*
X210369Y202283D01*
X210387Y202413D01*
X210424Y202598D01*
X210461Y202839D01*
X210480Y202987D01*
Y203153D01*
X210498Y203357D01*
X210517Y203561D01*
Y203783D01*
Y204042D01*
Y209412D01*
X211683D01*
Y210634D01*
X210517D01*
Y212930D01*
X208943Y213875D01*
D02*
G37*
G36*
X195870Y210634D02*
X194296D01*
Y205468D01*
Y205450D01*
Y205413D01*
Y205357D01*
Y205264D01*
Y205061D01*
X194278Y204802D01*
Y204524D01*
X194259Y204246D01*
X194241Y204005D01*
X194204Y203802D01*
Y203783D01*
X194167Y203709D01*
X194130Y203598D01*
X194074Y203450D01*
X193981Y203302D01*
X193870Y203135D01*
X193741Y202987D01*
X193574Y202839D01*
X193556Y202820D01*
X193482Y202783D01*
X193389Y202728D01*
X193241Y202672D01*
X193074Y202598D01*
X192870Y202542D01*
X192648Y202505D01*
X192389Y202487D01*
X192259D01*
X192130Y202505D01*
X191963Y202524D01*
X191759Y202579D01*
X191537Y202635D01*
X191297Y202728D01*
X191056Y202839D01*
X191019Y202857D01*
X190945Y202913D01*
X190834Y202987D01*
X190704Y203098D01*
X190556Y203246D01*
X190408Y203413D01*
X190278Y203598D01*
X190167Y203820D01*
X190149Y203857D01*
X190130Y203931D01*
X190093Y204079D01*
X190037Y204283D01*
X189982Y204542D01*
X189945Y204857D01*
X189926Y205227D01*
X189908Y205653D01*
Y210634D01*
X188334D01*
Y201339D01*
X189741D01*
Y202691D01*
X189760Y202672D01*
X189797Y202617D01*
X189852Y202542D01*
X189945Y202450D01*
X190056Y202339D01*
X190186Y202191D01*
X190334Y202061D01*
X190519Y201913D01*
X190723Y201765D01*
X190945Y201635D01*
X191185Y201506D01*
X191445Y201376D01*
X191741Y201283D01*
X192037Y201209D01*
X192370Y201154D01*
X192704Y201135D01*
X192833D01*
X193000Y201154D01*
X193204Y201172D01*
X193444Y201209D01*
X193704Y201265D01*
X193963Y201339D01*
X194241Y201450D01*
X194278Y201469D01*
X194352Y201506D01*
X194481Y201580D01*
X194629Y201672D01*
X194815Y201783D01*
X194981Y201913D01*
X195148Y202061D01*
X195296Y202228D01*
X195315Y202246D01*
X195352Y202320D01*
X195407Y202413D01*
X195481Y202561D01*
X195574Y202728D01*
X195648Y202931D01*
X195722Y203153D01*
X195777Y203394D01*
Y203413D01*
X195796Y203487D01*
X195814Y203598D01*
Y203746D01*
X195833Y203968D01*
X195852Y204209D01*
X195870Y204524D01*
Y210634D01*
D02*
G37*
G36*
X167169Y210838D02*
X167021D01*
X166910Y210819D01*
X166799D01*
X166651Y210801D01*
X166299Y210745D01*
X165910Y210653D01*
X165503Y210505D01*
X165096Y210319D01*
X164707Y210060D01*
X164688D01*
X164670Y210023D01*
X164559Y209912D01*
X164392Y209745D01*
X164188Y209505D01*
X163985Y209208D01*
X163781Y208838D01*
X163596Y208412D01*
X163466Y207912D01*
X165003Y207672D01*
Y207690D01*
X165021Y207709D01*
X165040Y207820D01*
X165096Y207986D01*
X165188Y208190D01*
X165281Y208412D01*
X165429Y208653D01*
X165595Y208875D01*
X165781Y209060D01*
X165799Y209079D01*
X165873Y209134D01*
X166003Y209208D01*
X166151Y209301D01*
X166355Y209394D01*
X166577Y209468D01*
X166836Y209523D01*
X167114Y209542D01*
X167225D01*
X167318Y209523D01*
X167521Y209505D01*
X167799Y209431D01*
X168095Y209338D01*
X168428Y209190D01*
X168743Y208968D01*
X168891Y208838D01*
X169039Y208690D01*
Y208671D01*
X169077Y208653D01*
X169114Y208597D01*
X169151Y208523D01*
X169206Y208431D01*
X169280Y208320D01*
X169336Y208190D01*
X169410Y208042D01*
X169484Y207857D01*
X169540Y207653D01*
X169614Y207431D01*
X169669Y207190D01*
X169706Y206931D01*
X169743Y206635D01*
X169780Y206320D01*
Y205986D01*
Y205968D01*
Y205912D01*
Y205801D01*
X169762Y205690D01*
Y205524D01*
X169743Y205357D01*
X169688Y204950D01*
X169614Y204505D01*
X169484Y204042D01*
X169317Y203635D01*
X169206Y203431D01*
X169077Y203265D01*
X169039Y203228D01*
X168947Y203135D01*
X168780Y203005D01*
X168577Y202857D01*
X168299Y202691D01*
X167984Y202561D01*
X167614Y202468D01*
X167410Y202450D01*
X167206Y202431D01*
X167169D01*
X167058Y202450D01*
X166873Y202468D01*
X166669Y202505D01*
X166429Y202561D01*
X166169Y202672D01*
X165910Y202802D01*
X165669Y202987D01*
X165632Y203005D01*
X165577Y203098D01*
X165466Y203228D01*
X165336Y203431D01*
X165207Y203672D01*
X165058Y203968D01*
X164947Y204339D01*
X164873Y204746D01*
X163318Y204542D01*
Y204524D01*
X163336Y204468D01*
X163355Y204394D01*
X163374Y204283D01*
X163410Y204135D01*
X163447Y203987D01*
X163577Y203616D01*
X163744Y203228D01*
X163985Y202802D01*
X164281Y202394D01*
X164447Y202209D01*
X164633Y202024D01*
X164651Y202006D01*
X164688Y201987D01*
X164744Y201950D01*
X164818Y201894D01*
X164910Y201820D01*
X165040Y201746D01*
X165188Y201672D01*
X165336Y201580D01*
X165707Y201413D01*
X166151Y201283D01*
X166632Y201172D01*
X166910Y201154D01*
X167188Y201135D01*
X167373D01*
X167503Y201154D01*
X167669Y201172D01*
X167854Y201209D01*
X168058Y201246D01*
X168280Y201283D01*
X168780Y201431D01*
X169021Y201542D01*
X169280Y201654D01*
X169540Y201802D01*
X169780Y201968D01*
X170021Y202154D01*
X170243Y202376D01*
X170262Y202394D01*
X170299Y202431D01*
X170354Y202505D01*
X170428Y202598D01*
X170502Y202728D01*
X170613Y202894D01*
X170706Y203079D01*
X170817Y203283D01*
X170928Y203524D01*
X171021Y203802D01*
X171132Y204079D01*
X171206Y204413D01*
X171280Y204746D01*
X171336Y205135D01*
X171373Y205524D01*
X171391Y205949D01*
Y206209D01*
X171373Y206338D01*
Y206486D01*
X171354Y206653D01*
X171336Y206838D01*
X171280Y207246D01*
X171187Y207690D01*
X171076Y208134D01*
X170910Y208579D01*
Y208597D01*
X170891Y208634D01*
X170854Y208690D01*
X170817Y208764D01*
X170706Y208968D01*
X170539Y209208D01*
X170317Y209486D01*
X170058Y209764D01*
X169743Y210042D01*
X169391Y210264D01*
X169373D01*
X169336Y210282D01*
X169280Y210319D01*
X169206Y210356D01*
X169114Y210394D01*
X169002Y210449D01*
X168725Y210560D01*
X168410Y210653D01*
X168021Y210745D01*
X167614Y210819D01*
X167169Y210838D01*
D02*
G37*
G36*
X83511D02*
X83326D01*
X83197Y210819D01*
X83048Y210801D01*
X82863Y210764D01*
X82660Y210727D01*
X82419Y210671D01*
X82197Y210616D01*
X81938Y210523D01*
X81697Y210431D01*
X81438Y210301D01*
X81178Y210153D01*
X80919Y209986D01*
X80678Y209782D01*
X80456Y209560D01*
X80438Y209542D01*
X80401Y209505D01*
X80345Y209431D01*
X80271Y209319D01*
X80178Y209190D01*
X80086Y209042D01*
X79975Y208857D01*
X79864Y208634D01*
X79752Y208394D01*
X79641Y208134D01*
X79549Y207838D01*
X79456Y207523D01*
X79382Y207172D01*
X79327Y206801D01*
X79290Y206412D01*
X79271Y205986D01*
Y205764D01*
X79290Y205579D01*
X86233D01*
Y205561D01*
Y205505D01*
X86215Y205431D01*
Y205320D01*
X86196Y205190D01*
X86159Y205042D01*
X86104Y204709D01*
X85993Y204339D01*
X85844Y203931D01*
X85641Y203561D01*
X85381Y203228D01*
X85363D01*
X85344Y203190D01*
X85233Y203098D01*
X85067Y202968D01*
X84845Y202839D01*
X84548Y202691D01*
X84215Y202561D01*
X83845Y202468D01*
X83641Y202450D01*
X83419Y202431D01*
X83271D01*
X83104Y202450D01*
X82900Y202487D01*
X82678Y202542D01*
X82419Y202617D01*
X82178Y202728D01*
X81938Y202876D01*
X81919Y202894D01*
X81826Y202968D01*
X81715Y203079D01*
X81586Y203228D01*
X81438Y203431D01*
X81271Y203690D01*
X81104Y203987D01*
X80956Y204339D01*
X79327Y204135D01*
Y204116D01*
X79345Y204079D01*
X79364Y204005D01*
X79401Y203894D01*
X79456Y203783D01*
X79512Y203635D01*
X79660Y203320D01*
X79845Y202968D01*
X80104Y202598D01*
X80401Y202246D01*
X80771Y201913D01*
X80789D01*
X80827Y201876D01*
X80882Y201839D01*
X80956Y201783D01*
X81067Y201728D01*
X81178Y201672D01*
X81326Y201598D01*
X81493Y201524D01*
X81678Y201450D01*
X81863Y201376D01*
X82326Y201265D01*
X82845Y201172D01*
X83419Y201135D01*
X83623D01*
X83752Y201154D01*
X83919Y201172D01*
X84122Y201209D01*
X84345Y201246D01*
X84585Y201283D01*
X85104Y201431D01*
X85381Y201542D01*
X85641Y201654D01*
X85919Y201802D01*
X86178Y201968D01*
X86419Y202154D01*
X86659Y202376D01*
X86678Y202394D01*
X86715Y202431D01*
X86770Y202505D01*
X86844Y202617D01*
X86937Y202746D01*
X87029Y202894D01*
X87141Y203079D01*
X87252Y203283D01*
X87363Y203524D01*
X87474Y203783D01*
X87566Y204079D01*
X87659Y204394D01*
X87733Y204727D01*
X87789Y205098D01*
X87826Y205487D01*
X87844Y205894D01*
Y206116D01*
X87826Y206283D01*
X87807Y206486D01*
X87789Y206709D01*
X87752Y206968D01*
X87696Y207227D01*
X87548Y207820D01*
X87455Y208116D01*
X87344Y208431D01*
X87196Y208727D01*
X87029Y209005D01*
X86844Y209282D01*
X86641Y209542D01*
X86622Y209560D01*
X86585Y209597D01*
X86511Y209653D01*
X86419Y209745D01*
X86307Y209838D01*
X86159Y209949D01*
X85993Y210079D01*
X85789Y210190D01*
X85585Y210319D01*
X85344Y210431D01*
X85085Y210542D01*
X84808Y210634D01*
X84511Y210727D01*
X84197Y210782D01*
X83863Y210819D01*
X83511Y210838D01*
D02*
G37*
G36*
X214757Y210634D02*
X213183D01*
Y201339D01*
X214757D01*
Y210634D01*
D02*
G37*
G36*
X175465Y203135D02*
X173669D01*
Y201339D01*
X175465D01*
Y203135D01*
D02*
G37*
G36*
X100010Y214152D02*
X94066D01*
X93918Y214134D01*
X93751D01*
X93362Y214115D01*
X92955Y214060D01*
X92510Y214004D01*
X92103Y213912D01*
X91899Y213856D01*
X91733Y213801D01*
X91714D01*
X91696Y213782D01*
X91585Y213727D01*
X91418Y213652D01*
X91214Y213523D01*
X90992Y213356D01*
X90751Y213134D01*
X90529Y212875D01*
X90307Y212578D01*
Y212560D01*
X90288Y212541D01*
X90214Y212430D01*
X90140Y212245D01*
X90029Y212004D01*
X89937Y211727D01*
X89844Y211393D01*
X89789Y211042D01*
X89770Y210653D01*
Y210634D01*
Y210597D01*
Y210523D01*
X89789Y210431D01*
Y210301D01*
X89807Y210171D01*
X89881Y209856D01*
X89992Y209486D01*
X90140Y209097D01*
X90363Y208708D01*
X90511Y208523D01*
X90659Y208338D01*
X90677Y208320D01*
X90696Y208301D01*
X90751Y208246D01*
X90825Y208190D01*
X90918Y208116D01*
X91029Y208042D01*
X91177Y207949D01*
X91325Y207838D01*
X91510Y207746D01*
X91714Y207653D01*
X91936Y207542D01*
X92177Y207449D01*
X92455Y207375D01*
X92733Y207283D01*
X93047Y207227D01*
X93381Y207172D01*
X93344Y207153D01*
X93270Y207116D01*
X93159Y207042D01*
X93010Y206968D01*
X92677Y206764D01*
X92510Y206635D01*
X92362Y206523D01*
X92325Y206486D01*
X92233Y206394D01*
X92085Y206246D01*
X91899Y206061D01*
X91696Y205801D01*
X91455Y205524D01*
X91214Y205190D01*
X90955Y204820D01*
X88752Y201339D01*
X90863D01*
X92548Y204005D01*
Y204024D01*
X92584Y204061D01*
X92621Y204116D01*
X92677Y204190D01*
X92807Y204394D01*
X92973Y204653D01*
X93177Y204931D01*
X93381Y205227D01*
X93584Y205505D01*
X93770Y205764D01*
X93788Y205783D01*
X93844Y205857D01*
X93936Y205968D01*
X94066Y206098D01*
X94344Y206375D01*
X94492Y206505D01*
X94640Y206616D01*
X94658Y206635D01*
X94695Y206653D01*
X94769Y206690D01*
X94881Y206746D01*
X94992Y206801D01*
X95121Y206857D01*
X95417Y206949D01*
X95436D01*
X95473Y206968D01*
X95547D01*
X95640Y206986D01*
X95769Y207005D01*
X95918D01*
X96121Y207024D01*
X98306D01*
Y201339D01*
X100010D01*
Y214152D01*
D02*
G37*
G36*
X77438D02*
X68235D01*
Y212634D01*
X75475Y203764D01*
X76234Y202857D01*
X68032D01*
Y201339D01*
X78179D01*
Y202913D01*
X71605Y211097D01*
Y211116D01*
X71568Y211134D01*
X71476Y211245D01*
X71346Y211412D01*
X71179Y211616D01*
X70976Y211856D01*
X70753Y212115D01*
X70513Y212375D01*
X70272Y212634D01*
X77438D01*
Y214152D01*
D02*
G37*
G36*
X56773Y213986D02*
X48478D01*
Y212745D01*
X48496Y212727D01*
X48534Y212689D01*
X48608Y212616D01*
X48682Y212504D01*
X48793Y212375D01*
X48941Y212227D01*
X49089Y212041D01*
X49256Y211819D01*
X49422Y211597D01*
X49626Y211338D01*
X49830Y211042D01*
X50033Y210745D01*
X50256Y210412D01*
X50478Y210060D01*
X50700Y209671D01*
X50922Y209282D01*
X50941Y209264D01*
X50978Y209190D01*
X51033Y209079D01*
X51126Y208912D01*
X51218Y208708D01*
X51329Y208486D01*
X51459Y208227D01*
X51589Y207931D01*
X51737Y207598D01*
X51904Y207264D01*
X52052Y206894D01*
X52200Y206505D01*
X52496Y205709D01*
X52774Y204857D01*
Y204839D01*
X52792Y204783D01*
X52811Y204690D01*
X52848Y204579D01*
X52885Y204431D01*
X52922Y204246D01*
X52977Y204042D01*
X53014Y203820D01*
X53070Y203561D01*
X53126Y203283D01*
X53218Y202691D01*
X53311Y202043D01*
X53366Y201339D01*
X54977D01*
Y201357D01*
Y201413D01*
Y201487D01*
X54959Y201598D01*
Y201746D01*
X54940Y201931D01*
X54922Y202135D01*
X54903Y202357D01*
X54866Y202617D01*
X54829Y202876D01*
X54774Y203190D01*
X54718Y203505D01*
X54662Y203839D01*
X54588Y204209D01*
X54403Y204968D01*
Y204987D01*
X54385Y205061D01*
X54348Y205172D01*
X54292Y205338D01*
X54237Y205524D01*
X54163Y205746D01*
X54089Y206005D01*
X53977Y206283D01*
X53866Y206598D01*
X53755Y206912D01*
X53477Y207616D01*
X53144Y208357D01*
X52774Y209097D01*
X52755Y209116D01*
X52718Y209190D01*
X52663Y209282D01*
X52589Y209431D01*
X52496Y209597D01*
X52366Y209801D01*
X52237Y210023D01*
X52089Y210264D01*
X51737Y210801D01*
X51367Y211356D01*
X50941Y211930D01*
X50496Y212467D01*
X56773D01*
Y213986D01*
D02*
G37*
G36*
X158207Y210838D02*
X158022D01*
X157893Y210819D01*
X157726Y210801D01*
X157541Y210764D01*
X157337Y210727D01*
X157096Y210690D01*
X156596Y210523D01*
X156337Y210431D01*
X156078Y210301D01*
X155819Y210171D01*
X155560Y209986D01*
X155319Y209801D01*
X155078Y209579D01*
X155059Y209560D01*
X155022Y209523D01*
X154967Y209449D01*
X154893Y209357D01*
X154800Y209227D01*
X154689Y209060D01*
X154578Y208875D01*
X154467Y208671D01*
X154356Y208449D01*
X154245Y208172D01*
X154134Y207894D01*
X154041Y207579D01*
X153967Y207246D01*
X153912Y206894D01*
X153874Y206523D01*
X153856Y206116D01*
Y205820D01*
X153874Y205672D01*
X153893Y205487D01*
Y205301D01*
X153930Y205098D01*
X153986Y204635D01*
X154097Y204172D01*
X154226Y203709D01*
X154411Y203283D01*
Y203265D01*
X154430Y203246D01*
X154467Y203190D01*
X154504Y203116D01*
X154634Y202931D01*
X154800Y202709D01*
X155022Y202450D01*
X155300Y202191D01*
X155615Y201931D01*
X155985Y201691D01*
X156004D01*
X156022Y201672D01*
X156078Y201635D01*
X156171Y201598D01*
X156263Y201561D01*
X156374Y201524D01*
X156652Y201413D01*
X156967Y201320D01*
X157356Y201228D01*
X157763Y201154D01*
X158207Y201135D01*
X158392D01*
X158541Y201154D01*
X158707Y201172D01*
X158892Y201209D01*
X159115Y201246D01*
X159337Y201283D01*
X159837Y201431D01*
X160114Y201542D01*
X160374Y201654D01*
X160633Y201802D01*
X160892Y201968D01*
X161133Y202154D01*
X161374Y202376D01*
X161392Y202394D01*
X161429Y202431D01*
X161485Y202505D01*
X161559Y202617D01*
X161651Y202746D01*
X161744Y202894D01*
X161855Y203079D01*
X161966Y203302D01*
X162077Y203542D01*
X162188Y203820D01*
X162281Y204116D01*
X162374Y204431D01*
X162448Y204783D01*
X162503Y205153D01*
X162540Y205561D01*
X162559Y205986D01*
Y206098D01*
X162540Y206227D01*
Y206412D01*
X162522Y206616D01*
X162485Y206875D01*
X162448Y207135D01*
X162374Y207431D01*
X162299Y207727D01*
X162207Y208042D01*
X162096Y208375D01*
X161948Y208690D01*
X161800Y208986D01*
X161596Y209282D01*
X161392Y209560D01*
X161133Y209801D01*
X161114Y209820D01*
X161077Y209838D01*
X161003Y209893D01*
X160911Y209968D01*
X160800Y210042D01*
X160651Y210134D01*
X160503Y210227D01*
X160318Y210319D01*
X160114Y210412D01*
X159892Y210505D01*
X159392Y210671D01*
X158818Y210801D01*
X158522Y210819D01*
X158207Y210838D01*
D02*
G37*
G36*
X134543Y214375D02*
X133284D01*
X137006Y201117D01*
X138265D01*
X134543Y214375D01*
D02*
G37*
%LPD*%
G36*
X122175Y252179D02*
X122429Y252132D01*
X122730Y252063D01*
X123077Y251924D01*
X123447Y251716D01*
X123632Y251577D01*
X123818Y251438D01*
X123979Y251253D01*
X124141Y251045D01*
Y251022D01*
X124188Y250975D01*
X124234Y250883D01*
X124303Y250767D01*
X124373Y250582D01*
X124465Y250374D01*
X124535Y250119D01*
X124627Y249818D01*
X124720Y249471D01*
X124812Y249078D01*
X124905Y248638D01*
X124974Y248152D01*
X125044Y247597D01*
X125090Y246996D01*
X125113Y246348D01*
X125136Y245630D01*
Y245584D01*
Y245468D01*
Y245260D01*
X125113Y244982D01*
Y244681D01*
X125090Y244311D01*
X125067Y243918D01*
X125021Y243501D01*
X124905Y242599D01*
X124836Y242159D01*
X124743Y241743D01*
X124650Y241350D01*
X124512Y240979D01*
X124373Y240655D01*
X124211Y240378D01*
Y240354D01*
X124164Y240331D01*
X124049Y240169D01*
X123841Y239961D01*
X123586Y239730D01*
X123239Y239498D01*
X122846Y239290D01*
X122406Y239128D01*
X122175Y239105D01*
X121920Y239082D01*
X121781D01*
X121689Y239105D01*
X121457Y239151D01*
X121133Y239244D01*
X120786Y239406D01*
X120393Y239637D01*
X120208Y239776D01*
X120023Y239961D01*
X119838Y240146D01*
X119652Y240378D01*
Y240401D01*
X119606Y240447D01*
X119560Y240516D01*
X119514Y240632D01*
X119421Y240794D01*
X119352Y241002D01*
X119259Y241234D01*
X119166Y241511D01*
X119097Y241859D01*
X119004Y242229D01*
X118912Y242668D01*
X118842Y243131D01*
X118796Y243687D01*
X118750Y244265D01*
X118704Y244913D01*
Y245630D01*
Y245653D01*
Y245676D01*
Y245792D01*
Y246000D01*
X118727Y246278D01*
Y246579D01*
X118750Y246949D01*
X118773Y247343D01*
X118819Y247782D01*
X118935Y248661D01*
X119004Y249101D01*
X119097Y249518D01*
X119190Y249911D01*
X119328Y250281D01*
X119467Y250605D01*
X119629Y250883D01*
Y250906D01*
X119676Y250929D01*
X119722Y250999D01*
X119791Y251091D01*
X120000Y251299D01*
X120254Y251554D01*
X120601Y251785D01*
X120994Y251994D01*
X121203Y252086D01*
X121434Y252156D01*
X121689Y252179D01*
X121943Y252202D01*
X122082D01*
X122175Y252179D01*
D02*
G37*
G36*
X81241Y252156D02*
X81519Y252109D01*
X81819Y252017D01*
X82143Y251901D01*
X82444Y251716D01*
X82745Y251461D01*
X82768Y251438D01*
X82861Y251346D01*
X82976Y251184D01*
X83092Y250975D01*
X83231Y250721D01*
X83347Y250420D01*
X83439Y250096D01*
X83462Y249726D01*
Y249703D01*
Y249680D01*
X83439Y249541D01*
X83416Y249333D01*
X83370Y249078D01*
X83277Y248777D01*
X83161Y248476D01*
X82976Y248152D01*
X82745Y247875D01*
X82722Y247852D01*
X82606Y247759D01*
X82444Y247643D01*
X82236Y247528D01*
X81958Y247389D01*
X81634Y247273D01*
X81264Y247181D01*
X80848Y247157D01*
X80801D01*
X80662Y247181D01*
X80454Y247204D01*
X80176Y247250D01*
X79876Y247343D01*
X79575Y247458D01*
X79251Y247643D01*
X78973Y247875D01*
X78950Y247898D01*
X78858Y248014D01*
X78742Y248152D01*
X78603Y248361D01*
X78464Y248615D01*
X78348Y248916D01*
X78256Y249263D01*
X78233Y249633D01*
Y249657D01*
Y249680D01*
Y249818D01*
X78279Y250027D01*
X78325Y250281D01*
X78418Y250559D01*
X78557Y250860D01*
X78742Y251161D01*
X78996Y251461D01*
X79020Y251485D01*
X79135Y251577D01*
X79297Y251693D01*
X79506Y251832D01*
X79783Y251970D01*
X80084Y252086D01*
X80454Y252179D01*
X80848Y252202D01*
X81033D01*
X81241Y252156D01*
D02*
G37*
G36*
X81148Y245538D02*
X81403Y245515D01*
X81727Y245445D01*
X82097Y245329D01*
X82467Y245168D01*
X82861Y244936D01*
X83208Y244635D01*
X83254Y244589D01*
X83347Y244473D01*
X83485Y244265D01*
X83647Y244011D01*
X83833Y243663D01*
X83971Y243270D01*
X84064Y242830D01*
X84110Y242344D01*
Y242298D01*
Y242206D01*
X84087Y242044D01*
X84064Y241835D01*
X84018Y241581D01*
X83948Y241303D01*
X83856Y241026D01*
X83740Y240725D01*
X83717Y240702D01*
X83671Y240586D01*
X83578Y240447D01*
X83439Y240285D01*
X83277Y240077D01*
X83069Y239869D01*
X82838Y239683D01*
X82560Y239498D01*
X82514Y239475D01*
X82421Y239429D01*
X82259Y239359D01*
X82051Y239290D01*
X81796Y239221D01*
X81496Y239151D01*
X81172Y239105D01*
X80848Y239082D01*
X80709D01*
X80616Y239105D01*
X80338Y239128D01*
X80015Y239198D01*
X79644Y239313D01*
X79251Y239452D01*
X78881Y239683D01*
X78510Y239984D01*
X78464Y240030D01*
X78372Y240146D01*
X78210Y240354D01*
X78048Y240609D01*
X77886Y240933D01*
X77724Y241326D01*
X77631Y241789D01*
X77585Y242275D01*
Y242298D01*
Y242344D01*
Y242414D01*
X77608Y242506D01*
X77631Y242761D01*
X77701Y243108D01*
X77816Y243455D01*
X77978Y243848D01*
X78210Y244242D01*
X78534Y244612D01*
X78580Y244658D01*
X78696Y244751D01*
X78904Y244913D01*
X79182Y245098D01*
X79529Y245260D01*
X79945Y245422D01*
X80408Y245515D01*
X80917Y245561D01*
X81056D01*
X81148Y245538D01*
D02*
G37*
G36*
X177455Y223986D02*
X177524Y223962D01*
X177617Y223939D01*
X177732Y223893D01*
X177871Y223847D01*
X178033Y223801D01*
X178218Y223754D01*
X178426Y223685D01*
X178681Y223639D01*
X178936Y223569D01*
X179236Y223500D01*
X179560Y223430D01*
X179884Y223361D01*
X180254Y223315D01*
X180648Y223245D01*
X180694D01*
X180833Y223222D01*
X181064Y223176D01*
X181319Y223130D01*
X181597Y223083D01*
X181874Y223014D01*
X182129Y222944D01*
X182360Y222852D01*
X182383D01*
X182453Y222806D01*
X182545Y222759D01*
X182638Y222690D01*
X182915Y222505D01*
X183147Y222227D01*
Y222204D01*
X183193Y222158D01*
X183216Y222065D01*
X183263Y221949D01*
X183309Y221811D01*
X183355Y221672D01*
X183378Y221487D01*
X183401Y221301D01*
Y221278D01*
Y221163D01*
X183378Y221024D01*
X183332Y220839D01*
X183263Y220630D01*
X183147Y220422D01*
X183008Y220191D01*
X182823Y219982D01*
X182800Y219959D01*
X182707Y219913D01*
X182568Y219821D01*
X182383Y219728D01*
X182129Y219636D01*
X181828Y219543D01*
X181481Y219497D01*
X181064Y219473D01*
X180879D01*
X180648Y219497D01*
X180393Y219543D01*
X180069Y219589D01*
X179745Y219682D01*
X179398Y219797D01*
X179051Y219959D01*
X179005Y219982D01*
X178912Y220052D01*
X178750Y220168D01*
X178565Y220330D01*
X178357Y220515D01*
X178126Y220746D01*
X177941Y221024D01*
X177755Y221325D01*
X177732Y221348D01*
X177709Y221440D01*
X177663Y221602D01*
X177593Y221811D01*
X177524Y222088D01*
X177478Y222412D01*
X177455Y222806D01*
X177431Y223268D01*
X177408Y224009D01*
X177431D01*
X177455Y223986D01*
D02*
G37*
G36*
X220124Y228405D02*
X220378Y228382D01*
X220679Y228313D01*
X221049Y228197D01*
X221443Y228035D01*
X221813Y227804D01*
X222183Y227503D01*
X222229Y227457D01*
X222322Y227341D01*
X222484Y227133D01*
X222646Y226855D01*
X222831Y226531D01*
X222993Y226115D01*
X223132Y225629D01*
X223201Y225096D01*
X216699D01*
Y225119D01*
Y225166D01*
X216722Y225235D01*
Y225328D01*
X216768Y225605D01*
X216838Y225906D01*
X216954Y226276D01*
X217069Y226623D01*
X217254Y226971D01*
X217463Y227271D01*
Y227295D01*
X217509Y227318D01*
X217625Y227457D01*
X217833Y227642D01*
X218111Y227850D01*
X218458Y228058D01*
X218874Y228243D01*
X219360Y228382D01*
X219615Y228405D01*
X219892Y228428D01*
X220031D01*
X220124Y228405D01*
D02*
G37*
G36*
X209919Y227480D02*
X205986D01*
X205685Y227503D01*
X205361Y227526D01*
X205037Y227549D01*
X204713Y227595D01*
X204458Y227642D01*
X204412Y227665D01*
X204319Y227688D01*
X204181Y227757D01*
X203995Y227850D01*
X203810Y227943D01*
X203602Y228081D01*
X203394Y228266D01*
X203232Y228452D01*
X203209Y228475D01*
X203162Y228544D01*
X203093Y228683D01*
X203024Y228845D01*
X202954Y229030D01*
X202885Y229261D01*
X202838Y229539D01*
X202815Y229840D01*
Y229886D01*
Y229979D01*
X202838Y230118D01*
X202862Y230303D01*
X202908Y230534D01*
X202977Y230765D01*
X203070Y230997D01*
X203209Y231228D01*
X203232Y231251D01*
X203278Y231321D01*
X203371Y231437D01*
X203486Y231552D01*
X203648Y231691D01*
X203834Y231830D01*
X204065Y231969D01*
X204319Y232061D01*
X204343D01*
X204458Y232108D01*
X204620Y232131D01*
X204875Y232177D01*
X205222Y232223D01*
X205615Y232246D01*
X206124Y232293D01*
X209919D01*
Y227480D01*
D02*
G37*
G36*
Y220075D02*
X205361D01*
X204875Y220098D01*
X204667Y220121D01*
X204481Y220145D01*
X204458D01*
X204366Y220168D01*
X204227Y220191D01*
X204065Y220237D01*
X203671Y220376D01*
X203278Y220561D01*
X203255Y220584D01*
X203186Y220630D01*
X203093Y220700D01*
X202977Y220792D01*
X202862Y220931D01*
X202700Y221070D01*
X202584Y221255D01*
X202445Y221464D01*
X202422Y221487D01*
X202399Y221556D01*
X202353Y221695D01*
X202283Y221857D01*
X202214Y222042D01*
X202167Y222273D01*
X202144Y222551D01*
X202121Y222829D01*
Y222875D01*
Y222967D01*
X202144Y223153D01*
X202191Y223361D01*
X202237Y223592D01*
X202329Y223847D01*
X202445Y224101D01*
X202607Y224356D01*
X202630Y224379D01*
X202700Y224472D01*
X202792Y224587D01*
X202931Y224726D01*
X203116Y224888D01*
X203348Y225050D01*
X203602Y225189D01*
X203903Y225305D01*
X203949Y225328D01*
X204042Y225351D01*
X204250Y225397D01*
X204505Y225443D01*
X204828Y225490D01*
X205222Y225536D01*
X205708Y225582D01*
X209919D01*
Y220075D01*
D02*
G37*
G36*
X192842Y228405D02*
X193097Y228382D01*
X193444Y228290D01*
X193837Y228151D01*
X194254Y227966D01*
X194647Y227688D01*
X194855Y227503D01*
X195040Y227318D01*
Y227295D01*
X195087Y227271D01*
X195133Y227202D01*
X195203Y227110D01*
X195272Y226994D01*
X195341Y226855D01*
X195434Y226670D01*
X195527Y226485D01*
X195619Y226253D01*
X195712Y226022D01*
X195781Y225744D01*
X195850Y225443D01*
X195920Y225119D01*
X195966Y224772D01*
X195989Y224379D01*
X196012Y223986D01*
Y223962D01*
Y223893D01*
Y223777D01*
X195989Y223615D01*
Y223430D01*
X195966Y223222D01*
X195897Y222736D01*
X195781Y222181D01*
X195596Y221625D01*
X195364Y221093D01*
X195203Y220862D01*
X195040Y220630D01*
X195017D01*
X194994Y220584D01*
X194855Y220469D01*
X194647Y220283D01*
X194370Y220098D01*
X194022Y219890D01*
X193606Y219705D01*
X193120Y219589D01*
X192865Y219566D01*
X192588Y219543D01*
X192449D01*
X192333Y219566D01*
X192079Y219612D01*
X191732Y219682D01*
X191361Y219821D01*
X190945Y220006D01*
X190551Y220283D01*
X190343Y220469D01*
X190158Y220654D01*
X190135Y220677D01*
X190112Y220700D01*
X190066Y220769D01*
X189996Y220862D01*
X189927Y220977D01*
X189834Y221116D01*
X189742Y221301D01*
X189649Y221487D01*
X189557Y221718D01*
X189487Y221973D01*
X189394Y222250D01*
X189325Y222551D01*
X189256Y222898D01*
X189209Y223245D01*
X189163Y223639D01*
Y224055D01*
Y224078D01*
Y224148D01*
Y224263D01*
X189186Y224402D01*
Y224587D01*
X189209Y224795D01*
X189279Y225282D01*
X189394Y225791D01*
X189580Y226346D01*
X189834Y226855D01*
X189973Y227110D01*
X190158Y227318D01*
Y227341D01*
X190204Y227364D01*
X190343Y227503D01*
X190551Y227665D01*
X190829Y227873D01*
X191176Y228081D01*
X191593Y228266D01*
X192055Y228382D01*
X192310Y228405D01*
X192588Y228428D01*
X192727D01*
X192842Y228405D01*
D02*
G37*
G36*
X160794D02*
X161049Y228382D01*
X161350Y228290D01*
X161697Y228174D01*
X162067Y227966D01*
X162437Y227711D01*
X162622Y227526D01*
X162784Y227341D01*
Y227318D01*
X162831Y227295D01*
X162854Y227225D01*
X162923Y227133D01*
X162992Y227017D01*
X163062Y226878D01*
X163131Y226716D01*
X163224Y226531D01*
X163316Y226300D01*
X163386Y226045D01*
X163455Y225767D01*
X163525Y225467D01*
X163571Y225143D01*
X163617Y224772D01*
X163664Y224379D01*
Y223962D01*
Y223939D01*
Y223870D01*
Y223754D01*
X163640Y223592D01*
Y223407D01*
X163617Y223199D01*
X163548Y222713D01*
X163432Y222181D01*
X163270Y221625D01*
X163039Y221093D01*
X162900Y220862D01*
X162738Y220630D01*
X162715D01*
X162692Y220584D01*
X162576Y220469D01*
X162368Y220283D01*
X162113Y220098D01*
X161789Y219890D01*
X161396Y219705D01*
X160979Y219589D01*
X160748Y219566D01*
X160516Y219543D01*
X160401D01*
X160308Y219566D01*
X160054Y219589D01*
X159753Y219682D01*
X159406Y219797D01*
X159036Y219982D01*
X158665Y220237D01*
X158480Y220399D01*
X158318Y220584D01*
Y220607D01*
X158272Y220630D01*
X158226Y220700D01*
X158180Y220792D01*
X158110Y220908D01*
X158018Y221024D01*
X157948Y221209D01*
X157856Y221394D01*
X157763Y221602D01*
X157694Y221834D01*
X157601Y222111D01*
X157532Y222389D01*
X157485Y222713D01*
X157439Y223037D01*
X157393Y223407D01*
Y223801D01*
Y223824D01*
Y223916D01*
Y224032D01*
X157416Y224194D01*
Y224379D01*
X157439Y224610D01*
X157462Y224865D01*
X157508Y225143D01*
X157624Y225698D01*
X157786Y226276D01*
X158018Y226832D01*
X158156Y227063D01*
X158318Y227295D01*
Y227318D01*
X158365Y227341D01*
X158480Y227480D01*
X158688Y227665D01*
X158943Y227873D01*
X159267Y228081D01*
X159660Y228243D01*
X160100Y228382D01*
X160331Y228405D01*
X160586Y228428D01*
X160702D01*
X160794Y228405D01*
D02*
G37*
G36*
X108245Y232617D02*
X108499Y232570D01*
X108800Y232501D01*
X109147Y232362D01*
X109517Y232154D01*
X109702Y232015D01*
X109888Y231876D01*
X110049Y231691D01*
X110211Y231483D01*
Y231460D01*
X110258Y231413D01*
X110304Y231321D01*
X110373Y231205D01*
X110443Y231020D01*
X110535Y230812D01*
X110605Y230557D01*
X110697Y230256D01*
X110790Y229909D01*
X110883Y229516D01*
X110975Y229076D01*
X111045Y228590D01*
X111114Y228035D01*
X111160Y227433D01*
X111183Y226786D01*
X111207Y226068D01*
Y226022D01*
Y225906D01*
Y225698D01*
X111183Y225420D01*
Y225119D01*
X111160Y224749D01*
X111137Y224356D01*
X111091Y223939D01*
X110975Y223037D01*
X110906Y222597D01*
X110813Y222181D01*
X110721Y221787D01*
X110582Y221417D01*
X110443Y221093D01*
X110281Y220816D01*
Y220792D01*
X110235Y220769D01*
X110119Y220607D01*
X109911Y220399D01*
X109656Y220168D01*
X109309Y219936D01*
X108916Y219728D01*
X108476Y219566D01*
X108245Y219543D01*
X107990Y219520D01*
X107851D01*
X107759Y219543D01*
X107527Y219589D01*
X107203Y219682D01*
X106856Y219844D01*
X106463Y220075D01*
X106278Y220214D01*
X106093Y220399D01*
X105908Y220584D01*
X105722Y220816D01*
Y220839D01*
X105676Y220885D01*
X105630Y220954D01*
X105584Y221070D01*
X105491Y221232D01*
X105422Y221440D01*
X105329Y221672D01*
X105237Y221949D01*
X105167Y222297D01*
X105075Y222667D01*
X104982Y223106D01*
X104913Y223569D01*
X104866Y224125D01*
X104820Y224703D01*
X104774Y225351D01*
Y226068D01*
Y226091D01*
Y226115D01*
Y226230D01*
Y226438D01*
X104797Y226716D01*
Y227017D01*
X104820Y227387D01*
X104843Y227780D01*
X104889Y228220D01*
X105005Y229100D01*
X105075Y229539D01*
X105167Y229956D01*
X105260Y230349D01*
X105399Y230719D01*
X105537Y231043D01*
X105699Y231321D01*
Y231344D01*
X105746Y231367D01*
X105792Y231437D01*
X105861Y231529D01*
X106069Y231737D01*
X106324Y231992D01*
X106671Y232223D01*
X107065Y232432D01*
X107273Y232524D01*
X107504Y232593D01*
X107759Y232617D01*
X108013Y232640D01*
X108152D01*
X108245Y232617D01*
D02*
G37*
G36*
X182112Y209523D02*
X182316Y209486D01*
X182557Y209431D01*
X182834Y209319D01*
X183131Y209153D01*
X183279Y209060D01*
X183427Y208931D01*
X183575Y208801D01*
X183723Y208634D01*
Y208616D01*
X183760Y208597D01*
X183797Y208542D01*
X183834Y208468D01*
X183890Y208375D01*
X183964Y208264D01*
X184020Y208134D01*
X184093Y207986D01*
X184168Y207801D01*
X184223Y207616D01*
X184297Y207394D01*
X184353Y207172D01*
X184390Y206912D01*
X184427Y206635D01*
X184464Y206357D01*
Y206042D01*
Y206024D01*
Y205968D01*
Y205875D01*
Y205764D01*
X184445Y205635D01*
Y205468D01*
X184408Y205116D01*
X184353Y204727D01*
X184279Y204320D01*
X184168Y203950D01*
X184093Y203783D01*
X184020Y203635D01*
Y203616D01*
X183982Y203579D01*
X183945Y203524D01*
X183890Y203450D01*
X183723Y203246D01*
X183482Y203042D01*
X183205Y202820D01*
X182853Y202617D01*
X182668Y202542D01*
X182446Y202487D01*
X182242Y202450D01*
X182001Y202431D01*
X181909D01*
X181835Y202450D01*
X181631Y202487D01*
X181390Y202542D01*
X181112Y202654D01*
X180816Y202802D01*
X180520Y203024D01*
X180372Y203172D01*
X180224Y203320D01*
Y203339D01*
X180187Y203357D01*
X180149Y203413D01*
X180112Y203487D01*
X180038Y203579D01*
X179983Y203690D01*
X179909Y203839D01*
X179835Y203987D01*
X179779Y204172D01*
X179705Y204357D01*
X179631Y204579D01*
X179576Y204820D01*
X179538Y205079D01*
X179501Y205357D01*
X179464Y205672D01*
Y205986D01*
Y206005D01*
Y206061D01*
Y206153D01*
X179483Y206283D01*
Y206431D01*
X179501Y206616D01*
X179557Y207005D01*
X179631Y207431D01*
X179761Y207894D01*
X179946Y208301D01*
X180057Y208505D01*
X180187Y208671D01*
Y208690D01*
X180224Y208708D01*
X180316Y208801D01*
X180464Y208949D01*
X180668Y209116D01*
X180927Y209264D01*
X181224Y209412D01*
X181575Y209505D01*
X181760Y209542D01*
X182038D01*
X182112Y209523D01*
D02*
G37*
G36*
X221367D02*
X221571Y209505D01*
X221812Y209431D01*
X222108Y209338D01*
X222404Y209171D01*
X222701Y208968D01*
X222849Y208820D01*
X222997Y208671D01*
Y208653D01*
X223034Y208634D01*
X223071Y208579D01*
X223108Y208505D01*
X223164Y208431D01*
X223219Y208320D01*
X223293Y208190D01*
X223349Y208042D01*
X223423Y207875D01*
X223497Y207672D01*
X223552Y207468D01*
X223608Y207246D01*
X223645Y206986D01*
X223682Y206727D01*
X223719Y206449D01*
Y206135D01*
Y206116D01*
Y206061D01*
Y205968D01*
X223701Y205838D01*
Y205690D01*
X223682Y205505D01*
X223626Y205116D01*
X223534Y204672D01*
X223423Y204246D01*
X223238Y203820D01*
X223127Y203635D01*
X222997Y203468D01*
X222960Y203431D01*
X222867Y203339D01*
X222719Y203209D01*
X222497Y203061D01*
X222238Y202894D01*
X221923Y202765D01*
X221571Y202672D01*
X221386Y202654D01*
X221182Y202635D01*
X221071D01*
X220997Y202654D01*
X220793Y202672D01*
X220534Y202746D01*
X220257Y202839D01*
X219942Y202987D01*
X219645Y203190D01*
X219497Y203320D01*
X219349Y203468D01*
Y203487D01*
X219312Y203505D01*
X219275Y203561D01*
X219238Y203635D01*
X219182Y203709D01*
X219108Y203820D01*
X219053Y203950D01*
X218979Y204116D01*
X218905Y204283D01*
X218849Y204468D01*
X218775Y204690D01*
X218720Y204931D01*
X218682Y205172D01*
X218645Y205450D01*
X218608Y205764D01*
Y206079D01*
Y206098D01*
Y206153D01*
Y206246D01*
X218627Y206357D01*
Y206505D01*
X218645Y206672D01*
X218701Y207042D01*
X218794Y207468D01*
X218923Y207894D01*
X219108Y208320D01*
X219238Y208505D01*
X219368Y208671D01*
Y208690D01*
X219405Y208708D01*
X219497Y208801D01*
X219664Y208949D01*
X219886Y209116D01*
X220145Y209264D01*
X220460Y209412D01*
X220812Y209505D01*
X220997Y209542D01*
X221293D01*
X221367Y209523D01*
D02*
G37*
G36*
X126192Y205986D02*
X126248Y205968D01*
X126322Y205949D01*
X126414Y205912D01*
X126525Y205875D01*
X126655Y205838D01*
X126803Y205801D01*
X126970Y205746D01*
X127174Y205709D01*
X127377Y205653D01*
X127618Y205598D01*
X127877Y205542D01*
X128136Y205487D01*
X128433Y205450D01*
X128747Y205394D01*
X128785D01*
X128896Y205375D01*
X129081Y205338D01*
X129284Y205301D01*
X129507Y205264D01*
X129729Y205209D01*
X129932Y205153D01*
X130118Y205079D01*
X130136D01*
X130192Y205042D01*
X130266Y205005D01*
X130340Y204950D01*
X130562Y204802D01*
X130747Y204579D01*
Y204561D01*
X130784Y204524D01*
X130803Y204450D01*
X130840Y204357D01*
X130877Y204246D01*
X130914Y204135D01*
X130932Y203987D01*
X130951Y203839D01*
Y203820D01*
Y203727D01*
X130932Y203616D01*
X130895Y203468D01*
X130840Y203302D01*
X130747Y203135D01*
X130636Y202950D01*
X130488Y202783D01*
X130470Y202765D01*
X130395Y202728D01*
X130284Y202654D01*
X130136Y202579D01*
X129932Y202505D01*
X129692Y202431D01*
X129414Y202394D01*
X129081Y202376D01*
X128933D01*
X128747Y202394D01*
X128544Y202431D01*
X128285Y202468D01*
X128025Y202542D01*
X127747Y202635D01*
X127470Y202765D01*
X127433Y202783D01*
X127359Y202839D01*
X127229Y202931D01*
X127081Y203061D01*
X126914Y203209D01*
X126729Y203394D01*
X126581Y203616D01*
X126433Y203857D01*
X126414Y203876D01*
X126396Y203950D01*
X126359Y204079D01*
X126303Y204246D01*
X126248Y204468D01*
X126211Y204727D01*
X126192Y205042D01*
X126174Y205413D01*
X126155Y206005D01*
X126174D01*
X126192Y205986D01*
D02*
G37*
G36*
X104287D02*
X104342Y205968D01*
X104417Y205949D01*
X104509Y205912D01*
X104620Y205875D01*
X104750Y205838D01*
X104898Y205801D01*
X105065Y205746D01*
X105268Y205709D01*
X105472Y205653D01*
X105713Y205598D01*
X105972Y205542D01*
X106231Y205487D01*
X106528Y205450D01*
X106842Y205394D01*
X106879D01*
X106990Y205375D01*
X107176Y205338D01*
X107379Y205301D01*
X107601Y205264D01*
X107824Y205209D01*
X108027Y205153D01*
X108212Y205079D01*
X108231D01*
X108287Y205042D01*
X108361Y205005D01*
X108435Y204950D01*
X108657Y204802D01*
X108842Y204579D01*
Y204561D01*
X108879Y204524D01*
X108898Y204450D01*
X108935Y204357D01*
X108972Y204246D01*
X109009Y204135D01*
X109027Y203987D01*
X109046Y203839D01*
Y203820D01*
Y203727D01*
X109027Y203616D01*
X108990Y203468D01*
X108935Y203302D01*
X108842Y203135D01*
X108731Y202950D01*
X108583Y202783D01*
X108564Y202765D01*
X108490Y202728D01*
X108379Y202654D01*
X108231Y202579D01*
X108027Y202505D01*
X107787Y202431D01*
X107509Y202394D01*
X107176Y202376D01*
X107027D01*
X106842Y202394D01*
X106639Y202431D01*
X106379Y202468D01*
X106120Y202542D01*
X105842Y202635D01*
X105565Y202765D01*
X105528Y202783D01*
X105454Y202839D01*
X105324Y202931D01*
X105176Y203061D01*
X105009Y203209D01*
X104824Y203394D01*
X104676Y203616D01*
X104528Y203857D01*
X104509Y203876D01*
X104491Y203950D01*
X104454Y204079D01*
X104398Y204246D01*
X104342Y204468D01*
X104305Y204727D01*
X104287Y205042D01*
X104269Y205413D01*
X104250Y206005D01*
X104269D01*
X104287Y205986D01*
D02*
G37*
G36*
X60495D02*
X60551Y205968D01*
X60625Y205949D01*
X60717Y205912D01*
X60828Y205875D01*
X60958Y205838D01*
X61106Y205801D01*
X61273Y205746D01*
X61477Y205709D01*
X61680Y205653D01*
X61921Y205598D01*
X62180Y205542D01*
X62439Y205487D01*
X62736Y205450D01*
X63050Y205394D01*
X63088D01*
X63199Y205375D01*
X63384Y205338D01*
X63587Y205301D01*
X63810Y205264D01*
X64032Y205209D01*
X64236Y205153D01*
X64421Y205079D01*
X64439D01*
X64495Y205042D01*
X64569Y205005D01*
X64643Y204950D01*
X64865Y204802D01*
X65050Y204579D01*
Y204561D01*
X65087Y204524D01*
X65106Y204450D01*
X65143Y204357D01*
X65180Y204246D01*
X65217Y204135D01*
X65236Y203987D01*
X65254Y203839D01*
Y203820D01*
Y203727D01*
X65236Y203616D01*
X65198Y203468D01*
X65143Y203302D01*
X65050Y203135D01*
X64939Y202950D01*
X64791Y202783D01*
X64773Y202765D01*
X64699Y202728D01*
X64587Y202654D01*
X64439Y202579D01*
X64236Y202505D01*
X63995Y202431D01*
X63717Y202394D01*
X63384Y202376D01*
X63236D01*
X63050Y202394D01*
X62847Y202431D01*
X62588Y202468D01*
X62328Y202542D01*
X62051Y202635D01*
X61773Y202765D01*
X61736Y202783D01*
X61662Y202839D01*
X61532Y202931D01*
X61384Y203061D01*
X61217Y203209D01*
X61032Y203394D01*
X60884Y203616D01*
X60736Y203857D01*
X60717Y203876D01*
X60699Y203950D01*
X60662Y204079D01*
X60606Y204246D01*
X60551Y204468D01*
X60514Y204727D01*
X60495Y205042D01*
X60477Y205413D01*
X60458Y206005D01*
X60477D01*
X60495Y205986D01*
D02*
G37*
G36*
X83678Y209523D02*
X83882Y209505D01*
X84122Y209449D01*
X84419Y209357D01*
X84733Y209227D01*
X85030Y209042D01*
X85326Y208801D01*
X85363Y208764D01*
X85437Y208671D01*
X85567Y208505D01*
X85696Y208283D01*
X85844Y208023D01*
X85974Y207690D01*
X86085Y207301D01*
X86141Y206875D01*
X80938D01*
Y206894D01*
Y206931D01*
X80956Y206986D01*
Y207061D01*
X80993Y207283D01*
X81049Y207523D01*
X81141Y207820D01*
X81234Y208097D01*
X81382Y208375D01*
X81549Y208616D01*
Y208634D01*
X81586Y208653D01*
X81678Y208764D01*
X81845Y208912D01*
X82067Y209079D01*
X82345Y209245D01*
X82678Y209394D01*
X83067Y209505D01*
X83271Y209523D01*
X83493Y209542D01*
X83604D01*
X83678Y209523D01*
D02*
G37*
G36*
X98306Y208486D02*
X94492D01*
X94270Y208505D01*
X94010Y208523D01*
X93714Y208542D01*
X93418Y208579D01*
X93122Y208634D01*
X92862Y208708D01*
X92825Y208727D01*
X92751Y208764D01*
X92640Y208820D01*
X92492Y208894D01*
X92325Y209005D01*
X92159Y209134D01*
X91992Y209301D01*
X91862Y209486D01*
X91844Y209505D01*
X91807Y209579D01*
X91751Y209690D01*
X91677Y209838D01*
X91622Y210005D01*
X91566Y210190D01*
X91529Y210412D01*
X91510Y210634D01*
Y210653D01*
Y210671D01*
X91529Y210782D01*
X91548Y210949D01*
X91585Y211171D01*
X91677Y211393D01*
X91788Y211653D01*
X91955Y211893D01*
X92177Y212134D01*
X92214Y212153D01*
X92307Y212227D01*
X92455Y212319D01*
X92696Y212430D01*
X92973Y212541D01*
X93344Y212634D01*
X93770Y212708D01*
X94270Y212727D01*
X98306D01*
Y208486D01*
D02*
G37*
G36*
X158411Y209523D02*
X158615Y209505D01*
X158892Y209431D01*
X159207Y209319D01*
X159541Y209171D01*
X159855Y208949D01*
X160022Y208801D01*
X160170Y208653D01*
Y208634D01*
X160207Y208616D01*
X160244Y208560D01*
X160300Y208486D01*
X160355Y208394D01*
X160411Y208283D01*
X160485Y208134D01*
X160559Y207986D01*
X160633Y207801D01*
X160707Y207616D01*
X160763Y207394D01*
X160818Y207153D01*
X160874Y206894D01*
X160911Y206616D01*
X160929Y206301D01*
X160948Y205986D01*
Y205968D01*
Y205912D01*
Y205820D01*
X160929Y205690D01*
Y205542D01*
X160911Y205375D01*
X160855Y204987D01*
X160763Y204542D01*
X160614Y204098D01*
X160429Y203672D01*
X160300Y203487D01*
X160170Y203302D01*
X160152D01*
X160133Y203265D01*
X160022Y203172D01*
X159855Y203024D01*
X159633Y202876D01*
X159355Y202709D01*
X159022Y202561D01*
X158633Y202468D01*
X158429Y202450D01*
X158207Y202431D01*
X158096D01*
X158004Y202450D01*
X157800Y202487D01*
X157522Y202542D01*
X157226Y202654D01*
X156893Y202802D01*
X156578Y203024D01*
X156411Y203172D01*
X156263Y203320D01*
X156245Y203339D01*
X156226Y203357D01*
X156189Y203413D01*
X156133Y203487D01*
X156078Y203579D01*
X156004Y203690D01*
X155930Y203839D01*
X155856Y203987D01*
X155782Y204172D01*
X155726Y204376D01*
X155652Y204598D01*
X155597Y204839D01*
X155541Y205116D01*
X155504Y205394D01*
X155467Y205709D01*
Y206042D01*
Y206061D01*
Y206116D01*
Y206209D01*
X155485Y206320D01*
Y206468D01*
X155504Y206635D01*
X155560Y207024D01*
X155652Y207431D01*
X155800Y207875D01*
X156004Y208283D01*
X156115Y208486D01*
X156263Y208653D01*
Y208671D01*
X156300Y208690D01*
X156411Y208801D01*
X156578Y208931D01*
X156800Y209097D01*
X157078Y209264D01*
X157411Y209412D01*
X157781Y209505D01*
X157985Y209523D01*
X158207Y209542D01*
X158318D01*
X158411Y209523D01*
D02*
G37*
D13*
X362800Y649380D02*
Y652380D01*
X373800Y649380D02*
Y652380D01*
X344590Y649380D02*
Y652380D01*
X333590Y649380D02*
Y652380D01*
X342410Y240910D02*
X355410D01*
X342410Y223910D02*
X355410D01*
X342410Y241410D02*
X376410D01*
X361950Y69700D02*
Y82700D01*
X342410Y223410D02*
X376410D01*
D15*
X191660Y122809D02*
X195660Y122809D01*
X191660Y159620D02*
X195660D01*
X191660Y122809D02*
Y159620D01*
X287130Y199790D02*
Y236601D01*
X283130D02*
X287130D01*
X209660Y123068D02*
X209660Y159465D01*
X191660Y140970D02*
X209660Y140970D01*
X232029Y186610D02*
Y190610D01*
X250190Y172610D02*
Y190610D01*
X269130Y131699D02*
Y168510D01*
X273130D01*
X269130Y131699D02*
X273130D01*
X287130Y131958D02*
Y168354D01*
X269130Y149860D02*
X287130D01*
X269130Y218440D02*
X287130D01*
X302660Y170070D02*
Y174070D01*
X283130Y199790D02*
X287130D01*
X269130Y199946D02*
Y236342D01*
X302660Y170070D02*
X339471D01*
Y174070D01*
X302815Y188070D02*
X339212D01*
X321310Y170070D02*
Y188070D01*
X232288Y172610D02*
X268685D01*
X232029Y190610D02*
X268840D01*
Y186610D02*
Y190610D01*
D18*
X331470Y226060D02*
Y238760D01*
D95*
X174750Y162700D02*
Y180200D01*
X182625Y180200D01*
X189000Y165600D02*
X192000D01*
X174750Y162700D02*
X182625D01*
X206250Y180200D02*
X206250Y162700D01*
X198375Y180200D02*
X206250D01*
X189000Y177300D02*
X192000D01*
X198375Y162700D02*
X206250D01*
M02*
