G04*
G04 #@! TF.GenerationSoftware,Altium Limited,Altium Designer,24.2.2 (26)*
G04*
G04 Layer_Color=16711935*
%FSLAX44Y44*%
%MOMM*%
G71*
G04*
G04 #@! TF.SameCoordinates,4540F394-007A-4255-9B34-8FA5F3C486F6*
G04*
G04*
G04 #@! TF.FilePolarity,Negative*
G04*
G01*
G75*
%ADD45R,1.4032X1.4032*%
%ADD54R,2.2032X1.4032*%
%ADD55R,1.4032X1.4032*%
%ADD66R,2.2032X2.2032*%
%ADD67C,2.2032*%
%ADD68C,3.4036*%
%ADD69O,3.2032X1.7032*%
%ADD70O,2.6032X2.0032*%
%ADD71R,2.6032X2.0032*%
%ADD72O,1.1032X1.9032*%
%ADD73O,1.1032X2.2032*%
%ADD74C,0.8032*%
%ADD93R,1.6032X1.7032*%
%ADD94R,1.0732X1.5732*%
G36*
X157623Y653719D02*
X157753Y653693D01*
X157880Y653651D01*
X157999Y653592D01*
X158110Y653518D01*
X158210Y653430D01*
X163210Y648430D01*
X163298Y648330D01*
X163372Y648219D01*
X163431Y648100D01*
X163473Y647974D01*
X163500Y647843D01*
X163508Y647710D01*
Y637710D01*
X163500Y637577D01*
X163473Y637447D01*
X163431Y637320D01*
X163372Y637201D01*
X163298Y637090D01*
X163210Y636990D01*
X158210Y631990D01*
X158110Y631902D01*
X157999Y631828D01*
X157880Y631769D01*
X157753Y631726D01*
X157623Y631701D01*
X157490Y631692D01*
X126990D01*
X126857Y631701D01*
X126727Y631726D01*
X126600Y631769D01*
X126481Y631828D01*
X126370Y631902D01*
X126270Y631990D01*
X121270Y636990D01*
X121182Y637090D01*
X121108Y637201D01*
X121049Y637320D01*
X121006Y637447D01*
X120981Y637577D01*
X120972Y637710D01*
Y647710D01*
X120981Y647843D01*
X121006Y647974D01*
X121049Y648100D01*
X121108Y648219D01*
X121182Y648330D01*
X121270Y648430D01*
X126270Y653430D01*
X126370Y653518D01*
X126481Y653592D01*
X126600Y653651D01*
X126727Y653693D01*
X126857Y653719D01*
X126990Y653728D01*
X157490D01*
X157623Y653719D01*
D02*
G37*
G36*
X100373Y632970D02*
X100504Y632943D01*
X100630Y632901D01*
X100749Y632842D01*
X100860Y632768D01*
X100960Y632680D01*
X105960Y627680D01*
X106048Y627580D01*
X106122Y627469D01*
X106181Y627350D01*
X106223Y627224D01*
X106250Y627093D01*
X106258Y626960D01*
Y596460D01*
X106250Y596327D01*
X106223Y596197D01*
X106181Y596070D01*
X106122Y595951D01*
X106048Y595840D01*
X105960Y595740D01*
X100960Y590740D01*
X100860Y590652D01*
X100749Y590578D01*
X100630Y590519D01*
X100504Y590476D01*
X100373Y590451D01*
X100240Y590442D01*
X90240D01*
X90107Y590451D01*
X89977Y590476D01*
X89850Y590519D01*
X89731Y590578D01*
X89620Y590652D01*
X89520Y590740D01*
X84520Y595740D01*
X84432Y595840D01*
X84358Y595951D01*
X84299Y596070D01*
X84256Y596197D01*
X84230Y596327D01*
X84222Y596460D01*
Y626960D01*
X84230Y627093D01*
X84256Y627224D01*
X84299Y627350D01*
X84358Y627469D01*
X84432Y627580D01*
X84520Y627680D01*
X89520Y632680D01*
X89620Y632768D01*
X89731Y632842D01*
X89850Y632901D01*
X89977Y632943D01*
X90107Y632970D01*
X90240Y632978D01*
X100240D01*
X100373Y632970D01*
D02*
G37*
G36*
X157623Y593719D02*
X157753Y593694D01*
X157880Y593651D01*
X157999Y593592D01*
X158110Y593518D01*
X158210Y593430D01*
X163210Y588430D01*
X163298Y588330D01*
X163372Y588219D01*
X163431Y588100D01*
X163473Y587974D01*
X163500Y587843D01*
X163508Y587710D01*
Y577710D01*
X163500Y577577D01*
X163473Y577447D01*
X163431Y577320D01*
X163372Y577201D01*
X163298Y577090D01*
X163210Y576990D01*
X158210Y571990D01*
X158110Y571902D01*
X157999Y571828D01*
X157880Y571769D01*
X157753Y571726D01*
X157623Y571701D01*
X157490Y571692D01*
X126990D01*
X126857Y571701D01*
X126727Y571726D01*
X126600Y571769D01*
X126481Y571828D01*
X126370Y571902D01*
X126270Y571990D01*
X121270Y576990D01*
X121182Y577090D01*
X121108Y577201D01*
X121049Y577320D01*
X121006Y577447D01*
X120981Y577577D01*
X120972Y577710D01*
Y587710D01*
X120981Y587843D01*
X121006Y587974D01*
X121049Y588100D01*
X121108Y588219D01*
X121182Y588330D01*
X121270Y588430D01*
X126270Y593430D01*
X126370Y593518D01*
X126481Y593592D01*
X126600Y593651D01*
X126727Y593694D01*
X126857Y593719D01*
X126990Y593728D01*
X157490D01*
X157623Y593719D01*
D02*
G37*
D45*
X239944Y181610D02*
D03*
X260944D02*
D03*
X331556Y179070D02*
D03*
X310556D02*
D03*
D54*
X345410Y232410D02*
D03*
X373410D02*
D03*
D55*
X200660Y130724D02*
D03*
X200660Y151724D02*
D03*
X278130Y228686D02*
D03*
Y207686D02*
D03*
X278130Y139614D02*
D03*
Y160614D02*
D03*
X339090Y640130D02*
D03*
Y661130D02*
D03*
X368300Y640130D02*
D03*
Y661130D02*
D03*
D66*
X320040Y62230D02*
D03*
D67*
X320040Y36830D02*
D03*
X294640Y62230D02*
D03*
Y36830D02*
D03*
X269240Y62230D02*
D03*
Y36830D02*
D03*
X243840Y62230D02*
D03*
Y36830D02*
D03*
X218440Y62230D02*
D03*
X218440Y36830D02*
D03*
D68*
X26670Y547370D02*
D03*
X509270Y534670D02*
D03*
X77470Y26670D02*
D03*
X356870D02*
D03*
D69*
X26670Y407670D02*
D03*
Y382270D02*
D03*
Y356870D02*
D03*
Y331470D02*
D03*
Y306070D02*
D03*
Y280670D02*
D03*
Y255270D02*
D03*
Y229870D02*
D03*
Y179070D02*
D03*
Y153670D02*
D03*
Y128270D02*
D03*
Y102870D02*
D03*
Y77470D02*
D03*
Y52070D02*
D03*
X509270Y270510D02*
D03*
Y295910D02*
D03*
Y321310D02*
D03*
Y346710D02*
D03*
Y372110D02*
D03*
Y397510D02*
D03*
Y422910D02*
D03*
Y448310D02*
D03*
Y473710D02*
D03*
Y499110D02*
D03*
Y52070D02*
D03*
Y77470D02*
D03*
Y102870D02*
D03*
Y128270D02*
D03*
Y153670D02*
D03*
Y179070D02*
D03*
Y204470D02*
D03*
Y229870D02*
D03*
D70*
X261620Y430530D02*
D03*
Y379730D02*
D03*
D71*
Y405130D02*
D03*
D72*
X311080Y665480D02*
D03*
X397580D02*
D03*
D73*
X311080Y623780D02*
D03*
X397580D02*
D03*
D74*
X325430Y628680D02*
D03*
X383230D02*
D03*
D93*
X351950Y76200D02*
D03*
X371950D02*
D03*
D94*
X200200Y171450D02*
D03*
X180800D02*
D03*
M02*
