G04*
G04 #@! TF.GenerationSoftware,Altium Limited,Altium Designer,24.2.2 (26)*
G04*
G04 Layer_Color=8388736*
%FSLAX44Y44*%
%MOMM*%
G71*
G04*
G04 #@! TF.SameCoordinates,411CF6F5-C546-4132-A14B-87BDE19E8412*
G04*
G04*
G04 #@! TF.FilePolarity,Negative*
G04*
G01*
G75*
%ADD43R,1.1032X1.2032*%
G04:AMPARAMS|DCode=44|XSize=1.75mm|YSize=1.75mm|CornerRadius=0.475mm|HoleSize=0mm|Usage=FLASHONLY|Rotation=0.000|XOffset=0mm|YOffset=0mm|HoleType=Round|Shape=RoundedRectangle|*
%AMROUNDEDRECTD44*
21,1,1.7500,0.8000,0,0,0.0*
21,1,0.8000,1.7500,0,0,0.0*
1,1,0.9500,0.4000,-0.4000*
1,1,0.9500,-0.4000,-0.4000*
1,1,0.9500,-0.4000,0.4000*
1,1,0.9500,0.4000,0.4000*
%
%ADD44ROUNDEDRECTD44*%
%ADD45R,1.4032X1.4032*%
%ADD46O,2.4000X1.8000*%
%ADD47R,0.6032X1.5532*%
%ADD48R,2.1032X2.1032*%
%ADD49O,1.8000X2.4000*%
%ADD50R,1.2032X1.1032*%
G04:AMPARAMS|DCode=51|XSize=1.8032mm|YSize=2.6032mm|CornerRadius=0.5016mm|HoleSize=0mm|Usage=FLASHONLY|Rotation=270.000|XOffset=0mm|YOffset=0mm|HoleType=Round|Shape=RoundedRectangle|*
%AMROUNDEDRECTD51*
21,1,1.8032,1.6000,0,0,270.0*
21,1,0.8000,2.6032,0,0,270.0*
1,1,1.0032,-0.8000,-0.4000*
1,1,1.0032,-0.8000,0.4000*
1,1,1.0032,0.8000,0.4000*
1,1,1.0032,0.8000,-0.4000*
%
%ADD51ROUNDEDRECTD51*%
%ADD52O,0.5032X2.0032*%
%ADD53O,2.0032X0.5032*%
%ADD54R,2.2032X1.4032*%
%ADD55R,1.4032X1.4032*%
%ADD56R,2.1032X1.7032*%
%ADD57R,1.7032X2.1032*%
%ADD58R,2.0032X1.5032*%
%ADD59R,1.4032X2.2032*%
%ADD60R,1.2032X2.9032*%
%ADD61R,3.5032X2.9032*%
%ADD62R,0.7000X1.9000*%
%ADD63R,0.4000X1.9000*%
%ADD64O,2.7032X0.9032*%
%ADD65R,1.7032X4.7032*%
%ADD66R,2.2032X2.2032*%
%ADD67C,2.2032*%
%ADD68C,3.4036*%
%ADD69O,3.2032X1.7032*%
%ADD70O,2.6032X2.0032*%
%ADD71R,2.6032X2.0032*%
%ADD72O,1.1032X1.9032*%
%ADD73O,1.1032X2.2032*%
%ADD74C,0.8032*%
G36*
X157623Y653719D02*
X157753Y653693D01*
X157880Y653651D01*
X157999Y653592D01*
X158110Y653518D01*
X158210Y653430D01*
X163210Y648430D01*
X163298Y648330D01*
X163372Y648219D01*
X163431Y648100D01*
X163473Y647974D01*
X163500Y647843D01*
X163508Y647710D01*
Y637710D01*
X163500Y637577D01*
X163473Y637447D01*
X163431Y637320D01*
X163372Y637201D01*
X163298Y637090D01*
X163210Y636990D01*
X158210Y631990D01*
X158110Y631902D01*
X157999Y631828D01*
X157880Y631769D01*
X157753Y631726D01*
X157623Y631701D01*
X157490Y631692D01*
X126990D01*
X126857Y631701D01*
X126727Y631726D01*
X126600Y631769D01*
X126481Y631828D01*
X126370Y631902D01*
X126270Y631990D01*
X121270Y636990D01*
X121182Y637090D01*
X121108Y637201D01*
X121049Y637320D01*
X121006Y637447D01*
X120981Y637577D01*
X120972Y637710D01*
Y647710D01*
X120981Y647843D01*
X121006Y647974D01*
X121049Y648100D01*
X121108Y648219D01*
X121182Y648330D01*
X121270Y648430D01*
X126270Y653430D01*
X126370Y653518D01*
X126481Y653592D01*
X126600Y653651D01*
X126727Y653693D01*
X126857Y653719D01*
X126990Y653728D01*
X157490D01*
X157623Y653719D01*
D02*
G37*
G36*
X100373Y632970D02*
X100504Y632943D01*
X100630Y632901D01*
X100749Y632842D01*
X100860Y632768D01*
X100960Y632680D01*
X105960Y627680D01*
X106048Y627580D01*
X106122Y627469D01*
X106181Y627350D01*
X106223Y627224D01*
X106250Y627093D01*
X106258Y626960D01*
Y596460D01*
X106250Y596327D01*
X106223Y596197D01*
X106181Y596070D01*
X106122Y595951D01*
X106048Y595840D01*
X105960Y595740D01*
X100960Y590740D01*
X100860Y590652D01*
X100749Y590578D01*
X100630Y590519D01*
X100504Y590476D01*
X100373Y590451D01*
X100240Y590442D01*
X90240D01*
X90107Y590451D01*
X89977Y590476D01*
X89850Y590519D01*
X89731Y590578D01*
X89620Y590652D01*
X89520Y590740D01*
X84520Y595740D01*
X84432Y595840D01*
X84358Y595951D01*
X84299Y596070D01*
X84256Y596197D01*
X84230Y596327D01*
X84222Y596460D01*
Y626960D01*
X84230Y627093D01*
X84256Y627224D01*
X84299Y627350D01*
X84358Y627469D01*
X84432Y627580D01*
X84520Y627680D01*
X89520Y632680D01*
X89620Y632768D01*
X89731Y632842D01*
X89850Y632901D01*
X89977Y632943D01*
X90107Y632970D01*
X90240Y632978D01*
X100240D01*
X100373Y632970D01*
D02*
G37*
G36*
X157623Y593719D02*
X157753Y593694D01*
X157880Y593651D01*
X157999Y593592D01*
X158110Y593518D01*
X158210Y593430D01*
X163210Y588430D01*
X163298Y588330D01*
X163372Y588219D01*
X163431Y588100D01*
X163473Y587974D01*
X163500Y587843D01*
X163508Y587710D01*
Y577710D01*
X163500Y577577D01*
X163473Y577447D01*
X163431Y577320D01*
X163372Y577201D01*
X163298Y577090D01*
X163210Y576990D01*
X158210Y571990D01*
X158110Y571902D01*
X157999Y571828D01*
X157880Y571769D01*
X157753Y571726D01*
X157623Y571701D01*
X157490Y571692D01*
X126990D01*
X126857Y571701D01*
X126727Y571726D01*
X126600Y571769D01*
X126481Y571828D01*
X126370Y571902D01*
X126270Y571990D01*
X121270Y576990D01*
X121182Y577090D01*
X121108Y577201D01*
X121049Y577320D01*
X121006Y577447D01*
X120981Y577577D01*
X120972Y577710D01*
Y587710D01*
X120981Y587843D01*
X121006Y587974D01*
X121049Y588100D01*
X121108Y588219D01*
X121182Y588330D01*
X121270Y588430D01*
X126270Y593430D01*
X126370Y593518D01*
X126481Y593592D01*
X126600Y593651D01*
X126727Y593694D01*
X126857Y593719D01*
X126990Y593728D01*
X157490D01*
X157623Y593719D01*
D02*
G37*
D43*
X201930Y267970D02*
D03*
X188430D02*
D03*
X215500D02*
D03*
X229000D02*
D03*
D44*
X193010Y246380D02*
D03*
X221010Y246380D02*
D03*
D45*
X186100Y158750D02*
D03*
X165100D02*
D03*
X391160Y105410D02*
D03*
X370160D02*
D03*
X433750D02*
D03*
X412750D02*
D03*
X333416Y458470D02*
D03*
X354416D02*
D03*
D46*
X363780Y134620D02*
D03*
X433780D02*
D03*
D47*
X423750Y48820D02*
D03*
X430250D02*
D03*
X436750D02*
D03*
X443250D02*
D03*
X449750D02*
D03*
D48*
X397250Y15240D02*
D03*
X476250D02*
D03*
D49*
X125730Y88340D02*
D03*
Y18340D02*
D03*
D50*
X137261Y177808D02*
D03*
Y191308D02*
D03*
X137296Y218258D02*
D03*
Y204758D02*
D03*
D51*
X164893Y176964D02*
D03*
X164893Y218964D02*
D03*
D52*
X250630Y223380D02*
D03*
X255630D02*
D03*
X260630D02*
D03*
X265630D02*
D03*
X270630Y223380D02*
D03*
X275630D02*
D03*
X280630D02*
D03*
X285630Y223380D02*
D03*
X290630D02*
D03*
X295630D02*
D03*
X300630D02*
D03*
X305630D02*
D03*
Y142380D02*
D03*
X300630D02*
D03*
X295630D02*
D03*
X290630D02*
D03*
X285630D02*
D03*
X280630Y142380D02*
D03*
X275630D02*
D03*
X270630D02*
D03*
X265630Y142380D02*
D03*
X260630D02*
D03*
X255630D02*
D03*
X250630D02*
D03*
D53*
X318630Y210380D02*
D03*
Y205380D02*
D03*
Y200380D02*
D03*
Y195380D02*
D03*
Y190380D02*
D03*
Y185380D02*
D03*
Y180380D02*
D03*
Y175380D02*
D03*
Y170380D02*
D03*
Y165380D02*
D03*
Y160380D02*
D03*
Y155380D02*
D03*
X237630D02*
D03*
Y160380D02*
D03*
Y165380D02*
D03*
Y170380D02*
D03*
Y175380D02*
D03*
Y180380D02*
D03*
Y185380D02*
D03*
Y190380D02*
D03*
Y195380D02*
D03*
Y200380D02*
D03*
Y205380D02*
D03*
Y210380D02*
D03*
D54*
X358140Y421640D02*
D03*
X330140D02*
D03*
D55*
X387350Y452010D02*
D03*
Y473010D02*
D03*
X16510Y580050D02*
D03*
Y601050D02*
D03*
X441537Y427060D02*
D03*
Y406060D02*
D03*
X414443Y427060D02*
D03*
Y406060D02*
D03*
X67310Y580050D02*
D03*
Y601050D02*
D03*
X421640Y570824D02*
D03*
Y549824D02*
D03*
X424180Y621620D02*
D03*
Y642620D02*
D03*
X33655Y676370D02*
D03*
Y655370D02*
D03*
X52070Y676370D02*
D03*
Y655370D02*
D03*
X387350Y425560D02*
D03*
Y404560D02*
D03*
X41910Y601050D02*
D03*
Y580050D02*
D03*
X468630Y406060D02*
D03*
Y427060D02*
D03*
X15240Y676370D02*
D03*
Y655370D02*
D03*
X427990Y450994D02*
D03*
Y471994D02*
D03*
X407670Y450994D02*
D03*
Y471994D02*
D03*
X448310Y452010D02*
D03*
Y473010D02*
D03*
X421640Y508676D02*
D03*
Y529676D02*
D03*
X156210Y82660D02*
D03*
Y61660D02*
D03*
Y42504D02*
D03*
Y21504D02*
D03*
X468630Y449630D02*
D03*
Y470630D02*
D03*
D56*
X203200Y583190D02*
D03*
Y552190D02*
D03*
X269240Y642880D02*
D03*
Y611880D02*
D03*
D57*
X166630Y403860D02*
D03*
X135630D02*
D03*
X159010Y537210D02*
D03*
X128010D02*
D03*
D58*
X203200Y368830D02*
D03*
Y339830D02*
D03*
X87630Y367560D02*
D03*
Y338560D02*
D03*
X203200Y503450D02*
D03*
Y474450D02*
D03*
X77470Y500910D02*
D03*
Y471910D02*
D03*
D59*
X224790Y374680D02*
D03*
Y346680D02*
D03*
X110490Y339060D02*
D03*
Y367060D02*
D03*
X227330Y505490D02*
D03*
Y477490D02*
D03*
X101600Y476220D02*
D03*
Y504220D02*
D03*
D60*
X175400Y498130D02*
D03*
X152400D02*
D03*
X129400D02*
D03*
X179210Y373670D02*
D03*
X156210D02*
D03*
X133210D02*
D03*
D61*
X152400Y439130D02*
D03*
X156210Y314670D02*
D03*
D62*
X386330Y612836D02*
D03*
X378330D02*
D03*
X330330D02*
D03*
X322330D02*
D03*
D63*
X356830D02*
D03*
X361830D02*
D03*
X366830D02*
D03*
X351830D02*
D03*
X346830D02*
D03*
X336830D02*
D03*
D64*
X367400Y538480D02*
D03*
Y525780D02*
D03*
Y551180D02*
D03*
Y500380D02*
D03*
Y513080D02*
D03*
Y576580D02*
D03*
Y563880D02*
D03*
Y487680D02*
D03*
X318400Y513080D02*
D03*
Y525780D02*
D03*
Y563880D02*
D03*
Y576580D02*
D03*
Y538480D02*
D03*
Y551180D02*
D03*
Y487680D02*
D03*
Y500380D02*
D03*
D65*
X458470Y638810D02*
D03*
Y553810D02*
D03*
D66*
X320040Y62230D02*
D03*
D67*
X320040Y36830D02*
D03*
X294640Y62230D02*
D03*
Y36830D02*
D03*
X269240Y62230D02*
D03*
Y36830D02*
D03*
X243840Y62230D02*
D03*
Y36830D02*
D03*
X218440Y62230D02*
D03*
X218440Y36830D02*
D03*
D68*
X26670Y547370D02*
D03*
X509270Y534670D02*
D03*
X77470Y26670D02*
D03*
X356870D02*
D03*
D69*
X26670Y407670D02*
D03*
Y382270D02*
D03*
Y356870D02*
D03*
Y331470D02*
D03*
Y306070D02*
D03*
Y280670D02*
D03*
Y255270D02*
D03*
Y229870D02*
D03*
Y179070D02*
D03*
Y153670D02*
D03*
Y128270D02*
D03*
Y102870D02*
D03*
Y77470D02*
D03*
Y52070D02*
D03*
X509270Y270510D02*
D03*
Y295910D02*
D03*
Y321310D02*
D03*
Y346710D02*
D03*
Y372110D02*
D03*
Y397510D02*
D03*
Y422910D02*
D03*
Y448310D02*
D03*
Y473710D02*
D03*
Y499110D02*
D03*
Y52070D02*
D03*
Y77470D02*
D03*
Y102870D02*
D03*
Y128270D02*
D03*
Y153670D02*
D03*
Y179070D02*
D03*
Y204470D02*
D03*
Y229870D02*
D03*
D70*
X261620Y430530D02*
D03*
Y379730D02*
D03*
D71*
Y405130D02*
D03*
D72*
X311080Y665480D02*
D03*
X397580D02*
D03*
D73*
X311080Y623780D02*
D03*
X397580D02*
D03*
D74*
X325430Y628680D02*
D03*
X383230D02*
D03*
M02*
