G04*
G04 #@! TF.GenerationSoftware,Altium Limited,Altium Designer,24.2.2 (26)*
G04*
G04 Layer_Color=8421504*
%FSLAX44Y44*%
%MOMM*%
G71*
G04*
G04 #@! TF.SameCoordinates,4540F394-007A-4255-9B34-8FA5F3C486F6*
G04*
G04*
G04 #@! TF.FilePolarity,Positive*
G04*
G01*
G75*
%ADD20R,0.9000X1.0000*%
G04:AMPARAMS|DCode=21|XSize=1.6mm|YSize=1.6mm|CornerRadius=0.4mm|HoleSize=0mm|Usage=FLASHONLY|Rotation=0.000|XOffset=0mm|YOffset=0mm|HoleType=Round|Shape=RoundedRectangle|*
%AMROUNDEDRECTD21*
21,1,1.6000,0.8000,0,0,0.0*
21,1,0.8000,1.6000,0,0,0.0*
1,1,0.8000,0.4000,-0.4000*
1,1,0.8000,-0.4000,-0.4000*
1,1,0.8000,-0.4000,0.4000*
1,1,0.8000,0.4000,0.4000*
%
%ADD21ROUNDEDRECTD21*%
%ADD22R,1.2000X1.2000*%
%ADD23O,2.2000X1.6000*%
%ADD24R,0.4000X1.3500*%
%ADD25R,1.9000X1.9000*%
%ADD26O,1.6000X2.2000*%
%ADD27R,1.0000X0.9000*%
G04:AMPARAMS|DCode=28|XSize=1.6mm|YSize=2.4mm|CornerRadius=0.4mm|HoleSize=0mm|Usage=FLASHONLY|Rotation=270.000|XOffset=0mm|YOffset=0mm|HoleType=Round|Shape=RoundedRectangle|*
%AMROUNDEDRECTD28*
21,1,1.6000,1.6000,0,0,270.0*
21,1,0.8000,2.4000,0,0,270.0*
1,1,0.8000,-0.8000,-0.4000*
1,1,0.8000,-0.8000,0.4000*
1,1,0.8000,0.8000,0.4000*
1,1,0.8000,0.8000,-0.4000*
%
%ADD28ROUNDEDRECTD28*%
%ADD29O,0.3000X1.8000*%
%ADD30O,1.8000X0.3000*%
%ADD31R,2.0000X1.2000*%
%ADD32R,1.2000X1.2000*%
%ADD33R,1.9000X1.5000*%
%ADD34R,1.5000X1.9000*%
%ADD35R,1.8000X1.3000*%
%ADD36R,1.2000X2.0000*%
%ADD37R,1.0000X2.7000*%
%ADD38R,3.3000X2.7000*%
%ADD39R,0.6000X1.8000*%
%ADD40R,0.3000X1.8000*%
%ADD41O,2.5000X0.7000*%
%ADD42R,1.5000X4.5000*%
D20*
X201930Y267970D02*
D03*
X188430D02*
D03*
X215500D02*
D03*
X229000D02*
D03*
D21*
X193010Y246380D02*
D03*
X221010Y246380D02*
D03*
D22*
X186100Y158750D02*
D03*
X165100D02*
D03*
X391160Y105410D02*
D03*
X370160D02*
D03*
X433750D02*
D03*
X412750D02*
D03*
X333416Y458470D02*
D03*
X354416D02*
D03*
D23*
X363780Y134620D02*
D03*
X433780D02*
D03*
D24*
X423750Y48820D02*
D03*
X430250D02*
D03*
X436750D02*
D03*
X443250D02*
D03*
X449750D02*
D03*
D25*
X397250Y15240D02*
D03*
X476250D02*
D03*
D26*
X125730Y88340D02*
D03*
Y18340D02*
D03*
D27*
X137261Y177808D02*
D03*
Y191308D02*
D03*
X137296Y218258D02*
D03*
Y204758D02*
D03*
D28*
X164893Y176964D02*
D03*
X164893Y218964D02*
D03*
D29*
X250630Y223380D02*
D03*
X255630D02*
D03*
X260630D02*
D03*
X265630D02*
D03*
X270630Y223380D02*
D03*
X275630D02*
D03*
X280630D02*
D03*
X285630Y223380D02*
D03*
X290630D02*
D03*
X295630D02*
D03*
X300630D02*
D03*
X305630D02*
D03*
Y142380D02*
D03*
X300630D02*
D03*
X295630D02*
D03*
X290630D02*
D03*
X285630D02*
D03*
X280630Y142380D02*
D03*
X275630D02*
D03*
X270630D02*
D03*
X265630Y142380D02*
D03*
X260630D02*
D03*
X255630D02*
D03*
X250630D02*
D03*
D30*
X318630Y210380D02*
D03*
Y205380D02*
D03*
Y200380D02*
D03*
Y195380D02*
D03*
Y190380D02*
D03*
Y185380D02*
D03*
Y180380D02*
D03*
Y175380D02*
D03*
Y170380D02*
D03*
Y165380D02*
D03*
Y160380D02*
D03*
Y155380D02*
D03*
X237630D02*
D03*
Y160380D02*
D03*
Y165380D02*
D03*
Y170380D02*
D03*
Y175380D02*
D03*
Y180380D02*
D03*
Y185380D02*
D03*
Y190380D02*
D03*
Y195380D02*
D03*
Y200380D02*
D03*
Y205380D02*
D03*
Y210380D02*
D03*
D31*
X358140Y421640D02*
D03*
X330140D02*
D03*
D32*
X387350Y452010D02*
D03*
Y473010D02*
D03*
X16510Y580050D02*
D03*
Y601050D02*
D03*
X441537Y427060D02*
D03*
Y406060D02*
D03*
X414443Y427060D02*
D03*
Y406060D02*
D03*
X67310Y580050D02*
D03*
Y601050D02*
D03*
X421640Y570824D02*
D03*
Y549824D02*
D03*
X424180Y621620D02*
D03*
Y642620D02*
D03*
X33655Y676370D02*
D03*
Y655370D02*
D03*
X52070Y676370D02*
D03*
Y655370D02*
D03*
X387350Y425560D02*
D03*
Y404560D02*
D03*
X41910Y601050D02*
D03*
Y580050D02*
D03*
X468630Y406060D02*
D03*
Y427060D02*
D03*
X15240Y676370D02*
D03*
Y655370D02*
D03*
X427990Y450994D02*
D03*
Y471994D02*
D03*
X407670Y450994D02*
D03*
Y471994D02*
D03*
X448310Y452010D02*
D03*
Y473010D02*
D03*
X421640Y508676D02*
D03*
Y529676D02*
D03*
X156210Y82660D02*
D03*
Y61660D02*
D03*
Y42504D02*
D03*
Y21504D02*
D03*
X468630Y449630D02*
D03*
Y470630D02*
D03*
D33*
X203200Y583190D02*
D03*
Y552190D02*
D03*
X269240Y642880D02*
D03*
Y611880D02*
D03*
D34*
X166630Y403860D02*
D03*
X135630D02*
D03*
X159010Y537210D02*
D03*
X128010D02*
D03*
D35*
X203200Y368830D02*
D03*
Y339830D02*
D03*
X87630Y367560D02*
D03*
Y338560D02*
D03*
X203200Y503450D02*
D03*
Y474450D02*
D03*
X77470Y500910D02*
D03*
Y471910D02*
D03*
D36*
X224790Y374680D02*
D03*
Y346680D02*
D03*
X110490Y339060D02*
D03*
Y367060D02*
D03*
X227330Y505490D02*
D03*
Y477490D02*
D03*
X101600Y476220D02*
D03*
Y504220D02*
D03*
D37*
X175400Y498130D02*
D03*
X152400D02*
D03*
X129400D02*
D03*
X179210Y373670D02*
D03*
X156210D02*
D03*
X133210D02*
D03*
D38*
X152400Y439130D02*
D03*
X156210Y314670D02*
D03*
D39*
X386330Y612836D02*
D03*
X378330D02*
D03*
X330330D02*
D03*
X322330D02*
D03*
D40*
X356830D02*
D03*
X361830D02*
D03*
X366830D02*
D03*
X351830D02*
D03*
X346830D02*
D03*
X336830D02*
D03*
D41*
X367400Y538480D02*
D03*
Y525780D02*
D03*
Y551180D02*
D03*
Y500380D02*
D03*
Y513080D02*
D03*
Y576580D02*
D03*
Y563880D02*
D03*
Y487680D02*
D03*
X318400Y513080D02*
D03*
Y525780D02*
D03*
Y563880D02*
D03*
Y576580D02*
D03*
Y538480D02*
D03*
Y551180D02*
D03*
Y487680D02*
D03*
Y500380D02*
D03*
D42*
X458470Y638810D02*
D03*
Y553810D02*
D03*
M02*
