M48
;Layer_Color=9474304
;FILE_FORMAT=4:4
METRIC,LZ
;TYPE=PLATED
T01F00S00C0.4000
T02F00S00C0.5000
T03F00S00C0.6000
T05F00S00C0.8000
T06F00S00C1.0000
T08F00S00C1.1000
T09F00S00C3.2004
;TYPE=NON_PLATED
T10F00S00C0.6000
%
T01
X0015621Y0009652
X003175Y0011049
X0033274
X00317Y0012969
X0034798Y0011049
X0040132Y0013462
X00460725Y00140403
X0044069Y0002732
X0042672
X0037338Y0004953
X0039751Y0018669
X0040513Y0019493
X0041783Y0020193
X0044639Y0019431
Y00180975
Y0016764
X0034671Y0020238
X0036195Y0028702
Y0029972
X0038481Y0030988
X00394335
X0040386
Y0032131
X00394335
X0038481
X00422275
X004318
X00441325
Y0030988
X004318
X00422275
X0031877Y00247
X0029591
X003175Y0022098
X0033782Y0021082
X0026035Y00206222
Y0019685
X0025273Y0015748
X0030099Y0016002
X00212664Y00172806
X00240224Y00227136
X0020532Y00300307
X0010795Y0020193
X0005207Y0053721
X0000727Y0056515
X0035941Y00591157
X0035433Y0063881
T02
X00417941Y00066
X00457941
X00477941
X00487941Y00046
X00467941
X00457941Y00106
Y00226
X00437941
X00417941
X00397941
X00427941Y00246
X00447941
X00437941Y00346
X00417941
X00397941
X00407941Y00366
X00427941
X00437941Y00386
X00387941Y00366
X00487941Y00446
Y00526
X00347941
X00367941Y00206
X00147941Y00166
X00127941
X00107941
X00087941
X00097941Y00186
X00117941
X00077941
X00087941Y00206
X00067941
X00047941
X00027941
X00047941Y00246
X00067941
X00087941
X00097941Y00266
X00117941
X00137941
X00157941
X00167941Y00286
X00147941
X00137941Y00346
X00067941Y00366
Y00406
X00087941
X00097941Y00426
X00117941
X00127941Y00446
X00107941
X00087941
X00077941Y00426
X00117941Y00466
X00137941
X00177941Y00426
X00197941Y00386
X00247941Y00486
X00287941
X00297941Y00506
X00287941Y00526
X00247941
X00227941
X00207941
X00187941
X00087941
X00067941
X00057941Y00506
X00037941
X00047941Y00486
X00027941
X00067941Y00286
X00077941Y00266
X00057941
X00067941Y00646001
X00087941
X00107941
X00117941Y00626001
X00127941Y00606001
X00147941
X00167941
X00187941
X00207941
X00227941
X00247941
X00237941Y00626001
X00217941
X00197941
X00177941
X00187941Y00646001
X00247941
X00257941Y00666001
X00277941
X00297941
Y00626001
X00307941Y00606001
X00287941
X00097941Y00666001
X00077941
X00387941Y00646001
X00407941
X00417941Y00666001
X00437941
X00477941
X00497941
X00517941
X00527941Y00646001
X00507941
X00487941
X00497941Y00626001
X00517941
X00527941Y00606001
X00507941
X00487941
X00467941
X00447941
X00457941Y00586001
X00477941
X00497941
X00517941
X00527941Y00566
X00507941
X00487941
X00477941Y00546
X00437941
Y00586001
X00407941Y00606001
X00397941Y00546
X00477941Y00626001
T03
X0010033Y002921
Y0030353
X0011303
Y002921
X0012446
Y0030353
X0005842Y0034925
Y0037592
Y0038862
X0008001
X0007366Y0043688
Y0045212
X00056727
Y0043688
X00039793
Y0045212
Y0046736
X00056727
X0002286
Y0045212
Y0043688
X0019177Y0040513
X0020701
X0022225
X0023749
X0023876Y0037211
X0024384Y003556
Y003429
X00257175
Y003556
X0027051
Y003429
X00283845
Y003556
X0029718
Y003429
Y0059309
X0030988
X0032258
X0033528
X0023622
Y00613727
Y00639445
Y00657542
Y0067564
X002159
X0019812
Y00657542
X002159
Y00639445
X0019812
X001778Y0067564
X0015748
Y00657542
X00135255
Y0067564
X001143
Y00657542
X0011684Y0055626
X0013843
X0016002
X0018161
Y00543103
T05
X0041675Y0003674
X0045675
T06
X0002667Y0005207
Y0007747
Y0010287
Y0012827
X0050927
Y0010287
Y0007747
Y0005207
Y0015367
Y0017907
Y0020447
Y0022987
Y0027051
Y0029591
Y0032131
Y0034671
Y0037211
Y0039751
Y0042291
Y0044831
Y0047371
Y0049911
X0002667Y0040767
Y0038227
Y0035687
Y0033147
Y0030607
Y0028067
Y0025527
Y0022987
Y0017907
Y0015367
T08
X0021844Y0003683
X0024384
Y0006223
X0026924Y0006223
Y0003683
X0029464
Y0006223
X0032004
X0032004Y0003683
X0021844Y0006223
X0026162Y0037973
Y0040513
Y0043053
T09
X0007747Y0002667
X0035687
X0050927Y0053467
X0002667Y0054737
T10
X0032543Y0062868
X0038323
M30
